<?xml version="1.0" encoding="utf-8"?>
<!-- Generator: Adobe Illustrator 15.0.0, SVG Export Plug-In . SVG Version: 6.00 Build 0)  -->
<!DOCTYPE svg PUBLIC "-//W3C//DTD SVG 1.1//EN" "http://www.w3.org/Graphics/SVG/1.1/DTD/svg11.dtd">
<svg version="1.1" id="Layer_1" xmlns="http://www.w3.org/2000/svg" xmlns:xlink="http://www.w3.org/1999/xlink" x="0px" y="0px"
	 width="1224px" height="584px" viewBox="0 0 1224 584" enable-background="new 0 0 1224 584" xml:space="preserve">
<rect y="-1" opacity="0.9" fill="#FFFFFF" width="1224" height="585"/>
<g opacity="0.6">
	<path fill="#CCCCCC" d="M782.539,163.898l-1.108-3.24l-0.555-1.621c-0.073-0.217-7.856-23.456-6.128-40.614
		c2.503-24.853-13.162-53.905-14.957-57.136l-4.765-8.575l-9.527-17.149l-8.355,17.75l-4.134,8.782
		c-0.295,0.57-4.956,9.301-16.053,16.291c-10.078,6.349-16.981,13.755-21.302,19.436l-39.625-4.369l-3.061-0.337l-2.724,1.434
		l-32.245,16.976l-31.415-16.932l-2.757-1.486l-3.114,0.343l-39.439,4.348c-5.529-7.921-14.318-17.923-25.689-22.456
		c-6.033-2.405-10.363-9.811-11.557-12.53l-3.151-7.712l-6.379-15.611l-10.698,13.037l-5.348,6.518
		c-2.164,2.636-21.021,26.727-16.414,59.941c2.946,21.24-4.746,36.879-5.188,37.753l-1.015,1.838l-2.145,3.885l1.425,4.202
		l18.208,53.676l-13.518,18.629l-4.085,5.63l3.828,5.807l1.913,2.902c1.047,1.587,10.657,15.722,26.014,23.913
		c2.561,1.366,5.25,2.575,8.053,3.621l-24.815,38.599l-13.422,20.878l24.167-5.653l36.67-8.577l45.408,13.609l-13.276,12.819
		l20.598,2.76l27.909,3.738l15.239,7.336l4.377,2.107l4.371-2.12l14.902-7.23l28.201-3.862l20.513-2.81l-13.192-12.738
		l45.409-13.609l36.671,8.577l24.167,5.653l-13.422-20.878l-25.354-39.436c2.109-0.808,4.264-1.698,6.459-2.669
		c20.918-9.257,28.423-24.248,29.21-25.927l1.259-2.688l2.515-5.369l-3.482-4.799l-13.217-18.213l18.044-53.198L782.539,163.898z
		 M622.952,182.554v-51.143l33.502-17.637l49.348,5.441l1.537-3.226c0.055-0.115,5.649-11.615,19.9-20.593
		c8.671-5.462,14.596-11.742,18.327-16.599c4.136,9.224,10.018,24.966,8.744,37.609c-1.901,18.88,4.588,41.233,6.567,47.484
		l-20.297,59.839l15.62,21.526c-2.333,3.289-7.64,9.259-17.66,13.691c-14.564,6.445-21.923,6.52-22.181,6.521l-9.616-0.354
		l28.492,44.319l-85.938-20.103l73.748-36.839v-12.642v-58.326l2.118-1.978l7.954-14.271l-8.781-4.894l-7.187,12.895l-11.092,10.358
		l6.861,7.347l0.073-0.068v48.938v6.427l-95.068,47.489l-95.069-47.489v-6.427v-48.939l0.075,0.07l6.86-7.348l-11.093-10.357
		l-7.183-12.894l-8.782,4.892l7.951,14.272l2.119,1.979v58.325v12.642l73.749,36.839l-85.937,20.103l28.256-43.969l-9.206-0.001
		c-0.12,0-12.074-0.07-23.162-5.984c-7.71-4.112-13.694-10.78-16.652-14.503l15.419-21.248l-20.167-59.453
		c2.748-5.946,9.748-24.031,6.416-48.054c-2.265-16.33,3.502-30.202,7.817-37.911c3.634,5.407,9.648,12.229,18.371,15.707
		c11.706,4.666,20.79,21.947,20.877,22.117l1.585,3.066l49.201-5.424l33.528,18.07v50.706H622.952z M642.185,338.136l-8.839,1.211
		l-3.618-6.428l-5.229,2.943l4.123,7.324l-10.701,5.192l-10.99-5.29l4.162-7.201l-5.195-3.002l-3.678,6.365l-8.525-1.143
		l10.948-10.571l13.284,3.981l13.283-3.981L642.185,338.136z M617.926,305.005l17.297-8.641l6.945,1.625l-24.242,7.266
		l-24.243-7.266l6.945-1.625L617.926,305.005z M617.926,311.519l35.98-10.784l7.002,1.639l-42.982,12.882l-42.982-12.882
		l7.002-1.639L617.926,311.519z M617.926,321.519l54.72-16.4l7.002,1.638l-61.722,18.499l-61.722-18.499l7.002-1.638
		L617.926,321.519z M642.253,324.228l49.132-14.726l6.785,1.587l-53.055,15.901L642.253,324.228z M544.467,309.502l49.131,14.725
		l-2.861,2.764l-53.055-15.901L544.467,309.502z"/>
	<polygon fill="#FFFFFF" points="593.598,324.227 544.467,309.502 537.682,311.089 590.736,326.99 	"/>
	<polygon fill="#FFFFFF" points="691.385,309.502 642.253,324.228 645.115,326.99 698.17,311.089 	"/>
	<polygon fill="#FFFFFF" points="631.209,327.537 617.926,331.519 604.642,327.537 593.694,338.108 602.219,339.251 
		605.897,332.886 611.093,335.888 606.931,343.089 617.921,348.379 628.622,343.187 624.499,335.862 629.728,332.919 
		633.346,339.347 642.185,338.136 	"/>
	<polygon fill="#FFFFFF" points="617.926,325.255 679.647,306.756 672.646,305.118 617.926,321.519 563.206,305.118 
		556.204,306.756 	"/>
	<polygon fill="#FFFFFF" points="617.926,315.255 660.908,302.373 653.906,300.734 617.926,311.519 581.945,300.734 
		574.943,302.373 	"/>
	<polygon fill="#FFFFFF" points="617.926,305.255 642.168,297.989 635.223,296.364 617.926,305.005 600.628,296.364 
		593.683,297.989 	"/>
	<path fill="#FFFFFF" d="M579.371,113.778l-49.201,5.424l-1.585-3.066c-0.088-0.17-9.172-17.451-20.877-22.117
		c-8.723-3.477-14.737-10.299-18.371-15.707c-4.315,7.709-10.082,21.582-7.817,37.911c3.333,24.023-3.668,42.108-6.416,48.054
		l20.167,59.453l-15.419,21.248c2.958,3.723,8.942,10.391,16.652,14.503c11.088,5.914,23.042,5.984,23.162,5.984l9.206,0.001
		l-28.256,43.969l85.937-20.103l-73.749-36.839v-12.642v-58.325l-2.119-1.979l-7.951-14.272l8.782-4.892l7.183,12.894l11.093,10.357
		l-6.86,7.348l-0.075-0.07v48.939v6.427l95.069,47.489l95.068-47.489v-6.427v-48.938l-0.073,0.068l-6.861-7.347l11.092-10.358
		l7.187-12.895l8.781,4.894l-7.954,14.271l-2.118,1.978v58.326v12.642l-73.748,36.839l85.938,20.103l-28.492-44.319l9.616,0.354
		c0.258-0.002,7.616-0.076,22.181-6.521c10.021-4.433,15.327-10.402,17.66-13.691l-15.62-21.526l20.297-59.839
		c-1.979-6.251-8.469-28.604-6.567-47.484c1.273-12.643-4.608-28.385-8.744-37.609c-3.731,4.856-9.656,11.137-18.327,16.599
		c-14.251,8.978-19.846,20.478-19.9,20.593l-1.537,3.226l-49.348-5.441l-33.502,17.637v51.143h-10.053v-50.706L579.371,113.778z
		 M566.763,147.395l10.463,26.109l16.16,15.092l-6.861,7.347l-17.796-16.621l-11.296-28.188L566.763,147.395z M535.423,179.323
		l-11.296-28.188l9.331-3.739l10.463,26.109l16.16,15.092l-6.861,7.347L535.423,179.323z M571.414,219.614l-0.169,10.86
		l-10.052-0.156l0.454-29.14l38.111,25.016l-5.517,8.404l-2.632-1.728v8.785h-12.971v-12.971h6.595L571.414,219.614z
		 M635.595,274.845l-5.208-7.422h-27.555l-5.208,7.422l-8.229-5.775l8.21-11.699h38.008l8.21,11.699L635.595,274.845z
		 M628.817,251.083l-12.115,4.699l-12.277-4.69l3.588-9.391l8.662,3.31l8.508-3.301L628.817,251.083z M672.025,230.318
		l-10.051,0.156l-0.17-10.86l-13.819,9.071h6.595v12.971h-12.971v-8.786l-2.633,1.729l-5.516-8.404l38.111-25.016L672.025,230.318z
		 M702.394,147.395l9.331,3.739l-11.296,28.188l-17.796,16.621l-6.862-7.347l16.16-15.092L702.394,147.395z M658.626,173.504
		l10.463-26.109l9.331,3.739l-11.296,28.188l-17.796,16.621l-6.862-7.347L658.626,173.504z"/>
	<polygon fill="#CCCCCC" points="675.771,188.597 682.633,195.943 700.429,179.323 711.725,151.134 702.394,147.395 
		691.931,173.504 	"/>
	<polygon fill="#CCCCCC" points="642.466,188.597 649.328,195.943 667.124,179.323 678.42,151.134 669.089,147.395 658.626,173.504 
			"/>
	<polygon fill="#CCCCCC" points="560.081,188.597 543.921,173.504 533.458,147.395 524.127,151.134 535.423,179.323 
		553.219,195.943 	"/>
	<polygon fill="#CCCCCC" points="586.524,195.943 593.385,188.597 577.226,173.504 566.763,147.395 557.432,151.134 
		568.728,179.323 	"/>
	<polygon fill="#CCCCCC" points="597.605,257.37 589.396,269.069 597.624,274.845 602.832,267.423 630.387,267.423 635.595,274.845 
		643.823,269.069 635.613,257.37 	"/>
	<polygon fill="#CCCCCC" points="616.675,245.011 608.013,241.701 604.425,251.092 616.702,255.782 628.817,251.083 625.183,241.71 
			"/>
	<polygon fill="#CCCCCC" points="578.639,241.656 591.609,241.656 591.609,232.871 594.242,234.599 599.758,226.194 
		561.647,201.179 561.193,230.318 571.245,230.475 571.414,219.614 585.233,228.686 578.639,228.686 	"/>
	<polygon fill="#CCCCCC" points="633.461,226.194 638.977,234.599 641.609,232.87 641.609,241.656 654.58,241.656 654.58,228.686 
		647.985,228.686 661.805,219.614 661.975,230.475 672.025,230.318 671.572,201.179 	"/>
</g>
<text transform="matrix(1 0 0 1 551.2031 72)"><tspan x="0" y="0" font-family="'Neutraface2Text-Bold'" font-size="26" letter-spacing="1">Hello. I’m a</tspan><tspan x="-78.675" y="66" font-family="'Neutraface2Text-Bold'" font-size="26" letter-spacing="1">super simple storefront</tspan><tspan x="-96.173" y="132" font-family="'Neutraface2Text-Bold'" font-size="26" letter-spacing="1">built in reactjs and nodejs.</tspan><tspan x="-60.748" y="198" font-family="'Neutraface2Text-Bold'" font-size="26" letter-spacing="1">They call me Ludwig.</tspan></text>
</svg>
