<?xml version="1.0" encoding="utf-8"?>
<!-- Generator: Adobe Illustrator 15.0.0, SVG Export Plug-In . SVG Version: 6.00 Build 0)  -->
<!DOCTYPE svg PUBLIC "-//W3C//DTD SVG 1.1//EN" "http://www.w3.org/Graphics/SVG/1.1/DTD/svg11.dtd">
<svg version="1.1" id="Layer_1" xmlns="http://www.w3.org/2000/svg" xmlns:xlink="http://www.w3.org/1999/xlink" x="0px" y="0px"
	 width="1224px" height="584px" viewBox="0 0 1224 584" enable-background="new 0 0 1224 584" xml:space="preserve">
<g>
	<g>
		<g>
			<path d="M610.444,342.431c-38.156,0-74.123-13.082-101.274-36.835c-24.588-21.515-39.634-50.032-42.483-80.446
				c-3.667-5.255-4.294-12.142-1.525-17.999c0.401-0.847,0.878-1.671,1.426-2.465c2.57-30.888,17.651-59.831,42.582-81.642
				c6.819-5.966,14.287-11.324,22.24-15.961c-1.139-8.375,2.161-15.653,9.382-20.357c2.115-1.378,4.959-2.186,8.646-2.448
				c-1.51-17.701-0.359-30.664,3.434-38.581c10.218-21.326,43.352-23.628,57.123-23.628c19.309,0,50.498,6.389,57.282,23.992
				c4.407,11.436,1.946,24.049-0.031,34.185c-0.434,2.226-0.854,4.384-1.145,6.293c0.984-0.187,1.893-0.364,2.721-0.53
				c1.919-0.384,3.721-0.579,5.356-0.579c6.297,0,9.534,2.834,11.143,5.212c2.456,3.633,2.843,8.676,1.167,14.744
				c9.09,5.018,17.563,10.946,25.236,17.659c24.37,21.321,39.38,49.544,42.41,79.657c1.215,1.322,2.218,2.812,2.992,4.449
				c3.18,6.725,1.861,14.645-3.126,19.976c-3.296,29.654-18.258,57.456-42.276,78.471
				C684.573,329.349,648.604,342.431,610.444,342.431z"/>
			<path d="M609.995,27.094c18.229,0,46.908,6.025,52.592,20.773c5.684,14.747-1.877,33.221-1.896,42.697
				c0,0.712,0.012,1.397,0.031,2.068c3.445-0.612,6.547-1.187,9.088-1.696c1.636-0.328,3.087-0.481,4.369-0.481
				c9.587,0,9.697,8.594,6.18,17.357c10.107,5.199,19.535,11.559,28.057,19.014c24.107,21.091,38.404,48.568,40.885,78.182
				c1.344,1.15,2.479,2.59,3.283,4.291c2.576,5.447,1.016,11.773-3.393,15.473c-2.75,29.176-16.979,56.221-40.775,77.041
				c-26.234,22.951-61.027,35.592-97.971,35.592c-36.939,0-71.73-12.641-97.965-35.592c-24.207-21.182-38.52-48.801-40.912-78.557
				c-3.205-3.766-4.111-9.197-1.861-13.957c0.482-1.018,1.092-1.934,1.781-2.762c2.111-30.193,16.471-58.257,40.992-79.711
				c7.545-6.601,15.799-12.343,24.607-17.183c-1.82-6.254-1.262-13.684,6.449-18.707c1.876-1.223,4.939-1.729,8.729-1.729
				c0.869,0,1.775,0.026,2.715,0.077c-1.475-13.405-2.277-31.601,2.426-41.418C565.442,31.093,591.769,27.094,609.995,27.094
				 M609.995,17.042c-14.723,0-50.204,2.581-61.656,26.482c-3.816,7.967-5.24,20.206-4.251,36.468
				c-2.312,0.553-4.298,1.388-6.04,2.522c-7.854,5.117-12.01,12.955-11.873,21.84c-7.222,4.415-14.034,9.412-20.315,14.907
				c-25.581,22.381-41.191,52.025-44.169,83.747c-0.392,0.648-0.749,1.311-1.068,1.985c-3.346,7.078-2.824,15.319,1.183,21.873
				c3.258,31.231,18.828,60.439,44.054,82.513c28.069,24.556,65.211,38.079,104.585,38.079c39.378,0,76.521-13.523,104.59-38.078
				c12.752-11.157,23.03-24.029,30.549-38.257c6.979-13.207,11.424-27.279,13.231-41.881c5.428-6.765,6.671-16.175,2.856-24.24
				c-0.741-1.566-1.645-3.026-2.702-4.371c-1.681-14.832-6.077-29.134-13.091-42.562c-7.544-14.445-17.921-27.501-30.844-38.807
				c-7.018-6.14-14.681-11.644-22.855-16.423c0.929-5.886,0.03-10.983-2.694-15.012c-1.874-2.772-6.354-7.423-15.306-7.423
				c-0.604,0-1.222,0.021-1.854,0.064c1.972-10.129,4.452-23.736-0.357-36.215C663.672,22.729,627.803,17.042,609.995,17.042
				L609.995,17.042z"/>
		</g>
	</g>
	<g>
		<g>
			<g>
				<path fill="#FFFFFF" d="M610.444,332.378c-74.005,0-134.212-52.96-134.212-118.058c0-65.099,60.207-118.061,134.212-118.061
					c74.009,0,134.22,52.962,134.22,118.061C744.664,279.418,684.453,332.378,610.444,332.378z"/>
				<path d="M610.444,101.286c71.348,0,129.193,50.604,129.193,113.034c0,62.428-57.846,113.031-129.193,113.031
					c-71.34,0-129.186-50.604-129.186-113.031C481.259,151.891,539.104,101.286,610.444,101.286 M610.444,91.233
					c-36.94,0-71.731,12.641-97.965,35.593c-26.615,23.287-41.273,54.359-41.273,87.494c0,33.134,14.658,64.205,41.274,87.492
					c26.233,22.951,61.024,35.592,97.964,35.592c36.943,0,71.736-12.641,97.972-35.592c26.616-23.286,41.274-54.358,41.274-87.492
					c0-33.135-14.658-64.208-41.274-87.494C682.181,103.874,647.388,91.233,610.444,91.233L610.444,91.233z"/>
			</g>
			<g>
				<path fill="#FFFFFF" stroke="#000000" stroke-width="10.0527" stroke-linecap="round" stroke-miterlimit="10" d="
					M627.911,305.096c-5.168,2.947-11.154,4.631-17.529,4.631c-6.322,0-12.258-1.656-17.396-4.557"/>
				<g>
					<path fill="#FFFFFF" stroke="#000000" stroke-width="10.0527" stroke-linecap="round" stroke-miterlimit="10" d="
						M637.966,312.898c-2.842-2.291-5.373-5.064-7.469-8.291c-1.965-3.025-3.408-6.236-4.355-9.531"/>
					<path fill="#FFFFFF" stroke="#000000" stroke-width="10.0527" stroke-linecap="round" stroke-miterlimit="10" d="
						M582.931,312.898c2.842-2.293,5.373-5.064,7.469-8.293c1.963-3.023,3.408-6.234,4.352-9.531"/>
				</g>
			</g>
			<path fill="#FFFFFF" stroke="#000000" stroke-width="10.0527" stroke-linecap="round" stroke-miterlimit="10" d="
				M731.503,223.846c3.76,3.904,9.729,5.174,14.898,2.729c6.477-3.062,9.244-10.799,6.182-17.275
				c-3.062-6.475-10.799-9.244-17.275-6.182c-1.387,0.658-2.607,1.531-3.631,2.559"/>
			<path fill="#FFFFFF" stroke="#000000" stroke-width="10.0527" stroke-linecap="round" stroke-miterlimit="10" d="
				M490.788,223.846c-3.76,3.904-9.73,5.174-14.9,2.729c-6.477-3.062-9.244-10.799-6.182-17.275
				c3.064-6.475,10.799-9.244,17.275-6.182c1.387,0.658,2.607,1.531,3.633,2.559"/>
			<path fill="#231F20" d="M733.011,77.946"/>
		</g>
		<g>
			<g>
				<path fill="#231F20" d="M568.485,288.537c1.846-6.252,3.305-12.182,4.391-17.777c-3.545,0.307-7.098,0.572-10.654,0.789
					C563.927,277.555,566.021,283.225,568.485,288.537z"/>
				<path fill="#231F20" d="M547.517,290.754c4.904-7.021,9.102-13.533,12.623-19.512c-3.438-0.426-6.805-0.959-10.096-1.598
					C549.167,276.709,548.323,283.742,547.517,290.754z"/>
				<path fill="#231F20" d="M526.776,284.965c8.338-5.799,15.715-11.061,22.191-15.742c-2.49-1.898-4.807-3.969-6.934-6.197
					C537.618,269.871,532.542,277.193,526.776,284.965z"/>
				<path fill="#231F20" d="M589.052,282.193c-1.385-4.824-2.803-9.623-4.254-14.393c-3.219,0.781-6.516,1.582-9.885,2.404
					C578.991,274.848,583.714,278.852,589.052,282.193z"/>
			</g>
			<path fill="#231F20" d="M497.792,248.256c13.174,5.174,27.291,7.361,41.311,6.51c-3.023-4.02-6.01-8.094-8.969-12.217
				C519.798,246.15,508.905,248.121,497.792,248.256z"/>
			<g>
				<path fill="#231F20" d="M520.103,191.646c4.336,9.404,9.49,18.002,15.219,25.791c0.963-4.727,2.375-9.346,4.201-13.789
					C533.157,200.244,526.649,196.268,520.103,191.646z"/>
				<path fill="#231F20" d="M507.517,211.1c7.016,7.453,14.824,13.785,23.146,18.992c-0.494-4.436-0.629-8.932-0.387-13.449
					C522.989,215.473,515.366,213.689,507.517,211.1z"/>
				<path fill="#231F20" d="M502.151,226.727c7.639,6.939,16.555,12.354,26.234,15.979c-0.871-3.73-1.613-7.539-2.215-11.416
					C518.214,230.775,510.153,229.309,502.151,226.727z"/>
				<path fill="#231F20" d="M592.108,222.67c4.303-4.078,7.926-8.852,10.775-14.137c-4.793,1.078-9.719,1.793-14.736,2.113
					C589.419,214.629,590.735,218.639,592.108,222.67z"/>
				<path fill="#231F20" d="M559.937,199.814c0.725-5.885,2.408-11.631,4.969-17.068c1.98,4.498,4.33,8.887,7.057,13.109
					C567.999,197.199,563.995,198.523,559.937,199.814z"/>
				<path fill="#231F20" d="M577.517,207.857c1.551-5.725,4.037-11.174,7.342-16.191c1.32,4.734,3.025,9.412,5.123,13.979
					C585.87,206.414,581.718,207.156,577.517,207.857z"/>
				<path fill="#231F20" d="M509.089,269.953c9.449-8.408,20.615-14.602,32.633-18.215c-1.293,4.301-2.541,8.643-3.748,13.012
					C528.194,264.92,518.452,266.631,509.089,269.953z"/>
				<path fill="#231F20" d="M537.476,182.376c8.455,5.005,16.127,10.458,23.064,16.157c-5.254,0.512-10.395,1.535-15.35,3.031
					C542.95,195.289,540.386,188.883,537.476,182.376z"/>
			</g>
		</g>
		<path fill="#FFFFFF" stroke="#000000" stroke-width="10.0527" stroke-linecap="round" stroke-miterlimit="10" d="M665.296,160.933
			c-3.438,4.854-8.15,8.909-13.93,11.604"/>
		<path fill="#FFFFFF" stroke="#000000" stroke-width="10.0527" stroke-linecap="round" stroke-miterlimit="10" d="M563.673,160.933
			c3.439,4.854,8.152,8.909,13.93,11.604"/>
		<g>
			<g>
				<g>
					<path fill="#FFFFFF" d="M662.97,276.839c-21.925,0-39.763-17.839-39.763-39.765s17.838-39.765,39.763-39.765
						s39.763,17.839,39.763,39.765S684.895,276.839,662.97,276.839z"/>
					<path d="M662.97,201.631c19.572,0,35.441,15.867,35.441,35.443c0,19.574-15.869,35.443-35.441,35.443
						s-35.441-15.869-35.441-35.443C627.528,217.498,643.397,201.631,662.97,201.631 M662.97,192.989
						c-24.308,0-44.083,19.776-44.083,44.085s19.775,44.085,44.083,44.085s44.083-19.776,44.083-44.085
						S687.277,192.989,662.97,192.989L662.97,192.989z"/>
				</g>
				<circle fill="#231F20" cx="662.97" cy="237.074" r="23.188"/>
				<g>
					<circle fill="#6D6E70" cx="654.997" cy="244.248" r="6.707"/>
					<path fill="#6D6E70" d="M667.493,247.438c0,2.061-1.67,3.729-3.729,3.729c-2.055,0-3.727-1.668-3.727-3.729
						c0-2.059,1.672-3.727,3.727-3.727C665.823,243.711,667.493,245.379,667.493,247.438z"/>
				</g>
			</g>
			<g>
				<g>
					<path fill="#FFFFFF" d="M559.319,276.839c-21.925,0-39.762-17.839-39.762-39.765s17.837-39.765,39.762-39.765
						c21.926,0,39.764,17.839,39.764,39.765S581.246,276.839,559.319,276.839z"/>
					<path d="M559.319,201.631c19.576,0,35.443,15.867,35.443,35.443c0,19.574-15.867,35.443-35.443,35.443
						c-19.572,0-35.441-15.869-35.441-35.443C523.878,217.498,539.747,201.631,559.319,201.631 M559.319,192.989
						c-24.308,0-44.083,19.776-44.083,44.085s19.776,44.085,44.083,44.085c24.309,0,44.085-19.776,44.085-44.085
						S583.628,192.989,559.319,192.989L559.319,192.989z"/>
				</g>
				<path fill="#231F20" d="M582.509,237.074c0,12.805-10.381,23.186-23.189,23.186c-12.803,0-23.184-10.381-23.184-23.186
					c0-12.807,10.381-23.189,23.184-23.189C572.128,213.885,582.509,224.268,582.509,237.074z"/>
				<g>
					<path fill="#6D6E70" d="M558.056,244.248c0,3.705-3.002,6.707-6.703,6.707c-3.707,0-6.709-3.002-6.709-6.707
						c0-3.703,3.002-6.705,6.709-6.705C555.054,237.543,558.056,240.545,558.056,244.248z"/>
					<circle fill="#6D6E70" cx="560.119" cy="247.438" r="3.728"/>
				</g>
			</g>
		</g>
		<g>
			<path fill="#231F20" d="M675.995,116.103c-7.66,11.647-27.318,27.1-65.611,27.1c-38.291,0-61.744-13.799-69.984-26.382
				c-4.277-6.536-7.916-18.684,3.137-25.884s63.135,10.388,63.135,10.388s45.311-6.817,63.139-10.388
				C687.638,87.366,683.655,104.455,675.995,116.103z"/>
			<path fill="#231F20" d="M662.587,105.881c0,0-26.961,15.58-53.268,15.58c-26.311,0-51.914-15.58-51.914-15.58
				s-8.035-41.24,0-58.014c8.037-16.774,34.363-20.773,52.59-20.773c18.229,0,46.908,6.025,52.592,20.773
				c5.684,14.747-1.877,33.221-1.896,42.697C660.673,100.04,662.587,105.881,662.587,105.881z"/>
			<path fill="#6D6E70" d="M611.649,112.29c-42.455-2.514-56.416-20.79-56.416-20.79l2.172,14.381c0,0,9.43,20.174,52.234,21.062
				c42.803,0.887,52.947-21.062,52.947-21.062l-1.547-8.332C661.04,97.549,645.817,114.313,611.649,112.29z"/>
		</g>
	</g>
</g>
<rect y="-1" opacity="0.9" fill="#FFFFFF" enable-background="new    " width="1224" height="585"/>
<text transform="matrix(1 0 0 1 518.1836 72)"><tspan x="0" y="0" fill="#231F20" font-family="'Neutraface2Text-Bold'" font-size="26" letter-spacing="1">Hey bud! I’m the</tspan><tspan x="-3.354" y="66" fill="#231F20" font-family="'Neutraface2Text-Bold'" font-size="26" letter-spacing="1">super badass API</tspan><tspan x="-23.855" y="132" fill="#231F20" font-family="'Neutraface2Text-Bold'" font-size="26" letter-spacing="1">that powers Ludwig.</tspan><tspan x="-21.58" y="198" fill="#231F20" font-family="'Neutraface2Text-Bold'" font-size="26" letter-spacing="1">They call me Droog.</tspan></text>
</svg>
