<?xml version="1.0" encoding="utf-8"?>
<!-- Generator: Adobe Illustrator 15.0.0, SVG Export Plug-In . SVG Version: 6.00 Build 0)  -->
<!DOCTYPE svg PUBLIC "-//W3C//DTD SVG 1.1//EN" "http://www.w3.org/Graphics/SVG/1.1/DTD/svg11.dtd">
<svg version="1.1" id="Layer_1" xmlns="http://www.w3.org/2000/svg" xmlns:xlink="http://www.w3.org/1999/xlink" x="0px" y="0px"
	 width="1224px" height="584px" viewBox="0 0 1224 584" enable-background="new 0 0 1224 584" xml:space="preserve">
<rect y="-1" opacity="0.8" fill="#FFFFFF" enable-background="new    " width="1224" height="585"/>
<defs>
	<filter id="Adobe_OpacityMaskFilter" filterUnits="userSpaceOnUse" x="455.175" y="22.086" width="537.896" height="470.014">
		<feColorMatrix  type="matrix" values="1 0 0 0 0  0 1 0 0 0  0 0 1 0 0  0 0 0 1 0"/>
	</filter>
</defs>
<mask maskUnits="userSpaceOnUse" x="455.175" y="22.086" width="537.896" height="470.014" id="SVGID_1_">
	<g filter="url(#Adobe_OpacityMaskFilter)">
		<linearGradient id="SVGID_2_" gradientUnits="userSpaceOnUse" x1="719.6758" y1="168.1313" x2="767.6709" y2="343.0289">
			<stop  offset="0" style="stop-color:#FFFFFF"/>
			<stop  offset="1" style="stop-color:#000000"/>
		</linearGradient>
		<rect x="444.977" y="-2.224" fill="url(#SVGID_2_)" width="593.483" height="501.362"/>
	</g>
</mask>
<g opacity="0.7" mask="url(#SVGID_1_)">
	<path stroke="#000000" stroke-width="6" stroke-miterlimit="10" d="M989.885,430.924c0.908-6.792-1.519-12.88-6.813-17.138
		c-6.294-5.062-15.991-6.858-24.696-4.553c-6.892,1.809-17.951,2.897-26.342,3.495c2.885-5.368,3.902-10.549,3.014-15.455
		c-0.938-5.189-3.939-9.851-8.921-13.856c-1.694-1.366-3.474-2.539-5.212-3.537c24.109-16.062,36.492-34.446,35.883-53.469
		c-0.491-15.73-6.018-23.393-10.558-27.045c-5.028-4.045-11.445-5.459-18.549-4.091c-12.286,2.371-25.05,12.971-33.302,27.665
		c-15.103,26.873-41.688,33.398-55.956,36.9c-1.479,0.363-2.872,0.705-4.105,1.038c-5.703,1.516-13.17,3.756-20.425,7.636
		c-7.611,4.079-13.564,9.263-17.715,15.425c-2.667-0.11-5.372,0.33-8.074,1.341c-7.253,2.692-13.351,9.656-16.733,19.116
		c-1.299,3.659-2.12,7.573-2.536,11.589C658.41,457.408,531.125,356.655,544.35,240.27c5.471-1.299,10.642-3.417,15.16-6.247
		c8.517-5.329,14.013-12.782,15.094-20.437c0.399-2.865,0.246-5.599-0.436-8.178c5.132-5.377,8.914-12.307,11.267-20.613
		c2.232-7.917,2.817-15.694,3.082-21.583c0.049-1.282,0.086-2.718,0.126-4.242c0.352-14.691,1.024-42.052,24.036-62.567
		c12.572-11.218,20.192-25.953,19.87-38.463c-0.185-7.231-2.944-13.193-7.972-17.239c-4.549-3.656-13.209-7.402-28.693-4.514
		c-18.704,3.49-33.997,19.531-44.511,46.534c-1.348-1.489-2.878-2.976-4.577-4.343c-4.981-4.004-10.177-5.934-15.445-5.737
		c-4.987,0.184-9.826,2.29-14.449,6.261c-1.215-8.324-2.529-19.363-2.238-26.478c0.379-8.998-3.448-18.082-9.734-23.136
		c-5.308-4.268-11.771-5.324-18.216-2.986c-7.577,2.743-14.021,9.175-18.632,18.586c-4.526,9.25-7.072,21.043-7.359,34.111
		c-0.478,21.565,5.096,36.352,8.81,43.74l-0.039,2.008c-4.853,7.97-10.492,20.293-11.248,35.314
		c-0.712,13.935,4.064,24.536,15.021,33.358c-1.203,11.229,4.804,23.251,16.472,32.634c2.625,2.11,5.555,4.007,8.639,5.785
		C478.092,381.804,641.65,512.997,783.68,460.26c3.26,4.019,6.743,7.588,10.462,10.579c11.663,9.381,24.694,12.669,35.405,9.084
		c10.966,8.808,22.342,11.193,35.808,7.512c14.505-3.963,25.333-12.111,32.07-18.563l1.957-0.469
		c8.009,2.037,23.652,4.315,44.617-0.779c12.692-3.089,23.672-8.101,31.729-14.507C983.936,446.593,988.825,438.913,989.885,430.924
		z"/>
	<g>
		<g>
			<path d="M878.48,389.395C700.964,610.14,369.85,343.874,547.362,123.128c11.929,9.592,23.86,19.187,35.789,28.778
				C444.018,324.928,703.548,533.631,842.684,360.608C854.611,370.203,866.54,379.797,878.48,389.395z"/>
		</g>
		<g>
			<g>
				<g>
					<path fill="#FFFFFF" d="M795.431,469.234c-6.644-5.342-12.581-12.446-17.661-21.132c-7.698-13.148-9.358-29.237-4.44-43.01
						c3.175-8.881,8.822-15.4,15.498-17.885c2.838-1.046,5.653-1.425,8.411-1.117c8.817-14.021,24.664-19.776,37.614-23.224
						c1.212-0.319,2.578-0.647,4.068-1.023c14.584-3.577,41.725-10.24,57.271-37.887c7.959-14.188,20.184-24.394,31.891-26.656
						c6.488-1.253,12.318,0.016,16.863,3.674c6.032,4.85,9.417,13.666,9.795,25.506c0.753,23.613-19.445,41.888-37.92,53.591
						c2.539,1.213,5.396,2.843,8.015,4.947c5.829,4.686,13.763,14.699,3.365,30.032c8.605-0.53,22.495-1.67,30.7-3.829
						c8.09-2.135,17.069-0.495,22.873,4.176c4.715,3.788,6.876,9.212,6.07,15.253c-2.015,15.188-19.411,28.919-44.332,34.97
						c-20.981,5.094-36.463,2.682-44.104,0.66l-3.011,0.713c-6.524,6.343-17.203,14.528-31.598,18.455
						c-12.943,3.539-23.423,1.335-33.987-7.158l0,0c-0.281-0.228-0.569-0.468-0.865-0.715
						C819.714,481.541,806.931,478.48,795.431,469.234z"/>
				</g>
				<g>
					<path d="M943.655,302.579c5.158,4.146,8.644,11.934,9.031,23.969c0.751,23.839-20.933,42.231-40.33,53.851
						c2.799,1.07,7.288,3.094,11.183,6.229c7.069,5.684,12.193,15.009,1.784,28.913c-0.466,0.619-0.938,1.224-1.419,1.821
						c7.3-0.365,25.495-1.507,35.517-4.146c7.41-1.946,15.743-0.49,21.062,3.789c3.82,3.07,6.083,7.604,5.316,13.38
						c-1.834,13.805-17.604,27.126-42.777,33.233c-19.693,4.775-34.939,2.904-43.601,0.527l-4.053,0.983
						c-6.393,6.275-16.891,14.45-31.106,18.324c-13.23,3.62-22.991,0.603-32.156-6.767c-0.598-0.482-1.199-0.979-1.788-1.496
						c-9.348,4.226-21.842,1.878-33.586-7.569c-6.111-4.911-12.021-11.729-17.181-20.554c-13.613-23.243-5.434-52.202,9.995-57.919
						c3.077-1.145,5.986-1.365,8.752-0.81c8.605-14.858,25.849-20.483,37.089-23.477c13.168-3.5,45.024-8.626,62.599-39.904
						C910.305,303.045,931.586,292.871,943.655,302.579 M946.239,299.366c-5.028-4.045-11.445-5.459-18.549-4.091
						c-12.286,2.371-25.05,12.971-33.302,27.665c-15.103,26.873-41.688,33.398-55.956,36.9c-1.479,0.363-2.872,0.705-4.105,1.038
						c-5.703,1.516-13.17,3.756-20.425,7.636c-7.611,4.079-13.564,9.263-17.715,15.425c-2.667-0.11-5.372,0.33-8.074,1.341
						c-7.253,2.692-13.351,9.656-16.733,19.116c-2.366,6.652-3.297,14.129-2.669,21.622c0.661,8.134,3.179,16.136,7.279,23.128
						c5.205,8.894,11.306,16.192,18.151,21.692c11.663,9.381,24.694,12.669,35.405,9.084c10.966,8.808,22.342,11.193,35.808,7.512
						c14.505-3.963,25.333-12.111,32.07-18.563l1.957-0.469c8.009,2.037,23.652,4.315,44.617-0.779
						c12.692-3.089,23.672-8.101,31.729-14.507c8.207-6.523,13.097-14.203,14.156-22.192c0.908-6.792-1.519-12.88-6.813-17.138
						c-6.294-5.062-15.991-6.858-24.696-4.553c-6.892,1.809-17.951,2.897-26.342,3.495c2.885-5.368,3.902-10.549,3.014-15.455
						c-0.938-5.189-3.939-9.851-8.921-13.856c-1.694-1.366-3.474-2.539-5.212-3.537c24.109-16.062,36.492-34.446,35.883-53.469
						C956.306,310.681,950.779,303.019,946.239,299.366L946.239,299.366z"/>
				</g>
			</g>
			<g>
				<g>
					<g>
						<path fill="#FFFFFF" d="M920.743,417.504c0,0,25.951-0.925,38.678-4.288c12.741-3.345,28.207,3.363,26.378,17.169
							c-1.834,13.805-17.604,27.126-42.777,33.233c-25.163,6.111-43.148,1.352-49.25-1.43"/>
					</g>
					<g>
						<g>
							<path d="M918.588,420.177c10.05-0.362,20.138-1.12,30.08-2.598c6.452-0.954,12.554-3.12,19.146-2.255
								c6.207,0.822,12.262,4.221,14.901,10.061c2.593,5.719,0.293,12.498-2.775,17.52c-0.936,1.514-3.396,4.09,0.91-0.896
								c-0.692,0.81-1.452,1.567-2.222,2.311c-1.263,1.235-2.641,2.361-4.031,3.446c-3.369,2.63-7.108,4.769-10.93,6.659
								c-15.458,7.646-33.909,10.717-51.051,9.057c-5.64-0.544-11.486-1.647-16.696-3.97c-0.576-0.262-3.817,5.569-4.303,5.356
								c10.344,4.616,22.74,4.951,33.812,4.008c17.251-1.46,36.052-7.104,48.89-19.196c7.729-7.275,17.812-19.877,12.076-30.951
								c-2.982-5.739-9.82-8.332-15.872-8.938c-6.39-0.653-12.854,1.773-19.147,2.667c-9.414,1.341-18.973,2.019-28.479,2.367
								c-0.479,0.017-1.898,2.312-2.181,2.659C920.47,417.792,918.99,420.167,918.588,420.177L918.588,420.177z"/>
						</g>
					</g>
				</g>
				<g>
					<g>
						<path fill="#FFFFFF" d="M803.576,390.408c-4.269-2.55-8.929-3.159-14.03-1.26c-15.429,5.717-23.608,34.676-9.995,57.919
							c15.908,27.166,38.864,35.438,52.981,26.986c3.33-1.999,5.444-4.128,6.636-6.443"/>
					</g>
					<g>
						<path d="M803.576,390.408c-2.871-1.473-6.098-2.178-9.2-1.769c-1.547,0.202-3.057,0.624-4.484,1.219
							c-1.419,0.6-2.747,1.4-3.951,2.347c-2.444,1.874-4.426,4.31-5.988,6.977c-1.57,2.665-2.784,5.548-3.64,8.54
							c-1.688,5.988-2.203,12.314-1.491,18.489c0.671,6.17,2.473,12.222,5.339,17.707c0.364,0.684,0.737,1.367,1.128,2.04
							c0.401,0.684,0.805,1.358,1.209,2.03c0.831,1.341,1.693,2.663,2.592,3.959c1.781,2.601,3.725,5.092,5.802,7.444
							c4.149,4.712,8.928,8.864,14.337,11.989c2.706,1.542,5.579,2.771,8.557,3.626c2.984,0.852,6.102,1.27,9.197,1.093
							c3.092-0.152,6.164-0.946,8.983-2.382c1.414-0.73,2.768-1.542,4.003-2.551c1.254-0.987,2.347-2.175,3.2-3.557
							c-0.644,1.499-1.632,2.839-2.774,4.023c-1.162,1.163-2.497,2.167-3.858,3.076c-2.785,1.82-6.032,2.938-9.36,3.404
							c-3.336,0.443-6.751,0.214-10.043-0.487c-3.28-0.691-6.443-1.915-9.432-3.42c-5.988-3.017-11.204-7.327-15.713-12.194
							c-2.253-2.432-4.321-5.033-6.236-7.729c-0.957-1.352-1.862-2.733-2.742-4.137c-0.437-0.697-0.864-1.421-1.274-2.118
							c-0.424-0.724-0.846-1.465-1.214-2.208c-6.232-11.934-7.549-26.344-3.265-39.07c1.094-3.16,2.512-6.242,4.43-9.014
							c1.901-2.771,4.236-5.304,7.087-7.176c1.415-0.931,2.959-1.682,4.576-2.191c1.594-0.511,3.274-0.833,4.944-0.86
							c1.682-0.036,3.352,0.206,4.929,0.706C800.797,388.734,802.252,389.486,803.576,390.408z"/>
					</g>
				</g>
				<g>
					<g>
						<path fill="#FFFFFF" d="M909.646,379.46c0,0,35.217,9.985,15.677,36.081c-19.541,26.094-47.415,27.186-56.627,23.691"/>
					</g>
					<g>
						<path d="M909.646,379.46c2.336,0.479,4.608,1.214,6.841,2.109c2.225,0.893,4.383,2.013,6.435,3.318
							c2.044,1.345,3.965,2.925,5.627,4.834c1.656,1.891,2.97,4.18,3.729,6.69c0.76,2.509,0.879,5.222,0.438,7.771
							c-0.428,2.565-1.327,4.99-2.458,7.241c-1.116,2.235-2.538,4.32-4.004,6.246c-1.484,1.947-3.065,3.801-4.731,5.578
							c-6.713,7.079-15.147,12.629-24.425,15.629c-2.317,0.744-4.668,1.376-7.059,1.798c-2.388,0.43-4.8,0.714-7.211,0.811
							c-2.42,0.065-4.835-0.002-7.229-0.341c-2.37-0.338-4.765-0.883-6.901-1.913c1.142,0.301,2.305,0.488,3.479,0.603
							c1.16,0.123,2.333,0.171,3.507,0.175c2.334-0.014,4.666-0.188,6.961-0.541c2.293-0.331,4.571-0.799,6.801-1.421
							c2.233-0.622,4.43-1.331,6.562-2.197c8.546-3.438,16.208-8.783,22.531-15.438c1.582-1.66,3.074-3.416,4.493-5.214
							c1.446-1.808,2.706-3.643,3.787-5.595c1.076-1.936,1.915-3.976,2.343-6.077c0.435-2.085,0.475-4.22,0.014-6.292
							c-0.936-4.169-3.873-7.848-7.442-10.717c-1.764-1.47-3.718-2.751-5.739-3.922c-1.017-0.6-2.061-1.141-3.118-1.669
							C911.823,380.397,910.738,379.909,909.646,379.46z"/>
					</g>
				</g>
				<g>
					<g>
						<path fill="#FFFFFF" d="M882.902,394.634c0,0,71.138-25.243,69.784-68.086c-1.29-40.229-37.125-32.858-54.701-1.59
							c-17.574,31.278-49.431,36.404-62.599,39.904c-13.178,3.516-34.631,10.635-40.714,32.034
							c-6.073,21.395-4.444,41.269,27.749,63.575"/>
					</g>
					<g>
						<g>
							<path d="M880.755,397.31c14.605-5.196,28.777-12.894,41.236-22.065c9.394-6.904,17.371-15.333,24.125-24.821
								c7.421-10.443,10.082-22.316,7.841-34.935c-1.088-6.188-3.771-12.365-8.934-16.185c-4.333-3.2-9.929-3.573-15.046-2.523
								c-12.987,2.678-22.28,13.934-29.769,24.037c-2.251,3.048-4.042,6.371-6.014,9.595c-0.71,1.147-1.46,2.271-2.224,3.376
								c-0.436,0.628-2.617,3.287-0.141,0.355c-1.608,1.893-3.354,3.672-5.162,5.386c-5.223,4.959-11.295,8.967-17.689,12.243
								c-9.695,4.95-20.146,7.524-30.626,10.197c-12.304,3.15-24.571,7.941-33.381,17.448c-4.073,4.405-7.952,9.415-10.511,14.847
								c-2.265,4.81-3.417,10.358-4.189,15.606c-1.324,9.027-0.115,18.033,3.934,26.227c5.64,11.347,15.873,19.938,26.063,27.051
								c0.173,0.122,4.225-5.41,4.306-5.353c-11.308-7.902-22.371-17.56-27.664-30.634c-3.895-9.613-3.305-20.021-0.892-29.897
								c0.876-3.574,2.038-7.011,3.699-10.309c0.479-0.938,1.038-1.842,1.603-2.746c3.344-5.377-3.494,3.441,0.812-0.974
								c1.614-1.652,3.412-3.114,5.265-4.481c6.137-4.563,13.393-7.481,20.644-9.735c10.073-3.134,20.405-4.973,30.222-8.973
								c13.142-5.344,23.934-13.78,32.795-24.794c5.001-6.224,8.685-13.132,13.322-19.595c1.98-2.758-2.167,2.484,0.03,0.026
								c0.776-0.881,1.612-1.709,2.445-2.533c1.238-1.225,2.566-2.357,3.926-3.46c2.685-2.188,5.663-4.014,8.804-5.488
								c5.023-2.359,10.773-3.387,16.194-1.916c5.523,1.492,9.343,5.997,11.628,11.041c5.425,11.965,3.676,26.423-2.561,37.638
								c-0.99,1.789-2.123,3.506-3.312,5.173c-2.187,3.07,1.837-2.085,0.186-0.173c-0.914,1.056-1.874,2.062-2.838,3.062
								c-3.019,3.129-6.312,5.977-9.714,8.672c-6.335,5.02-13.21,9.352-20.276,13.251c-7.631,4.204-15.607,8.079-23.829,11.001
								C883.197,392.618,882.572,396.664,880.755,397.31L880.755,397.31z"/>
						</g>
					</g>
				</g>
				<g>
					<g>
						<path fill="#FFFFFF" d="M835.447,394.677c0,0-8.799,14.593,8.629,24.114c17.415,9.514,24.153-2.987,22.165-11.722"/>
					</g>
					<g>
						<g>
							<path d="M833.291,397.36c-1.651,2.782-2.323,6.239-2.193,9.428c0.328,8.127,7.437,13.397,14.277,16.346
								c6.563,2.829,12.789,2.235,17.354-3.367c3.824-4.701,7.003-8.995,5.67-15.38c0.063,0.369-1.949,2.35-2.193,2.655
								c-0.262,0.323-2.215,2.248-2.117,2.703c0.457,2.215,0.411,4.413-0.115,6.616c-0.26,1.106-0.715,2.141-1.25,3.127
								c-1.308,2.423,4.604-4.81,1.871-2.392c-0.503,0.437-1.069,0.779-1.646,1.108c-6.212,3.601-14.57-0.412-19.774-3.992
								c-7.195-4.953-10.181-14.457-5.57-22.211C836.446,393.939,834.447,395.401,833.291,397.36L833.291,397.36z"/>
						</g>
					</g>
				</g>
				<g>
					<g>
						<path fill="#FFFFFF" d="M849.563,397.095c0,0-17.184,20.369-5.42,38.135c8.077,12.204,17.205,18.781,23.421,16.788
							c8.17-2.605,9.672-9.628,10.976-22.204c0.656-6.349,4.579-18.925,5.186-24.06c2.577-21.613-26.532-39.709-36.121-33.259"/>
					</g>
					<g>
						<g>
							<path d="M851.403,394.775c-4.499,5.357-8.541,10.844-11.126,17.398c-1.942,4.965-2.835,10.316-2.155,15.618
								c0.932,7.373,5.866,13.637,10.763,18.925c3.86,4.178,9.825,9.351,15.998,8.127c5.223-1.027,8.915-6.498,11.7-10.58
								c4.094-6.008,3.443-14.417,4.786-21.266c1.271-6.513,3.415-12.863,4.446-19.421c1.691-10.827-5.139-20.924-13.175-27.45
								c-5.364-4.356-15.913-10.711-22.884-6.312c-1.852,1.158-2.494,4.209-4.305,5.356c7.562-4.789,18.883,2.813,24.433,7.616
								c8.925,7.72,13.467,18.291,10.883,29.943c-1.453,6.563-3.609,13.059-4.388,19.763c-0.472,4.098-0.887,8.187-1.976,12.173
								c-0.417,1.516-1.022,2.959-1.759,4.338c-1.549,2.899,4.065-4.276,1.665-2.118c-0.716,0.646-1.559,1.122-2.4,1.574
								c-5.764,3.093-11.577-0.6-15.944-4.394c-5.619-4.881-11.007-11.669-13.005-18.934c-1.713-6.251-0.479-12.937,1.847-18.855
								c0.958-2.426,2.165-4.746,3.509-6.98c1.424-2.376,6.071-7.854-0.61,0.119c1.001-1.196,1.981-2.431,2.958-3.657
								C850.774,395.619,852.214,393.798,851.403,394.775L851.403,394.775z"/>
						</g>
					</g>
				</g>
				<g>
					<g>
						<path fill="#FFFFFF" d="M902.628,456.78c0,0-13.521,19.89-38.366,26.673c-18.948,5.188-30.535-6.002-42.03-23.12"/>
					</g>
					<g>
						<g>
							<path d="M900.474,459.462c0.005-0.009-0.368,0.514-0.482,0.671c-1.388,1.876,3.213-3.88,1.59-2.001
								c-0.462,0.558-0.95,1.084-1.432,1.609c-2.558,2.807-5.358,5.371-8.298,7.766c-7.708,6.297-16.725,11.002-26.359,13.515
								c-8.088,2.109-16.196,0.835-23.208-3.656c-7.499-4.794-12.989-12.447-17.903-19.706c0.355,0.519-4.717,4.757-4.306,5.356
								c5.646,8.356,12.054,16.966,21.247,21.631c9.737,4.943,20.554,2.309,30.05-1.816c13.547-5.879,25.105-16.6,33.411-28.73
								C903.497,455.982,901.771,457.575,900.474,459.462L900.474,459.462z"/>
						</g>
					</g>
				</g>
			</g>
		</g>
		<g>
			<g>
				<g>
					<path fill="#FFFFFF" d="M491.026,224.449c-11.5-9.249-17.234-21.083-15.56-31.926c-0.295-0.23-0.587-0.455-0.878-0.689
						c-10.556-8.488-14.967-18.26-14.29-31.662c0.752-14.897,6.461-27.08,11.245-34.823l0.058-3.085
						c-3.616-7.035-9.294-21.637-8.827-43.227c0.568-25.632,10.239-45.573,24.645-50.804c5.733-2.077,11.487-1.132,16.212,2.668
						c5.798,4.661,9.322,13.07,8.978,21.44c-0.352,8.472,1.512,22.279,2.844,30.798c12.749-13.442,24.226-7.843,30.052-3.158
						c2.627,2.114,4.828,4.548,6.556,6.769c7.472-20.553,20.985-44.201,44.203-48.537c11.645-2.173,20.989-0.753,27.017,4.094
						c4.547,3.655,7.042,9.083,7.205,15.683c0.308,11.919-7.046,26.047-19.187,36.869c-23.672,21.115-24.354,49.054-24.72,64.064
						c-0.037,1.543-0.071,2.945-0.128,4.194c-0.586,13.388-2.798,30.108-14.609,41.72c0.896,2.628,1.138,5.466,0.72,8.46
						c-0.997,7.053-6.147,13.97-14.145,18.971c-12.398,7.76-28.468,9.593-42.964,4.895
						C505.883,234.063,497.67,229.788,491.026,224.449z"/>
				</g>
				<g>
					<path d="M621.992,43.913c12.075,9.711,6.699,32.676-12.058,49.408c-26.777,23.879-24.948,56.095-25.544,69.705
						c-0.514,11.619-2.303,29.671-14.967,41.266c1.135,2.579,1.546,5.469,1.092,8.721c-2.284,16.293-28.812,30.493-54.435,22.186
						c-9.722-3.144-17.648-7.451-23.756-12.364c-11.751-9.45-16.728-21.148-14.606-31.188c-0.63-0.459-1.243-0.94-1.839-1.418
						c-9.169-7.373-14.209-16.254-13.52-29.962c0.741-14.71,6.473-26.719,11.228-34.311l0.086-4.176
						c-4.168-7.937-9.279-22.433-8.835-42.691c0.571-25.893,10.189-44.161,23.283-48.908c5.473-1.99,10.386-0.754,14.217,2.326
						c5.312,4.271,8.523,12.097,8.207,19.746c-0.427,10.357,2.364,28.375,3.577,35.584c0.479-0.598,0.966-1.189,1.468-1.78
						c11.348-13.15,21.557-10.146,28.62-4.467c3.902,3.14,6.847,7.091,8.488,9.595c7.188-21.439,20.497-46.565,43.943-50.944
						C608.487,38.035,616.824,39.757,621.992,43.913 M624.577,40.701c-4.549-3.656-13.209-7.402-28.693-4.514
						c-18.704,3.49-33.997,19.531-44.511,46.534c-1.348-1.489-2.878-2.976-4.577-4.343c-4.981-4.004-10.177-5.934-15.445-5.737
						c-4.987,0.184-9.826,2.29-14.449,6.261c-1.215-8.324-2.529-19.363-2.238-26.478c0.379-8.998-3.448-18.082-9.734-23.136
						c-5.308-4.268-11.771-5.324-18.216-2.986c-7.577,2.743-14.021,9.175-18.632,18.586c-4.526,9.25-7.072,21.043-7.359,34.111
						c-0.478,21.565,5.096,36.352,8.81,43.74l-0.039,2.008c-4.853,7.97-10.492,20.293-11.248,35.314
						c-0.712,13.935,4.064,24.536,15.021,33.358c-1.203,11.229,4.804,23.251,16.472,32.634c6.84,5.5,15.279,9.897,25.076,13.071
						c7.708,2.499,16.069,3.247,24.157,2.151c7.455-0.999,14.561-3.511,20.54-7.254c8.517-5.329,14.013-12.782,15.094-20.437
						c0.399-2.865,0.246-5.599-0.436-8.178c5.132-5.377,8.914-12.307,11.267-20.613c2.232-7.917,2.817-15.694,3.082-21.583
						c0.049-1.282,0.086-2.718,0.126-4.242c0.352-14.691,1.024-42.052,24.036-62.567c12.572-11.218,20.192-25.953,19.87-38.463
						C632.364,50.708,629.604,44.746,624.577,40.701L624.577,40.701z"/>
				</g>
			</g>
			<g>
				<g>
					<g>
						<path fill="#FFFFFF" d="M514.663,90.956c0,0-4.665-25.547-4.116-38.704c0.539-13.153-9.333-26.823-22.424-22.072
							c-13.094,4.747-22.712,23.015-23.283,48.908c-0.562,25.895,7.941,42.434,11.963,47.796"/>
					</g>
					<g>
						<g>
							<path d="M516.818,88.276c-1.796-9.897-3.228-19.916-3.915-29.94c-0.458-6.512,0.354-12.932-1.913-19.186
								c-2.134-5.885-6.739-11.064-13.012-12.396c-6.148-1.299-12.276,2.397-16.515,6.479c-4.078,3.93-7.79,8.884-10.592,13.786
								c-8.79,15.354-9.56,35.285-7.123,52.388c1.48,10.338,4.602,21.625,10.9,30.153c-0.318-0.431,4.689-4.846,4.306-5.354
								c-6.719-9.109-9.719-21.145-11.17-32.161c-2.269-17.166-0.792-36.737,8.266-51.876c0.546-0.922,1.16-1.801,1.777-2.667
								c-3.739,5.239-1.98,2.41-0.673,1.089c1.028-1.042,2.171-1.958,3.348-2.828c2.561-1.879,5.54-3.188,8.666-3.725
								c6.471-1.11,12.087,3.038,15.421,8.204c3.766,5.853,3.649,12.168,3.782,18.827c0.138,6.738,0.97,13.47,1.882,20.145
								c0.646,4.816,1.393,9.636,2.26,14.417c-0.078-0.395,1.929-2.349,2.175-2.657C514.969,90.626,516.903,88.749,516.818,88.276
								L516.818,88.276z"/>
						</g>
					</g>
				</g>
				<g>
					<g>
						<path fill="#FFFFFF" d="M566.266,199.576c3.414,3.628,5.002,8.043,4.25,13.437c-2.284,16.293-28.812,30.493-54.435,22.186
							c-29.947-9.707-42.954-30.355-37.715-45.946c1.226-3.693,2.852-6.212,4.859-7.869"/>
					</g>
					<g>
						<path d="M566.266,199.576c1.184,1.097,2.237,2.362,3.075,3.784c0.83,1.431,1.427,3.012,1.748,4.659
							c0.335,1.643,0.38,3.348,0.227,5.021c-0.155,1.686-0.566,3.349-1.166,4.936c-1.214,3.184-3.184,6.011-5.48,8.464
							c-2.305,2.462-5.002,4.514-7.858,6.258c-11.506,6.917-25.861,8.724-38.852,5.203c-0.816-0.213-1.622-0.456-2.424-0.716
							c-0.773-0.254-1.569-0.521-2.347-0.798c-1.559-0.554-3.104-1.144-4.624-1.781c-3.042-1.297-6.029-2.759-8.891-4.438
							c-5.714-3.358-11.051-7.53-15.281-12.732c-2.116-2.597-3.983-5.418-5.371-8.479c-1.387-3.065-2.334-6.343-2.623-9.702
							c-0.259-3.348,0.137-6.764,1.319-9.87c0.585-1.533,1.289-3.048,2.179-4.429c0.905-1.375,2.003-2.627,3.329-3.574
							c-1.167,1.13-2.092,2.45-2.781,3.888c-0.719,1.427-1.226,2.92-1.638,4.457c-0.798,3.056-0.916,6.229-0.396,9.285
							c0.49,3.064,1.567,6.018,3.036,8.746c1.477,2.728,3.294,5.274,5.388,7.586c4.202,4.608,9.282,8.382,14.784,11.431
							c2.741,1.521,5.588,2.882,8.51,4.062c1.458,0.599,2.937,1.161,4.42,1.682c0.746,0.252,1.497,0.506,2.248,0.75
							c0.74,0.236,1.484,0.451,2.229,0.658c5.977,1.626,12.273,2.086,18.449,1.425c6.18-0.639,12.249-2.496,17.738-5.429
							c2.735-1.481,5.289-3.286,7.561-5.386c2.26-2.107,4.217-4.56,5.525-7.349c0.665-1.38,1.163-2.849,1.438-4.365
							c0.277-1.523,0.367-3.089,0.229-4.641C569.703,205.067,568.324,202.065,566.266,199.576z"/>
					</g>
				</g>
				<g>
					<g>
						<path fill="#FFFFFF" d="M554.195,93.626c0,0-17.309-32.259-38.604-7.57c-21.292,24.685-16.376,52.145-10.982,60.397"/>
					</g>
					<g>
						<path d="M554.195,93.626c-0.669-0.97-1.381-1.924-2.127-2.841c-0.735-0.917-1.494-1.817-2.289-2.681
							c-1.582-1.723-3.256-3.362-5.071-4.769c-3.562-2.866-7.784-4.943-12.054-4.963c-2.128-0.006-4.206,0.49-6.154,1.357
							c-1.956,0.874-3.766,2.132-5.43,3.594c-1.669,1.476-3.197,3.101-4.648,4.903c-1.454,1.769-2.847,3.605-4.127,5.511
							c-5.149,7.598-8.726,16.227-10.244,25.315c-0.385,2.275-0.607,4.569-0.736,6.882c-0.135,2.312-0.104,4.631,0.07,6.945
							c0.145,2.318,0.474,4.631,0.967,6.918c0.246,1.14,0.544,2.272,0.917,3.382c0.359,1.123,0.795,2.215,1.341,3.274
							c-1.474-1.874-2.511-4.09-3.354-6.335c-0.835-2.26-1.43-4.611-1.879-6.982c-0.425-2.381-0.664-4.794-0.763-7.227
							c-0.099-2.423,0.017-4.854,0.247-7.276c0.937-9.703,4.542-19.14,10.019-27.208c1.38-2.012,2.85-3.954,4.431-5.822
							c1.572-1.838,3.298-3.681,5.243-5.252c1.962-1.581,4.128-2.985,6.551-3.95c2.395-0.978,5.078-1.439,7.693-1.233
							c2.605,0.195,5.124,0.987,7.326,2.203c2.218,1.208,4.175,2.746,5.923,4.45c1.724,1.729,3.272,3.593,4.625,5.578
							C552.023,89.388,553.236,91.456,554.195,93.626z"/>
					</g>
				</g>
				<g>
					<g>
						<path fill="#FFFFFF" d="M545.113,123c0,0,9.393-74.894,51.53-82.76c39.565-7.378,40.063,29.21,13.291,53.08
							c-26.777,23.879-24.948,56.095-25.544,69.705c-0.604,13.625-2.954,36.108-22.551,46.636
							c-19.597,10.527-39.351,13.2-68.048-13.459"/>
					</g>
					<g>
						<g>
							<path d="M547.271,120.318c1.94-15.376,6.422-30.875,12.7-45.01c2.531-5.682,5.511-11.178,9.048-16.3
								c0.402-0.591,0.824-1.167,1.251-1.743c1.645-2.261-2.426,2.836-0.606,0.742c1.048-1.206,2.148-2.346,3.29-3.464
								c2.129-2.085,4.47-3.954,6.941-5.623c10.235-6.912,26.32-10.055,37.567-3.934c11.107,6.044,9.849,20.321,5.688,30.281
								c-1.445,3.462-3.387,6.718-5.54,9.789c-1.884,2.701,2.262-2.534,0.033,0.026c-0.844,0.956-1.721,1.875-2.615,2.783
								c-1.703,1.725-3.55,3.296-5.3,4.967c-4.958,4.75-9.378,10.347-13.302,15.966c-7.852,11.244-11.787,24.581-13.25,38.092
								c-1.19,10.933-0.498,21.94-2.355,32.822c-0.912,5.329-2.494,10.527-4.818,15.411c-0.565,1.194-1.223,2.337-1.893,3.472
								c-0.5,0.824-1.024,1.627-1.584,2.409c3.083-4.44,0.663-0.938-0.478,0.185c-2.381,2.314-5.159,4.184-8.055,5.792
								c-6.183,3.442-12.956,6.075-19.976,7.114c-18.553,2.737-35.104-8.616-48.076-20.57c0.076,0.07-4.457,5.214-4.307,5.356
								c10.144,9.354,21.951,18.083,35.864,20.453c10.209,1.731,20.257-1.062,29.382-5.547
								c13.037-6.399,22.854-19.199,26.817-33.073c3.214-11.252,2.618-22.913,3.377-34.451c0.874-13.281,3.981-26.328,10.589-37.964
								c1.063-1.876,2.247-3.671,3.474-5.441c0.457-0.64,2.562-3.119,0.101-0.247c0.864-1.014,1.781-1.973,2.694-2.931
								c2.876-3.001,6.088-5.641,8.909-8.696c4.433-4.786,8.639-10.115,11.938-15.742c5.638-9.593,9.378-23.997,0.566-32.944
								c-9.069-9.201-26.677-6.326-37.029-1.152c-8.942,4.479-15.414,12.329-21.363,20.134c-6.285,8.248-10.874,17.608-14.529,27.28
								c-4.482,11.855-7.87,24.518-9.463,37.112C543.207,123.766,547.022,122.284,547.271,120.318L547.271,120.318z"/>
						</g>
					</g>
				</g>
				<g>
					<g>
						<path fill="#FFFFFF" d="M555.258,169.36c0,0-12.365,11.728-25.403-3.247c-13.026-14.972-2.262-24.233,6.695-24.167"/>
					</g>
					<g>
						<g>
							<path d="M557.408,166.686c-6.716,6.285-16.315,5.095-22.888-0.675c-4.933-4.335-9.968-11.558-8.152-18.464
								c0.73-2.75,3.695-4.5-1.544,0.839c0.789-0.812,1.732-1.447,2.701-2c2.078-1.195,4.499-1.735,6.871-1.759
								c0.469,0.002,1.926-2.327,2.186-2.653c0.244-0.303,1.742-2.698,2.123-2.708c-6.521,0.07-10.037,4.095-13.808,8.836
								c-4.579,5.769-3.576,11.726,0.44,17.674c4.257,6.302,11.069,11.599,19.024,10.435c3.121-0.452,6.42-1.995,8.738-4.167
								C554.765,170.492,555.766,168.23,557.408,166.686L557.408,166.686z"/>
						</g>
					</g>
				</g>
				<g>
					<g>
						<path fill="#FFFFFF" d="M549.874,156.1c0,0-16.211,21.151-36.091,13.472c-13.647-5.271-22.03-12.772-21.426-19.277
							c0.794-8.536,7.334-11.505,19.336-15.479c6.063-2.001,17.501-8.529,22.386-10.233c20.553-7.157,44.481,17.401,40.237,28.149"
							/>
					</g>
					<g>
						<g>
							<path d="M547.99,158.401c4.563-5.898,4.172-5.069,2.717-3.423c-0.492,0.557-1.008,1.1-1.526,1.635
								c-1.432,1.461-2.952,2.819-4.552,4.102c-3.952,3.183-8.472,5.676-13.389,7.017c-6.481,1.77-12.571,0.408-18.605-2.2
								c-6.464-2.785-13.929-6.918-17.234-13.468c-1.223-2.414-1.011-4.956-0.291-7.488c0.19-0.678,0.503-1.333,0.813-1.972
								c1.423-2.883-4.085,4.344-1.71,2.082c1.338-1.274,2.995-2.199,4.628-3.045c3.563-1.87,7.485-3.042,11.283-4.347
								c3.26-1.117,6.375-2.728,9.462-4.243c5.456-2.68,10.912-6.022,17.027-6.882c5.633-0.802,11.381,0.72,16.442,3.115
								c5.933,2.809,11.188,7.235,15.132,12.456c2.755,3.658,5.668,8.988,3.976,13.668c0.732-2.019,3.576-3.301,4.309-5.356
								c3.046-8.422-6.799-17.84-12.682-22.233c-9.462-7.066-20.758-9.233-31.573-4.206c-6.11,2.839-11.989,6.326-18.366,8.519
								c-6.72,2.314-13.269,4.382-17.878,10.05c-3.453,4.238-7.304,8.865-5.13,14.677c2.463,6.612,10.512,10.77,16.438,13.56
								c5.717,2.69,11.414,4.167,17.724,3.095c4.929-0.842,9.508-3.235,13.552-6.103c5.22-3.717,9.303-8.576,13.185-13.611
								c0.78-1.004-0.694,0.791-0.809,0.932C549.947,155.95,548.953,157.171,547.99,158.401L547.99,158.401z"/>
						</g>
					</g>
				</g>
				<g>
					<g>
						<path fill="#FFFFFF" d="M480.179,117.069c0,0-16.516,17.484-17.818,43.196c-0.993,19.625,12.416,28.532,31.602,36.101"/>
					</g>
					<g>
						<g>
							<path d="M482.335,114.389c-9.916,10.56-17.442,23.639-20.668,37.779c-2.35,10.29-2.486,21.333,3.979,30.154
								c6.186,8.428,16.75,12.982,26.159,16.726c0.679,0.263,3.727-5.591,4.312-5.362c-8.251-3.278-16.59-7.052-23.085-13.256
								c-6.082-5.799-8.678-13.611-8.551-21.878c0.146-9.936,3.172-19.812,7.538-28.653c1.68-3.4,3.643-6.656,5.812-9.766
								c0.306-0.448,0.624-0.895,0.951-1.34c1.919-2.623-2.453,2.928-1.462,1.762c0.178-0.214,0.654-0.758,0.705-0.807
								C479.591,118.078,480.776,116.055,482.335,114.389L482.335,114.389z"/>
						</g>
					</g>
				</g>
			</g>
		</g>
	</g>
</g>
<g>
	<g>
		<path fill="#231F20" d="M553.478,81.073l-2.356-4.182v4.182h-7.732V60.392h8.65c5.081,0,8.495,3.121,8.495,7.766
			c0,2.363-0.96,4.356-2.682,5.668l4.239,7.247H553.478z M551.806,68.92c0.97,0,0.97-0.32,0.97-0.762s0-0.762-0.97-0.762h-0.684
			v1.524H551.806z"/>
		<path fill="#FFFFFF" d="M552.04,61.892c4.499,0,6.995,2.652,6.995,6.266c0,2.34-1.118,4.187-3.224,5.148l3.666,6.266h-5.122
			l-3.12-5.538h-1.612v5.538h-4.732V61.892H552.04 M549.622,70.42h2.184c1.612,0,2.47-0.806,2.47-2.262s-0.858-2.262-2.47-2.262
			h-2.184V70.42 M552.04,58.892h-7.15h-3v3v17.681v3h3h4.732h3h1.732h5.122h5.231l-2.642-4.515l-2.299-3.929
			c1.466-1.542,2.268-3.604,2.268-5.97C562.035,62.703,557.925,58.892,552.04,58.892L552.04,58.892z"/>
	</g>
	<g>
		<path fill="#231F20" d="M571.904,81.307c-6.163,0-10.99-4.645-10.99-10.574c0-5.915,4.828-10.548,10.99-10.548
			s10.99,4.633,10.99,10.548C582.895,76.662,578.067,81.307,571.904,81.307z M571.904,67.292c-2.927,0-3.154,2.633-3.154,3.44
			c0,1.676,0.829,3.466,3.154,3.466s3.154-1.791,3.154-3.466C575.059,69.925,574.831,67.292,571.904,67.292z"/>
		<path fill="#FFFFFF" d="M571.904,61.684c5.096,0,9.49,3.718,9.49,9.048s-4.394,9.074-9.49,9.074s-9.49-3.744-9.49-9.074
			S566.808,61.684,571.904,61.684 M571.904,75.699c2.964,0,4.654-2.184,4.654-4.966s-1.69-4.94-4.654-4.94
			c-2.964,0-4.654,2.158-4.654,4.94S568.94,75.699,571.904,75.699 M571.904,58.684c-7.004,0-12.49,5.292-12.49,12.048
			c0,6.771,5.486,12.074,12.49,12.074s12.49-5.304,12.49-12.074C584.395,63.977,578.908,58.684,571.904,58.684L571.904,58.684z
			 M571.904,72.699c-0.409,0-1.654,0-1.654-1.966c0-1.94,1.245-1.94,1.654-1.94s1.654,0,1.654,1.94
			C573.559,72.699,572.313,72.699,571.904,72.699L571.904,72.699z"/>
	</g>
	<g>
		<path fill="#231F20" d="M593.51,81.307c-6.002,0-10.704-4.645-10.704-10.574c0-5.915,4.588-10.548,10.444-10.548
			c3.891,0,6.88,1.499,8.885,4.454l0.842,1.241l-6.068,4.12l-0.834-1.283c-0.481-0.74-1.147-1.424-2.747-1.424
			c-1.982,0-2.686,1.854-2.686,3.44c0,1.599,0.744,3.466,2.842,3.466c1.624,0,2.29-0.633,2.839-1.654l0.768-1.429l6.222,4
			l-0.738,1.245C600.573,79.735,597.693,81.307,593.51,81.307z"/>
		<path fill="#FFFFFF" d="M593.25,61.684c3.822,0,6.162,1.612,7.644,3.796l-3.562,2.418c-0.676-1.04-1.768-2.106-4.004-2.106
			c-2.6,0-4.186,2.158-4.186,4.94s1.638,4.966,4.342,4.966c2.288,0,3.406-1.04,4.16-2.444l3.64,2.34
			c-1.742,2.938-4.187,4.212-7.774,4.212c-4.966,0-9.204-3.744-9.204-9.074S588.518,61.684,593.25,61.684 M593.25,58.684
			c-6.698,0-11.944,5.292-11.944,12.048c0,6.771,5.361,12.074,12.204,12.074c4.701,0,8.088-1.858,10.355-5.682l1.476-2.489
			l-2.434-1.565l-3.64-2.34l-0.394-0.253l0.144-0.098l3.562-2.418l2.481-1.684l-1.684-2.482
			C601.108,60.452,597.606,58.684,593.25,58.684L593.25,58.684z M593.484,72.699c-1.211,0-1.342-1.375-1.342-1.966
			c0-0.455,0.085-1.94,1.186-1.94c0.939,0,1.189,0.28,1.489,0.742l0.778,1.196l-0.593,1.104
			C594.657,72.475,594.451,72.699,593.484,72.699L593.484,72.699z"/>
	</g>
	<g>
		<polygon fill="#231F20" points="614.279,81.073 610.896,75.913 610.896,81.073 603.164,81.073 603.164,60.392 610.896,60.392 
			610.896,64.699 614.103,60.392 623.018,60.392 615.94,69.629 623.46,81.073 		"/>
		<path fill="#FFFFFF" d="M619.979,61.892l-5.877,7.67l6.578,10.01h-5.59l-4.212-6.422l-1.482,1.82v4.602h-4.732V61.892h4.732v7.333
			l5.46-7.333H619.979 M626.057,58.892h-6.078h-5.123h-1.507l-0.899,1.208l-0.054,0.072v-1.28h-3h-4.732h-3v3v17.681v3h3h4.732h3
			v-1.638l0.186,0.283l0.889,1.355h1.62h5.59h5.562l-3.055-4.647l-5.407-8.229l4.581-5.979L626.057,58.892L626.057,58.892z"/>
	</g>
	<g>
		<path fill="#231F20" d="M640.438,81.307c-6.163,0-10.99-4.645-10.99-10.574c0-5.915,4.827-10.548,10.99-10.548
			s10.991,4.633,10.991,10.548C651.43,76.662,646.602,81.307,640.438,81.307z M640.438,67.292c-2.926,0-3.153,2.633-3.153,3.44
			c0,1.676,0.828,3.466,3.153,3.466s3.154-1.791,3.154-3.466C643.593,69.925,643.365,67.292,640.438,67.292z"/>
		<path fill="#FFFFFF" d="M640.438,61.684c5.097,0,9.491,3.718,9.491,9.048s-4.395,9.074-9.491,9.074
			c-5.096,0-9.49-3.744-9.49-9.074S635.343,61.684,640.438,61.684 M640.438,75.699c2.965,0,4.654-2.184,4.654-4.966
			s-1.689-4.94-4.654-4.94c-2.964,0-4.653,2.158-4.653,4.94S637.475,75.699,640.438,75.699 M640.438,58.684
			c-7.004,0-12.49,5.292-12.49,12.048c0,6.771,5.486,12.074,12.49,12.074c7.005,0,12.491-5.304,12.491-12.074
			C652.93,63.977,647.443,58.684,640.438,58.684L640.438,58.684z M640.438,72.699c-0.409,0-1.653,0-1.653-1.966
			c0-1.94,1.244-1.94,1.653-1.94s1.654,0,1.654,1.94C642.093,72.699,640.848,72.699,640.438,72.699L640.438,72.699z"/>
	</g>
	<g>
		<path fill="#231F20" d="M661.188,81.333c-5.656,0-9.17-3.295-9.17-8.599V60.392h7.731v12.291c0,1.392,0.484,1.646,1.438,1.646
			c0.953,0,1.438-0.254,1.438-1.646V60.392h7.732v12.342C670.357,78.038,666.844,81.333,661.188,81.333z"/>
		<path fill="#FFFFFF" d="M668.857,61.892v10.842c0,4.758-3.25,7.099-7.67,7.099s-7.67-2.34-7.67-7.099V61.892h4.731v10.791
			c0,2.002,0.937,3.146,2.938,3.146s2.938-1.144,2.938-3.146V61.892H668.857 M671.857,58.892h-3h-4.732h-2.876h-3h-4.731h-3v3
			v10.842c0,6.135,4.188,10.099,10.67,10.099s10.67-3.964,10.67-10.099V61.892V58.892L671.857,58.892z"/>
	</g>
	<g>
		<polygon fill="#231F20" points="675.547,81.073 675.547,67.37 670.866,67.37 670.866,60.392 687.959,60.392 687.959,67.37 
			683.279,67.37 683.279,81.073 		"/>
		<path fill="#FFFFFF" d="M686.459,61.892v3.978h-4.68v13.703h-4.732V65.87h-4.681v-3.978H686.459 M689.459,58.892h-3h-14.093h-3v3
			v3.978v3h3h1.681v10.703v3h3h4.732h3v-3V68.87h1.68h3v-3v-3.978V58.892L689.459,58.892z"/>
	</g>
	<g>
		<path fill="#231F20" d="M523.997,142.037c-0.635,0-1.199-0.369-1.507-0.985l-3.07-6.591l-3.014,6.547
			c-0.259,0.608-0.847,1.01-1.519,1.01c-0.67,0-1.258-0.401-1.535-1.045l-8.277-19.98h8.229l2.354,5.912l2.354-5.354
			c0.232-0.584,0.82-0.994,1.477-0.994s1.245,0.409,1.498,1.042l2.45,5.313l2.246-5.92h8l-8.15,19.956
			C525.286,141.604,524.692,142.037,523.997,142.037z"/>
		<path fill="#FFFFFF" d="M519.489,122.057c0.039,0,0.078,0.033,0.104,0.098l3.978,8.632l3.146-8.294h4.732l-7.306,17.889
			c-0.039,0.104-0.091,0.156-0.146,0.156s-0.114-0.052-0.166-0.156l-4.42-9.49l-4.368,9.49c-0.039,0.091-0.097,0.137-0.156,0.137
			s-0.117-0.046-0.156-0.137l-7.41-17.889h4.966l3.302,8.294l3.796-8.632C519.411,122.089,519.45,122.057,519.489,122.057
			 M519.489,119.057c-1.249,0-2.362,0.748-2.86,1.912l-0.903,2.053l-0.652-1.639l-0.752-1.89h-2.035h-4.966h-4.49l1.718,4.148
			l7.41,17.889c0.524,1.222,1.667,1.989,2.928,1.989c1.243,0,2.37-0.745,2.89-1.902l1.65-3.585l1.685,3.617l0.018,0.038l0.019,0.038
			c0.56,1.119,1.651,1.814,2.849,1.814c1.296,0,2.44-0.8,2.933-2.043l7.297-17.867l1.688-4.134h-4.466h-4.732h-2.071l-0.734,1.936
			l-0.609,1.607l-0.969-2.104C521.828,119.789,520.724,119.057,519.489,119.057L519.489,119.057z"/>
	</g>
	<g>
		<rect x="533.25" y="120.992" fill="#231F20" width="7.732" height="20.681"/>
		<path fill="#FFFFFF" d="M539.482,122.492v17.681h-4.732v-17.681H539.482 M542.482,119.492h-3h-4.732h-3v3v17.681v3h3h4.732h3v-3
			v-17.681V119.492L542.482,119.492z"/>
	</g>
	<g>
		<polygon fill="#231F20" points="546.458,141.673 546.458,127.97 541.778,127.97 541.778,120.992 558.871,120.992 558.871,127.97 
			554.19,127.97 554.19,141.673 		"/>
		<path fill="#FFFFFF" d="M557.371,122.492v3.978h-4.68v13.703h-4.732V126.47h-4.68v-3.978H557.371 M560.371,119.492h-3h-14.092h-3
			v3v3.978v3h3h1.68v10.703v3h3h4.732h3v-3V129.47h1.68h3v-3v-3.978V119.492L560.371,119.492z"/>
	</g>
	<g>
		<polygon fill="#231F20" points="570.43,141.673 570.43,134.757 567.294,134.757 567.294,141.673 559.562,141.673 559.562,120.992 
			567.294,120.992 567.294,127.778 570.43,127.778 570.43,120.992 578.163,120.992 578.163,141.673 		"/>
		<path fill="#FFFFFF" d="M576.663,122.492v17.681h-4.732v-6.916h-6.136v6.916h-4.732v-17.681h4.732v6.786h6.136v-6.786H576.663
			 M579.663,119.492h-3h-4.732h-3v3v3.786h-0.136v-3.786v-3h-3h-4.732h-3v3v17.681v3h3h4.732h3v-3v-3.916h0.136v3.916v3h3h4.732h3
			v-3v-17.681V119.492L579.663,119.492z"/>
	</g>
	<g>
		<polygon fill="#231F20" points="591.386,141.673 591.386,127.97 586.706,127.97 586.706,120.992 603.798,120.992 603.798,127.97 
			599.118,127.97 599.118,141.673 		"/>
		<path fill="#FFFFFF" d="M602.298,122.492v3.978h-4.68v13.703h-4.732V126.47h-4.68v-3.978H602.298 M605.298,119.492h-3h-14.092h-3
			v3v3.978v3h3h1.68v10.703v3h3h4.732h3v-3V129.47h1.68h3v-3v-3.978V119.492L605.298,119.492z"/>
	</g>
	<g>
		<polygon fill="#231F20" points="615.357,141.673 615.357,134.757 612.221,134.757 612.221,141.673 604.489,141.673 
			604.489,120.992 612.221,120.992 612.221,127.778 615.357,127.778 615.357,120.992 623.09,120.992 623.09,141.673 		"/>
		<path fill="#FFFFFF" d="M621.59,122.492v17.681h-4.732v-6.916h-6.136v6.916h-4.732v-17.681h4.732v6.786h6.136v-6.786H621.59
			 M624.59,119.492h-3h-4.732h-3v3v3.786h-0.137v-3.786v-3h-3h-4.732h-3v3v17.681v3h3h4.732h3v-3v-3.916h0.137v3.916v3h3h4.732h3v-3
			v-17.681V119.492L624.59,119.492z"/>
	</g>
	<g>
		<polygon fill="#231F20" points="624.717,141.673 624.717,120.992 640.119,120.992 640.119,127.97 638.845,127.97 638.845,134.652 
			632.449,134.652 632.449,134.695 640.483,134.695 640.483,141.673 		"/>
		<path fill="#FFFFFF" d="M638.619,122.492v3.978h-7.67v2.912h6.396v3.77h-6.396v3.042h8.034v3.978h-12.767v-17.681H638.619
			 M641.619,119.492h-3h-12.402h-3v3v17.681v3h3h12.767h3v-3v-3.978v-3h-1.639v-0.042v-3.682h1.274v-3v-3.978V119.492
			L641.619,119.492z"/>
	</g>
	<g>
		<polygon fill="#231F20" points="648.663,141.673 648.663,120.992 663.676,120.992 663.676,127.97 656.396,127.97 656.396,128.559 
			662.817,128.559 662.817,135.537 656.396,135.537 656.396,141.673 		"/>
		<path fill="#FFFFFF" d="M662.176,122.492v3.978h-7.28v3.588h6.422v3.978h-6.422v6.136h-4.732v-17.681H662.176 M665.176,119.492h-3
			h-12.013h-3v3v17.681v3h3h4.732h3v-3v-3.136h3.422h3v-3v-3.978v-0.588h0.858v-3v-3.978V119.492L665.176,119.492z"/>
	</g>
	<g>
		<rect x="664.678" y="120.992" fill="#231F20" width="7.732" height="20.681"/>
		<path fill="#FFFFFF" d="M670.91,122.492v17.681h-4.732v-17.681H670.91 M673.91,119.492h-3h-4.732h-3v3v17.681v3h3h4.732h3v-3
			v-17.681V119.492L673.91,119.492z"/>
	</g>
	<g>
		<path fill="#231F20" d="M684.229,141.673l-2.354-4.18v4.18h-7.732v-20.681h8.65c5.081,0,8.494,3.121,8.494,7.766
			c0,2.363-0.96,4.356-2.683,5.668l4.239,7.247H684.229z M682.559,129.521c0.971,0,0.971-0.32,0.971-0.762s0-0.762-0.971-0.762
			h-0.684v1.524H682.559z"/>
		<path fill="#FFFFFF" d="M682.793,122.492c4.498,0,6.994,2.652,6.994,6.266c0,2.34-1.118,4.186-3.225,5.148l3.666,6.266h-5.122
			l-3.12-5.538h-1.611v5.538h-4.732v-17.681H682.793 M680.375,131.021h2.184c1.612,0,2.471-0.806,2.471-2.262
			s-0.858-2.262-2.471-2.262h-2.184V131.021 M682.793,119.492h-7.15h-3v3v17.681v3h3h4.732h3h1.731h5.122h5.23l-2.641-4.515
			l-2.3-3.929c1.467-1.542,2.269-3.604,2.269-5.97C692.787,123.303,688.678,119.492,682.793,119.492L682.793,119.492z"/>
	</g>
	<g>
		<path fill="#231F20" d="M699.666,141.933c-4.895,0-7.446-2.428-8.532-3.876l-0.899-1.2l4.835-3.627
			c-2.497-1.604-3.092-3.872-3.092-5.667c0-3.991,3.098-6.778,7.532-6.778c3.912,0,6.061,1.56,7.175,2.868l0.876,1.029l-3.833,4.019
			c2.819,1.329,4.146,3.311,4.146,6.143C707.874,139.282,704.806,141.933,699.666,141.933z M697.688,134.414
			c0.524,0.416,1.069,0.591,1.757,0.593L697.688,134.414z"/>
		<path fill="#FFFFFF" d="M699.51,122.284c3.12,0,4.992,1.118,6.032,2.34l-2.704,2.834c-0.729-0.754-1.664-1.274-3.068-1.274
			c-1.144,0-1.716,0.52-1.716,1.222c0,0.676,0.39,1.014,1.248,1.3l2.34,0.78c3.536,1.17,4.732,2.86,4.732,5.356
			c0,3.25-2.028,5.59-6.708,5.59c-3.979,0-6.24-1.82-7.332-3.276l3.432-2.574c0.858,1.066,1.924,1.924,3.692,1.924
			c1.403,0,2.235-0.416,2.235-1.404c0-0.754-0.571-1.118-1.741-1.508l-2.08-0.702c-2.574-0.858-4.395-2.418-4.395-5.33
			C693.478,124.078,696.363,122.284,699.51,122.284 M699.51,119.284c-5.233,0-9.032,3.481-9.032,8.278
			c0,1.471,0.357,3.711,2.169,5.61l-2.112,1.584l-2.399,1.8l1.799,2.4c1.254,1.671,4.185,4.476,9.732,4.476
			c7.158,0,9.708-4.438,9.708-8.59c0-2.782-1.069-4.926-3.25-6.482l1.589-1.666l1.866-1.957l-1.753-2.059
			C706.508,121.13,703.994,119.284,699.51,119.284L699.51,119.284z"/>
	</g>
	<g>
		<polygon fill="#231F20" points="711.687,141.673 711.687,127.97 707.006,127.97 707.006,120.992 724.099,120.992 724.099,127.97 
			719.419,127.97 719.419,141.673 		"/>
		<path fill="#FFFFFF" d="M722.599,122.492v3.978h-4.68v13.703h-4.732V126.47h-4.681v-3.978H722.599 M725.599,119.492h-3h-14.093h-3
			v3v3.978v3h3h1.681v10.703v3h3h4.732h3v-3V129.47h1.68h3v-3v-3.978V119.492L725.599,119.492z"/>
	</g>
	<g>
		<polygon fill="#231F20" points="535.2,202.273 535.2,181.592 550.212,181.592 550.212,188.57 542.932,188.57 542.932,189.159 
			549.354,189.159 549.354,196.137 542.932,196.137 542.932,202.273 		"/>
		<path fill="#FFFFFF" d="M548.712,183.092v3.978h-7.28v3.588h6.422v3.978h-6.422v6.136H536.7v-17.681H548.712 M551.712,180.092h-3
			H536.7h-3v3v17.681v3h3h4.732h3v-3v-3.136h3.422h3v-3v-3.978v-0.588h0.858v-3v-3.978V180.092L551.712,180.092z"/>
	</g>
	<g>
		<path fill="#231F20" d="M560.1,202.533c-5.657,0-9.17-3.295-9.17-8.599v-12.342h7.732v12.291c0,1.392,0.484,1.646,1.438,1.646
			c0.954,0,1.438-0.254,1.438-1.646v-12.291h7.732v12.342C569.27,199.238,565.756,202.533,560.1,202.533z"/>
		<path fill="#FFFFFF" d="M567.77,183.092v10.842c0,4.758-3.25,7.099-7.67,7.099c-4.42,0-7.67-2.34-7.67-7.099v-10.842h4.732v10.791
			c0,2.002,0.937,3.146,2.938,3.146s2.938-1.144,2.938-3.146v-10.791H567.77 M570.77,180.092h-3h-4.732h-2.876h-3h-4.732h-3v3
			v10.842c0,6.135,4.188,10.099,10.67,10.099s10.67-3.964,10.67-10.099v-10.842V180.092L570.77,180.092z"/>
	</g>
	<g>
		<polygon fill="#231F20" points="570.715,202.273 570.715,181.592 578.447,181.592 578.447,195.295 585.961,195.295 
			585.961,202.273 		"/>
		<path fill="#FFFFFF" d="M576.947,183.092v13.703h7.514v3.978h-12.246v-17.681H576.947 M579.947,180.092h-3h-4.732h-3v3v17.681v3h3
			h12.246h3v-3v-3.978v-3h-3h-4.514v-10.703V180.092L579.947,180.092z"/>
	</g>
	<g>
		<polygon fill="#231F20" points="586.705,202.273 586.705,181.592 594.437,181.592 594.437,195.295 601.951,195.295 
			601.951,202.273 		"/>
		<path fill="#FFFFFF" d="M592.937,183.092v13.703h7.515v3.978h-12.247v-17.681H592.937 M595.937,180.092h-3h-4.732h-3v3v17.681v3h3
			h12.247h3v-3v-3.978v-3h-3h-4.515v-10.703V180.092L595.937,180.092z"/>
	</g>
	<g>
		<path fill="#231F20" d="M617.948,202.533c-4.895,0-7.447-2.429-8.532-3.876l-0.9-1.2l4.836-3.627
			c-2.497-1.603-3.092-3.872-3.092-5.667c0-3.991,3.097-6.778,7.533-6.778c3.914,0,6.062,1.56,7.174,2.869l0.875,1.029l-3.832,4.018
			c2.819,1.329,4.146,3.312,4.146,6.143C626.156,199.883,623.088,202.533,617.948,202.533z M615.971,195.014
			c0.523,0.416,1.068,0.591,1.757,0.593L615.971,195.014z"/>
		<path fill="#FFFFFF" d="M617.793,182.884c3.119,0,4.992,1.118,6.031,2.34l-2.703,2.834c-0.729-0.754-1.664-1.274-3.068-1.274
			c-1.145,0-1.717,0.521-1.717,1.222c0,0.676,0.391,1.014,1.248,1.3l2.341,0.78c3.536,1.17,4.731,2.86,4.731,5.356
			c0,3.25-2.027,5.59-6.708,5.59c-3.978,0-6.24-1.82-7.332-3.276l3.433-2.574c0.857,1.066,1.924,1.924,3.691,1.924
			c1.404,0,2.236-0.416,2.236-1.404c0-0.754-0.572-1.118-1.742-1.508l-2.08-0.702c-2.574-0.858-4.394-2.418-4.394-5.33
			C611.76,184.678,614.646,182.884,617.793,182.884 M617.793,179.884c-5.234,0-9.033,3.481-9.033,8.278
			c0,1.471,0.357,3.711,2.169,5.61l-2.113,1.584l-2.4,1.8l1.799,2.4c1.254,1.672,4.185,4.477,9.732,4.477
			c7.157,0,9.708-4.438,9.708-8.59c0-2.782-1.069-4.925-3.25-6.482l1.589-1.666l1.865-1.956l-1.751-2.059
			C624.792,181.731,622.28,179.884,617.793,179.884L617.793,179.884z"/>
	</g>
	<g>
		<polygon fill="#231F20" points="629.969,202.273 629.969,188.57 625.288,188.57 625.288,181.592 642.381,181.592 642.381,188.57 
			637.701,188.57 637.701,202.273 		"/>
		<path fill="#FFFFFF" d="M640.881,183.092v3.978h-4.68v13.703h-4.732V187.07h-4.681v-3.978H640.881 M643.881,180.092h-3h-14.093h-3
			v3v3.978v3h3h1.681v10.703v3h3h4.732h3v-3V190.07h1.68h3v-3v-3.978V180.092L643.881,180.092z"/>
	</g>
	<g>
		<path fill="#231F20" d="M652.174,202.273l-0.937-2.132h-4.181l-0.884,2.132h-8.01l9.632-20.14c0.252-0.589,0.84-0.99,1.51-0.99
			s1.258,0.401,1.535,1.045l9.578,20.084H652.174z"/>
		<path fill="#FFFFFF" d="M649.305,182.644c0.059,0,0.117,0.046,0.156,0.137l8.58,17.993h-4.888l-0.937-2.132h-6.162l-0.884,2.132
			h-4.628l8.605-17.993C649.188,182.689,649.246,182.644,649.305,182.644 M647.511,195.209h3.198l-1.612-3.744L647.511,195.209
			 M649.305,179.644c-1.23,0-2.349,0.73-2.875,1.869l-8.593,17.966l-2.055,4.294h4.761h4.628h2.004l0.768-1.852l0.116-0.281h2.199
			l0.148,0.339l0.788,1.793h1.959h4.888h4.754l-2.046-4.292l-8.567-17.966C651.655,180.375,650.536,179.644,649.305,179.644
			L649.305,179.644z"/>
	</g>
	<g>
		<path fill="#231F20" d="M667.895,202.507c-6.002,0-10.704-4.645-10.704-10.574c0-5.915,4.588-10.548,10.444-10.548
			c3.891,0,6.88,1.499,8.886,4.454l0.842,1.241l-6.069,4.12l-0.834-1.283c-0.48-0.74-1.146-1.424-2.746-1.424
			c-1.982,0-2.686,1.854-2.686,3.44c0,1.599,0.744,3.466,2.842,3.466c1.624,0,2.29-0.633,2.839-1.654l0.768-1.43l6.221,4
			l-0.737,1.244C674.959,200.935,672.079,202.507,667.895,202.507z"/>
		<path fill="#FFFFFF" d="M667.635,182.884c3.822,0,6.162,1.612,7.645,3.796l-3.562,2.418c-0.676-1.04-1.768-2.106-4.004-2.106
			c-2.6,0-4.186,2.158-4.186,4.94s1.638,4.966,4.342,4.966c2.288,0,3.406-1.04,4.16-2.444l3.64,2.34
			c-1.741,2.938-4.186,4.212-7.774,4.212c-4.966,0-9.204-3.744-9.204-9.074S662.902,182.884,667.635,182.884 M667.635,179.884
			c-6.697,0-11.944,5.292-11.944,12.048c0,6.771,5.36,12.074,12.204,12.074c4.702,0,8.089-1.859,10.355-5.683l1.475-2.488
			l-2.434-1.564l-3.64-2.34l-0.394-0.253l0.144-0.097l3.562-2.418l2.482-1.685l-1.685-2.482
			C675.492,181.652,671.99,179.884,667.635,179.884L667.635,179.884z M667.869,193.899c-1.211,0-1.342-1.375-1.342-1.966
			c0-0.455,0.086-1.94,1.186-1.94c0.939,0,1.188,0.28,1.488,0.741l0.778,1.197l-0.594,1.105
			C669.043,193.675,668.836,193.899,667.869,193.899L667.869,193.899z"/>
	</g>
	<g>
		<polygon fill="#231F20" points="688.664,202.273 685.281,197.114 685.281,202.273 677.549,202.273 677.549,181.592 
			685.281,181.592 685.281,185.899 688.488,181.592 697.402,181.592 690.326,190.829 697.846,202.273 		"/>
		<path fill="#FFFFFF" d="M694.363,183.092l-5.876,7.67l6.578,10.01h-5.591l-4.212-6.422l-1.481,1.82v4.602h-4.732v-17.681h4.732
			v7.333l5.46-7.333H694.363 M700.44,180.092h-6.077h-5.122h-1.507l-0.899,1.208l-0.054,0.072v-1.28h-3h-4.732h-3v3v17.681v3h3
			h4.732h3v-1.636l0.185,0.281l0.889,1.355h1.62h5.591h5.562l-3.055-4.647l-5.408-8.23l4.581-5.979L700.44,180.092L700.44,180.092z"
			/>
	</g>
	<g>
		<path fill="#231F20" d="M545.358,263.133c-4.143,0-6.09-2.032-6.994-3.736l-0.646-1.219l6.042-3.88l0.775,1.33v-13.436h7.732
			v14.214C552.266,260.555,549.619,263.133,545.358,263.133z"/>
		<path fill="#FFFFFF" d="M550.766,243.692v12.714c0,3.328-2.002,5.227-5.408,5.227c-2.99,0-4.758-1.222-5.668-2.938l3.562-2.288
			c0.364,0.624,0.754,1.17,1.56,1.17c0.754,0,1.222-0.416,1.222-1.508v-12.376H550.766 M553.766,240.692h-3h-4.732h-3v3v9.289
			l-1.403,0.901l-3.562,2.288l-2.322,1.492l1.293,2.438c0.898,1.693,3.172,4.533,8.319,4.533c5.108,0,8.408-3.229,8.408-8.227
			v-12.714V240.692L553.766,240.692z"/>
	</g>
	<g>
		<path fill="#231F20" d="M564.294,262.873l-0.936-2.132h-4.181l-0.884,2.132h-8.011l9.634-20.14
			c0.249-0.587,0.837-0.989,1.509-0.989c0.67,0,1.258,0.401,1.535,1.045l9.579,20.084H564.294z"/>
		<path fill="#FFFFFF" d="M561.426,243.243c0.059,0,0.117,0.046,0.156,0.137l8.58,17.993h-4.888l-0.936-2.132h-6.162l-0.884,2.132
			h-4.628l8.606-17.993C561.309,243.289,561.367,243.243,561.426,243.243 M559.632,255.809h3.198l-1.612-3.744L559.632,255.809
			 M561.426,240.243c-1.231,0-2.35,0.731-2.875,1.87l-8.593,17.965l-2.054,4.294h4.761h4.628h2.004l0.768-1.852l0.116-0.281h2.199
			l0.148,0.338l0.788,1.794h1.959h4.888h4.754l-2.046-4.292l-8.567-17.966C563.777,240.975,562.657,240.243,561.426,240.243
			L561.426,240.243z"/>
	</g>
	<g>
		<path fill="#231F20" d="M576.375,263.171c-0.631,0-1.205-0.362-1.497-0.944l-9.333-20.035h8.377l2.614,5.961l2.539-5.961h8.158
			l-9.344,19.998C577.581,262.81,577.007,263.171,576.375,263.171z"/>
		<path fill="#FFFFFF" d="M584.878,243.692l-8.346,17.863c-0.039,0.078-0.098,0.117-0.156,0.117c-0.059,0-0.117-0.039-0.156-0.117
			l-8.32-17.863h5.044l3.614,8.242l3.51-8.242H584.878 M589.591,240.692h-4.713h-4.81h-1.983l-0.777,1.825l-0.79,1.855l-0.827-1.885
			l-0.787-1.795h-1.96h-5.044h-4.707l1.988,4.267l8.32,17.863l0.018,0.04l0.02,0.039c0.548,1.093,1.636,1.771,2.838,1.771
			s2.289-0.679,2.837-1.772l0.019-0.037l0.018-0.038l8.346-17.863L589.591,240.692L589.591,240.692z"/>
	</g>
	<g>
		<path fill="#231F20" d="M594.247,262.873l-0.936-2.132h-4.181l-0.884,2.132h-8.011l9.634-20.14
			c0.249-0.587,0.837-0.989,1.509-0.989c0.67,0,1.258,0.401,1.535,1.045l9.579,20.084H594.247z"/>
		<path fill="#FFFFFF" d="M591.378,243.243c0.059,0,0.117,0.046,0.156,0.137l8.58,17.993h-4.888l-0.936-2.132h-6.162l-0.884,2.132
			h-4.628l8.606-17.993C591.261,243.289,591.319,243.243,591.378,243.243 M589.584,255.809h3.198l-1.612-3.744L589.584,255.809
			 M591.378,240.243c-1.231,0-2.35,0.731-2.875,1.87l-8.593,17.965l-2.054,4.294h4.761h4.628h2.004l0.768-1.852l0.116-0.281h2.199
			l0.148,0.338l0.788,1.794h1.959h4.888h4.754l-2.046-4.292l-8.567-17.966C593.729,240.975,592.609,240.243,591.378,240.243
			L591.378,240.243z"/>
	</g>
	<g>
		<path fill="#231F20" d="M609.214,263.133c-4.894,0-7.446-2.429-8.532-3.876l-0.9-1.2l4.836-3.627
			c-2.497-1.603-3.092-3.872-3.092-5.667c0-3.991,3.097-6.778,7.532-6.778c3.912,0,6.062,1.56,7.175,2.868l0.876,1.03l-3.834,4.018
			c2.819,1.329,4.147,3.312,4.147,6.143C617.422,260.482,614.354,263.133,609.214,263.133z M607.236,255.613
			c0.523,0.416,1.068,0.591,1.757,0.593L607.236,255.613z"/>
		<path fill="#FFFFFF" d="M609.058,243.484c3.12,0,4.992,1.118,6.032,2.34l-2.704,2.834c-0.728-0.754-1.664-1.274-3.068-1.274
			c-1.144,0-1.716,0.521-1.716,1.222c0,0.676,0.39,1.014,1.248,1.3l2.34,0.78c3.536,1.17,4.732,2.86,4.732,5.356
			c0,3.25-2.028,5.59-6.708,5.59c-3.979,0-6.24-1.82-7.333-3.276l3.432-2.574c0.858,1.066,1.924,1.924,3.692,1.924
			c1.404,0,2.236-0.416,2.236-1.404c0-0.754-0.572-1.118-1.742-1.508l-2.08-0.702c-2.574-0.858-4.394-2.418-4.394-5.33
			C603.025,245.278,605.912,243.484,609.058,243.484 M609.058,240.484c-5.233,0-9.032,3.481-9.032,8.278
			c0,1.471,0.357,3.711,2.169,5.609l-2.113,1.585l-2.4,1.8l1.8,2.4c1.254,1.672,4.186,4.476,9.732,4.476
			c7.157,0,9.708-4.438,9.708-8.59c0-2.782-1.069-4.925-3.25-6.482l1.589-1.666l1.866-1.956l-1.752-2.059
			C616.057,242.331,613.543,240.484,609.058,240.484L609.058,240.484z"/>
	</g>
	<g>
		<path fill="#231F20" d="M628.115,263.106c-6.002,0-10.704-4.645-10.704-10.574c0-5.915,4.588-10.548,10.444-10.548
			c3.891,0,6.88,1.499,8.886,4.454l0.842,1.241l-6.069,4.12l-0.834-1.283c-0.48-0.74-1.146-1.424-2.746-1.424
			c-1.982,0-2.686,1.854-2.686,3.44c0,1.599,0.744,3.466,2.842,3.466c1.624,0,2.29-0.633,2.839-1.654l0.768-1.43l6.221,4
			l-0.737,1.244C635.18,261.535,632.3,263.106,628.115,263.106z"/>
		<path fill="#FFFFFF" d="M627.855,243.484c3.822,0,6.162,1.612,7.645,3.796l-3.562,2.418c-0.676-1.04-1.768-2.106-4.004-2.106
			c-2.6,0-4.186,2.158-4.186,4.94s1.638,4.966,4.342,4.966c2.288,0,3.406-1.04,4.16-2.444l3.64,2.34
			c-1.741,2.938-4.186,4.212-7.774,4.212c-4.966,0-9.204-3.744-9.204-9.074S623.123,243.484,627.855,243.484 M627.855,240.484
			c-6.697,0-11.944,5.292-11.944,12.048c0,6.771,5.36,12.074,12.204,12.074c4.702,0,8.089-1.859,10.355-5.683l1.475-2.488
			l-2.434-1.564l-3.64-2.34l-0.394-0.253l0.144-0.097l3.562-2.418l2.482-1.685l-1.685-2.482
			C635.713,242.251,632.211,240.484,627.855,240.484L627.855,240.484z M628.09,254.499c-1.211,0-1.342-1.375-1.342-1.966
			c0-0.455,0.086-1.94,1.186-1.94c0.939,0,1.188,0.28,1.488,0.741l0.778,1.197l-0.594,1.105
			C629.264,254.275,629.057,254.499,628.09,254.499L628.09,254.499z"/>
	</g>
	<g>
		<path fill="#231F20" d="M647.855,262.873l-2.354-4.18v4.18h-7.732v-20.681h8.65c5.081,0,8.494,3.121,8.494,7.766
			c0,2.363-0.96,4.356-2.683,5.668l4.241,7.247H647.855z M646.185,250.72c0.97,0,0.97-0.32,0.97-0.762s0-0.762-0.97-0.762h-0.684
			v1.524H646.185z"/>
		<path fill="#FFFFFF" d="M646.419,243.692c4.498,0,6.994,2.652,6.994,6.266c0,2.34-1.118,4.187-3.225,5.148l3.667,6.266h-5.123
			l-3.12-5.538h-1.611v5.538h-4.732v-17.681H646.419 M644.001,252.22h2.184c1.612,0,2.47-0.806,2.47-2.262s-0.857-2.262-2.47-2.262
			h-2.184V252.22 M646.419,240.692h-7.15h-3v3v17.681v3h3h4.732h3h1.731h5.123h5.231l-2.643-4.515l-2.299-3.929
			c1.466-1.542,2.268-3.604,2.268-5.97C656.413,244.502,652.304,240.692,646.419,240.692L646.419,240.692z"/>
	</g>
	<g>
		<rect x="656.254" y="242.192" fill="#231F20" width="7.732" height="20.681"/>
		<path fill="#FFFFFF" d="M662.486,243.692v17.681h-4.732v-17.681H662.486 M665.486,240.692h-3h-4.732h-3v3v17.681v3h3h4.732h3v-3
			v-17.681V240.692L665.486,240.692z"/>
	</g>
	<g>
		<path fill="#231F20" d="M665.719,262.873v-20.681h8.65c5.081,0,8.494,3.152,8.494,7.844c0,4.645-3.413,7.766-8.494,7.766h-0.918
			v5.07H665.719z M674.135,250.85c0.905,0,0.971-0.308,0.971-0.814c0-0.507-0.067-0.84-0.971-0.84h-0.684v1.654H674.135z"/>
		<path fill="#FFFFFF" d="M674.369,243.692c4.498,0,6.994,2.73,6.994,6.344s-2.496,6.266-6.994,6.266h-2.418v5.07h-4.732v-17.681
			H674.369 M671.951,252.35h2.184c1.612,0,2.471-0.858,2.471-2.314s-0.858-2.34-2.471-2.34h-2.184V252.35 M674.369,240.692h-7.15h-3
			v3v17.681v3h3h4.732h3v-3v-2.083c5.571-0.243,9.412-3.979,9.412-9.253C684.363,244.534,680.254,240.692,674.369,240.692
			L674.369,240.692z"/>
	</g>
	<g>
		<polygon fill="#231F20" points="687.221,262.873 687.221,249.17 682.54,249.17 682.54,242.192 699.633,242.192 699.633,249.17 
			694.953,249.17 694.953,262.873 		"/>
		<path fill="#FFFFFF" d="M698.133,243.692v3.978h-4.68v13.703h-4.732V247.67h-4.681v-3.978H698.133 M701.133,240.692h-3H684.04h-3
			v3v3.978v3h3h1.681v10.703v3h3h4.732h3v-3V250.67h1.68h3v-3v-3.978V240.692L701.133,240.692z"/>
	</g>
	<g>
		<path fill="#231F20" d="M531.604,323.732c-4.894,0-7.446-2.428-8.532-3.875l-0.9-1.2l4.837-3.628
			c-2.498-1.604-3.093-3.872-3.093-5.667c0-3.991,3.097-6.778,7.532-6.778c3.912,0,6.061,1.56,7.174,2.867l0.876,1.03l-3.833,4.018
			c2.819,1.328,4.147,3.312,4.147,6.144C539.812,321.082,536.744,323.732,531.604,323.732z M529.626,316.214
			c0.524,0.415,1.069,0.591,1.757,0.593L529.626,316.214z"/>
		<path fill="#FFFFFF" d="M531.448,304.084c3.12,0,4.992,1.118,6.032,2.34l-2.704,2.834c-0.728-0.754-1.664-1.273-3.068-1.273
			c-1.145,0-1.716,0.52-1.716,1.222c0,0.676,0.39,1.015,1.248,1.3l2.34,0.78c3.536,1.17,4.732,2.86,4.732,5.356
			c0,3.25-2.028,5.59-6.708,5.59c-3.978,0-6.24-1.82-7.332-3.275l3.432-2.574c0.858,1.065,1.924,1.924,3.692,1.924
			c1.404,0,2.236-0.416,2.236-1.404c0-0.754-0.572-1.118-1.742-1.508l-2.08-0.702c-2.574-0.858-4.394-2.418-4.394-5.33
			C525.416,305.878,528.302,304.084,531.448,304.084 M531.448,301.084c-5.233,0-9.032,3.481-9.032,8.278
			c0,1.471,0.357,3.712,2.169,5.609l-2.113,1.585l-2.401,1.801l1.801,2.4c1.254,1.671,4.186,4.475,9.731,4.475
			c7.158,0,9.708-4.438,9.708-8.59c0-2.782-1.069-4.926-3.25-6.482l1.589-1.665l1.867-1.957l-1.753-2.059
			C538.446,302.931,535.933,301.084,531.448,301.084L531.448,301.084z"/>
	</g>
	<g>
		<polygon fill="#231F20" points="543.624,323.473 543.624,309.771 538.944,309.771 538.944,302.792 556.036,302.792 
			556.036,309.771 551.356,309.771 551.356,323.473 		"/>
		<path fill="#FFFFFF" d="M554.536,304.292v3.979h-4.68v13.702h-4.732v-13.702h-4.68v-3.979H554.536 M557.536,301.292h-3h-14.092h-3
			v3v3.979v3h3h1.68v10.702v3h3h4.732h3v-3v-10.702h1.68h3v-3v-3.979V301.292L557.536,301.292z"/>
	</g>
	<g>
		<path fill="#231F20" d="M565.95,323.707c-6.163,0-10.99-4.645-10.99-10.574c0-5.915,4.828-10.549,10.99-10.549
			s10.99,4.634,10.99,10.549C576.94,319.062,572.113,323.707,565.95,323.707z M565.95,309.692c-2.927,0-3.154,2.634-3.154,3.44
			c0,1.676,0.829,3.466,3.154,3.466s3.154-1.79,3.154-3.466C569.104,312.326,568.877,309.692,565.95,309.692z"/>
		<path fill="#FFFFFF" d="M565.95,304.084c5.096,0,9.49,3.718,9.49,9.049c0,5.33-4.394,9.074-9.49,9.074s-9.49-3.744-9.49-9.074
			C556.46,307.802,560.854,304.084,565.95,304.084 M565.95,318.099c2.964,0,4.654-2.185,4.654-4.966c0-2.782-1.69-4.94-4.654-4.94
			c-2.964,0-4.654,2.158-4.654,4.94C561.296,315.914,562.986,318.099,565.95,318.099 M565.95,301.084
			c-7.004,0-12.49,5.292-12.49,12.049c0,6.771,5.486,12.074,12.49,12.074s12.49-5.304,12.49-12.074
			C578.44,306.376,572.954,301.084,565.95,301.084L565.95,301.084z M565.95,315.099c-0.409,0-1.654,0-1.654-1.966
			c0-1.94,1.245-1.94,1.654-1.94s1.654,0,1.654,1.94C567.604,315.099,566.359,315.099,565.95,315.099L565.95,315.099z"/>
	</g>
	<g>
		<path fill="#231F20" d="M587.798,323.473l-2.356-4.182v4.182h-7.732v-20.681h8.65c5.081,0,8.494,3.121,8.494,7.767
			c0,2.362-0.96,4.355-2.682,5.667l4.239,7.247H587.798z M586.126,311.32c0.97,0,0.97-0.319,0.97-0.762s0-0.763-0.97-0.763h-0.684
			v1.524H586.126z"/>
		<path fill="#FFFFFF" d="M586.36,304.292c4.498,0,6.994,2.652,6.994,6.267c0,2.34-1.118,4.186-3.224,5.147l3.666,6.267h-5.122
			l-3.12-5.538h-1.612v5.538h-4.732v-17.681H586.36 M583.942,312.82h2.184c1.612,0,2.47-0.806,2.47-2.262s-0.858-2.263-2.47-2.263
			h-2.184V312.82 M586.36,301.292h-7.15h-3v3v17.681v3h3h4.732h3h1.732h5.122h5.23l-2.641-4.515l-2.299-3.931
			c1.466-1.54,2.268-3.603,2.268-5.969C596.354,305.103,592.245,301.292,586.36,301.292L586.36,301.292z"/>
	</g>
	<g>
		<polygon fill="#231F20" points="596.091,323.473 596.091,302.792 611.494,302.792 611.494,309.771 610.22,309.771 610.22,316.452 
			603.823,316.452 603.823,316.494 611.857,316.494 611.857,323.473 		"/>
		<path fill="#FFFFFF" d="M609.994,304.292v3.979h-7.67v2.912h6.396v3.77h-6.396v3.042h8.034v3.979h-12.766v-17.681H609.994
			 M612.994,301.292h-3h-12.402h-3v3v17.681v3h3h12.766h3v-3v-3.979v-3h-1.638v-0.042v-3.682h1.274v-3v-3.979V301.292
			L612.994,301.292z"/>
	</g>
	<g>
		<polygon fill="#231F20" points="612.705,323.473 612.705,302.792 627.718,302.792 627.718,309.771 620.438,309.771 
			620.438,310.358 626.859,310.358 626.859,317.336 620.438,317.336 620.438,323.473 		"/>
		<path fill="#FFFFFF" d="M626.218,304.292v3.979h-7.28v3.588h6.422v3.978h-6.422v6.137h-4.732v-17.681H626.218 M629.218,301.292h-3
			h-12.013h-3v3v17.681v3h3h4.732h3v-3v-3.137h3.422h3v-3v-3.978v-0.588h0.858v-3v-3.979V301.292L629.218,301.292z"/>
	</g>
	<g>
		<path fill="#231F20" d="M638.704,323.473l-2.354-4.18v4.18h-7.732v-20.681h8.65c5.081,0,8.494,3.121,8.494,7.767
			c0,2.362-0.96,4.355-2.683,5.667l4.239,7.247H638.704z M637.033,311.32c0.971,0,0.971-0.319,0.971-0.762s0-0.763-0.971-0.763
			h-0.684v1.524H637.033z"/>
		<path fill="#FFFFFF" d="M637.268,304.292c4.498,0,6.994,2.652,6.994,6.267c0,2.34-1.118,4.186-3.225,5.147l3.666,6.267h-5.122
			l-3.12-5.538h-1.611v5.538h-4.732v-17.681H637.268 M634.85,312.82h2.184c1.612,0,2.471-0.806,2.471-2.262
			s-0.858-2.263-2.471-2.263h-2.184V312.82 M637.268,301.292h-7.15h-3v3v17.681v3h3h4.732h3h1.731h5.122h5.23l-2.641-4.515
			l-2.3-3.93c1.467-1.541,2.269-3.604,2.269-5.97C647.262,305.103,643.152,301.292,637.268,301.292L637.268,301.292z"/>
	</g>
	<g>
		<path fill="#231F20" d="M657.131,323.707c-6.163,0-10.99-4.645-10.99-10.574c0-5.915,4.827-10.549,10.99-10.549
			s10.99,4.634,10.99,10.549C668.121,319.062,663.294,323.707,657.131,323.707z M657.131,309.692c-2.927,0-3.154,2.634-3.154,3.44
			c0,1.676,0.829,3.466,3.154,3.466s3.154-1.79,3.154-3.466C660.285,312.326,660.058,309.692,657.131,309.692z"/>
		<path fill="#FFFFFF" d="M657.131,304.084c5.097,0,9.49,3.718,9.49,9.049c0,5.33-4.394,9.074-9.49,9.074
			c-5.096,0-9.49-3.744-9.49-9.074C647.641,307.802,652.035,304.084,657.131,304.084 M657.131,318.099
			c2.965,0,4.654-2.185,4.654-4.966c0-2.782-1.689-4.94-4.654-4.94c-2.964,0-4.654,2.158-4.654,4.94
			C652.477,315.914,654.167,318.099,657.131,318.099 M657.131,301.084c-7.004,0-12.49,5.292-12.49,12.049
			c0,6.771,5.486,12.074,12.49,12.074s12.49-5.304,12.49-12.074C669.621,306.376,664.135,301.084,657.131,301.084L657.131,301.084z
			 M657.131,315.099c-0.409,0-1.654,0-1.654-1.966c0-1.94,1.245-1.94,1.654-1.94s1.654,0,1.654,1.94
			C658.785,315.099,657.54,315.099,657.131,315.099L657.131,315.099z"/>
	</g>
	<g>
		<path fill="#231F20" d="M686.202,323.928c-0.624,0-1.067-0.362-1.213-0.481l-8.652-7.113v7.14h-7.446v-19.415
			c0-0.941,0.71-1.68,1.615-1.68c0.417,0,0.821,0.157,1.199,0.468l8.652,7.132v-7.186h7.445v19.44
			C687.803,323.334,686.978,323.928,686.202,323.928z"/>
		<path fill="#FFFFFF" d="M670.506,303.878c0.057,0,0.137,0.036,0.249,0.128l11.103,9.152v-8.866h4.445v17.94
			c0,0.119-0.025,0.195-0.101,0.195c-0.057,0-0.141-0.043-0.263-0.143l-11.103-9.127v8.814h-4.446v-17.915
			C670.391,303.963,670.42,303.878,670.506,303.878 M670.506,300.878c-1.747,0-3.115,1.396-3.115,3.18v17.915v3h3h4.446h3v-3v-2.465
			l6.197,5.095c0.671,0.549,1.398,0.825,2.168,0.825c1.738,0,3.101-1.403,3.101-3.195v-17.94v-3h-3h-4.445h-3v3v2.505l-6.194-5.105
			C671.842,301.018,671.037,300.878,670.506,300.878L670.506,300.878z"/>
	</g>
	<g>
		<polygon fill="#231F20" points="693.175,323.473 693.175,309.771 688.494,309.771 688.494,302.792 705.587,302.792 
			705.587,309.771 700.907,309.771 700.907,323.473 		"/>
		<path fill="#FFFFFF" d="M704.087,304.292v3.979h-4.68v13.702h-4.732v-13.702h-4.681v-3.979H704.087 M707.087,301.292h-3h-14.093
			h-3v3v3.979v3h3h1.681v10.702v3h3h4.732h3v-3v-10.702h1.68h3v-3v-3.979V301.292L707.087,301.292z"/>
	</g>
	<g>
		<path fill="#231F20" d="M710.17,323.732c-2.299,0-4.1-1.778-4.1-4.048c0-0.879,0.27-1.684,0.734-2.341l-0.646-14.552h8.024
			l-0.647,14.582c0.463,0.655,0.735,1.452,0.735,2.311C714.271,321.917,712.431,323.732,710.17,323.732z"/>
		<path fill="#FFFFFF" d="M712.614,304.292l-0.52,11.7h-3.849l-0.52-11.7H712.614 M710.17,317.137c1.353,0,2.601,1.04,2.601,2.548
			s-1.248,2.548-2.601,2.548c-1.378,0-2.6-1.04-2.6-2.548S708.792,317.137,710.17,317.137 M715.75,301.292h-3.136h-4.888h-3.136
			l0.139,3.133l0.52,11.7l0.036,0.808c-0.456,0.807-0.715,1.744-0.715,2.752c0,3.111,2.46,5.548,5.6,5.548
			c3.088,0,5.601-2.488,5.601-5.548c0-0.984-0.261-1.91-0.717-2.713l0.038-0.847l0.52-11.7L715.75,301.292L715.75,301.292z"/>
	</g>
</g>
</svg>
