<?xml version="1.0" encoding="utf-8"?>
<!-- Generator: Adobe Illustrator 15.0.0, SVG Export Plug-In . SVG Version: 6.00 Build 0)  -->
<!DOCTYPE svg PUBLIC "-//W3C//DTD SVG 1.1//EN" "http://www.w3.org/Graphics/SVG/1.1/DTD/svg11.dtd">
<svg version="1.1" xmlns="http://www.w3.org/2000/svg" xmlns:xlink="http://www.w3.org/1999/xlink" x="0px" y="0px" width="120px"
	 height="120px" viewBox="0 0 120 120" enable-background="new 0 0 120 120" xml:space="preserve">
<g id="Layer_8" display="none">
	<g display="inline">
		<g>
			<g>
				<path fill="#FFFFFF" d="M111.862,43.022c0-9.9-5.918-18.35-14.256-21.708c-3.042-9.057-11.29-15.553-20.993-15.553
					c-5.802,0-11.083,2.324-15.044,6.127c-3.164-3.749-7.781-6.127-12.939-6.127c-8.924,0-16.265,7.079-17.17,16.158
					c-8.509,1.118-15.096,8.694-15.096,17.893c0,1.437,0.178,2.827,0.48,4.167c-5.73,4.208-9.48,11.166-9.48,19.043
					c0,6.49,2.545,12.357,6.646,16.576c-0.003,0.176-0.013,0.351-0.013,0.527c0,15.55,12.059,28.157,26.932,28.157
					c1.494,0,2.958-0.133,4.386-0.377c1.118,0.474,2.254,0.911,3.417,1.288c3.806,3.182,8.629,5.089,13.881,5.089
					c5.579,0,10.674-2.152,14.58-5.699c1.735,0.455,3.55,0.699,5.42,0.699c12.288,0,22.25-10.415,22.25-23.261
					c0-1.888-0.22-3.72-0.626-5.477c4.671-4.264,7.626-10.531,7.626-17.523c0-3.58-0.775-6.971-2.158-10
					C111.086,49.993,111.862,46.603,111.862,43.022z"/>
			</g>
			<g>
				<path fill="none" stroke="#CCCCCC" stroke-width="3" stroke-miterlimit="10" d="M111.862,43.022
					c0-9.9-5.918-18.35-14.256-21.708c-3.042-9.057-11.29-15.553-20.993-15.553c-5.802,0-11.083,2.324-15.044,6.127
					c-3.164-3.749-7.781-6.127-12.939-6.127c-8.924,0-16.265,7.079-17.17,16.158c-8.509,1.118-15.096,8.694-15.096,17.893
					c0,1.437,0.178,2.827,0.48,4.167c-5.73,4.208-9.48,11.166-9.48,19.043c0,6.49,2.545,12.357,6.646,16.576
					c-0.003,0.176-0.013,0.351-0.013,0.527c0,15.55,12.059,28.157,26.932,28.157c1.494,0,2.958-0.133,4.386-0.377
					c1.118,0.474,2.254,0.911,3.417,1.288c3.806,3.182,8.629,5.089,13.881,5.089c5.579,0,10.674-2.152,14.58-5.699
					c1.735,0.455,3.55,0.699,5.42,0.699c12.288,0,22.25-10.415,22.25-23.261c0-1.888-0.22-3.72-0.626-5.477
					c4.671-4.264,7.626-10.531,7.626-17.523c0-3.58-0.775-6.971-2.158-10C111.086,49.993,111.862,46.603,111.862,43.022z"/>
			</g>
		</g>
		<g>
			<g>
				<path fill="#CCCCCC" d="M40.686,85.775c0.995-1.744,2.645-3.086,4.673-3.786c1.013-0.346,2.13-0.51,3.266-0.435
					c1.125,0.066,2.305,0.416,3.279,0.93c2.131,1.112,3.54,3.107,4.118,5.147c0.579,2.051,0.446,4.164-0.389,5.993
					c-0.831-1.825-1.565-3.409-2.483-4.709c-0.895-1.298-1.955-2.277-3.083-2.879c-1.229-0.66-2.539-0.961-4.125-0.967
					C44.362,85.055,42.648,85.374,40.686,85.775z"/>
			</g>
			<g>
				<path fill="#FFFFFF" stroke="#CCCCCC" stroke-width="3" stroke-miterlimit="10" d="M62.136,81.728
					c1.411-0.656,2.861-1.056,4.289-1.242c1.242-3.376,3.15-5.856,5.591-7.581c2.849-2.011,6.976-2.89,10.554-1.37
					c1.915-3.623,3.004-7.751,3.004-12.133c0-0.45-0.011-0.897-0.034-1.341c-2.442-0.866-4.447-2.521-5.527-4.847
					c-0.874-1.885-1.016-3.948-0.556-5.952c-3.698-0.36-6.906-2.287-8.385-5.473c-0.696-1.501-0.921-3.116-0.755-4.724
					c-2.396,1.709-5.599,2.639-9.041,2.383c-2.126-0.158-4.093-0.752-5.787-1.663c-1.208,1.281-2.706,2.392-4.461,3.208
					c-3.55,1.648-7.348,1.759-10.414,0.599c-4.377,4.654-7.063,10.916-7.063,17.81c0,13.61,10.457,24.772,23.771,25.907
					C58.584,83.866,60.21,82.621,62.136,81.728z"/>
			</g>
			<circle fill="#CCCCCC" cx="56.59" cy="59.939" r="12.216"/>
			<circle fill="#FFFFFF" cx="50.366" cy="53.15" r="6.117"/>
			<g>
				<path fill="#CCCCCC" d="M90.844,58.241c-2.072,0.935-4.559,0.984-6.861,0.146c-2.298-0.818-4.396-2.707-5.403-5.092
					c-1.065-2.41-0.979-5.189-0.028-7.433c0.946-2.252,2.658-4.05,4.745-4.954c-0.899,2.079-1.521,3.972-1.716,5.8
					c-0.205,1.817,0.028,3.508,0.663,4.985c0.652,1.518,1.701,2.818,3.172,3.906C86.883,56.696,88.701,57.517,90.844,58.241z"/>
			</g>
			<g>
				<path fill="#CCCCCC" d="M54.099,38.107c-0.904,1.792-2.438,3.129-4.249,4.049c-1.801,0.907-3.886,1.328-5.964,1.188
					c-2.072-0.142-4.159-0.878-5.798-2.214c-1.635-1.315-2.783-3.284-2.78-5.288c1.525,1.275,2.938,2.064,4.403,2.594
					c1.454,0.532,2.937,0.802,4.458,0.919c1.522,0.102,3.083,0.05,4.707-0.178C50.491,38.967,52.193,38.581,54.099,38.107z"/>
			</g>
			<g>
				<path fill="#CCCCCC" d="M70.443,36.972c-1.385,2.052-3.74,3.41-6.235,3.982c-1.239,0.298-2.596,0.376-3.821,0.307
					c-1.371-0.097-2.613-0.365-3.866-0.822c-2.467-0.909-4.709-2.603-6.115-4.873c-1.415-2.236-1.86-5.157-0.826-7.419
					c0.676,2.364,1.844,4.105,3.301,5.479c1.456,1.37,3.18,2.368,5.035,3.065c0.91,0.354,1.932,0.615,2.853,0.804
					c1.069,0.194,2.037,0.309,3.093,0.343C65.952,37.912,68.095,37.655,70.443,36.972z"/>
			</g>
			<g>
				<path fill="#CCCCCC" d="M79.703,47.291c-1.97,0.682-4.228,0.496-6.244-0.466c-2.016-0.952-3.741-2.802-4.537-5.005
					c-0.833-2.216-0.706-4.699,0.151-6.731c0.854-2.04,2.368-3.697,4.266-4.562c-0.646,1.974-1.104,3.709-1.226,5.369
					c-0.134,1.649,0.058,3.163,0.559,4.536c0.513,1.392,1.33,2.645,2.512,3.777C76.363,45.35,77.871,46.317,79.703,47.291z"/>
			</g>
			<g>
				<path fill="#CCCCCC" d="M55.092,91.042c-0.319-2.431,0.639-4.981,2.202-6.977c1.583-2.01,3.793-3.525,6.235-4.35
					c2.443-0.829,5.162-0.957,7.647-0.223c2.461,0.717,4.744,2.379,5.677,4.659c-2.157-1.097-4.203-1.505-6.216-1.561
					c-2.009-0.049-3.96,0.292-5.83,0.914c-1.872,0.634-3.656,1.548-5.288,2.769C57.882,87.505,56.402,89.014,55.092,91.042z"/>
			</g>
			<g>
				<path fill="#CCCCCC" d="M65.568,81.552c-0.177-2.321,0.657-4.751,2.083-6.72c0.71-0.988,1.556-1.874,2.468-2.655l0.704-0.565
					c0.263-0.193,0.559-0.405,0.825-0.559c0.55-0.331,1.119-0.632,1.718-0.864c2.368-0.953,5.129-1.14,7.581-0.238
					c2.456,0.858,4.412,2.849,5.04,5.141c-2.062-1.19-3.943-1.839-5.799-1.966c-1.845-0.13-3.662,0.15-5.399,0.772
					c-0.429,0.165-0.861,0.328-1.275,0.529l-0.592,0.289l-0.36,0.205L72.27,75.1c-0.867,0.517-1.678,1.097-2.474,1.717
					C68.221,78.074,66.826,79.595,65.568,81.552z"/>
			</g>
			<polygon fill="#CCCCCC" points="55.632,89.329 54.099,85.948 57.043,85.411 			"/>
		</g>
		<g>
			<path fill="#CCCCCC" d="M54.767,24.59c-0.142-2.684,0.488-5.402,1.621-7.901c1.147-2.497,2.84-4.771,4.929-6.607
				c2.084-1.839,4.573-3.233,7.224-4.009c2.648-0.765,5.459-0.943,8.073-0.311c-2.603,0.63-5.007,1.411-7.229,2.514
				c-2.223,1.086-4.256,2.454-6.087,4.059c-1.83,1.607-3.454,3.454-4.859,5.505C57.014,19.889,55.855,22.145,54.767,24.59z"/>
		</g>
		<g>
			<path fill="#CCCCCC" d="M33.665,30.699c-1.657-2.474-2.435-5.556-2.4-8.634c0.04-3.088,0.945-6.208,2.607-8.872
				c1.651-2.668,4.06-4.877,6.862-6.23c2.795-1.35,5.987-1.841,8.895-1.201c-2.894,0.628-5.493,1.692-7.719,3.246
				c-2.229,1.537-4.084,3.513-5.491,5.77c-1.408,2.259-2.359,4.8-2.812,7.49C33.136,24.965,33.184,27.779,33.665,30.699z"/>
		</g>
		<g>
			<path fill="#CCCCCC" d="M23.33,53.461c-2.839-1.724-5.055-4.567-6.264-7.807c-1.244-3.241-1.473-6.883-0.706-10.31
				c0.764-3.428,2.555-6.64,5.116-8.995c2.517-2.383,5.818-3.917,9.135-4.096c-2.996,1.401-5.507,3.332-7.431,5.701
				c-1.913,2.372-3.24,5.129-3.894,8.047c-0.659,2.917-0.65,5.992,0.01,8.971C19.981,47.954,21.344,50.818,23.33,53.461z"/>
		</g>
		<g>
			<path fill="#CCCCCC" d="M82.437,20.395c5.151-1.951,11.311-1.513,16.399,1.186c2.568,1.306,4.83,3.188,6.73,5.365
				c1.88,2.204,3.33,4.767,4.326,7.488c0.948,2.74,1.426,5.64,1.389,8.524c-0.077,2.879-0.579,5.762-1.658,8.422
				c-2.065,5.338-6.196,9.828-11.26,12.013c4.408-3.275,7.549-7.81,9.049-12.784c0.725-2.491,1.115-5.067,1.028-7.644
				c-0.049-2.57-0.496-5.126-1.375-7.528c-1.675-4.832-5.017-9.069-9.387-11.831C93.305,20.838,87.881,19.678,82.437,20.395z"/>
		</g>
		<g>
			<path fill="#CCCCCC" d="M111.166,57.226c1.428,3.227,1.881,6.928,1.42,10.535c-0.433,3.62-1.835,7.154-3.994,10.146
				c-2.155,2.993-5.089,5.445-8.437,6.937c-3.325,1.521-7.071,2.071-10.542,1.44c3.463-0.628,6.647-1.783,9.451-3.512
				c2.79-1.741,5.199-3.989,7.098-6.621c1.904-2.629,3.29-5.625,4.133-8.821C111.12,64.122,111.378,60.735,111.166,57.226z"/>
		</g>
		<g>
			<path fill="#CCCCCC" d="M104.862,85.022c0.635,4.603-0.395,9.529-2.854,13.688c-1.201,2.102-2.807,3.971-4.629,5.595
				c-1.845,1.605-3.971,2.892-6.242,3.832c-2.29,0.893-4.727,1.426-7.177,1.525c-2.426,0.06-4.922-0.219-7.22-0.984
				c-4.637-1.46-8.638-4.593-11.055-8.56c3.388,3.161,7.402,5.379,11.664,6.299c2.143,0.429,4.28,0.617,6.444,0.409
				c2.141-0.167,4.25-0.653,6.227-1.473c1.998-0.769,3.861-1.881,5.544-3.224c1.709-1.32,3.182-2.936,4.487-4.69
				C102.623,93.892,104.243,89.616,104.862,85.022z"/>
		</g>
		<g>
			<path fill="#CCCCCC" d="M24.076,85.264c-3.926-0.607-7.69-2.652-10.58-5.577c-1.476-1.442-2.688-3.145-3.712-4.947
				c-1.001-1.819-1.729-3.785-2.235-5.8c-0.959-4.052-0.793-8.342,0.444-12.264c1.222-3.92,3.566-7.471,6.705-9.907
				c-2.209,3.286-3.722,6.825-4.438,10.49c-0.716,3.661-0.618,7.424,0.208,10.994c0.394,1.793,1.026,3.529,1.831,5.183
				c0.775,1.673,1.801,3.22,2.935,4.695C17.549,81.053,20.548,83.467,24.076,85.264z"/>
		</g>
		<g>
			<path fill="#CCCCCC" d="M58.061,100.854c-3.497,3.857-8.458,6.531-13.796,7.39c-1.324,0.228-2.702,0.347-4.025,0.342
				c-1.388-0.004-2.725-0.099-4.079-0.305c-2.692-0.425-5.311-1.304-7.751-2.523c-2.417-1.265-4.649-2.875-6.587-4.779
				c-1.907-1.93-3.581-4.093-4.829-6.481c-2.56-4.734-3.633-10.203-2.997-15.372c0.623,5.159,2.298,10.024,5.012,14.181
				c1.377,2.058,2.938,3.984,4.772,5.614c1.803,1.657,3.815,3.08,5.995,4.168c2.156,1.138,4.484,1.93,6.877,2.402
				c1.188,0.25,2.428,0.402,3.621,0.473c1.257,0.056,2.466,0.056,3.705-0.035C48.908,105.55,53.75,103.755,58.061,100.854z"/>
		</g>
	</g>
</g>
<g id="Layer_7_copy" display="none">
	<g display="inline">
		<g>
			<g>
				<g>
					<path fill="#FFFFFF" d="M101.165,27.543c-1.703-9.438-8.948-17.088-18.583-18.5C76.82,8.198,71.237,9.737,66.75,12.938
						c-2.596-4.185-6.835-7.218-11.958-7.969C45.93,3.671,37.61,9.632,35.389,18.516c-8.613-0.128-16.258,6.438-17.596,15.572
						c-0.209,1.427-0.235,2.833-0.128,4.208C11.359,41.64,6.623,48.004,5.477,55.827c-0.945,6.446,0.729,12.643,4.188,17.43
						c-0.029,0.174-0.064,0.346-0.089,0.521c-2.264,15.441,7.876,29.717,22.646,31.882c1.484,0.218,2.958,0.298,4.412,0.263
						c1.041,0.633,2.105,1.232,3.204,1.776c3.317,3.714,7.829,6.311,13.045,7.075c5.541,0.812,10.914-0.583,15.308-3.537
						c1.657,0.704,3.423,1.21,5.28,1.483c12.204,1.788,23.612-7.105,25.482-19.862c0.275-1.874,0.323-3.726,0.175-5.53
						c5.26-3.555,9.106-9.348,10.125-16.292c0.521-3.555,0.244-7.035-0.688-10.245c1.814-2.808,3.078-6.062,3.599-9.617
						C113.604,41.345,108.957,32.091,101.165,27.543z"/>
				</g>
				<g>
					<path fill="none" stroke="#CCCCCC" stroke-width="3" stroke-miterlimit="10" d="M101.165,27.543
						c-1.703-9.438-8.948-17.088-18.583-18.5C76.82,8.198,71.237,9.737,66.75,12.938c-2.596-4.185-6.835-7.218-11.958-7.969
						C45.93,3.671,37.61,9.632,35.389,18.516c-8.613-0.128-16.258,6.438-17.596,15.572c-0.209,1.427-0.235,2.833-0.128,4.208
						C11.359,41.64,6.623,48.004,5.477,55.827c-0.945,6.446,0.729,12.643,4.188,17.43c-0.029,0.174-0.064,0.346-0.089,0.521
						c-2.264,15.441,7.876,29.717,22.646,31.882c1.484,0.218,2.958,0.298,4.412,0.263c1.041,0.633,2.105,1.232,3.204,1.776
						c3.317,3.714,7.829,6.311,13.045,7.075c5.541,0.812,10.914-0.583,15.308-3.537c1.657,0.704,3.423,1.21,5.28,1.483
						c12.204,1.788,23.612-7.105,25.482-19.862c0.275-1.874,0.323-3.726,0.175-5.53c5.26-3.555,9.106-9.348,10.125-16.292
						c0.521-3.555,0.244-7.035-0.688-10.245c1.814-2.808,3.078-6.062,3.599-9.617C113.604,41.345,108.957,32.091,101.165,27.543z"/>
				</g>
			</g>
			<g>
				<path fill="#CCCCCC" d="M58.145,24.561c0.252-2.685,1.274-5.292,2.763-7.607c1.503-2.312,3.516-4.324,5.857-5.842
					c2.337-1.523,5.011-2.545,7.755-2.93c2.74-0.375,5.558-0.144,8.061,0.862c-2.676,0.244-5.178,0.668-7.546,1.44
					c-2.367,0.755-4.586,1.816-6.638,3.145c-2.052,1.33-3.934,2.928-5.627,4.762C61.059,20.217,59.58,22.29,58.145,24.561z"/>
			</g>
			<g>
				<path fill="#CCCCCC" d="M36.301,27.557c-1.282-2.698-1.606-5.871-1.123-8.923c0.49-3.06,1.843-6.025,3.881-8.428
					c2.027-2.409,4.74-4.252,7.719-5.188c2.971-0.935,6.212-0.959,9.007,0.097c-2.965,0.201-5.702,0.878-8.14,2.097
					c-2.438,1.202-4.568,2.894-6.295,4.931c-1.727,2.039-3.042,4.425-3.883,7.032C36.606,21.784,36.247,24.587,36.301,27.557z"/>
			</g>
			<g>
				<path fill="#CCCCCC" d="M22.724,48.657c-2.566-2.127-4.351-5.273-5.08-8.666c-0.763-3.4-0.459-7.048,0.801-10.339
					c1.257-3.292,3.503-6.22,6.388-8.187c2.846-2.001,6.346-3.044,9.666-2.741c-3.18,0.954-5.956,2.504-8.212,4.576
					c-2.247,2.077-3.966,4.623-5.042,7.426c-1.079,2.802-1.519,5.858-1.295,8.914C20.197,42.701,21.136,45.744,22.724,48.657z"/>
			</g>
			<g>
				<path fill="#CCCCCC" d="M86.235,24.421c5.399-1.185,11.451,0.147,16.11,3.567c2.359,1.671,4.331,3.868,5.901,6.308
					c1.546,2.462,2.612,5.218,3.205,8.064c0.542,2.858,0.596,5.807,0.14,8.666c-0.495,2.848-1.413,5.637-2.871,8.122
					c-2.827,5-7.581,8.858-12.927,10.292c4.855-2.608,8.636-6.654,10.852-11.376c1.083-2.369,1.846-4.871,2.134-7.442
					c0.326-2.561,0.254-5.164-0.269-7.679c-0.96-5.043-3.664-9.738-7.603-13.117C96.965,26.439,91.746,24.5,86.235,24.421z"/>
			</g>
			<g>
				<path fill="#CCCCCC" d="M109.404,65.179c0.946,3.413,0.857,7.153-0.126,10.668c-0.958,3.531-2.864,6.836-5.443,9.492
					c-2.575,2.658-5.845,4.666-9.386,5.66c-3.523,1.027-7.322,1.029-10.678-0.101c3.53-0.117,6.862-0.799,9.899-2.107
					c3.025-1.322,5.746-3.205,8.015-5.543c2.275-2.334,4.086-5.109,5.389-8.162C108.359,72.021,109.107,68.696,109.404,65.179z"/>
			</g>
			<g>
				<path fill="#CCCCCC" d="M99.098,91.868c-0.042,4.663-1.782,9.404-4.831,13.175c-1.499,1.911-3.365,3.533-5.411,4.88
					c-2.065,1.325-4.363,2.292-6.755,2.895c-2.404,0.554-4.9,0.728-7.347,0.47c-2.417-0.293-4.855-0.933-7.025-2.027
					c-4.392-2.124-7.909-5.815-9.734-10.105c2.903,3.633,6.566,6.422,10.665,7.957c2.066,0.738,4.161,1.236,6.342,1.346
					c2.15,0.146,4.316-0.029,6.399-0.556c2.097-0.472,4.109-1.306,5.978-2.395c1.89-1.062,3.588-2.453,5.139-4.005
					C95.587,100.351,97.817,96.339,99.098,91.868z"/>
			</g>
			<g>
				<path fill="#CCCCCC" d="M18.836,80.347c-3.81-1.176-7.249-3.756-9.691-7.081c-1.255-1.646-2.21-3.513-2.965-5.452
					c-0.729-1.952-1.166-4.009-1.375-6.084c-0.363-4.163,0.426-8.398,2.225-12.112c1.783-3.715,4.626-6.899,8.096-8.864
					c-2.672,2.94-4.692,6.235-5.937,9.771c-1.245,3.531-1.697,7.284-1.396,10.95c0.131,1.839,0.506,3.655,1.064,5.415
					c0.527,1.774,1.321,3.461,2.233,5.09C12.965,75.218,15.593,78.051,18.836,80.347z"/>
			</g>
			<g>
				<path fill="#CCCCCC" d="M50.316,100.776c-4.035,3.319-9.352,5.251-14.776,5.326c-1.348,0.033-2.733-0.049-4.046-0.247
					c-1.378-0.206-2.691-0.495-4.006-0.896c-2.611-0.814-5.083-2.068-7.328-3.633c-2.216-1.608-4.198-3.532-5.845-5.704
					c-1.613-2.193-2.96-4.585-3.853-7.138c-1.854-5.072-2.125-10.658-0.743-15.699c-0.134,5.214,0.82,10.29,2.91,14.813
					c1.068,2.245,2.337,4.385,3.922,6.272c1.549,1.908,3.341,3.614,5.348,5.013c1.975,1.443,4.172,2.569,6.481,3.387
					c1.144,0.42,2.354,0.753,3.527,0.996c1.241,0.239,2.442,0.415,3.685,0.504C40.545,104.111,45.615,103.032,50.316,100.776z"/>
			</g>
		</g>
		<g>
			<g>
				<path fill="#CCCCCC" d="M80.125,84.549c-1.994-0.424-3.744-0.76-5.36-0.753c-1.624-0.002-2.976,0.305-4.238,0.982
					c-1.163,0.62-2.249,1.631-3.159,2.964c-0.934,1.335-1.674,2.958-2.505,4.822c-0.835-1.868-0.961-4.019-0.367-6.105
					c0.594-2.076,2.028-4.102,4.193-5.232c0.993-0.524,2.19-0.878,3.334-0.947c1.155-0.078,2.291,0.087,3.323,0.437
					C77.413,81.424,79.099,82.782,80.125,84.549z"/>
			</g>
			<g>
				<path fill="#FFFFFF" stroke="#CCCCCC" stroke-width="3" stroke-miterlimit="10" d="M58.223,80.417
					c-1.441-0.67-2.921-1.078-4.379-1.268c-1.268-3.447-3.216-5.979-5.709-7.741c-2.908-2.053-7.122-2.95-10.775-1.399
					c-1.955-3.699-3.067-7.914-3.067-12.388c0-0.459,0.011-0.916,0.034-1.369c2.493-0.885,4.541-2.574,5.644-4.949
					c0.892-1.924,1.038-4.031,0.568-6.078c3.775-0.367,7.051-2.334,8.561-5.587c0.711-1.532,0.94-3.181,0.771-4.823
					c2.446,1.746,5.716,2.694,9.23,2.434c2.171-0.161,4.179-0.768,5.909-1.699c1.233,1.309,2.763,2.442,4.555,3.275
					c3.625,1.682,7.502,1.796,10.632,0.611c4.469,4.752,7.212,11.145,7.212,18.185c0,13.896-10.676,25.292-24.271,26.451
					C61.85,82.6,60.189,81.329,58.223,80.417z"/>
			</g>
			<circle fill="#CCCCCC" cx="63.885" cy="58.171" r="12.472"/>
			<circle fill="#FFFFFF" cx="70.24" cy="51.239" r="6.246"/>
			<g>
				<path fill="#CCCCCC" d="M28.911,56.436c2.188-0.722,4.051-1.55,5.557-2.668c1.511-1.108,2.593-2.442,3.263-4.001
					c0.653-1.518,0.888-3.256,0.67-5.116c-0.207-1.871-0.853-3.803-1.784-5.913c2.119,0.936,3.854,2.771,4.813,5.067
					c0.963,2.285,1.047,5.112-0.036,7.563c-1.024,2.426-3.155,4.348-5.493,5.187C33.559,57.414,31.027,57.373,28.911,56.436z"/>
			</g>
			<g>
				<path fill="#CCCCCC" d="M66.429,35.88c1.937,0.497,3.672,0.902,5.323,1.123c1.659,0.239,3.258,0.297,4.818,0.192
					c1.559-0.119,3.079-0.4,4.566-0.952c1.498-0.549,2.937-1.367,4.479-2.676c-0.013,2.038-1.188,4.036-2.855,5.371
					c-1.672,1.355-3.796,2.102-5.906,2.247c-2.115,0.143-4.238-0.283-6.076-1.202C68.93,39.051,67.363,37.695,66.429,35.88z"/>
			</g>
			<g>
				<path fill="#CCCCCC" d="M49.741,34.721c2.388,0.712,4.577,0.986,6.716,0.918c1.081-0.031,2.073-0.147,3.166-0.344
					c0.945-0.191,1.991-0.458,2.924-0.82c1.9-0.715,3.666-1.74,5.151-3.148c1.487-1.412,2.672-3.202,3.344-5.615
					c1.039,2.311,0.577,5.281-0.869,7.555c-1.437,2.308-3.72,4.03-6.232,4.956c-1.276,0.465-2.542,0.739-3.937,0.838
					c-1.249,0.073-2.63-0.006-3.894-0.306C53.567,38.177,51.166,36.801,49.741,34.721z"/>
			</g>
			<g>
				<path fill="#CCCCCC" d="M40.287,45.256c1.871-0.977,3.42-1.956,4.632-3.121c1.215-1.154,2.059-2.438,2.585-3.869
					c0.515-1.411,0.707-2.967,0.563-4.655c-0.133-1.698-0.611-3.469-1.284-5.473c1.925,0.896,3.46,2.588,4.324,4.667
					c0.867,2.071,0.993,4.595,0.146,6.849c-0.809,2.24-2.561,4.124-4.61,5.098C44.595,45.737,42.297,45.935,40.287,45.256z"/>
			</g>
			<g>
				<path fill="#CCCCCC" d="M65.416,89.928c-1.321-2.075-2.826-3.628-4.497-4.893c-1.666-1.254-3.492-2.195-5.409-2.844
					c-1.915-0.636-3.915-0.982-5.972-0.926c-2.06,0.063-4.151,0.493-6.341,1.626c0.965-2.315,3.294-4,5.802-4.725
					c2.532-0.741,5.301-0.609,7.789,0.235c2.487,0.84,4.739,2.381,6.356,4.425C64.74,84.857,65.724,87.449,65.416,89.928z"/>
			</g>
			<g>
				<path fill="#CCCCCC" d="M54.719,80.237c-1.27-2.002-2.688-3.565-4.294-4.856c-0.811-0.637-1.64-1.232-2.525-1.763l-0.296-0.184
					l-0.367-0.21l-0.607-0.298c-0.425-0.207-0.867-0.374-1.307-0.543c-1.781-0.639-3.646-0.924-5.536-0.783
					c-1.901,0.137-3.823,0.813-5.913,2.041c0.655-2.328,2.652-4.347,5.153-5.216c2.497-0.913,5.306-0.72,7.717,0.249
					c0.609,0.236,1.189,0.543,1.749,0.879c0.271,0.157,0.572,0.372,0.84,0.568l0.717,0.574c0.931,0.795,1.794,1.696,2.52,2.701
					C54.027,75.399,54.885,77.871,54.719,80.237z"/>
			</g>
			<polygon fill="#CCCCCC" points="64.863,88.178 66.429,84.726 63.423,84.178 			"/>
		</g>
	</g>
</g>
<g id="Layer_8_copy">
	<g>
		<g>
			<g>
				<path fill="#E39AC2" d="M111.862,43.022c0-9.9-5.918-18.35-14.256-21.708c-3.042-9.057-11.29-15.553-20.993-15.553
					c-5.802,0-11.083,2.324-15.044,6.127c-3.164-3.749-7.781-6.127-12.939-6.127c-8.924,0-16.265,7.079-17.17,16.158
					c-8.509,1.118-15.096,8.694-15.096,17.893c0,1.437,0.178,2.827,0.48,4.167c-5.73,4.208-9.48,11.166-9.48,19.043
					c0,6.49,2.545,12.357,6.646,16.576c-0.003,0.176-0.013,0.351-0.013,0.527c0,15.55,12.059,28.157,26.932,28.157
					c1.494,0,2.958-0.133,4.386-0.377c1.118,0.474,2.254,0.911,3.417,1.288c3.806,3.182,8.629,5.089,13.881,5.089
					c5.579,0,10.674-2.152,14.58-5.699c1.735,0.455,3.55,0.699,5.42,0.699c12.288,0,22.25-10.415,22.25-23.261
					c0-1.888-0.22-3.72-0.626-5.477c4.671-4.264,7.626-10.531,7.626-17.523c0-3.58-0.775-6.971-2.158-10
					C111.086,49.993,111.862,46.603,111.862,43.022z"/>
			</g>
			<g>
				<path fill="none" stroke="#666766" stroke-width="3" stroke-miterlimit="10" d="M111.862,43.022
					c0-9.9-5.918-18.35-14.256-21.708c-3.042-9.057-11.29-15.553-20.993-15.553c-5.802,0-11.083,2.324-15.044,6.127
					c-3.164-3.749-7.781-6.127-12.939-6.127c-8.924,0-16.265,7.079-17.17,16.158c-8.509,1.118-15.096,8.694-15.096,17.893
					c0,1.437,0.178,2.827,0.48,4.167c-5.73,4.208-9.48,11.166-9.48,19.043c0,6.49,2.545,12.357,6.646,16.576
					c-0.003,0.176-0.013,0.351-0.013,0.527c0,15.55,12.059,28.157,26.932,28.157c1.494,0,2.958-0.133,4.386-0.377
					c1.118,0.474,2.254,0.911,3.417,1.288c3.806,3.182,8.629,5.089,13.881,5.089c5.579,0,10.674-2.152,14.58-5.699
					c1.735,0.455,3.55,0.699,5.42,0.699c12.288,0,22.25-10.415,22.25-23.261c0-1.888-0.22-3.72-0.626-5.477
					c4.671-4.264,7.626-10.531,7.626-17.523c0-3.58-0.775-6.971-2.158-10C111.086,49.993,111.862,46.603,111.862,43.022z"/>
			</g>
		</g>
		<g>
			<g>
				<path fill="#666766" d="M40.686,85.775c0.995-1.744,2.645-3.086,4.673-3.786c1.013-0.346,2.13-0.51,3.266-0.435
					c1.125,0.066,2.305,0.416,3.279,0.93c2.131,1.112,3.54,3.107,4.118,5.147c0.579,2.051,0.446,4.164-0.389,5.993
					c-0.831-1.825-1.565-3.409-2.483-4.709c-0.895-1.298-1.955-2.277-3.083-2.879c-1.229-0.66-2.539-0.961-4.125-0.968
					C44.362,85.055,42.648,85.374,40.686,85.775z"/>
			</g>
			<g>
				<path fill="#FFFFFF" stroke="#666766" stroke-width="3" stroke-miterlimit="10" d="M62.136,81.728
					c1.411-0.656,2.861-1.056,4.289-1.242c1.242-3.376,3.15-5.856,5.591-7.581c2.849-2.011,6.976-2.89,10.554-1.37
					c1.915-3.623,3.004-7.751,3.004-12.133c0-0.45-0.011-0.897-0.034-1.341c-2.442-0.866-4.447-2.521-5.527-4.847
					c-0.874-1.885-1.016-3.948-0.556-5.952c-3.698-0.36-6.906-2.287-8.385-5.473c-0.696-1.501-0.921-3.116-0.755-4.724
					c-2.396,1.709-5.599,2.639-9.041,2.383c-2.126-0.158-4.093-0.752-5.787-1.663c-1.208,1.281-2.706,2.392-4.461,3.208
					c-3.55,1.648-7.348,1.759-10.414,0.599c-4.377,4.654-7.063,10.916-7.063,17.81c0,13.61,10.457,24.772,23.771,25.907
					C58.584,83.866,60.21,82.621,62.136,81.728z"/>
			</g>
			<circle fill="#666766" cx="56.59" cy="59.939" r="12.216"/>
			<circle fill="#FFFFFF" cx="50.366" cy="53.15" r="6.117"/>
			<g>
				<path fill="#666766" d="M90.844,58.241c-2.072,0.935-4.559,0.984-6.861,0.146c-2.298-0.818-4.396-2.707-5.403-5.092
					c-1.065-2.41-0.979-5.189-0.028-7.433c0.946-2.252,2.658-4.05,4.745-4.954c-0.899,2.079-1.521,3.972-1.716,5.8
					c-0.205,1.817,0.028,3.508,0.663,4.985c0.652,1.518,1.701,2.818,3.172,3.906C86.883,56.696,88.701,57.517,90.844,58.241z"/>
			</g>
			<g>
				<path fill="#666766" d="M54.099,38.107c-0.904,1.792-2.438,3.129-4.249,4.049c-1.801,0.907-3.886,1.328-5.964,1.188
					c-2.072-0.142-4.159-0.878-5.798-2.214c-1.635-1.315-2.783-3.284-2.78-5.288c1.525,1.275,2.938,2.064,4.403,2.594
					c1.454,0.532,2.937,0.802,4.458,0.919c1.522,0.102,3.083,0.05,4.707-0.178C50.491,38.967,52.193,38.581,54.099,38.107z"/>
			</g>
			<g>
				<path fill="#666766" d="M70.443,36.972c-1.385,2.052-3.74,3.41-6.235,3.982c-1.239,0.298-2.596,0.376-3.821,0.307
					c-1.371-0.097-2.613-0.365-3.866-0.822c-2.467-0.909-4.709-2.603-6.115-4.873c-1.415-2.236-1.86-5.157-0.826-7.419
					c0.676,2.364,1.844,4.105,3.301,5.479c1.456,1.37,3.18,2.368,5.035,3.065c0.91,0.354,1.932,0.615,2.853,0.804
					c1.069,0.194,2.037,0.309,3.093,0.343C65.952,37.912,68.095,37.655,70.443,36.972z"/>
			</g>
			<g>
				<path fill="#666766" d="M79.703,47.291c-1.97,0.682-4.228,0.496-6.244-0.466c-2.016-0.952-3.741-2.802-4.537-5.005
					c-0.833-2.216-0.706-4.699,0.151-6.731c0.854-2.04,2.368-3.697,4.266-4.562c-0.646,1.974-1.104,3.709-1.226,5.369
					c-0.134,1.649,0.058,3.163,0.559,4.536c0.513,1.392,1.33,2.645,2.512,3.777C76.363,45.35,77.871,46.317,79.703,47.291z"/>
			</g>
			<g>
				<path fill="#666766" d="M55.092,91.042c-0.319-2.431,0.639-4.981,2.202-6.977c1.583-2.01,3.793-3.525,6.235-4.35
					c2.443-0.829,5.162-0.957,7.647-0.223c2.461,0.717,4.744,2.379,5.677,4.659c-2.157-1.097-4.203-1.505-6.216-1.561
					c-2.009-0.049-3.96,0.292-5.83,0.914c-1.872,0.634-3.656,1.548-5.288,2.769C57.882,87.505,56.402,89.014,55.092,91.042z"/>
			</g>
			<g>
				<path fill="#666766" d="M65.568,81.552c-0.177-2.321,0.657-4.751,2.083-6.72c0.71-0.988,1.556-1.874,2.468-2.655l0.704-0.564
					c0.263-0.193,0.559-0.405,0.825-0.559c0.55-0.331,1.119-0.632,1.718-0.864c2.368-0.953,5.129-1.14,7.581-0.238
					c2.456,0.858,4.412,2.849,5.04,5.141c-2.062-1.19-3.943-1.839-5.799-1.966c-1.845-0.13-3.662,0.15-5.399,0.772
					c-0.429,0.164-0.861,0.327-1.275,0.528l-0.592,0.289l-0.36,0.205L72.27,75.1c-0.867,0.517-1.678,1.097-2.474,1.717
					C68.221,78.074,66.826,79.595,65.568,81.552z"/>
			</g>
			<polygon fill="#666766" points="55.632,89.329 54.099,85.948 57.043,85.411 			"/>
		</g>
		<g>
			<path fill="#666766" d="M54.767,24.59c-0.142-2.684,0.488-5.402,1.621-7.901c1.147-2.497,2.84-4.771,4.929-6.607
				c2.084-1.839,4.573-3.233,7.224-4.009c2.648-0.765,5.459-0.943,8.073-0.311c-2.603,0.63-5.007,1.411-7.229,2.514
				c-2.223,1.086-4.256,2.454-6.087,4.059c-1.83,1.607-3.454,3.454-4.859,5.505C57.014,19.889,55.855,22.145,54.767,24.59z"/>
		</g>
		<g>
			<path fill="#666766" d="M33.665,30.699c-1.657-2.474-2.435-5.556-2.4-8.634c0.04-3.088,0.945-6.208,2.607-8.872
				c1.651-2.668,4.06-4.877,6.862-6.23c2.795-1.35,5.987-1.841,8.895-1.201c-2.894,0.628-5.493,1.692-7.719,3.246
				c-2.229,1.537-4.084,3.513-5.491,5.77c-1.408,2.258-2.359,4.8-2.812,7.49C33.136,24.965,33.184,27.779,33.665,30.699z"/>
		</g>
		<g>
			<path fill="#666766" d="M23.33,53.461c-2.839-1.724-5.055-4.567-6.264-7.807c-1.244-3.241-1.473-6.883-0.706-10.31
				c0.764-3.428,2.555-6.64,5.116-8.995c2.517-2.383,5.818-3.917,9.135-4.096c-2.996,1.401-5.507,3.332-7.431,5.701
				c-1.913,2.372-3.24,5.129-3.894,8.047c-0.659,2.917-0.65,5.992,0.01,8.971C19.981,47.954,21.344,50.818,23.33,53.461z"/>
		</g>
		<g>
			<path fill="#666766" d="M82.437,20.395c5.151-1.951,11.311-1.513,16.399,1.186c2.568,1.306,4.83,3.188,6.73,5.365
				c1.88,2.204,3.33,4.767,4.326,7.488c0.948,2.74,1.426,5.64,1.389,8.524c-0.077,2.879-0.579,5.762-1.658,8.422
				c-2.065,5.338-6.196,9.828-11.26,12.013c4.408-3.275,7.549-7.81,9.049-12.784c0.725-2.491,1.115-5.067,1.028-7.644
				c-0.049-2.571-0.496-5.126-1.375-7.528c-1.675-4.832-5.017-9.069-9.387-11.831C93.305,20.838,87.881,19.678,82.437,20.395z"/>
		</g>
		<g>
			<path fill="#666766" d="M111.166,57.226c1.428,3.227,1.881,6.928,1.42,10.535c-0.433,3.62-1.835,7.154-3.994,10.146
				c-2.155,2.993-5.089,5.445-8.437,6.937c-3.325,1.521-7.071,2.071-10.542,1.44c3.463-0.628,6.647-1.783,9.451-3.512
				c2.79-1.741,5.199-3.989,7.098-6.621c1.904-2.629,3.29-5.625,4.133-8.821C111.12,64.122,111.378,60.735,111.166,57.226z"/>
		</g>
		<g>
			<path fill="#666766" d="M104.862,85.022c0.635,4.603-0.395,9.529-2.854,13.688c-1.201,2.102-2.807,3.971-4.629,5.595
				c-1.845,1.605-3.971,2.892-6.242,3.832c-2.29,0.893-4.727,1.426-7.177,1.525c-2.426,0.06-4.922-0.219-7.22-0.984
				c-4.637-1.46-8.638-4.593-11.055-8.56c3.388,3.161,7.402,5.379,11.664,6.299c2.143,0.429,4.28,0.617,6.444,0.409
				c2.141-0.167,4.25-0.653,6.227-1.473c1.998-0.769,3.861-1.881,5.544-3.224c1.709-1.32,3.182-2.936,4.487-4.69
				C102.623,93.892,104.243,89.616,104.862,85.022z"/>
		</g>
		<g>
			<path fill="#666766" d="M24.076,85.264c-3.926-0.607-7.69-2.652-10.58-5.577c-1.476-1.442-2.688-3.145-3.712-4.947
				c-1.001-1.819-1.729-3.785-2.235-5.8c-0.959-4.052-0.793-8.342,0.444-12.264c1.222-3.92,3.566-7.471,6.705-9.907
				c-2.209,3.286-3.722,6.825-4.438,10.49c-0.716,3.661-0.618,7.424,0.208,10.994c0.394,1.793,1.026,3.529,1.831,5.183
				c0.775,1.673,1.801,3.22,2.935,4.695C17.549,81.053,20.548,83.467,24.076,85.264z"/>
		</g>
		<g>
			<path fill="#666766" d="M58.061,100.854c-3.497,3.857-8.458,6.531-13.796,7.39c-1.324,0.228-2.702,0.347-4.025,0.342
				c-1.388-0.004-2.725-0.099-4.079-0.305c-2.692-0.425-5.311-1.304-7.751-2.523c-2.417-1.265-4.649-2.875-6.587-4.779
				c-1.907-1.93-3.581-4.093-4.829-6.481c-2.56-4.734-3.633-10.203-2.997-15.372c0.623,5.159,2.298,10.024,5.012,14.181
				c1.377,2.058,2.938,3.984,4.772,5.614c1.803,1.657,3.815,3.08,5.995,4.168c2.156,1.138,4.484,1.93,6.877,2.402
				c1.188,0.25,2.428,0.402,3.621,0.473c1.257,0.056,2.466,0.056,3.705-0.035C48.908,105.55,53.75,103.755,58.061,100.854z"/>
		</g>
	</g>
</g>
<g id="Layer_7" display="none">
	<g display="inline">
		<g>
			<g>
				<g>
					<path fill="#E39AC2" d="M101.165,27.543c-1.703-9.438-8.948-17.088-18.583-18.5C76.82,8.198,71.237,9.737,66.75,12.938
						c-2.596-4.185-6.835-7.218-11.958-7.969C45.93,3.671,37.61,9.632,35.389,18.516c-8.613-0.128-16.258,6.438-17.596,15.572
						c-0.209,1.427-0.235,2.833-0.128,4.208C11.359,41.64,6.623,48.004,5.477,55.827c-0.945,6.446,0.729,12.643,4.188,17.43
						c-0.029,0.174-0.064,0.346-0.089,0.521c-2.264,15.441,7.876,29.717,22.646,31.882c1.484,0.218,2.958,0.298,4.412,0.263
						c1.041,0.633,2.105,1.232,3.204,1.776c3.317,3.714,7.829,6.311,13.045,7.075c5.541,0.812,10.914-0.583,15.308-3.537
						c1.657,0.704,3.423,1.21,5.28,1.483c12.204,1.788,23.612-7.105,25.482-19.862c0.275-1.874,0.323-3.726,0.175-5.53
						c5.26-3.555,9.106-9.348,10.125-16.292c0.521-3.555,0.244-7.035-0.688-10.245c1.814-2.808,3.078-6.062,3.599-9.617
						C113.604,41.345,108.957,32.091,101.165,27.543z"/>
				</g>
				<g>
					<path fill="none" stroke="#666766" stroke-width="3" stroke-miterlimit="10" d="M101.165,27.543
						c-1.703-9.438-8.948-17.088-18.583-18.5C76.82,8.198,71.237,9.737,66.75,12.938c-2.596-4.185-6.835-7.218-11.958-7.969
						C45.93,3.671,37.61,9.632,35.389,18.516c-8.613-0.128-16.258,6.438-17.596,15.572c-0.209,1.427-0.235,2.833-0.128,4.208
						C11.359,41.64,6.623,48.004,5.477,55.827c-0.945,6.446,0.729,12.643,4.188,17.43c-0.029,0.174-0.064,0.346-0.089,0.521
						c-2.264,15.441,7.876,29.717,22.646,31.882c1.484,0.218,2.958,0.298,4.412,0.263c1.041,0.633,2.105,1.232,3.204,1.776
						c3.317,3.714,7.829,6.311,13.045,7.075c5.541,0.812,10.914-0.583,15.308-3.537c1.657,0.704,3.423,1.21,5.28,1.483
						c12.204,1.788,23.612-7.105,25.482-19.862c0.275-1.874,0.323-3.726,0.175-5.53c5.26-3.555,9.106-9.348,10.125-16.292
						c0.521-3.555,0.244-7.035-0.688-10.245c1.814-2.808,3.078-6.062,3.599-9.617C113.604,41.345,108.957,32.091,101.165,27.543z"/>
				</g>
			</g>
			<g>
				<path fill="#666766" d="M58.145,24.561c0.252-2.685,1.274-5.292,2.763-7.607c1.503-2.312,3.516-4.324,5.857-5.842
					c2.337-1.523,5.011-2.545,7.755-2.93c2.74-0.375,5.558-0.144,8.061,0.862c-2.676,0.244-5.178,0.668-7.546,1.44
					c-2.367,0.755-4.586,1.816-6.638,3.145c-2.052,1.33-3.934,2.928-5.627,4.762C61.059,20.217,59.58,22.29,58.145,24.561z"/>
			</g>
			<g>
				<path fill="#666766" d="M36.301,27.557c-1.282-2.698-1.606-5.871-1.123-8.923c0.49-3.06,1.843-6.025,3.881-8.428
					c2.027-2.409,4.74-4.252,7.719-5.188c2.971-0.935,6.212-0.959,9.007,0.097c-2.965,0.201-5.702,0.878-8.14,2.097
					c-2.438,1.202-4.568,2.894-6.295,4.931c-1.727,2.039-3.042,4.425-3.883,7.032C36.606,21.784,36.247,24.587,36.301,27.557z"/>
			</g>
			<g>
				<path fill="#666766" d="M22.724,48.657c-2.566-2.127-4.351-5.273-5.08-8.666c-0.763-3.4-0.459-7.048,0.801-10.339
					c1.257-3.292,3.503-6.22,6.388-8.187c2.846-2.001,6.346-3.044,9.666-2.741c-3.18,0.954-5.956,2.504-8.212,4.576
					c-2.247,2.077-3.966,4.623-5.042,7.426c-1.079,2.802-1.519,5.858-1.295,8.914C20.197,42.701,21.136,45.744,22.724,48.657z"/>
			</g>
			<g>
				<path fill="#666766" d="M86.235,24.421c5.399-1.185,11.451,0.147,16.11,3.567c2.359,1.671,4.331,3.868,5.901,6.308
					c1.546,2.462,2.612,5.218,3.205,8.064c0.542,2.858,0.596,5.807,0.14,8.666c-0.495,2.848-1.413,5.637-2.871,8.122
					c-2.827,5-7.581,8.858-12.927,10.292c4.855-2.608,8.636-6.654,10.852-11.376c1.083-2.369,1.846-4.871,2.134-7.442
					c0.326-2.561,0.254-5.164-0.269-7.679c-0.96-5.043-3.664-9.738-7.603-13.117C96.965,26.439,91.746,24.5,86.235,24.421z"/>
			</g>
			<g>
				<path fill="#666766" d="M109.404,65.179c0.946,3.413,0.857,7.153-0.126,10.668c-0.958,3.531-2.864,6.836-5.443,9.492
					c-2.575,2.658-5.845,4.666-9.386,5.66c-3.523,1.027-7.322,1.029-10.678-0.101c3.53-0.117,6.862-0.799,9.899-2.107
					c3.025-1.322,5.746-3.205,8.015-5.543c2.275-2.334,4.086-5.109,5.389-8.162C108.359,72.021,109.107,68.696,109.404,65.179z"/>
			</g>
			<g>
				<path fill="#666766" d="M99.098,91.868c-0.042,4.663-1.782,9.404-4.831,13.175c-1.499,1.911-3.365,3.533-5.411,4.88
					c-2.065,1.325-4.363,2.292-6.755,2.895c-2.404,0.554-4.9,0.728-7.347,0.47c-2.417-0.293-4.855-0.933-7.025-2.027
					c-4.392-2.124-7.909-5.815-9.734-10.105c2.903,3.633,6.566,6.422,10.665,7.957c2.066,0.738,4.161,1.236,6.342,1.346
					c2.15,0.146,4.316-0.029,6.399-0.556c2.097-0.472,4.109-1.306,5.978-2.395c1.89-1.062,3.588-2.453,5.139-4.005
					C95.587,100.351,97.817,96.339,99.098,91.868z"/>
			</g>
			<g>
				<path fill="#666766" d="M18.836,80.347c-3.81-1.176-7.249-3.756-9.691-7.081c-1.255-1.646-2.21-3.513-2.965-5.452
					c-0.729-1.952-1.166-4.009-1.375-6.084c-0.363-4.163,0.426-8.398,2.225-12.112c1.783-3.715,4.626-6.899,8.096-8.864
					c-2.672,2.94-4.692,6.235-5.937,9.771c-1.245,3.531-1.697,7.284-1.396,10.95c0.131,1.839,0.506,3.655,1.064,5.415
					c0.527,1.774,1.321,3.461,2.233,5.09C12.965,75.218,15.593,78.051,18.836,80.347z"/>
			</g>
			<g>
				<path fill="#666766" d="M50.316,100.776c-4.035,3.319-9.352,5.251-14.776,5.326c-1.348,0.033-2.733-0.049-4.046-0.247
					c-1.378-0.206-2.691-0.495-4.006-0.896c-2.611-0.814-5.083-2.068-7.328-3.633c-2.216-1.608-4.198-3.532-5.845-5.704
					c-1.613-2.193-2.96-4.585-3.853-7.138c-1.854-5.072-2.125-10.658-0.743-15.699c-0.134,5.214,0.82,10.29,2.91,14.813
					c1.068,2.245,2.337,4.385,3.922,6.272c1.549,1.908,3.341,3.614,5.348,5.013c1.975,1.443,4.172,2.569,6.481,3.387
					c1.144,0.42,2.354,0.753,3.527,0.996c1.241,0.239,2.442,0.415,3.685,0.504C40.545,104.111,45.615,103.032,50.316,100.776z"/>
			</g>
		</g>
		<g>
			<g>
				<path fill="#666766" d="M80.125,84.549c-1.994-0.424-3.744-0.76-5.36-0.753c-1.624-0.002-2.976,0.305-4.238,0.982
					c-1.163,0.62-2.249,1.631-3.159,2.964c-0.934,1.335-1.674,2.958-2.505,4.822c-0.835-1.868-0.961-4.019-0.367-6.105
					c0.594-2.076,2.028-4.102,4.193-5.232c0.993-0.524,2.19-0.878,3.334-0.947c1.155-0.078,2.291,0.087,3.323,0.437
					C77.413,81.424,79.099,82.782,80.125,84.549z"/>
			</g>
			<g>
				<path fill="#FFFFFF" stroke="#666766" stroke-width="3" stroke-miterlimit="10" d="M58.223,80.417
					c-1.441-0.67-2.921-1.078-4.379-1.268c-1.268-3.447-3.216-5.979-5.709-7.741c-2.908-2.053-7.122-2.95-10.775-1.399
					c-1.955-3.699-3.067-7.914-3.067-12.388c0-0.459,0.011-0.916,0.034-1.369c2.493-0.885,4.541-2.574,5.644-4.949
					c0.892-1.924,1.038-4.031,0.568-6.078c3.775-0.367,7.051-2.334,8.561-5.587c0.711-1.532,0.94-3.181,0.771-4.823
					c2.446,1.746,5.716,2.694,9.23,2.434c2.171-0.161,4.179-0.768,5.909-1.699c1.233,1.309,2.763,2.442,4.555,3.275
					c3.625,1.682,7.502,1.796,10.632,0.611c4.469,4.752,7.212,11.145,7.212,18.185c0,13.896-10.676,25.292-24.271,26.451
					C61.85,82.6,60.189,81.329,58.223,80.417z"/>
			</g>
			<circle fill="#666766" cx="63.885" cy="58.171" r="12.472"/>
			<circle fill="#FFFFFF" cx="70.24" cy="51.239" r="6.246"/>
			<g>
				<path fill="#666766" d="M28.911,56.436c2.188-0.722,4.051-1.55,5.557-2.668c1.511-1.108,2.593-2.442,3.263-4.001
					c0.653-1.518,0.888-3.256,0.67-5.116c-0.207-1.871-0.853-3.803-1.784-5.913c2.119,0.936,3.854,2.771,4.813,5.067
					c0.963,2.285,1.047,5.112-0.036,7.563c-1.024,2.426-3.155,4.348-5.493,5.187C33.559,57.414,31.027,57.373,28.911,56.436z"/>
			</g>
			<g>
				<path fill="#666766" d="M66.429,35.88c1.937,0.497,3.672,0.902,5.323,1.123c1.659,0.239,3.258,0.297,4.818,0.192
					c1.559-0.119,3.079-0.4,4.566-0.952c1.498-0.549,2.937-1.367,4.479-2.676c-0.013,2.038-1.188,4.036-2.855,5.371
					c-1.672,1.355-3.796,2.102-5.906,2.247c-2.115,0.143-4.238-0.283-6.076-1.202C68.93,39.051,67.363,37.695,66.429,35.88z"/>
			</g>
			<g>
				<path fill="#666766" d="M49.741,34.721c2.388,0.712,4.577,0.986,6.716,0.918c1.081-0.031,2.073-0.147,3.166-0.344
					c0.945-0.191,1.991-0.458,2.924-0.82c1.9-0.715,3.666-1.74,5.151-3.148c1.487-1.412,2.672-3.202,3.344-5.615
					c1.039,2.311,0.577,5.281-0.869,7.555c-1.437,2.308-3.72,4.03-6.232,4.956c-1.276,0.465-2.542,0.739-3.937,0.838
					c-1.249,0.073-2.63-0.006-3.894-0.306C53.567,38.177,51.166,36.801,49.741,34.721z"/>
			</g>
			<g>
				<path fill="#666766" d="M40.287,45.256c1.871-0.977,3.42-1.956,4.632-3.121c1.215-1.154,2.059-2.438,2.585-3.869
					c0.515-1.411,0.707-2.967,0.563-4.655c-0.133-1.698-0.611-3.469-1.284-5.473c1.925,0.896,3.46,2.588,4.324,4.667
					c0.867,2.071,0.993,4.595,0.146,6.849c-0.809,2.24-2.561,4.124-4.61,5.098C44.595,45.737,42.297,45.935,40.287,45.256z"/>
			</g>
			<g>
				<path fill="#666766" d="M65.416,89.928c-1.321-2.075-2.826-3.627-4.496-4.892c-1.666-1.255-3.492-2.196-5.41-2.844
					c-1.915-0.637-3.915-0.983-5.972-0.926c-2.06,0.063-4.151,0.493-6.341,1.626c0.965-2.315,3.294-4,5.802-4.725
					c2.532-0.742,5.301-0.609,7.789,0.235c2.487,0.84,4.739,2.381,6.355,4.425C64.741,84.857,65.724,87.45,65.416,89.928z"/>
			</g>
			<g>
				<path fill="#666766" d="M54.719,80.237c-1.27-2.002-2.688-3.564-4.294-4.856c-0.811-0.637-1.64-1.232-2.525-1.763l-0.296-0.184
					l-0.367-0.21l-0.607-0.298c-0.425-0.207-0.867-0.374-1.307-0.543c-1.781-0.639-3.646-0.924-5.536-0.783
					c-1.902,0.137-3.823,0.813-5.913,2.041c0.655-2.328,2.652-4.347,5.153-5.216c2.497-0.913,5.306-0.72,7.717,0.249
					c0.609,0.236,1.189,0.543,1.749,0.879c0.271,0.157,0.572,0.372,0.84,0.568l0.717,0.574c0.932,0.795,1.794,1.696,2.521,2.701
					C54.027,75.399,54.885,77.871,54.719,80.237z"/>
			</g>
			<polygon fill="#666766" points="64.863,88.178 66.429,84.726 63.423,84.178 			"/>
		</g>
	</g>
</g>
</svg>
