<?xml version="1.0" encoding="utf-8"?>
<!-- Generator: Adobe Illustrator 15.0.0, SVG Export Plug-In . SVG Version: 6.00 Build 0)  -->
<!DOCTYPE svg PUBLIC "-//W3C//DTD SVG 1.1//EN" "http://www.w3.org/Graphics/SVG/1.1/DTD/svg11.dtd">
<svg version="1.1" id="Capa_1" xmlns="http://www.w3.org/2000/svg" xmlns:xlink="http://www.w3.org/1999/xlink" x="0px" y="0px"
	 width="512px" height="512px" viewBox="0 0 512 512" enable-background="new 0 0 512 512" xml:space="preserve">
<g>
	<g>
		<g>
			<path fill="#CCCCCC" d="M305.971,255.991L501.715,60.316c13.713-13.785,13.713-36.195,0-49.978
				c-13.785-13.785-36.265-13.785-49.978,0L255.993,206.013L60.316,10.339c-13.785-13.785-36.195-13.785-49.978,0
				s-13.785,36.195,0,49.978l195.674,195.674L10.339,451.734c-13.785,13.713-13.785,36.195,0,49.979
				c13.785,13.713,36.195,13.713,49.978,0l195.674-195.744l195.744,195.743c13.713,13.714,36.195,13.714,49.979,0
				c13.713-13.784,13.713-36.265,0-49.978L305.971,255.991z"/>
		</g>
	</g>
</g>
</svg>
