<?xml version="1.0" encoding="utf-8"?>
<!-- Generator: Adobe Illustrator 15.0.0, SVG Export Plug-In . SVG Version: 6.00 Build 0)  -->
<!DOCTYPE svg PUBLIC "-//W3C//DTD SVG 1.1//EN" "http://www.w3.org/Graphics/SVG/1.1/DTD/svg11.dtd">
<svg version="1.1" id="Capa_1" xmlns="http://www.w3.org/2000/svg" xmlns:xlink="http://www.w3.org/1999/xlink" x="0px" y="0px"
	 width="45px" height="45px" viewBox="233.5 233.5 45 45" enable-background="new 233.5 233.5 45 45" xml:space="preserve">
<g>
	<g>
		<g>
			<path d="M260.185,255.997l16.398-16.391c1.148-1.155,1.148-3.032,0-4.186c-1.153-1.156-3.038-1.156-4.188,0L256,251.812
				l-16.392-16.392c-1.155-1.156-3.032-1.156-4.187,0c-1.154,1.155-1.154,3.031,0,4.186l16.392,16.391l-16.392,16.396
				c-1.154,1.151-1.154,3.033,0,4.188c1.154,1.148,3.032,1.148,4.187,0l16.392-16.398l16.396,16.398c1.15,1.148,3.035,1.148,4.188,0
				c1.148-1.155,1.148-3.037,0-4.188L260.185,255.997z"/>
		</g>
	</g>
</g>
</svg>
