<?xml version="1.0" encoding="utf-8"?>
<!-- Generator: Adobe Illustrator 15.0.0, SVG Export Plug-In . SVG Version: 6.00 Build 0)  -->
<!DOCTYPE svg PUBLIC "-//W3C//DTD SVG 1.1//EN" "http://www.w3.org/Graphics/SVG/1.1/DTD/svg11.dtd">
<svg version="1.1" id="Layer_1" xmlns="http://www.w3.org/2000/svg" xmlns:xlink="http://www.w3.org/1999/xlink" x="0px" y="0px"
	 width="103.68px" height="103.68px" viewBox="74.16 5.76 103.68 103.68" enable-background="new 74.16 5.76 103.68 103.68"
	 xml:space="preserve">
<path fill="#FFFFFF" d="M126,5.76c-28.583,0-51.84,23.256-51.84,51.839c0,28.586,23.256,51.841,51.84,51.841
	c28.584,0,51.84-23.256,51.84-51.841C177.84,29.016,154.584,5.76,126,5.76z M152.691,93.707c-7.369,6.604-16.809,10.23-26.691,10.23
	c-9.881,0-19.319-3.625-26.688-10.229c-0.011-0.127-0.021-0.254-0.029-0.379c0.057-12.546,11.971-22.829,26.609-22.942l0.083-0.001
	l0.138,0.001c14.641,0.113,26.557,10.401,26.606,22.952C152.711,93.462,152.701,93.584,152.691,93.707z M158.057,91.074
	c-1.281-13.701-13.678-24.751-29.193-26.023v-0.134h-2.729c-0.04,0-0.081,0.001-0.125,0.003l-0.045-0.003l-2.822,0.014v0.12
	c-15.519,1.271-27.917,12.322-29.199,26.023c-8.817-8.449-14.326-20.328-14.326-33.476c0-25.574,20.807-46.382,46.383-46.382
	c25.576,0,46.383,20.808,46.383,46.382C172.383,70.747,166.874,82.625,158.057,91.074z"/>
<path fill="#FFFFFF" d="M126.002,27.54c-9.582,0-16.808,7.273-16.808,16.917c0,9.653,7.225,16.934,16.808,16.934
	c9.58,0,16.804-7.281,16.804-16.934C142.807,34.812,135.582,27.54,126.002,27.54z M126.002,55.934
	c-6.577,0-11.352-4.826-11.352-11.477c0-6.64,4.775-11.459,11.352-11.459c6.574,0,11.348,4.82,11.348,11.459
	C137.351,51.107,132.576,55.934,126.002,55.934z"/>
</svg>
