<?xml version="1.0" encoding="utf-8"?>
<!-- Generator: Adobe Illustrator 15.0.0, SVG Export Plug-In . SVG Version: 6.00 Build 0)  -->
<!DOCTYPE svg PUBLIC "-//W3C//DTD SVG 1.1//EN" "http://www.w3.org/Graphics/SVG/1.1/DTD/svg11.dtd">
<svg version="1.1" id="Layer_1" xmlns="http://www.w3.org/2000/svg" xmlns:xlink="http://www.w3.org/1999/xlink" x="0px" y="0px"
	 width="103.68px" height="103.68px" viewBox="0 0 103.68 103.68" enable-background="new 0 0 103.68 103.68" xml:space="preserve">
<path fill="#666666" d="M51.84,0C23.257,0,0,23.256,0,51.839c0,28.586,23.256,51.841,51.84,51.841s51.84-23.256,51.84-51.841
	C103.68,23.256,80.424,0,51.84,0z M51.842,21.781c9.58,0,16.805,7.271,16.804,16.917c0,9.652-7.224,16.934-16.804,16.934
	c-9.583,0-16.809-7.281-16.809-16.934C35.033,29.053,42.26,21.781,51.842,21.781z M78.531,87.948
	c-7.369,6.604-16.809,10.229-26.69,10.229c-9.881,0-19.319-3.625-26.688-10.229c-0.011-0.127-0.021-0.254-0.028-0.379
	C25.18,75.024,37.094,64.74,51.732,64.627l0.083-0.001l0.138,0.001C66.594,64.74,78.51,75.029,78.559,87.579
	C78.551,87.702,78.541,87.824,78.531,87.948z"/>
</svg>
