<?xml version="1.0" encoding="utf-8"?>
<!-- Generator: Adobe Illustrator 15.0.0, SVG Export Plug-In . SVG Version: 6.00 Build 0)  -->
<!DOCTYPE svg PUBLIC "-//W3C//DTD SVG 1.1//EN" "http://www.w3.org/Graphics/SVG/1.1/DTD/svg11.dtd">
<svg version="1.1" id="Capa_1" xmlns="http://www.w3.org/2000/svg" xmlns:xlink="http://www.w3.org/1999/xlink" x="0px" y="0px"
	 width="512px" height="512px" viewBox="0 0 512 512" enable-background="new 0 0 512 512" xml:space="preserve">
<g>
	<g>
		<g>
			<path fill="#666666" d="M256,0C114.624,0,0,114.624,0,256s114.624,256,256,256s256-114.624,256-256C512,114.592,397.376,0,256,0z
				 M322.176,255.967l-41.952,0.032l-0.032,153.6h-57.568V256h-38.399v-52.928l38.399-0.032l-0.064-31.168
				c0-43.199,11.712-69.472,62.56-69.472h42.368v52.96h-26.496c-19.808,0-20.768,7.392-20.768,21.184l-0.064,26.496h47.616
				L322.176,255.967z"/>
		</g>
	</g>
</g>
</svg>
