<?xml version="1.0" encoding="utf-8"?>
<!-- Generator: Adobe Illustrator 15.0.0, SVG Export Plug-In . SVG Version: 6.00 Build 0)  -->
<!DOCTYPE svg PUBLIC "-//W3C//DTD SVG 1.1//EN" "http://www.w3.org/Graphics/SVG/1.1/DTD/svg11.dtd">
<svg version="1.1"
	 id="Layer_1" xmlns:sodipodi="http://sodipodi.sourceforge.net/DTD/sodipodi-0.dtd" xmlns:svg="http://www.w3.org/2000/svg" xmlns:dc="http://purl.org/dc/elements/1.1/" xmlns:rdf="http://www.w3.org/1999/02/22-rdf-syntax-ns#" xmlns:cc="http://creativecommons.org/ns#" xmlns:inkscape="http://www.inkscape.org/namespaces/inkscape"
	 xmlns="http://www.w3.org/2000/svg" xmlns:xlink="http://www.w3.org/1999/xlink" x="0px" y="0px" width="71.968px"
	 height="100.769px" viewBox="90.016 7.216 71.968 100.769" enable-background="new 90.016 7.216 71.968 100.769"
	 xml:space="preserve">
<g transform="translate(0,-952.36218)">
	<path fill="#CCCCCC" stroke="#CCCCCC" stroke-width="4" stroke-linecap="round" stroke-linejoin="round" d="M126,961.578
		c-15.581,0-28.125,12.479-28.125,27.981v11.659h-5.859v23.318c0,18.673,15.215,33.811,33.984,33.811
		c18.77,0,33.984-15.138,33.984-33.811v-23.318h-5.859v-11.659C154.125,974.057,141.581,961.578,126,961.578z M126,969.083
		c11.037,0,19.922,8.84,19.922,19.82v12.315h-39.844v-12.315C106.078,977.923,114.963,969.083,126,969.083z M126,1015.209
		c4.53,0,8.203,3.654,8.203,8.161c0,1.99-0.715,3.793-1.904,5.21l1.904,7.032l2.344,8.744h-21.094l2.344-8.744l1.904-7.032
		c-1.189-1.417-1.904-3.22-1.904-5.21C117.797,1018.863,121.47,1015.209,126,1015.209L126,1015.209z"/>
</g>
</svg>
