<?xml version="1.0" encoding="utf-8"?>
<!-- Generator: Adobe Illustrator 15.0.0, SVG Export Plug-In . SVG Version: 6.00 Build 0)  -->
<!DOCTYPE svg PUBLIC "-//W3C//DTD SVG 1.1//EN" "http://www.w3.org/Graphics/SVG/1.1/DTD/svg11.dtd">
<svg version="1.1" id="Layer_1" xmlns="http://www.w3.org/2000/svg" xmlns:xlink="http://www.w3.org/1999/xlink" x="0px" y="0px"
	 width="677.929px" height="723.844px" viewBox="161.056 38.076 677.929 723.844"
	 enable-background="new 161.056 38.076 677.929 723.844" xml:space="preserve">
<g>
	<path fill="#CCCCCC" d="M780.832,761.92c-0.112,0-0.216,0-0.328,0H177.688c-9.184,0-16.632-7.448-16.632-16.632V142.152
		c0-0.264,0-0.528,0.016-0.792c0.088-1.88,0.488-3.68,1.152-5.352c0.608-1.544,1.464-3.024,2.568-4.376c0,0,0.008,0,0.008-0.008
		c0.216-0.264,0.44-0.52,0.672-0.776l80.28-87.344c0.096-0.096,0.184-0.192,0.28-0.296c1.528-1.6,3.312-2.832,5.216-3.68
		c1.992-0.888,4.176-1.408,6.488-1.448c0.128,0,0.248-0.008,0.376,0H821.96c1.336-0.032,2.68,0.104,4.016,0.408
		c0.169,0.032,0.337,0.08,0.496,0.12l0,0c0.017,0,0.032,0.008,0.048,0.008l0,0c0.009,0,0.017,0,0.024,0.008l0,0
		c0.008,0,0.024,0,0.032,0l0,0c0.008,0,0.016,0,0.023,0.008l0,0c0.008,0,0.017,0,0.024,0.008l0,0c0.016,0,0.032,0.008,0.048,0.008
		l0,0c0.008,0,0.016,0,0.024,0.008c0,0,0.008,0,0.023,0c0.008,0,0.008,0,0.008,0c0.009,0,0.017,0,0.024,0l0,0
		c0.008,0,0.016,0,0.023,0.008l0,0c0.009,0,0.017,0,0.024,0.008l0,0c0.008,0-0.032,0.008,0.032,0.008c0,0,0.008,0,0.016,0
		c0,0,0,0,0.008,0c0,0,0.008,0,0.017,0h0.008c0.016,0.008,0.023,0.008,0.023,0.008c0.024,0.008,0.017,0,0.024,0.008
		c0.008,0,0.032,0.008,0.024,0.008c0.008,0,0.016,0,0.023,0c0,0,0,0,0.008,0c0,0,0.009,0,0.017,0c0,0,0,0,0.008,0
		c0,0,0.008,0,0.016,0h0.008c0.009,0,0.009,0,0.017,0.008h0.008c0.016,0,0.016,0.016,0.024,0.008c0.008,0,0.016,0,0.016,0
		c0.008,0,0.008,0,0.016,0h0.008c0.009,0,0.009,0,0.017,0h0.008c0.008,0,0.008,0,0.016,0h0.009c0.016,0,0.016,0,0.031,0.008
		c0,0,0.017,0,0.024,0.008c0,0,0.008,0,0.024,0.008c0,0,0.008,0,0.023,0.008c0,0,0.008,0,0.016,0c0,0-0.023-0.016,0.024,0.008h0.008
		c0.008,0,0.008,0,0.017,0.008h0.008c0.008,0,0.008,0,0.016,0.008h0.008c0.017,0.008,0.024,0.008,0.024,0.008
		c0.016,0.008,0.023,0.008,0.023,0.008c0.017,0.008,0.024,0.008,0.024,0.008c0.008,0,0.016,0,0.024,0.008l0,0
		c0.008,0,0.016,0,0.023,0.008l0,0c0.008,0,0.017,0,0.024,0.008c0,0-0.057-0.016,0.023,0.008c0,0-0.048-0.024,0.024,0.008h0.008
		c0.008,0,0.008,0,0.016,0.008h0.009c0.008,0,0.008,0,0.016,0.008h0.008c0.016,0.008,0.024,0.008,0.024,0.008
		c0.008,0,0.016,0.008,0.016,0.008c0.024,0,0.016,0.008,0.032,0.008l0,0c0.008,0,0.016,0.008,0.023,0.008l0,0
		c0.009,0,0.017,0,0.024,0.008l0,0c0.008,0,0.016,0,0.024,0.008l0,0c0.031,0.008,0.063,0.016,0.096,0.032l0,0
		c1.256,0.448,2.447,1.032,3.544,1.752c2.063,1.336,3.744,3.08,5,5.064c0.192,0.312,0.384,0.632,0.56,0.96l0,0
		c0.008,0.016,0.017,0.032,0.024,0.04l0,0c0.008,0.008,0.016,0.024,0.024,0.04l0,0c0.008,0.016,0.016,0.024,0.023,0.04l0,0
		c0.008,0.016,0.016,0.032,0.023,0.04l0,0c0.009,0.008,0.017,0.024,0.024,0.04l0,0c0,0.008,0.008,0.016,0.008,0.024l0,0
		c0.009,0,0.009,0.008,0.017,0.016c0,0,0.008,0.008,0.008,0.024l0,0c0.008,0.008,0.023,0.016,0.016,0.024
		c0,0.008,0.008,0.016,0.008,0.016l0,0c0.009,0,0.009,0.008,0.017,0.016c0,0,0.008,0.008,0.008,0.024l0,0
		c0.008,0.008,0.008,0.016,0.016,0.024c0,0.008,0.009,0.008,0.009,0.016l0,0c0.008,0,0.008,0.008,0.008,0.016
		c0,0,0,0.008,0.016,0.016l0,0c0,0.008,0.008,0.008,0.008,0.016c0,0-0.008,0,0.017,0.024l0,0c0,0,0.008,0.008,0.008,0.016l0,0
		c0.008,0.008,0.008,0.008,0.016,0.024c0,0.008,0.009,0.016,0.009,0.016c0.008,0.008,0.008,0.008,0.008,0.016h0.008
		c0,0.008,0,0.008,0.008,0.016l0,0c0.008,0.008,0.008,0.008,0.008,0.016c0,0-0.031-0.008,0.016,0.016
		c0,0.008,0.009,0.016,0.009,0.024l0,0c0.008,0.008,0.008,0.024,0.016,0.024c0,0.008,0,0.008,0.008,0.016l0,0
		c0.017,0.016,0,0.016,0.017,0.024c0,0,0,0.008,0.008,0.024c0,0.008,0.008,0.016,0.008,0.024c0.008,0,0.008,0.008,0.008,0.016
		c0,0,0,0.008,0.017,0.024c0,0,0.008,0.008,0.008,0.016v0.008c0.032,0.024,0.023,0.024,0.016,0.024c0,0.008-0.008,0.016,0.008,0.024
		c0.017,0.008,0,0.016,0.017,0.024c0,0.024,0.008,0.016,0.008,0.024s0.008,0.008,0.008,0.016c0.008,0,0.008,0.008,0.008,0.016
		c0,0,0.008,0.008,0.008,0.024c0.017,0.008,0.017,0.016,0.017,0.024v0.008c0.016,0.016,0.016,0.016,0.016,0.024
		c0.009,0.008,0.009,0.016,0.009,0.016s-0.009,0.016,0.008,0.024c0.016,0.008,0,0.016,0.016,0.024
		c0.008,0.008,0.008,0.016,0.008,0.024c0,0.008,0,0,0.008,0.024c0.017,0.008,0,0.016,0.017,0.024c0,0.008,0.008,0.016,0.008,0.024
		c0,0.016,0.008,0.016,0.008,0.024s0,0.016,0.017,0.024c0,0.008,0.008,0.016,0.008,0.024v0.008c0.016,0.008,0,0.024,0.016,0.024
		c0,0.024,0.008,0.024,0.008,0.024s0.008-0.008,0.008,0.024c0,0.008,0.009,0.016,0.009,0.024c0.016,0.008,0.016,0.016,0.016,0.024
		c0,0-0.008,0,0.008,0.024c0,0,0.008-0.008,0.008,0.024c0,0.008,0.009,0.016,0.009,0.024c0.016,0.008,0,0.016,0.016,0.024
		c0,0,0.016,0.016,0.008,0.016c0,0.008,0.008,0.016,0.008,0.024c0,0.016,0.008,0.024,0.008,0.024
		c0.017,0.016,0.009,0.024,0.009,0.024c0.008,0.008,0.008,0.016,0.016,0.024l0,0c0,0.008,0,0.016,0.008,0.024
		c0,0.008,0.009,0.016,0.009,0.024l0,0c0,0.008,0.008,0.016,0.008,0.024l0,0c0.008,0.008,0.008,0.016,0.008,0.024l0,0
		c0.008,0.008,0.008,0.016,0.016,0.024l0,0c0,0.008,0,0.016,0.008,0.024l0,0c0,0.008,0.008,0.016,0.008,0.024l0,0
		c0.009,0.016,0.017,0.032,0.017,0.048l0,0c0.008,0.008,0.008,0.016,0.016,0.024l0,0c0,0.008,0,0.016,0.009,0.024l0,0
		c0.008,0.016,0.008,0.032,0.016,0.048l0,0c0.456,1.184,0.784,2.44,0.952,3.736c0.12,0.856,0.168,1.728,0.151,2.608l-0.56,614.296
		c-0.008,2.752-0.688,5.456-1.992,7.864l-40.728,75.616c-0.336,0.655-0.721,1.288-1.137,1.888c-1.376,1.984-3.128,3.592-5.104,4.784
		c-2.008,1.2-4.28,2-6.72,2.271C782.088,761.888,781.464,761.92,780.832,761.92z M194.32,728.656h569.896V158.76H194.32V728.656z
		 M797.488,145.872v549.472l15.632-38.168l0.496-544.432L797.488,145.872z M215.568,125.504h554.768l25.68-54.16H265.344
		L215.568,125.504z M479.368,549.856c-0.544,0-1.088-0.032-1.624-0.08c-0.536,0.048-1.08,0.08-1.624,0.08
		c-40.56,0-74.824-14.448-101.832-42.921c-47.504-50.096-61.68-133.016-65.624-188.335c-27.616-7.304-47.848-30.456-47.848-57.816
		c0-33.2,29.8-60.208,66.432-60.208s66.432,27.008,66.432,60.208c0,28.536-22.016,52.496-51.464,58.664
		c3.904,50.376,16.648,122.912,56.248,164.624c20.769,21.872,46.168,32.504,77.664,32.504c0.544,0,1.088,0.032,1.624,0.08
		c0.536-0.048,1.08-0.08,1.624-0.08c31.512,0,56.928-10.641,77.696-32.544c39.632-41.792,52.359-114.216,56.24-164.544
		c-29.553-6.096-51.681-30.112-51.681-58.712c0-33.2,29.809-60.208,66.44-60.208c36.624,0,66.432,27.008,66.432,60.208
		c0,27.296-20.152,50.408-47.672,57.768c-3.928,55.32-18.104,138.28-65.624,188.376
		C554.192,535.416,519.928,549.856,479.368,549.856z M628.072,233.84c-18.288,0-33.168,12.088-33.168,26.952
		c0,11.048,8.224,20.568,19.968,24.72c0.184-13.152-0.192-21.28-0.216-21.624c-0.488-9.168,6.56-17,15.735-17.488
		c9.072-0.56,17,6.552,17.488,15.728c0.072,1.336,0.424,8.608,0.36,20.048c7.903-4.928,13.008-12.68,13.008-21.384
		C661.232,245.936,646.36,233.84,628.072,233.84z M324.216,246.384c0.296,0,0.592,0.008,0.888,0.016
		c9.168,0.488,16.209,8.312,15.736,17.48c-0.016,0.344-0.399,8.448-0.208,21.56c11.64-4.192,19.776-13.664,19.776-24.656
		c0-14.856-14.88-26.952-33.168-26.952s-33.168,12.088-33.168,26.952c0,8.768,5.184,16.576,13.192,21.504
		c-0.063-11.496,0.288-18.824,0.36-20.16C308.096,253.264,315.44,246.384,324.216,246.384z"/>
</g>
</svg>
