<?xml version="1.0" encoding="utf-8"?>
<!-- Generator: Adobe Illustrator 15.0.0, SVG Export Plug-In . SVG Version: 6.00 Build 0)  -->
<!DOCTYPE svg PUBLIC "-//W3C//DTD SVG 1.1//EN" "http://www.w3.org/Graphics/SVG/1.1/DTD/svg11.dtd">
<svg version="1.1" id="Capa_1" xmlns="http://www.w3.org/2000/svg" xmlns:xlink="http://www.w3.org/1999/xlink" x="0px" y="0px"
	 width="512px" height="512px" viewBox="0 0 512 512" enable-background="new 0 0 512 512" xml:space="preserve">
<path fill="#999999" d="M439.573,220.144L256,220.15l-183.573-0.006c-19.802,0.005-35.854,16.057-35.854,35.854
	c-0.004,19.8,16.052,35.855,35.856,35.857h144.144l0,0H256h39.427l0,0h144.146c19.805-0.002,35.857-16.059,35.854-35.857
	C475.427,236.201,459.376,220.149,439.573,220.144z"/>
<path fill="#999999" d="M291.855,439.573L291.85,256l0.006-183.573c-0.004-19.802-16.057-35.854-35.854-35.854
	c-19.8-0.005-35.855,16.052-35.857,35.855v144.145l0,0V256v39.427l0,0v144.146c0.002,19.805,16.058,35.857,35.857,35.854
	C275.799,475.427,291.852,459.376,291.855,439.573z"/>
</svg>
