<?xml version="1.0" encoding="utf-8"?>
<!-- Generator: Adobe Illustrator 15.0.0, SVG Export Plug-In . SVG Version: 6.00 Build 0)  -->
<!DOCTYPE svg PUBLIC "-//W3C//DTD SVG 1.1//EN" "http://www.w3.org/Graphics/SVG/1.1/DTD/svg11.dtd">
<svg version="1.1" id="Layer_1" xmlns="http://www.w3.org/2000/svg" xmlns:xlink="http://www.w3.org/1999/xlink" x="0px" y="0px"
	 width="595.555px" height="595.555px" viewBox="0 0 595.555 595.555" enable-background="new 0 0 595.555 595.555"
	 xml:space="preserve">
<title>Artboard 8</title>
<title>Artboard 8</title>
<g>
	<g>
		<path d="M500.414,0H91.772C41.297,0,0,41.297,0,91.774v408.641c0,50.475,41.298,91.772,91.772,91.772h408.642
			c50.477,0,91.774-41.299,91.774-91.772V91.774C592.189,41.298,550.891,0,500.414,0z M176.959,345.735
			c-20.123,0-36.443-16.319-36.443-36.442c0-20.13,36.443-56.443,36.443-56.443s36.443,36.313,36.443,56.443
			C213.402,329.416,197.09,345.735,176.959,345.735z M176.959,225.735c-20.123,0-36.443-16.32-36.443-36.442
			c0-20.13,16.32-36.443,36.443-36.443c20.13,0,36.443,16.313,36.443,36.443C213.402,209.415,197.09,225.735,176.959,225.735z
			 M367.867,451.991c-2.975,1.729-6.361,2.642-9.795,2.642c-6.933,0-13.403-3.722-16.891-9.717
			c-6.17-10.621-21.067-23.024-42.746-23.024c-21.679,0-36.576,12.403-42.745,23.024c-3.482,5.995-9.953,9.72-16.886,9.72
			c-3.436,0-6.826-0.915-9.801-2.645c-9.303-5.406-12.477-17.376-7.071-26.691c4.122-7.09,27.18-42.455,76.507-42.455
			c49.33,0,72.384,35.367,76.508,42.464C380.351,434.619,377.173,446.59,367.867,451.991z M415.217,225.735
			c-20.123,0-36.443-16.32-36.443-36.442c0-20.13,16.32-36.443,36.443-36.443c20.124,0,36.443,16.313,36.443,36.443
			C451.66,209.415,435.341,225.735,415.217,225.735z"/>
	</g>
</g>
</svg>
