<?xml version="1.0" encoding="utf-8"?>
<!-- Generator: Adobe Illustrator 15.0.0, SVG Export Plug-In . SVG Version: 6.00 Build 0)  -->
<!DOCTYPE svg PUBLIC "-//W3C//DTD SVG 1.1//EN" "http://www.w3.org/Graphics/SVG/1.1/DTD/svg11.dtd">
<svg version="1.1"
	 id="Layer_1" xmlns:sodipodi="http://sodipodi.sourceforge.net/DTD/sodipodi-0.dtd" xmlns:svg="http://www.w3.org/2000/svg" xmlns:dc="http://purl.org/dc/elements/1.1/" xmlns:rdf="http://www.w3.org/1999/02/22-rdf-syntax-ns#" xmlns:cc="http://creativecommons.org/ns#" xmlns:inkscape="http://www.inkscape.org/namespaces/inkscape"
	 xmlns="http://www.w3.org/2000/svg" xmlns:xlink="http://www.w3.org/1999/xlink" x="0px" y="0px" width="100.432px"
	 height="100.432px" viewBox="74.935 11.586 100.432 100.432" enable-background="new 74.935 11.586 100.432 100.432"
	 xml:space="preserve">
<g>
	<path fill="#333333" d="M175.366,106.018c0,3.3-2.7,6-6,6H80.935c-3.3,0-6-2.7-6-6V17.586c0-3.3,2.7-6,6-6h88.432c3.3,0,6,2.7,6,6
		V106.018z"/>
</g>
<g>
	<g>
		<path d="M157.028,54.979l-0.212-0.621l-0.105-0.311c-0.015-0.041-1.506-4.492-1.174-7.778c0.479-4.76-2.521-10.325-2.865-10.942
			l-0.912-1.644l-1.825-3.284l-1.601,3.399l-0.791,1.682c-0.057,0.109-0.949,1.782-3.074,3.121
			c-1.931,1.216-3.253,2.634-4.081,3.722l-7.588-0.836l-0.587-0.064l-0.522,0.274l-6.175,3.251l-6.017-3.242l-0.528-0.286
			l-0.597,0.067l-7.553,0.832c-1.06-1.517-2.743-3.433-4.92-4.299c-1.156-0.462-1.985-1.88-2.214-2.401l-0.603-1.477l-1.222-2.991
			l-2.049,2.497l-1.024,1.249c-0.415,0.505-4.026,5.119-3.144,11.48c0.565,4.068-0.909,7.064-0.994,7.231l-0.195,0.353l-0.411,0.744
			l0.273,0.806l3.488,10.28l-2.589,3.567l-0.783,1.08l0.733,1.111l0.367,0.558c0.2,0.304,2.041,3.011,4.982,4.58
			c0.49,0.261,1.005,0.492,1.542,0.692l-4.753,7.393l-2.57,3.998l4.628-1.082l7.024-1.643l8.697,2.606l-2.543,2.455l3.946,0.529
			l5.345,0.716l2.919,1.404l0.838,0.404l0.837-0.405l2.856-1.386l5.401-0.739l3.928-0.539l-2.527-2.439l8.697-2.606l7.023,1.643
			l4.629,1.082l-2.57-3.998l-4.856-7.553c0.403-0.155,0.816-0.325,1.237-0.512c4.007-1.772,5.443-4.645,5.595-4.965l0.241-0.516
			l0.481-1.027l-0.667-0.918l-2.531-3.49l3.455-10.188L157.028,54.979z M126.463,58.552v-9.796l6.418-3.378l9.451,1.043l0.295-0.618
			c0.01-0.022,1.081-2.225,3.81-3.944c1.661-1.047,2.797-2.25,3.511-3.179c0.793,1.766,1.92,4.782,1.675,7.203
			c-0.365,3.617,0.878,7.897,1.258,9.094l-3.888,11.462l2.992,4.123c-0.447,0.628-1.463,1.772-3.384,2.622
			c-2.789,1.234-4.198,1.249-4.247,1.249l-1.843-0.068l5.458,8.488l-16.459-3.85l14.125-7.055v-2.422v-11.17l0.405-0.379
			l1.522-2.733l-1.681-0.938l-1.377,2.47l-2.124,1.983l1.314,1.408l0.013-0.014v9.373v1.232L125.5,79.852l-18.208-9.094v-1.232
			v-9.373l0.014,0.014l1.314-1.408l-2.125-1.983l-1.376-2.47l-1.682,0.938l1.522,2.734l0.406,0.378v11.17v2.422l14.125,7.055
			l-16.459,3.85l5.412-8.421h-1.764c-0.023,0-2.312-0.014-4.436-1.146c-1.477-0.787-2.623-2.064-3.19-2.776l2.953-4.071
			l-3.861-11.388c0.525-1.138,1.866-4.604,1.228-9.203c-0.434-3.128,0.671-5.786,1.498-7.261c0.696,1.035,1.848,2.342,3.518,3.008
			c2.243,0.894,3.982,4.203,3.999,4.236l0.304,0.587l9.423-1.039l6.422,3.461v9.712H126.463L126.463,58.552z M130.146,88.351
			l-1.692,0.231l-0.693-1.231l-1.001,0.564l0.79,1.403l-2.05,0.993l-2.105-1.014l0.798-1.378l-0.995-0.575l-0.705,1.219
			l-1.633-0.218l2.097-2.025l2.544,0.762l2.544-0.762L130.146,88.351z M125.501,82.005l3.312-1.655l1.33,0.312l-4.643,1.391
			l-4.643-1.391l1.33-0.312L125.501,82.005z M125.501,83.253l6.892-2.065l1.34,0.313l-8.231,2.467l-8.232-2.467l1.341-0.313
			L125.501,83.253z M125.501,85.168l10.479-3.141l1.342,0.312l-11.821,3.544l-11.822-3.544l1.341-0.312L125.501,85.168z
			 M130.159,85.686l9.411-2.82l1.3,0.305l-10.162,3.046L130.159,85.686z M111.431,82.865l9.41,2.82l-0.548,0.53l-10.162-3.046
			L111.431,82.865z"/>
		<polygon fill="#FFFFFF" points="120.841,85.686 111.431,82.865 110.132,83.17 120.293,86.216 		"/>
		<polygon fill="#FFFFFF" points="139.57,82.865 130.159,85.686 130.708,86.216 140.87,83.17 		"/>
		<polygon fill="#FFFFFF" points="128.045,86.32 125.501,87.082 122.957,86.32 120.86,88.346 122.492,88.563 123.197,87.346 
			124.192,87.92 123.395,89.3 125.5,90.312 127.55,89.318 126.76,87.915 127.761,87.351 128.454,88.582 130.146,88.351 		"/>
		<polygon fill="#FFFFFF" points="125.501,85.884 137.322,82.34 135.98,82.027 125.501,85.168 115.02,82.027 113.679,82.34 		"/>
		<polygon fill="#FFFFFF" points="125.501,83.968 133.732,81.501 132.393,81.188 125.501,83.253 118.61,81.188 117.268,81.501 		"/>
		<polygon fill="#FFFFFF" points="125.501,82.053 130.144,80.662 128.813,80.35 125.501,82.005 122.188,80.35 120.858,80.662 		"/>
		<path fill="#FFFFFF" d="M118.116,45.38l-9.423,1.038l-0.304-0.587c-0.017-0.033-1.756-3.342-3.999-4.235
			c-1.67-0.667-2.822-1.973-3.519-3.009c-0.826,1.477-1.931,4.133-1.497,7.261c0.638,4.601-0.703,8.064-1.229,9.204l3.862,11.387
			l-2.954,4.071c0.567,0.712,1.713,1.989,3.19,2.776c2.124,1.134,4.413,1.147,4.436,1.147h1.763l-5.412,8.42l16.459-3.85
			l-14.125-7.055v-2.42V58.355l-0.406-0.378l-1.522-2.734l1.682-0.938l1.376,2.47l2.125,1.983l-1.314,1.408l-0.014-0.013v9.374v1.23
			l18.208,9.094l18.207-9.094v-1.23v-9.374l-0.013,0.013l-1.314-1.408l2.125-1.983l1.376-2.47l1.683,0.938l-1.523,2.734
			l-0.406,0.378v11.17v2.422l-14.124,7.055l16.458,3.85l-5.456-8.487l1.842,0.067c0.049,0,1.459-0.015,4.248-1.249
			c1.92-0.85,2.935-1.992,3.382-2.622l-2.992-4.123l3.889-11.461c-0.379-1.197-1.622-5.478-1.259-9.094
			c0.245-2.421-0.882-5.436-1.674-7.204c-0.715,0.931-1.851,2.134-3.511,3.179c-2.729,1.719-3.801,3.923-3.811,3.944l-0.294,0.618
			l-9.452-1.042l-6.417,3.378v9.795h-1.925v-9.711L118.116,45.38z M115.702,51.817l2.004,5.001l3.095,2.891l-1.314,1.407
			l-3.409-3.184l-2.163-5.398L115.702,51.817z M109.699,57.933l-2.164-5.398l1.787-0.716l2.004,5l3.095,2.891l-1.314,1.407
			L109.699,57.933z M116.592,65.651l-0.032,2.079l-1.925-0.03l0.087-5.581l7.299,4.792l-1.057,1.609l-0.504-0.331v1.682h-2.484
			v-2.484h1.264L116.592,65.651z M128.884,76.229l-0.995-1.422h-5.279l-0.997,1.422l-1.577-1.106l1.574-2.24h7.279l1.572,2.24
			L128.884,76.229z M127.587,71.677l-2.32,0.9l-2.352-0.898l0.687-1.799l1.659,0.634l1.63-0.632L127.587,71.677z M135.862,67.7
			l-1.925,0.03l-0.033-2.079l-2.646,1.736h1.264v2.484h-2.485v-1.682l-0.504,0.331l-1.057-1.609l7.3-4.792L135.862,67.7z
			 M141.678,51.817l1.789,0.717l-2.164,5.398l-3.408,3.184l-1.315-1.407l3.097-2.891L141.678,51.817z M133.296,56.819l2.003-5.001
			l1.788,0.717l-2.163,5.398l-3.409,3.184l-1.314-1.407L133.296,56.819z"/>
		<g>
			<polygon points="136.579,59.709 137.895,61.117 141.303,57.933 143.467,52.535 141.678,51.817 139.676,56.819 			"/>
			<polygon points="130.2,59.709 131.515,61.117 134.924,57.933 137.087,52.535 135.299,51.817 133.296,56.819 			"/>
			<polygon points="114.422,59.709 111.327,56.819 109.322,51.817 107.536,52.535 109.699,57.933 113.107,61.117 			"/>
			<polygon points="119.486,61.117 120.801,59.709 117.706,56.819 115.702,51.817 113.915,52.535 116.078,57.933 			"/>
			<polygon points="121.609,72.881 120.036,75.122 121.613,76.229 122.61,74.807 127.889,74.807 128.884,76.229 130.461,75.122 
				128.889,72.881 			"/>
			<polygon points="125.261,70.515 123.602,69.88 122.915,71.679 125.267,72.577 127.587,71.677 126.891,69.882 			"/>
			<polygon points="117.976,69.871 120.46,69.871 120.46,68.189 120.964,68.52 122.021,66.911 114.722,62.119 114.635,67.7 
				116.56,67.73 116.592,65.651 119.239,67.387 117.976,67.387 			"/>
			<polygon points="128.477,66.911 129.532,68.52 130.036,68.189 130.036,69.871 132.521,69.871 132.521,67.387 131.258,67.387 
				133.905,65.651 133.938,67.73 135.862,67.7 135.775,62.119 			"/>
		</g>
	</g>
	<g>
		<path fill="none" stroke="#FFFFFF" stroke-width="6" d="M157.028,54.979l-0.212-0.621l-0.105-0.311
			c-0.015-0.041-1.506-4.492-1.174-7.778c0.479-4.76-2.521-10.325-2.865-10.942l-0.912-1.644l-1.825-3.284l-1.601,3.399
			l-0.791,1.682c-0.057,0.109-0.949,1.782-3.074,3.121c-1.931,1.216-3.253,2.634-4.081,3.722l-7.588-0.836l-0.587-0.064
			l-0.522,0.274l-6.175,3.251l-6.017-3.242l-0.528-0.286l-0.597,0.067l-7.553,0.832c-1.06-1.517-2.743-3.433-4.92-4.299
			c-1.156-0.462-1.985-1.88-2.214-2.401l-0.603-1.477l-1.222-2.991l-2.049,2.497l-1.024,1.249c-0.415,0.505-4.026,5.119-3.144,11.48
			c0.565,4.068-0.909,7.064-0.994,7.231l-0.195,0.353l-0.411,0.744l0.273,0.806l3.488,10.28l-2.589,3.567l-0.783,1.08l0.733,1.111
			l0.367,0.558c0.2,0.304,2.041,3.011,4.982,4.58c0.49,0.261,1.005,0.492,1.542,0.692l-4.753,7.393l-2.57,3.998l4.628-1.082
			l7.024-1.643l8.697,2.606l-2.543,2.455l3.946,0.529l5.345,0.716l2.919,1.404l0.838,0.404l0.837-0.405l2.856-1.386l5.401-0.739
			l3.928-0.539l-2.527-2.439l8.697-2.606l7.023,1.643l4.629,1.082l-2.57-3.998l-4.856-7.553c0.403-0.155,0.816-0.325,1.237-0.512
			c4.007-1.772,5.443-4.645,5.595-4.965l0.241-0.516l0.481-1.027l-0.667-0.918l-2.531-3.49l3.455-10.188L157.028,54.979z
			 M126.463,58.552v-9.796l6.418-3.378l9.451,1.043l0.295-0.618c0.01-0.022,1.081-2.225,3.81-3.944
			c1.661-1.047,2.797-2.25,3.511-3.179c0.793,1.766,1.92,4.782,1.675,7.203c-0.365,3.617,0.878,7.897,1.258,9.094l-3.888,11.462
			l2.992,4.123c-0.447,0.628-1.463,1.772-3.384,2.622c-2.789,1.234-4.198,1.249-4.247,1.249l-1.843-0.068l5.458,8.488l-16.459-3.85
			l14.125-7.055v-2.422v-11.17l0.405-0.379l1.522-2.733l-1.681-0.938l-1.377,2.47l-2.124,1.983l1.314,1.408l0.013-0.014v9.373v1.232
			L125.5,79.852l-18.208-9.094v-1.232v-9.373l0.014,0.014l1.314-1.408l-2.125-1.983l-1.376-2.47l-1.682,0.938l1.522,2.734
			l0.406,0.378v11.17v2.422l14.125,7.055l-16.459,3.85l5.412-8.421h-1.764c-0.023,0-2.312-0.014-4.436-1.146
			c-1.477-0.787-2.623-2.064-3.19-2.776l2.953-4.071l-3.861-11.388c0.525-1.138,1.866-4.604,1.228-9.203
			c-0.434-3.128,0.671-5.786,1.498-7.261c0.696,1.035,1.848,2.342,3.518,3.008c2.243,0.894,3.982,4.203,3.999,4.236l0.304,0.587
			l9.423-1.039l6.422,3.461v9.712H126.463L126.463,58.552z M130.146,88.351l-1.692,0.231l-0.693-1.231l-1.001,0.564l0.79,1.403
			l-2.05,0.993l-2.105-1.014l0.798-1.378l-0.995-0.575l-0.705,1.219l-1.633-0.218l2.097-2.025l2.544,0.762l2.544-0.762
			L130.146,88.351z M125.501,82.005l3.312-1.655l1.33,0.312l-4.643,1.391l-4.643-1.391l1.33-0.312L125.501,82.005z M125.501,83.253
			l6.892-2.065l1.34,0.313l-8.231,2.467l-8.232-2.467l1.341-0.313L125.501,83.253z M125.501,85.168l10.479-3.141l1.342,0.312
			l-11.821,3.544l-11.822-3.544l1.341-0.312L125.501,85.168z M130.159,85.686l9.411-2.82l1.3,0.305l-10.162,3.046L130.159,85.686z
			 M111.431,82.865l9.41,2.82l-0.548,0.53l-10.162-3.046L111.431,82.865z"/>
		<polygon fill="none" stroke="#FFFFFF" stroke-width="6" points="120.841,85.686 111.431,82.865 110.132,83.17 120.293,86.216 		
			"/>
		<polygon fill="none" stroke="#FFFFFF" stroke-width="6" points="139.57,82.865 130.159,85.686 130.708,86.216 140.87,83.17 		"/>
		<polygon fill="none" stroke="#FFFFFF" stroke-width="6" points="128.045,86.32 125.501,87.082 122.957,86.32 120.86,88.346 
			122.492,88.563 123.197,87.346 124.192,87.92 123.395,89.3 125.5,90.312 127.55,89.318 126.76,87.915 127.761,87.351 
			128.454,88.582 130.146,88.351 		"/>
		<polygon fill="none" stroke="#FFFFFF" stroke-width="6" points="125.501,85.884 137.322,82.34 135.98,82.027 125.501,85.168 
			115.02,82.027 113.679,82.34 		"/>
		<polygon fill="none" stroke="#FFFFFF" stroke-width="6" points="125.501,83.968 133.732,81.501 132.393,81.188 125.501,83.253 
			118.61,81.188 117.268,81.501 		"/>
		<polygon fill="none" stroke="#FFFFFF" stroke-width="6" points="125.501,82.053 130.144,80.662 128.813,80.35 125.501,82.005 
			122.188,80.35 120.858,80.662 		"/>
		<path fill="none" stroke="#FFFFFF" stroke-width="6" d="M118.116,45.38l-9.423,1.038l-0.304-0.587
			c-0.017-0.033-1.756-3.342-3.999-4.235c-1.67-0.667-2.822-1.973-3.519-3.009c-0.826,1.477-1.931,4.133-1.497,7.261
			c0.638,4.601-0.703,8.064-1.229,9.204l3.862,11.387l-2.954,4.071c0.567,0.712,1.713,1.989,3.19,2.776
			c2.124,1.134,4.413,1.147,4.436,1.147h1.763l-5.412,8.42l16.459-3.85l-14.125-7.055v-2.42V58.355l-0.406-0.378l-1.522-2.734
			l1.682-0.938l1.376,2.47l2.125,1.983l-1.314,1.408l-0.014-0.013v9.374v1.23l18.208,9.094l18.207-9.094v-1.23v-9.374l-0.013,0.013
			l-1.314-1.408l2.125-1.983l1.376-2.47l1.683,0.938l-1.523,2.734l-0.406,0.378v11.17v2.422l-14.124,7.055l16.458,3.85l-5.456-8.487
			l1.842,0.067c0.049,0,1.459-0.015,4.248-1.249c1.92-0.85,2.935-1.992,3.382-2.622l-2.992-4.123l3.889-11.461
			c-0.379-1.197-1.622-5.478-1.259-9.094c0.245-2.421-0.882-5.436-1.674-7.204c-0.715,0.931-1.851,2.134-3.511,3.179
			c-2.729,1.719-3.801,3.923-3.811,3.944l-0.294,0.618l-9.452-1.042l-6.417,3.378v9.795h-1.925v-9.711L118.116,45.38z
			 M115.702,51.817l2.004,5.001l3.095,2.891l-1.314,1.407l-3.409-3.184l-2.163-5.398L115.702,51.817z M109.699,57.933l-2.164-5.398
			l1.787-0.716l2.004,5l3.095,2.891l-1.314,1.407L109.699,57.933z M116.592,65.651l-0.032,2.079l-1.925-0.03l0.087-5.581
			l7.299,4.792l-1.057,1.609l-0.504-0.331v1.682h-2.484v-2.484h1.264L116.592,65.651z M128.884,76.229l-0.995-1.422h-5.279
			l-0.997,1.422l-1.577-1.106l1.574-2.24h7.279l1.572,2.24L128.884,76.229z M127.587,71.677l-2.32,0.9l-2.352-0.898l0.687-1.799
			l1.659,0.634l1.63-0.632L127.587,71.677z M135.862,67.7l-1.925,0.03l-0.033-2.079l-2.646,1.736h1.264v2.484h-2.485v-1.682
			l-0.504,0.331l-1.057-1.609l7.3-4.792L135.862,67.7z M141.678,51.817l1.789,0.717l-2.164,5.398l-3.408,3.184l-1.315-1.407
			l3.097-2.891L141.678,51.817z M133.296,56.819l2.003-5.001l1.788,0.717l-2.163,5.398l-3.409,3.184l-1.314-1.407L133.296,56.819z"
			/>
		<g>
			<polygon fill="none" stroke="#FFFFFF" stroke-width="6" points="136.579,59.709 137.895,61.117 141.303,57.933 143.467,52.535 
				141.678,51.817 139.676,56.819 			"/>
			<polygon fill="none" stroke="#FFFFFF" stroke-width="6" points="130.2,59.709 131.515,61.117 134.924,57.933 137.087,52.535 
				135.299,51.817 133.296,56.819 			"/>
			<polygon fill="none" stroke="#FFFFFF" stroke-width="6" points="114.422,59.709 111.327,56.819 109.322,51.817 107.536,52.535 
				109.699,57.933 113.107,61.117 			"/>
			<polygon fill="none" stroke="#FFFFFF" stroke-width="6" points="119.486,61.117 120.801,59.709 117.706,56.819 115.702,51.817 
				113.915,52.535 116.078,57.933 			"/>
			<polygon fill="none" stroke="#FFFFFF" stroke-width="6" points="121.609,72.881 120.036,75.122 121.613,76.229 122.61,74.807 
				127.889,74.807 128.884,76.229 130.461,75.122 128.889,72.881 			"/>
			<polygon fill="none" stroke="#FFFFFF" stroke-width="6" points="125.261,70.515 123.602,69.88 122.915,71.679 125.267,72.577 
				127.587,71.677 126.891,69.882 			"/>
			<polygon fill="none" stroke="#FFFFFF" stroke-width="6" points="117.976,69.871 120.46,69.871 120.46,68.189 120.964,68.52 
				122.021,66.911 114.722,62.119 114.635,67.7 116.56,67.73 116.592,65.651 119.239,67.387 117.976,67.387 			"/>
			<polygon fill="none" stroke="#FFFFFF" stroke-width="6" points="128.477,66.911 129.532,68.52 130.036,68.189 130.036,69.871 
				132.521,69.871 132.521,67.387 131.258,67.387 133.905,65.651 133.938,67.73 135.862,67.7 135.775,62.119 			"/>
		</g>
	</g>
</g>
<g>
	<g>
		<path fill="#333333" d="M157.028,54.979l-0.212-0.621l-0.105-0.311c-0.015-0.041-1.506-4.492-1.174-7.779
			c0.479-4.76-2.521-10.324-2.865-10.942l-0.912-1.643l-1.825-3.285l-1.601,3.4l-0.791,1.682c-0.057,0.109-0.949,1.782-3.074,3.121
			c-1.931,1.216-3.253,2.634-4.081,3.722l-7.588-0.837l-0.587-0.064l-0.522,0.274l-6.175,3.251l-6.017-3.243l-0.528-0.285
			l-0.597,0.066l-7.553,0.833c-1.06-1.517-2.743-3.433-4.92-4.3c-1.156-0.461-1.985-1.879-2.214-2.4l-0.603-1.477l-1.222-2.991
			l-2.049,2.497l-1.024,1.249c-0.415,0.505-4.026,5.119-3.144,11.48c0.565,4.068-0.909,7.064-0.994,7.231l-0.195,0.353l-0.411,0.744
			l0.273,0.806l3.488,10.28l-2.589,3.567l-0.783,1.08l0.733,1.111l0.367,0.558c0.2,0.304,2.041,3.011,4.982,4.58
			c0.49,0.261,1.005,0.492,1.542,0.692l-4.753,7.393l-2.57,3.998l4.628-1.082l7.024-1.643l8.697,2.606l-2.543,2.455l3.946,0.529
			l5.345,0.716l2.919,1.404l0.838,0.404l0.837-0.405l2.856-1.386l5.401-0.739l3.928-0.539l-2.527-2.439l8.697-2.606l7.023,1.643
			l4.629,1.082l-2.57-3.998l-4.856-7.553c0.403-0.155,0.816-0.325,1.237-0.512c4.007-1.772,5.443-4.645,5.595-4.965l0.241-0.516
			l0.481-1.027l-0.667-0.918l-2.531-3.49l3.455-10.188L157.028,54.979z M126.463,58.552v-9.796l6.418-3.378l9.451,1.042l0.295-0.618
			c0.01-0.022,1.081-2.226,3.81-3.944c1.661-1.046,2.797-2.249,3.511-3.179c0.793,1.767,1.92,4.782,1.675,7.203
			c-0.365,3.617,0.878,7.897,1.258,9.094l-3.888,11.461l2.992,4.123c-0.447,0.628-1.463,1.772-3.384,2.622
			c-2.789,1.234-4.198,1.249-4.247,1.249l-1.843-0.068l5.458,8.488l-16.459-3.85l14.125-7.055v-2.422V58.354l0.405-0.379
			l1.522-2.733l-1.681-0.938l-1.377,2.47l-2.124,1.983l1.314,1.408l0.013-0.014v9.373v1.232L125.5,79.852l-18.208-9.094v-1.232
			v-9.373l0.014,0.014l1.314-1.408l-2.125-1.983l-1.376-2.47l-1.682,0.938l1.522,2.733l0.406,0.378v11.171v2.422l14.125,7.055
			l-16.459,3.85l5.412-8.421h-1.764c-0.023,0-2.312-0.014-4.436-1.146c-1.477-0.787-2.623-2.064-3.19-2.776l2.953-4.071
			l-3.861-11.388c0.525-1.139,1.866-4.603,1.228-9.203c-0.434-3.128,0.671-5.785,1.498-7.261c0.696,1.035,1.848,2.342,3.518,3.008
			c2.243,0.894,3.982,4.203,3.999,4.236l0.304,0.587l9.423-1.039l6.422,3.461v9.712L126.463,58.552L126.463,58.552z M130.146,88.351
			l-1.692,0.231l-0.693-1.231l-1.001,0.564l0.79,1.403l-2.05,0.993l-2.105-1.014l0.798-1.378l-0.995-0.575l-0.705,1.219
			l-1.633-0.218l2.097-2.025l2.544,0.762l2.544-0.762L130.146,88.351z M125.501,82.005l3.312-1.655l1.33,0.312l-4.643,1.391
			l-4.643-1.391l1.33-0.312L125.501,82.005z M125.501,83.253l6.892-2.065l1.34,0.313l-8.231,2.467l-8.232-2.467l1.341-0.313
			L125.501,83.253z M125.501,85.168l10.479-3.141l1.342,0.312l-11.821,3.544l-11.822-3.544l1.341-0.312L125.501,85.168z
			 M130.159,85.686l9.411-2.82l1.3,0.305l-10.162,3.046L130.159,85.686z M111.431,82.865l9.41,2.82l-0.548,0.53l-10.162-3.046
			L111.431,82.865z"/>
		<polygon fill="#FFFFFF" points="120.841,85.686 111.431,82.865 110.132,83.17 120.293,86.216 		"/>
		<polygon fill="#FFFFFF" points="139.57,82.865 130.159,85.686 130.708,86.216 140.87,83.17 		"/>
		<polygon fill="#FFFFFF" points="128.045,86.32 125.501,87.082 122.957,86.32 120.86,88.346 122.492,88.563 123.197,87.346 
			124.192,87.92 123.395,89.3 125.5,90.312 127.55,89.318 126.76,87.915 127.761,87.351 128.454,88.582 130.146,88.351 		"/>
		<polygon fill="#FFFFFF" points="125.501,85.884 137.322,82.34 135.98,82.027 125.501,85.168 115.02,82.027 113.679,82.34 		"/>
		<polygon fill="#FFFFFF" points="125.501,83.968 133.732,81.501 132.393,81.188 125.501,83.253 118.61,81.188 117.268,81.501 		"/>
		<polygon fill="#FFFFFF" points="125.501,82.053 130.144,80.662 128.813,80.35 125.501,82.005 122.188,80.35 120.858,80.662 		"/>
		<path fill="#FFFFFF" d="M118.116,45.379l-9.423,1.039l-0.304-0.587c-0.017-0.033-1.756-3.342-3.999-4.236
			c-1.67-0.666-2.822-1.973-3.519-3.008c-0.826,1.477-1.931,4.133-1.497,7.261c0.638,4.601-0.703,8.065-1.229,9.204l3.862,11.387
			l-2.954,4.071c0.567,0.712,1.713,1.989,3.19,2.776c2.124,1.134,4.413,1.147,4.436,1.147h1.763l-5.412,8.42l16.459-3.85
			l-14.125-7.055v-2.42V58.355l-0.406-0.379l-1.522-2.734l1.682-0.937l1.376,2.47l2.125,1.983l-1.314,1.408l-0.014-0.014v9.375v1.23
			l18.208,9.094l18.207-9.094v-1.23v-9.375l-0.013,0.014l-1.314-1.408l2.125-1.984l1.376-2.47l1.683,0.938l-1.523,2.733
			l-0.406,0.378v11.171v2.422l-14.124,7.055l16.458,3.85l-5.456-8.487l1.842,0.067c0.049,0,1.459-0.015,4.248-1.249
			c1.92-0.85,2.935-1.992,3.382-2.622l-2.992-4.123l3.889-11.461c-0.379-1.197-1.622-5.478-1.259-9.094
			c0.245-2.422-0.882-5.437-1.674-7.203c-0.715,0.93-1.851,2.133-3.511,3.179c-2.729,1.72-3.801,3.922-3.811,3.944l-0.294,0.618
			l-9.452-1.042l-6.417,3.378v9.795h-1.925v-9.712L118.116,45.379z M115.702,51.817l2.004,5.001l3.095,2.891l-1.314,1.407
			l-3.409-3.184l-2.163-5.398L115.702,51.817z M109.699,57.933l-2.164-5.398l1.787-0.716l2.004,5l3.095,2.891l-1.314,1.407
			L109.699,57.933z M116.592,65.651l-0.032,2.079l-1.925-0.03l0.087-5.582l7.299,4.792l-1.057,1.609l-0.504-0.331v1.682h-2.484
			v-2.484h1.264L116.592,65.651z M128.884,76.229l-0.995-1.422h-5.279l-0.997,1.422l-1.577-1.106l1.574-2.24h7.279l1.572,2.24
			L128.884,76.229z M127.587,71.677l-2.32,0.9l-2.352-0.898l0.687-1.799l1.659,0.634l1.63-0.632L127.587,71.677z M135.862,67.7
			l-1.925,0.03l-0.033-2.079l-2.646,1.736h1.264v2.484h-2.485v-1.682l-0.504,0.331l-1.057-1.609l7.3-4.792L135.862,67.7z
			 M141.678,51.817l1.789,0.717l-2.164,5.398l-3.408,3.184l-1.315-1.407l3.097-2.891L141.678,51.817z M133.296,56.819l2.003-5.001
			l1.788,0.717l-2.163,5.398l-3.409,3.184l-1.314-1.407L133.296,56.819z"/>
		<g>
			<polygon fill="#333333" points="136.579,59.709 137.895,61.117 141.303,57.933 143.467,52.535 141.678,51.817 139.676,56.819 			
				"/>
			<polygon fill="#333333" points="130.2,59.709 131.515,61.117 134.924,57.933 137.087,52.535 135.299,51.817 133.296,56.819 			
				"/>
			<polygon fill="#333333" points="114.422,59.709 111.327,56.819 109.322,51.817 107.536,52.535 109.699,57.933 113.107,61.117 			
				"/>
			<polygon fill="#333333" points="119.486,61.117 120.801,59.709 117.706,56.819 115.702,51.817 113.915,52.535 116.078,57.933 			
				"/>
			<polygon fill="#333333" points="121.609,72.881 120.036,75.122 121.613,76.229 122.61,74.807 127.889,74.807 128.884,76.229 
				130.461,75.122 128.889,72.881 			"/>
			<polygon fill="#333333" points="125.261,70.515 123.602,69.88 122.915,71.679 125.267,72.577 127.587,71.677 126.891,69.882 			
				"/>
			<polygon fill="#333333" points="117.976,69.871 120.46,69.871 120.46,68.189 120.964,68.52 122.021,66.911 114.722,62.119 
				114.635,67.7 116.56,67.73 116.592,65.651 119.239,67.387 117.976,67.387 			"/>
			<polygon fill="#333333" points="128.477,66.911 129.532,68.52 130.036,68.189 130.036,69.871 132.521,69.871 132.521,67.387 
				131.258,67.387 133.905,65.651 133.938,67.73 135.862,67.7 135.775,62.119 			"/>
		</g>
	</g>
</g>
<g>
	<g>
		<path fill="#FFFFFF" d="M91.208,29.533c-1.167,1.167-3.076,1.167-4.242,0l-5.935-5.935c-1.167-1.167-1.167-3.076,0-4.242
			l1.909-1.909c1.167-1.167,3.076-1.167,4.243,0l5.934,5.934c1.167,1.167,1.167,3.076,0,4.243L91.208,29.533z"/>
	</g>
	<g>
		<path fill="#FFFFFF" d="M85.474,30.106c-1.631-0.248-2.011-1.405-0.845-2.571l6.49-6.49c1.167-1.167,2.324-0.787,2.571,0.845
			l1.021,6.722c0.248,1.631-0.884,2.763-2.516,2.516L85.474,30.106z"/>
	</g>
	<g>
		<path fill="#333333" d="M84.106,20.29l-0.524-0.524l1.959-1.959l0.792,0.792c0.498,0.499,0.472,1.077,0.072,1.478
			c-0.401,0.401-0.971,0.418-1.469-0.08l-0.268-0.268L84.106,20.29z M85.348,19.533c0.179,0.178,0.369,0.178,0.53,0.017
			c0.161-0.162,0.164-0.354-0.015-0.533l-0.242-0.242l-0.516,0.516L85.348,19.533z"/>
		<path fill="#333333" d="M87.35,19.615l1.374,1.374l-0.441,0.441l-0.849-0.85l-0.323,0.323l0.708,0.708l-0.418,0.417l-0.708-0.708
			l-0.337,0.336l0.89,0.89l-0.441,0.441l-1.414-1.415L87.35,19.615z"/>
		<path fill="#333333" d="M89.016,21.281l1.375,1.375l-0.441,0.441l-0.851-0.85l-0.322,0.323l0.708,0.708l-0.417,0.417l-0.708-0.708
			l-0.337,0.337l0.89,0.89l-0.441,0.441l-1.415-1.415L89.016,21.281z"/>
		<path fill="#333333" d="M90.683,22.948l0.525,0.525l-1.518,1.518l0.832,0.833l-0.44,0.44l-1.357-1.356L90.683,22.948z"/>
		<path fill="#333333" d="M84.112,21.643l0.525,0.525l-1.96,1.959l-0.523-0.524l0.766-0.767l-0.679-0.68l-0.767,0.766l-0.524-0.525
			l1.959-1.958l0.524,0.524l-0.752,0.752l0.68,0.68L84.112,21.643z"/>
		<path fill="#333333" d="M84.976,22.506l1.374,1.375l-0.441,0.441l-0.85-0.85l-0.323,0.322l0.709,0.709l-0.418,0.417l-0.708-0.708
			l-0.337,0.337l0.89,0.89l-0.441,0.441l-1.415-1.415L84.976,22.506z"/>
		<path fill="#333333" d="M85.209,26.657l-0.525-0.524l1.959-1.959l0.792,0.792c0.498,0.499,0.481,1.069,0.08,1.47
			c-0.259,0.259-0.587,0.339-0.928,0.213l-0.288,1.1l-0.567-0.567L86,26.222l-0.178-0.178L85.209,26.657z M86.464,25.885
			c0.178,0.179,0.363,0.184,0.524,0.023c0.161-0.161,0.156-0.346-0.022-0.524l-0.242-0.242l-0.501,0.501L86.464,25.885z"/>
		<path fill="#333333" d="M88.506,26.036l1.374,1.375l-0.44,0.441l-0.851-0.85l-0.322,0.322l0.708,0.709l-0.417,0.417l-0.708-0.708
			l-0.337,0.337l0.89,0.89l-0.441,0.441l-1.415-1.415L88.506,26.036z"/>
	</g>
</g>
</svg>
