<?xml version="1.0" encoding="utf-8"?>
<!-- Generator: Adobe Illustrator 15.0.0, SVG Export Plug-In . SVG Version: 6.00 Build 0)  -->
<!DOCTYPE svg PUBLIC "-//W3C//DTD SVG 1.1//EN" "http://www.w3.org/Graphics/SVG/1.1/DTD/svg11.dtd">
<svg version="1.1" id="Layer_1" xmlns="http://www.w3.org/2000/svg" xmlns:xlink="http://www.w3.org/1999/xlink" x="0px" y="0px"
	 width="612px" height="459px" viewBox="0 90 612 459" enable-background="new 0 90 612 459" xml:space="preserve">
<title>5.11</title>
<desc>Created with Sketch.</desc>
<g>
	<g>
		<g transform="translate(0.000000, 0.000000)">
			<path fill="#FFFFFF" d="M334.714,166.5C346.036,122.507,385.972,90,433.5,90s87.464,32.507,98.786,76.5h54.196
				C600.575,166.5,612,177.818,612,192c0,14.083-11.41,25.5-25.518,25.5h-54.196C520.964,261.493,481.028,294,433.5,294
				s-87.464-32.507-98.786-76.5H25.518C11.425,217.5,0,206.182,0,192c0-14.083,11.411-25.5,25.518-25.5H334.714z M79.713,421.5
				C91.037,377.507,130.972,345,178.5,345s87.463,32.507,98.787,76.5h309.196C600.575,421.5,612,432.818,612,447
				c0,14.083-11.41,25.5-25.518,25.5H277.287C265.963,516.493,226.028,549,178.5,549s-87.463-32.507-98.787-76.5H25.518
				C11.425,472.5,0,461.182,0,447c0-14.083,11.411-25.5,25.518-25.5H79.713z M178.5,498c28.167,0,51-22.833,51-51s-22.833-51-51-51
				s-51,22.833-51,51S150.333,498,178.5,498z M433.5,243c28.167,0,51-22.833,51-51s-22.833-51-51-51s-51,22.833-51,51
				S405.333,243,433.5,243z"/>
		</g>
	</g>
</g>
</svg>
