<?xml version="1.0" encoding="utf-8"?>
<!-- Generator: Adobe Illustrator 15.0.0, SVG Export Plug-In . SVG Version: 6.00 Build 0)  -->
<!DOCTYPE svg PUBLIC "-//W3C//DTD SVG 1.1//EN" "http://www.w3.org/Graphics/SVG/1.1/DTD/svg11.dtd">
<svg version="1.1" id="Layer_1" xmlns="http://www.w3.org/2000/svg" xmlns:xlink="http://www.w3.org/1999/xlink" x="0px" y="0px"
	 width="111.101px" height="81.395px" viewBox="72.497 18.24 111.101 81.395" enable-background="new 72.497 18.24 111.101 81.395"
	 xml:space="preserve">
<g transform="translate(-570 -260)">
	<g>
		<path fill="#333333" d="M739.199,285.559c0-4.043-3.279-7.319-7.318-7.319c-3.003,0-5.584,1.816-6.709,4.408
			c4.773,1.425,9.285,3.429,13.291,6.06C738.92,287.756,739.199,286.692,739.199,285.559z"/>
		<path fill="#333333" d="M652.277,348.147c3.164-1.353,6.125-3.003,8.725-4.604c-10.422-4.251-16.781-4.589-18.144-4.607
			C643.592,343.716,645.776,350.936,652.277,348.147z"/>
		<path fill="#333333" d="M669.769,323.871c-22.138,6.578-27.271,11.229-27.271,11.229s17.626-0.699,46.222,19.799
			c12.507,8.963,20.245,2.699,22.944,1.352c2.454-1.222,16.009-11.332,18.478-13.188c-0.537-0.314-1.04-0.561-1.586-0.913
			C708.042,329.097,673.183,324.312,669.769,323.871z"/>
		<path fill="#333333" d="M730.076,303.442c1.966-9.819,1.094-13.597,0.729-14.626c-9.108-4.282-19.807-5.722-29.891-3.894
			c-24.234,4.4-31.039,35.094-31.039,35.094s30.29,3.651,52.792,14.52C724.189,328.709,727.976,313.948,730.076,303.442z"/>
		<path fill="#333333" d="M735.099,291.123c0.192,2.753-0.019,6.878-1.256,13.072c-2.224,11.125-6.312,26.934-7.669,32.114
			c1.533,0.826,3.019,1.697,4.439,2.596c14.846,9.45,18.893,4.051,18.893,4.051C759.31,318.449,750.309,300.381,735.099,291.123z"/>
	</g>
</g>
<g>
	<path fill="#FFFFFF" d="M120.589,60.22c-1.778-1.02-3.494-1.994-5.159-2.923c-0.233,0-0.467-0.002-0.701-0.003
		c1.792,0.999,3.646,2.048,5.57,3.153C120.397,60.373,120.493,60.295,120.589,60.22z"/>
	<path fill="#FFFFFF" d="M130.923,61.264c-1.678,0.16-3.375,0.285-5.089,0.382c0.118,0.138,0.235,0.278,0.355,0.418
		c1.856-0.097,3.694-0.229,5.506-0.398C131.437,61.532,131.178,61.398,130.923,61.264z"/>
	<path fill="#FFFFFF" d="M124.676,61.706c-0.466,0.024-0.93,0.045-1.399,0.064c-0.497-0.289-0.991-0.575-1.479-0.855
		c-0.363,0.294-0.729,0.582-1.097,0.866c0.312,0.13,0.626,0.26,0.942,0.392c0.113-0.202,0.226-0.405,0.339-0.61
		c0.196,0.166,0.396,0.334,0.597,0.503c-0.126,0.232-0.252,0.462-0.378,0.693c0.424,0.316,0.854,0.639,1.289,0.965
		c0.375-0.083,0.748-0.167,1.121-0.253c-0.191-0.333-0.378-0.662-0.56-0.99c0.178-0.06,0.357-0.123,0.536-0.184
		c0.161,0.29,0.325,0.581,0.492,0.874c0.321,0.048,0.643,0.095,0.964,0.14C125.576,62.77,125.121,62.235,124.676,61.706z"/>
	<path fill="#FFFFFF" d="M123.209,61.043c2.156-0.109,4.289-0.26,6.39-0.463c-0.263-0.134-0.521-0.267-0.781-0.4
		c-1.858,0.182-3.743,0.322-5.646,0.43c-2.013-1.163-3.943-2.265-5.809-3.312c-0.24,0.001-0.479,0.001-0.72,0.001
		C118.739,58.475,120.923,59.721,123.209,61.043z"/>
	<path fill="#FFFFFF" d="M123.112,59.882c1.485-0.099,2.957-0.219,4.416-0.363c-0.254-0.129-0.51-0.259-0.762-0.387
		c-1.219,0.121-2.448,0.226-3.685,0.316c-1.297-0.746-2.562-1.467-3.796-2.165c-0.239,0.003-0.479,0.005-0.717,0.007
		C120.038,58.119,121.551,58.982,123.112,59.882z"/>
	<path fill="#FFFFFF" d="M123.031,58.717c0.827-0.067,1.651-0.144,2.47-0.226c-0.247-0.125-0.493-0.249-0.738-0.372
		c-0.574,0.195-1.152,0.386-1.735,0.57c-0.624-0.487-1.237-0.966-1.837-1.436c-0.236,0.005-0.472,0.009-0.708,0.012
		C121.319,57.738,122.167,58.222,123.031,58.717z"/>
	<path fill="#FFFFFF" d="M121.419,36.401c-1.33,0.215-2.667,0.41-4.011,0.586c-0.009-0.107-0.019-0.217-0.028-0.324
		c-0.011-0.021-0.146-1.833-0.843-2.289c-0.532-0.347-0.712-1.029-0.755-1.563c-0.633,0.79-1.642,2.176-2.07,3.807
		c-0.618,2.418-1.729,4.194-2.15,4.759c-0.062,2.009,0.002,4.054,0.191,6.14c-0.612,0.645-1.227,1.276-1.845,1.894
		c0.197,0.412,0.628,1.171,1.293,1.719c0.955,0.791,2.109,1.029,2.119,1.03c0.294,0.058,0.588,0.115,0.883,0.173
		c-1.07,1.351-2.147,2.645-3.235,3.885c2.957,0.013,5.885-0.012,8.778-0.095c-2.484-1.947-4.773-3.743-6.9-5.42
		c0.065-0.432,0.13-0.863,0.202-1.294c0.326-1.996,0.727-3.999,1.205-6.004c-0.043-0.074-0.087-0.147-0.131-0.222
		c-0.106-0.511-0.204-1.018-0.292-1.521c0.289-0.147,0.578-0.297,0.866-0.447c0.08,0.458,0.167,0.919,0.262,1.383
		c0.226,0.385,0.459,0.775,0.701,1.171c-0.252,0.239-0.503,0.474-0.755,0.707c-0.002-0.001-0.003-0.004-0.004-0.007
		c-0.361,1.703-0.667,3.402-0.921,5.095c-0.033,0.223-0.065,0.445-0.097,0.668c2.731,2.161,5.729,4.524,9.076,7.149
		c3.169-1.065,6.212-2.337,9.108-3.857c-0.027-0.283-0.055-0.567-0.083-0.851c-0.195-2.162-0.318-4.322-0.369-6.474
		c-0.003,0.003-0.005,0.006-0.007,0.007c-0.21-0.343-0.418-0.683-0.621-1.021c0.325-0.423,0.645-0.853,0.965-1.289
		c0.205-0.556,0.412-1.115,0.621-1.68c0.246,0.229,0.495,0.458,0.749,0.691c-0.222,0.631-0.444,1.254-0.662,1.873
		c-0.061,0.084-0.12,0.167-0.182,0.25c0.054,2.596,0.216,5.203,0.484,7.812c0.058,0.567,0.12,1.133,0.188,1.698
		c-2.244,1.172-4.578,2.193-6.994,3.083c3.025,1.519,6.202,3.153,9.577,4.917c-1.49-2.291-2.822-4.511-4.015-6.654
		c0.324,0.084,0.652,0.168,0.98,0.254c0.023,0.001,0.779,0.165,2.123-0.412c0.922-0.4,1.321-1.135,1.485-1.554
		c-0.665-1.102-1.292-2.181-1.885-3.241c0.369-2.64,0.792-5.345,1.275-8.105c-0.218-0.892-0.802-3.986-0.522-6.563
		c0.165-1.743-0.127-3.839-0.301-5.023c-0.348,0.687-0.88,1.58-1.614,2.36c-1.217,1.281-1.801,2.771-1.805,2.79
		c-0.052,0.141-0.105,0.281-0.158,0.421c-1.289-0.187-2.564-0.369-3.828-0.545c-0.982,0.743-1.978,1.456-2.988,2.139
		c-0.32,1.997-0.573,4-0.758,6.007c-0.292-0.026-0.582-0.053-0.873-0.079c0.205-1.966,0.477-3.928,0.812-5.883
		C122.881,37.742,122.135,37.062,121.419,36.401z M119.58,40.099c0.085,0.968,0.198,1.948,0.339,2.94
		c0.368,0.598,0.753,1.205,1.154,1.823c-0.233,0.259-0.468,0.513-0.702,0.767c-0.448-0.682-0.876-1.351-1.283-2.008
		c-0.153-1.065-0.273-2.114-0.362-3.152C119.012,40.348,119.296,40.225,119.58,40.099z M116.237,43.359
		c-0.113-1.025-0.196-2.037-0.247-3.037c0.289-0.116,0.577-0.233,0.864-0.352c0.052,0.933,0.129,1.879,0.232,2.834
		c0.347,0.577,0.708,1.164,1.087,1.761c-0.243,0.246-0.485,0.489-0.731,0.731C117.023,44.639,116.62,43.993,116.237,43.359z
		 M118.716,48.094c-0.049,0.399-0.096,0.797-0.139,1.197c-0.309-0.055-0.617-0.11-0.925-0.165c0.129-1.056,0.277-2.115,0.445-3.173
		c0.991,1.046,2.039,2.133,3.152,3.268c-0.191,0.294-0.381,0.586-0.572,0.877c-0.078-0.081-0.156-0.158-0.234-0.237
		c-0.021,0.333-0.041,0.663-0.059,0.995c-0.408-0.072-0.815-0.143-1.222-0.213c0.035-0.48,0.073-0.961,0.116-1.443
		c0.203,0.032,0.406,0.064,0.609,0.096C119.489,48.889,119.099,48.488,118.716,48.094z M124.648,55.557
		c-0.188-0.333-0.372-0.666-0.553-0.995c-0.91-0.191-1.817-0.379-2.719-0.567c-0.172,0.25-0.345,0.495-0.519,0.739
		c-0.271-0.278-0.54-0.552-0.804-0.825c0.278-0.383,0.555-0.771,0.832-1.165c1.225,0.238,2.455,0.478,3.694,0.722
		c0.277,0.52,0.564,1.045,0.859,1.575C125.177,55.216,124.913,55.388,124.648,55.557z M123.909,52.591
		c-0.389,0.113-0.779,0.222-1.172,0.329c-0.396-0.259-0.788-0.515-1.175-0.769c0.124-0.338,0.248-0.678,0.373-1.019
		c0.269,0.175,0.541,0.35,0.813,0.529c0.272-0.079,0.544-0.161,0.816-0.243C123.675,51.808,123.789,52.199,123.909,52.591z
		 M127.989,50.779c-0.316-0.042-0.631-0.088-0.948-0.132c-0.014-0.45-0.022-0.9-0.031-1.349c-0.426,0.312-0.854,0.618-1.284,0.918
		c0.205,0.032,0.413,0.065,0.617,0.098c0.006,0.531,0.013,1.061,0.026,1.591c-0.413-0.073-0.827-0.146-1.239-0.219
		c-0.003-0.354-0.004-0.707-0.003-1.06c-0.083,0.056-0.167,0.111-0.25,0.167c-0.172-0.366-0.339-0.729-0.503-1.09
		c1.204-0.812,2.383-1.673,3.535-2.584C127.912,48.337,127.938,49.559,127.989,50.779z M130.773,40.456
		c0.252,0.166,0.505,0.333,0.76,0.504c-0.357,1.222-0.703,2.431-1.041,3.623c-0.522,0.678-1.052,1.34-1.586,1.987
		c-0.202-0.333-0.401-0.664-0.598-0.992c0.49-0.587,0.976-1.188,1.457-1.801C130.093,42.683,130.431,41.576,130.773,40.456z
		 M126.891,43.575c0.367-1.049,0.741-2.11,1.122-3.182c0.245,0.161,0.491,0.325,0.737,0.489c-0.395,1.17-0.782,2.327-1.161,3.469
		c-0.546,0.647-1.098,1.279-1.656,1.896c-0.19-0.32-0.378-0.639-0.561-0.954C125.883,44.731,126.39,44.16,126.891,43.575z"/>
</g>
</svg>
