<?xml version="1.0" encoding="utf-8"?>
<!-- Generator: Adobe Illustrator 15.0.0, SVG Export Plug-In . SVG Version: 6.00 Build 0)  -->
<!DOCTYPE svg PUBLIC "-//W3C//DTD SVG 1.1//EN" "http://www.w3.org/Graphics/SVG/1.1/DTD/svg11.dtd">
<svg version="1.1" id="Layer_1" xmlns="http://www.w3.org/2000/svg" xmlns:xlink="http://www.w3.org/1999/xlink" x="0px" y="0px"
	 width="595.555px" height="595.555px" viewBox="0 0 595.555 595.555" enable-background="new 0 0 595.555 595.555"
	 xml:space="preserve">
<title>Artboard 8</title>
<path d="M552.469,369.903L320.65,446.149c-16.024-23.619-43.104-37.292-71.621-36.164L143.3,88.111
	c-10.816-32.942-40.229-56.264-74.768-59.288l-43.936-3.919C12.181,23.787,1.208,32.947,0.092,45.363
	C-1.026,57.779,8.134,68.75,20.55,69.868l43.936,3.983c16.585,1.495,30.696,12.702,35.907,28.52L206.25,423.987
	c-37.717,25.476-47.643,76.705-22.168,114.422c25.476,37.719,76.704,47.643,114.421,22.168c23.693-16.004,37.4-43.145,36.214-71.713
	l231.82-76.246c11.794-3.885,18.208-16.594,14.323-28.391C576.976,372.432,564.265,366.02,552.469,369.903L552.469,369.903z
	 M264.125,527.855c-19.65,6.449-40.811-4.25-47.26-23.901c-6.451-19.65,4.249-40.81,23.9-47.26
	c19.644-6.448,40.796,4.242,47.254,23.884c6.55,19.468-3.921,40.561-23.389,47.11C264.462,527.745,264.293,527.8,264.125,527.855z"
	/>
<path d="M448.667,81.752l-215.439,70.913c-11.794,3.882-18.208,16.589-14.328,28.384c0.001,0.003,0.002,0.005,0.003,0.008
	l68.087,207.411c3.961,11.72,16.668,18.015,28.392,14.067l215.568-70.658c11.794-3.881,18.208-16.589,14.327-28.382
	c-0.001-0.004-0.003-0.007-0.004-0.01L477.315,96.076c-3.839-11.809-16.522-18.27-28.331-14.431
	C448.878,81.68,448.773,81.715,448.667,81.752z M322.705,353.075l-54.213-164.696l172.853-56.911l54.213,164.695L322.705,353.075z"
	/>
</svg>
