<?xml version="1.0" encoding="utf-8"?>
<!-- Generator: Adobe Illustrator 15.0.0, SVG Export Plug-In . SVG Version: 6.00 Build 0)  -->
<!DOCTYPE svg PUBLIC "-//W3C//DTD SVG 1.1//EN" "http://www.w3.org/Graphics/SVG/1.1/DTD/svg11.dtd">
<svg version="1.1" id="Layer_1" xmlns="http://www.w3.org/2000/svg" xmlns:xlink="http://www.w3.org/1999/xlink" x="0px" y="0px"
	 width="30.298px" height="46.426px" viewBox="110.851 34.271 30.298 46.426" enable-background="new 110.851 34.271 30.298 46.426"
	 xml:space="preserve">
<title>Expand 7.5</title>
<desc>Created with Sketch.</desc>
<g>
	<g>
		<path fill="#FFFFFF" d="M128.88,47.001c0-1.613,0.922-1.958,2.073-0.806l5.3,5.299c1.151,1.152,2.995,1.152,4.032,0l0,0
			c1.152-1.152,1.152-2.995,0-4.032l-12.211-12.327c-1.152-1.152-2.996-1.152-4.033,0l-12.326,12.327
			c-1.152,1.152-1.152,2.88,0,4.032l0,0c1.152,1.152,2.995,1.152,4.032,0l5.299-5.299c1.152-1.152,2.074-0.691,2.074,0.806v21.082
			c0,1.613-0.922,1.958-2.074,0.807l-5.299-5.299c-1.152-1.152-2.995-1.152-4.032,0l0,0c-1.152,1.152-1.152,2.995,0,4.032
			l12.211,12.211c1.152,1.151,2.996,1.151,4.033,0l12.211-12.211c1.152-1.152,1.152-2.88,0-4.032l0,0
			c-1.152-1.152-2.996-1.152-4.032,0l-5.3,5.299c-1.151,1.152-2.073,0.691-2.073-0.807V47.001H128.88z"/>
	</g>
</g>
</svg>
