<?xml version="1.0" encoding="utf-8"?>
<!-- Generator: Adobe Illustrator 15.0.0, SVG Export Plug-In . SVG Version: 6.00 Build 0)  -->
<!DOCTYPE svg PUBLIC "-//W3C//DTD SVG 1.1//EN" "http://www.w3.org/Graphics/SVG/1.1/DTD/svg11.dtd">
<svg version="1.1" id="Layer_1" xmlns="http://www.w3.org/2000/svg" xmlns:xlink="http://www.w3.org/1999/xlink" x="0px" y="0px"
	 width="95.672px" height="95.557px" viewBox="78.112 9.82 95.672 95.557" enable-background="new 78.112 9.82 95.672 95.557"
	 xml:space="preserve">
<g>
	<path fill="#666666" d="M172.08,28.8l-8.41,8.41l-17.279-17.28l8.64-8.64c1.958-1.958,5.646-1.958,7.833,0l9.678,9.677
		C174.269,23.155,174.269,26.611,172.08,28.8z"/>
	<path fill="#666666" d="M83.491,83.059c7.258,3.688,13.363,9.678,17.05,16.82l0,0l-19.469,5.414
		c-1.728,0.461-3.34-1.037-2.88-2.766L83.491,83.059z M105.034,95.846c-3.917-7.257-10.022-13.593-17.28-17.279l54.49-54.375
		l17.28,17.28L105.034,95.846z"/>
</g>
</svg>
