<?xml version="1.0" encoding="utf-8"?>
<!-- Generator: Adobe Illustrator 15.0.0, SVG Export Plug-In . SVG Version: 6.00 Build 0)  -->
<!DOCTYPE svg PUBLIC "-//W3C//DTD SVG 1.1//EN" "http://www.w3.org/Graphics/SVG/1.1/DTD/svg11.dtd">
<svg version="1.1" id="Layer_1" xmlns="http://www.w3.org/2000/svg" xmlns:xlink="http://www.w3.org/1999/xlink" x="0px" y="0px"
	 width="595.555px" height="595.555px" viewBox="202.222 102.222 595.555 595.555"
	 enable-background="new 202.222 102.222 595.555 595.555" xml:space="preserve">
<title>Artboard 8</title>
<path d="M500,697.777c-164.458,0-297.778-133.319-297.778-297.777S335.542,102.222,500,102.222S797.777,235.542,797.777,400
	C797.592,564.381,664.381,697.592,500,697.777z M500,146.667c-139.912,0-253.333,113.421-253.333,253.333
	S360.088,653.333,500,653.333S753.333,539.912,753.333,400C753.177,260.153,639.848,146.823,500,146.667z"/>
<path d="M460,488.889c-5.896,0.009-11.552-2.333-15.716-6.507l-53.333-53.333c-8.526-8.828-8.281-22.896,0.546-31.422
	c8.612-8.317,22.265-8.317,30.876,0L460,435.235l108.729-108.729c8.828-8.526,22.896-8.282,31.423,0.546
	c8.317,8.612,8.317,22.265,0,30.876L475.707,482.373C471.547,486.548,465.894,488.894,460,488.889z"/>
</svg>
