<?xml version="1.0" encoding="utf-8"?>
<!-- Generator: Adobe Illustrator 15.0.0, SVG Export Plug-In . SVG Version: 6.00 Build 0)  -->
<!DOCTYPE svg PUBLIC "-//W3C//DTD SVG 1.1//EN" "http://www.w3.org/Graphics/SVG/1.1/DTD/svg11.dtd">
<svg version="1.1"
	 id="Layer_1" xmlns:sodipodi="http://sodipodi.sourceforge.net/DTD/sodipodi-0.dtd" xmlns:svg="http://www.w3.org/2000/svg" xmlns:dc="http://purl.org/dc/elements/1.1/" xmlns:rdf="http://www.w3.org/1999/02/22-rdf-syntax-ns#" xmlns:cc="http://creativecommons.org/ns#" xmlns:inkscape="http://www.inkscape.org/namespaces/inkscape"
	 xmlns="http://www.w3.org/2000/svg" xmlns:xlink="http://www.w3.org/1999/xlink" x="0px" y="0px" width="107.793px"
	 height="107.636px" viewBox="72.103 3.782 107.793 107.636" enable-background="new 72.103 3.782 107.793 107.636"
	 xml:space="preserve">
<g>
	<path fill="#333333" d="M108.608,3.782c-0.007,0-0.014,0.001-0.021,0.001c-0.081,0.005-0.162,0.015-0.241,0.032
		c-0.019,0.003-0.038,0.007-0.056,0.011c-0.02,0.005-0.04,0.01-0.06,0.016c-0.102,0.027-0.201,0.065-0.294,0.112
		c-12.113,5.404-23.705,10.823-35.03,16.253c-0.681,0.327-0.976,1.159-0.703,1.963c2.749,8.081,5.121,16.184,7.209,24.294
		c0.202,0.785,0.873,1.32,1.602,1.274c4.262-0.268,8.526-0.535,12.792-0.803c0.401,20.979-0.382,42.001-2.35,62.805
		c-0.088,0.927,0.576,1.678,1.486,1.678c22.037,0,44.074,0,66.11,0c0.911,0,1.575-0.751,1.487-1.678
		c-1.968-20.804-2.751-41.826-2.35-62.805c4.266,0.268,8.529,0.535,12.792,0.803c0.729,0.046,1.399-0.489,1.602-1.274
		c2.088-8.11,4.461-16.213,7.209-24.294c0.274-0.804-0.021-1.636-0.701-1.963C167.75,14.77,156.142,9.342,144.008,3.93
		c-0.196-0.091-0.411-0.141-0.631-0.145c-0.023,0-0.045,0.001-0.067,0.002c-0.003,0-0.007,0-0.01,0c-11.509,0-23.018,0-34.526,0
		C108.718,3.782,108.664,3.781,108.608,3.782L108.608,3.782z M110.45,8.103c10.347,0,20.693,0,31.04,0
		c-0.952,8.35-7.584,14.944-15.519,14.943C118.036,23.047,111.404,16.453,110.45,8.103z M121.351,9.756
		c0.019,1.643,0.038,3.287,0.055,4.933c3.063,0,6.125,0,9.189,0c0.018-1.646,0.035-3.29,0.055-4.933
		C127.55,9.756,124.45,9.756,121.351,9.756z"/>
</g>
<g>
	<polygon fill="#FFFFFF" points="123.052,63.706 117.144,61.936 116.329,62.127 122.708,64.038 	"/>
	<polygon fill="#FFFFFF" points="134.811,61.936 128.902,63.707 129.246,64.038 135.627,62.127 	"/>
	<polygon fill="#FFFFFF" points="127.575,64.104 125.977,64.583 124.38,64.104 123.064,65.375 124.089,65.513 124.531,64.748 
		125.155,65.108 124.656,65.975 125.977,66.61 127.264,65.986 126.768,65.105 127.396,64.752 127.832,65.524 128.895,65.379 	"/>
	<polygon fill="#FFFFFF" points="125.977,63.83 133.398,61.605 132.558,61.409 125.977,63.381 119.397,61.409 118.556,61.605 	"/>
	<polygon fill="#FFFFFF" points="125.977,62.627 131.146,61.079 130.304,60.881 125.977,62.178 121.65,60.881 120.809,61.079 	"/>
	<polygon fill="#FFFFFF" points="125.977,61.425 128.893,60.551 128.057,60.356 125.977,61.395 123.897,60.356 123.062,60.551 	"/>
	<path fill="#FFFFFF" d="M121.341,38.401l-5.916,0.652l-0.191-0.369c-0.01-0.021-1.103-2.098-2.51-2.659
		c-1.049-0.418-1.771-1.238-2.209-1.889c-0.519,0.927-1.212,2.595-0.94,4.559c0.4,2.889-0.441,5.063-0.771,5.778l2.425,7.149
		l-1.854,2.554c0.356,0.448,1.075,1.25,2.003,1.744c1.333,0.712,2.77,0.72,2.785,0.72h1.107l-3.398,5.287l10.334-2.417l-8.868-4.43
		v-1.521v-7.013l-0.255-0.238l-0.956-1.717l1.056-0.588l0.864,1.551l1.334,1.246l-0.825,0.883l-0.009-0.009v5.885v0.773l11.431,5.71
		l11.432-5.71v-0.773v-5.885l-0.009,0.009l-0.825-0.883l1.334-1.246l0.864-1.55l1.055,0.588l-0.956,1.717l-0.254,0.238v7.013v1.521
		l-8.868,4.43l10.334,2.417l-3.427-5.329l1.157,0.042c0.03,0,0.915-0.009,2.667-0.784c1.204-0.533,1.842-1.25,2.123-1.646
		l-1.878-2.588l2.44-7.195c-0.238-0.752-1.019-3.44-0.79-5.71c0.153-1.52-0.554-3.413-1.052-4.522
		c-0.448,0.584-1.16,1.339-2.203,1.996c-1.714,1.08-2.387,2.462-2.394,2.476l-0.184,0.388l-5.935-0.654l-4.028,2.121v6.15h-1.209
		v-6.097L121.341,38.401z M119.825,42.443l1.258,3.14l1.943,1.814l-0.825,0.883l-2.14-1.998l-1.358-3.389L119.825,42.443z
		 M116.057,46.282l-1.358-3.389l1.122-0.45l1.258,3.14l1.943,1.814l-0.825,0.884L116.057,46.282z M120.385,51.127l-0.021,1.307
		l-1.209-0.02l0.054-3.504l4.583,3.008l-0.663,1.011l-0.316-0.208v1.057h-1.56v-1.56h0.792L120.385,51.127z M128.102,57.769
		l-0.626-0.893h-3.313l-0.627,0.893l-0.989-0.694l0.988-1.407h4.569l0.988,1.407L128.102,57.769z M127.287,54.911l-1.457,0.565
		l-1.477-0.564l0.432-1.129l1.041,0.398l1.023-0.397L127.287,54.911z M132.482,52.414l-1.208,0.02l-0.021-1.307l-1.662,1.091h0.793
		v1.56h-1.56v-1.057l-0.317,0.208l-0.662-1.011l4.582-3.007L132.482,52.414z M136.135,42.443l1.122,0.45l-1.358,3.389l-2.141,1.998
		l-0.825-0.883l1.943-1.814L136.135,42.443z M130.871,45.583l1.258-3.14l1.122,0.45l-1.357,3.389l-2.14,1.998l-0.826-0.883
		L130.871,45.583z"/>
</g>
</svg>
