<?xml version="1.0" encoding="utf-8"?>
<!-- Generator: Adobe Illustrator 15.0.0, SVG Export Plug-In . SVG Version: 6.00 Build 0)  -->
<!DOCTYPE svg PUBLIC "-//W3C//DTD SVG 1.1//EN" "http://www.w3.org/Graphics/SVG/1.1/DTD/svg11.dtd">
<svg version="1.1" id="Layer_1" xmlns="http://www.w3.org/2000/svg" xmlns:xlink="http://www.w3.org/1999/xlink" x="0px" y="0px"
	 width="103.65px" height="97.92px" viewBox="74.16 9.216 103.65 97.92" enable-background="new 74.16 9.216 103.65 97.92"
	 xml:space="preserve">
<g>
	<path fill="#CCCCCC" d="M177.725,29.03L177.725,29.03c-0.115-0.346-0.115-0.576-0.23-0.806c0-0.115-0.115-0.115-0.115-0.23
		c-0.115-0.23-0.23-0.346-0.346-0.576l-0.115-0.115c0,0,0,0,0-0.115l-9.906-13.824c-1.844-2.535-4.839-4.147-8.064-4.147H137.52
		h-23.04H93.053c-3.226,0-6.221,1.613-8.179,4.147l-9.907,13.824c0,0,0,0,0,0.115l-0.115,0.115c-0.115,0.23-0.23,0.346-0.346,0.576
		c0,0.115-0.115,0.115-0.115,0.23c-0.115,0.23-0.23,0.46-0.23,0.806c0,0,0,0,0,0.115c0,0.23,0,0.461,0,0.691v0.115v67.737
		c0,5.184,4.262,9.446,9.446,9.446h84.672c5.185,0,9.446-4.263,9.446-9.446V29.952v-0.115
		C177.84,29.606,177.84,29.376,177.725,29.03z M158.947,18.432c0.23,0,0.461,0.115,0.691,0.345l4.723,6.566h-13.824h-8.409
		l-1.958-6.912H158.947z M121.392,18.432h9.215l1.959,6.912h-13.133L121.392,18.432z M117.936,34.56h16.128v10.713L126,40.896
		l-8.064,4.377V34.56z M92.362,18.777c0.115-0.23,0.345-0.345,0.691-0.345h18.778l-1.958,6.912h-9.907H87.753L92.362,18.777z
		 M168.624,97.689c0,0.115-0.115,0.23-0.23,0.23H83.606c-0.115,0-0.23-0.115-0.23-0.23V34.56H99.85h8.871v16.243
		c0,2.074,1.152,4.032,2.88,5.069c0.921,0.576,1.958,0.806,2.995,0.806c0.921,0,1.958-0.23,2.765-0.691l8.525-4.723l8.525,4.723
		c1.843,1.037,4.031,0.921,5.875-0.115c1.728-1.037,2.88-2.995,2.88-5.069V34.56h7.257h18.202V97.689z"/>
</g>
</svg>
