<?xml version="1.0" encoding="utf-8"?>
<!-- Generator: Adobe Illustrator 15.0.0, SVG Export Plug-In . SVG Version: 6.00 Build 0)  -->
<!DOCTYPE svg PUBLIC "-//W3C//DTD SVG 1.1//EN" "http://www.w3.org/Graphics/SVG/1.1/DTD/svg11.dtd">
<svg version="1.1" id="Layer_1" xmlns:sketch="http://www.bohemiancoding.com/sketch/ns"
	 xmlns="http://www.w3.org/2000/svg" xmlns:xlink="http://www.w3.org/1999/xlink" x="0px" y="0px" width="96px" height="93.53px"
	 viewBox="78 20.07 96 93.53" enable-background="new 78 20.07 96 93.53" xml:space="preserve">
<title>ic_shop</title>
<desc>Created with Sketch Beta.</desc>
<g sketch:type="MSPage">
	<path sketch:type="MSShapeGroup" fill="#CCCCCC" d="M97.2,79.8h-9.6V104c0,5.307,4.298,9.6,9.601,9.6h57.598
		c5.308,0,9.602-4.298,9.602-9.6V79.8H154.8V97H97.2V79.8L97.2,79.8z M78,58.8l8.527-17.053c0.593-1.186,2.149-2.146,3.471-2.146
		H104.4l-7.2,19.2v12.006c0,1.322-1.074,2.394-2.403,2.394H80.402C79.076,73.2,78,72.129,78,70.806V58.8L78,58.8z M174,58.8
		l-8.527-17.053c-0.592-1.186-2.148-2.146-3.471-2.146H147.6l7.2,19.2v12.006c0,1.322,1.073,2.394,2.403,2.394h14.395
		c1.326,0,2.402-1.071,2.402-2.394V58.8L174,58.8z M116.4,58.8l2.4-19.2h14.4l2.399,19.2v12.006c0,1.322-1.073,2.394-2.402,2.394
		h-14.395c-1.327,0-2.403-1.071-2.403-2.394V58.8L116.4,58.8z"/>
</g>
<path fill="#CCCCCC" d="M160.327,34.312H90.673V23.07c0-1.657,1.344-3,3-3h63.654c1.657,0,3,1.343,3,3V34.312z"/>
</svg>
