<?xml version="1.0" encoding="utf-8"?>
<!-- Generator: Adobe Illustrator 15.0.0, SVG Export Plug-In . SVG Version: 6.00 Build 0)  -->
<!DOCTYPE svg PUBLIC "-//W3C//DTD SVG 1.1//EN" "http://www.w3.org/Graphics/SVG/1.1/DTD/svg11.dtd">
<svg version="1.1" id="Layer_1" xmlns="http://www.w3.org/2000/svg" xmlns:xlink="http://www.w3.org/1999/xlink" x="0px" y="0px"
	 width="595.555px" height="595.555px" viewBox="0 0 595.555 595.555" enable-background="new 0 0 595.555 595.555"
	 xml:space="preserve">
<title>Artboard 8</title>
<path d="M500.414,0H91.772C41.297,0,0,41.297,0,91.774v408.641c0,50.475,41.298,91.772,91.772,91.772h408.642
	c50.477,0,91.774-41.299,91.774-91.772V91.774C592.189,41.298,550.891,0,500.414,0z M185.967,257.503
	c-0.006-0.012-0.013-0.012-0.02-0.018c-0.006,0.006-0.012,0.006-0.018,0.018v-0.03c-61.395-37.237-61.518-72.78-61.352-76.446
	c-0.001-0.104-0.02-0.214-0.02-0.318c0-18.606,14.524-33.702,32.438-33.702c12.65,0,23.584,7.539,28.932,18.526
	c5.347-10.988,16.28-18.526,28.932-18.526c17.919,0,32.438,15.095,32.438,33.702c0,0,3.506,37.447-61.325,76.765L185.967,257.503z
	 M370.943,412.179c-4.12,7.09-27.171,42.457-76.504,42.457c-49.332,0-72.386-35.366-76.511-42.464
	c-5.401-9.308-2.227-21.277,7.073-26.681c2.978-1.731,6.368-2.646,9.803-2.646c6.933,0,13.403,3.725,16.887,9.72
	c6.168,10.621,21.065,23.024,42.744,23.024c21.678,0,36.575-12.403,42.749-23.029c3.484-5.99,9.955-9.712,16.889-9.712
	c3.433,0,6.819,0.913,9.791,2.64C373.173,390.891,376.35,402.861,370.943,412.179z M406.203,257.473l-0.006,0.03
	c-0.006-0.012-0.013-0.012-0.02-0.018c-0.006,0.006-0.012,0.006-0.018,0.018v-0.03c-61.4-37.237-61.523-72.78-61.356-76.452
	c0-0.109-0.013-0.208-0.013-0.318c0-18.613,14.518-33.702,32.437-33.702c12.652,0,23.585,7.544,28.933,18.521
	C411.507,154.544,422.439,147,435.092,147c17.918,0,32.438,15.089,32.438,33.702C467.522,180.708,471.033,218.148,406.203,257.473z"
	/>
</svg>
