<?xml version="1.0" encoding="utf-8"?>
<!-- Generator: Adobe Illustrator 15.0.0, SVG Export Plug-In . SVG Version: 6.00 Build 0)  -->
<!DOCTYPE svg PUBLIC "-//W3C//DTD SVG 1.1//EN" "http://www.w3.org/Graphics/SVG/1.1/DTD/svg11.dtd">
<svg version="1.1" id="Layer_1" xmlns="http://www.w3.org/2000/svg" xmlns:xlink="http://www.w3.org/1999/xlink" x="0px" y="0px"
	 width="90.537px" height="96.769px" viewBox="80.731 9.216 90.537 96.769" enable-background="new 80.731 9.216 90.537 96.769"
	 xml:space="preserve">
<g>
	<path fill="#666666" d="M165.514,47.578l2.765-1.498c2.765-1.498,3.802-5.069,2.304-7.833l-4.377-7.949
		c-1.498-2.765-5.069-3.802-7.834-2.304l-2.765,1.498c-2.073,1.152-4.608,0.921-6.451-0.576c-2.765-2.188-5.761-4.032-9.101-5.414
		c-2.189-0.922-3.571-2.995-3.571-5.415v-3.11c0-3.226-2.649-5.76-5.761-5.76h-9.331c-3.226,0-5.76,2.65-5.76,5.76v3.11
		c0,2.304-1.382,4.493-3.571,5.299c-2.88,1.152-5.529,2.649-7.949,4.493c-1.843,1.382-4.377,1.498-6.451,0.23l-2.649-1.613
		c-2.765-1.613-6.336-0.807-7.949,1.958l-4.723,7.833c-1.613,2.765-0.807,6.336,1.958,7.949l2.65,1.613
		c1.958,1.267,3.11,3.571,2.765,5.875c-0.461,1.958-0.576,3.917-0.576,5.875c0,1.498,0.115,2.88,0.23,4.262
		c0.23,2.304-0.921,4.608-2.995,5.76l-2.649,1.498c-2.765,1.498-3.802,5.069-2.304,7.833l4.378,7.949
		c1.498,2.765,5.068,3.802,7.833,2.305l2.765-1.498c2.074-1.152,4.608-0.922,6.451,0.576c2.765,2.188,5.76,4.031,9.101,5.414
		c2.188,0.922,3.571,2.995,3.571,5.414v3.111c0,3.225,2.65,5.76,5.76,5.76h9.331c3.227,0,5.761-2.65,5.761-5.76v-3.111
		c0-2.304,1.382-4.492,3.571-5.299c2.88-1.152,5.529-2.649,7.949-4.492c1.842-1.383,4.377-1.498,6.451-0.23l2.648,1.612
		c2.766,1.612,6.336,0.806,7.949-1.958l4.723-7.834c1.613-2.765,0.807-6.336-1.958-7.949l-2.534-1.728
		c-1.959-1.268-3.11-3.571-2.765-5.875c0.346-1.843,0.46-3.801,0.46-5.875c0-1.498-0.114-2.88-0.229-4.262
		C162.288,50.918,163.555,48.729,165.514,47.578z M126,78.336c-11.405,0-20.736-9.331-20.736-20.736S114.595,36.864,126,36.864
		c11.404,0,20.736,9.331,20.736,20.736S137.404,78.336,126,78.336z"/>
</g>
</svg>
