<?xml version="1.0" encoding="utf-8"?>
<!-- Generator: Adobe Illustrator 15.0.0, SVG Export Plug-In . SVG Version: 6.00 Build 0)  -->
<!DOCTYPE svg PUBLIC "-//W3C//DTD SVG 1.1//EN" "http://www.w3.org/Graphics/SVG/1.1/DTD/svg11.dtd">
<svg version="1.1" id="Layer_1" xmlns="http://www.w3.org/2000/svg" xmlns:xlink="http://www.w3.org/1999/xlink" x="0px" y="0px"
	 width="103.68px" height="103.68px" viewBox="74.16 5.759 103.68 103.68" enable-background="new 74.16 5.759 103.68 103.68"
	 xml:space="preserve">
<path fill="#333333" d="M177.687,27.913c-0.075-0.285-0.18-0.558-0.313-0.819c-0.023-0.043-0.051-0.086-0.074-0.131
	c-0.141-0.25-0.303-0.486-0.492-0.703c-0.016-0.017-0.025-0.037-0.041-0.054c-0.203-0.223-0.435-0.419-0.684-0.597
	c-0.026-0.02-0.046-0.046-0.074-0.065c-0.023-0.015-0.051-0.022-0.072-0.037c-0.225-0.146-0.459-0.279-0.717-0.381l-47.67-19.066
	c-0.994-0.399-2.103-0.399-3.097,0l-47.67,19.068c-0.257,0.103-0.492,0.235-0.716,0.381c-0.023,0.016-0.05,0.023-0.073,0.037
	c-0.027,0.02-0.047,0.046-0.074,0.066c-0.249,0.176-0.48,0.372-0.683,0.597c-0.016,0.016-0.027,0.036-0.042,0.053
	c-0.189,0.217-0.352,0.454-0.492,0.703c-0.024,0.045-0.052,0.088-0.075,0.131c-0.133,0.262-0.237,0.535-0.313,0.819
	c-0.016,0.058-0.026,0.115-0.04,0.173C74.205,28.383,74.16,28.685,74.16,29v57.202c0,1.705,1.038,3.238,2.622,3.873l47.669,19.067
	c0.042,0.019,0.087,0.022,0.13,0.038c0.164,0.059,0.327,0.105,0.496,0.145c0.071,0.017,0.141,0.035,0.212,0.048
	c0.236,0.042,0.474,0.067,0.712,0.067s0.476-0.025,0.712-0.067c0.071-0.013,0.141-0.031,0.212-0.048
	c0.168-0.039,0.332-0.086,0.496-0.145c0.042-0.016,0.087-0.021,0.129-0.038l47.67-19.067c1.584-0.635,2.621-2.166,2.621-3.873V29
	c0-0.313-0.045-0.617-0.113-0.913C177.715,28.028,177.703,27.971,177.687,27.913z M126,43.573L89.561,29L126,14.424L162.439,29
	L126,43.573z M169.498,83.379l-39.326,15.729V50.891l39.326-15.73V83.379z"/>
<g>
	<path fill="#333333" d="M126.196,68.876l-0.166-0.618l-0.083-0.311c-0.01-0.041-1.169-4.465-0.913-7.375
		c0.374-4.215-1.96-10.02-2.228-10.667l-0.709-1.718l-1.42-3.434l-1.244,2.7l-0.616,1.335c-0.044,0.085-0.738,1.387-2.392,2.083
		c-1.501,0.632-2.53,1.597-3.173,2.382l-5.903-2.607l-0.456-0.201l-0.406,0.122l-4.803,1.447l-4.68-4.381l-0.41-0.384l-0.465-0.084
		l-5.874-1.054c-0.824-1.619-2.133-3.746-3.827-5.043c-0.899-0.688-1.544-2.16-1.722-2.683l-0.469-1.471l-0.95-2.978l-1.593,1.766
		l-0.797,0.882c-0.322,0.357-3.131,3.656-2.445,9.578c0.44,3.789-0.707,6.13-0.772,6.26l-0.151,0.269l-0.319,0.571l0.213,0.788
		l2.712,10.07l-2.014,2.582l-0.608,0.78l0.571,1.175l0.285,0.587c0.156,0.322,1.587,3.201,3.875,5.326
		c0.381,0.354,0.782,0.689,1.2,1l-3.697,5.486l-2,2.964l3.6,0.161l5.462,0.251l6.764,4.503l-1.978,1.582l3.068,1.46l4.157,1.985
		l2.271,2.004l0.651,0.576l0.651-0.156l2.221-0.534l4.2,0.696l3.055,0.507l-1.965-2.854l6.764-0.159l5.463,3.282l3.6,2.171
		l-1.999-4.298l-3.778-8.106c0.314-0.039,0.636-0.089,0.963-0.151c3.116-0.599,4.234-2.847,4.352-3.102l0.187-0.408l0.374-0.813
		l-0.519-1.008l-1.968-3.812l2.688-8.409L126.196,68.876z M102.423,64.552v-8.863l4.99-1.497l7.352,3.255l0.229-0.487
		c0.009-0.018,0.842-1.755,2.965-2.646c1.291-0.543,2.174-1.358,2.729-2.029c0.617,1.803,1.493,4.823,1.302,6.965
		c-0.282,3.2,0.685,7.404,0.979,8.587l-3.023,9.451l2.326,4.504c-0.347,0.461-1.138,1.242-2.63,1.529
		c-2.169,0.42-3.266,0.078-3.305,0.065l-1.433-0.522l4.245,9.089l-12.801-7.642l10.986-2.858v-2.202V69.103l0.315-0.243l1.185-2.104
		l-1.308-1.27l-1.071,1.902l-1.652,1.275l1.022,1.604l0.01-0.009v8.511v1.12l-14.162,3.695L87.512,70.887v-1.109v-8.442l0.011,0.016
		l1.021-0.952l-1.651-2.298l-1.071-2.555l-1.308,0.441l1.185,2.825l0.315,0.438V69.31v2.181L97,81.322l-12.801-0.585l4.209-6.258
		l-1.371-0.432c-0.018-0.005-1.799-0.577-3.451-2.113c-1.149-1.067-2.04-2.492-2.481-3.27l2.297-2.946l-3.004-11.167
		c0.409-0.898,1.452-3.693,0.956-7.982c-0.337-2.916,0.521-5.043,1.164-6.177c0.542,1.095,1.438,2.543,2.736,3.538
		c1.744,1.337,3.097,4.732,3.11,4.766l0.236,0.602l7.33,1.321l4.995,4.679v8.782L102.423,64.552L102.423,64.552z M105.288,92.435
		l-1.316-0.213l-0.539-1.289l-0.78,0.259l0.615,1.466l-1.594,0.388l-1.637-1.446l0.62-1.047l-0.774-0.77l-0.547,0.927l-1.271-0.606
		l1.631-1.307l1.979,1.327l1.979-0.053L105.288,92.435z M101.673,85.529l2.578-0.671l1.034,0.612l-3.612,0.102l-3.61-2.413
		l1.035,0.049L101.673,85.529z M101.673,86.658l5.361-0.145l1.042,0.619l-6.403,0.172l-6.402-4.276l1.043,0.05L101.673,86.658z
		 M101.673,88.391l8.152-0.217l1.043,0.621l-9.195,0.242l-9.193-6.141l1.043,0.049L101.673,88.391z M105.298,90.027l7.319-0.187
		l1.01,0.604l-7.903,0.199L105.298,90.027z M90.731,82.816l7.319,4.879l-0.426,0.344l-7.903-5.27L90.731,82.816z"/>
	<polygon fill="#FFFFFF" points="98.05,87.695 90.731,82.816 89.721,82.77 97.624,88.039 	"/>
	<polygon fill="#FFFFFF" points="112.617,89.841 105.298,90.027 105.724,90.645 113.627,90.445 	"/>
	<polygon fill="#FFFFFF" points="103.653,90.07 101.673,90.123 99.695,88.796 98.064,90.103 99.335,90.709 99.882,89.784 
		100.656,90.552 100.036,91.601 101.673,93.045 103.268,92.657 102.653,91.191 103.433,90.933 103.972,92.222 105.288,92.435 	"/>
	<polygon fill="#FFFFFF" points="101.673,89.037 110.868,88.795 109.826,88.174 101.673,88.391 93.523,82.945 92.48,82.896 	"/>
	<polygon fill="#FFFFFF" points="101.673,87.305 108.077,87.133 107.035,86.514 101.673,86.658 96.314,83.078 95.271,83.027 	"/>
	<polygon fill="#FFFFFF" points="101.673,85.572 105.285,85.471 104.251,84.858 101.673,85.529 99.098,83.208 98.063,83.159 	"/>
	<path fill="#FFFFFF" d="M95.931,50.62l-7.33-1.321l-0.236-0.602c-0.013-0.034-1.366-3.429-3.109-4.766
		c-1.299-0.994-2.195-2.441-2.737-3.538c-0.643,1.134-1.501,3.262-1.165,6.177c0.497,4.289-0.546,7.083-0.956,7.982l3.004,11.167
		l-2.296,2.946c0.44,0.778,1.332,2.205,2.48,3.272c1.651,1.537,3.432,2.106,3.45,2.111l1.372,0.432L84.2,80.737L97,81.322
		l-10.986-9.831v-2.18V59.253l-0.315-0.439l-1.185-2.825l1.308-0.44l1.07,2.554l1.653,2.298l-1.022,0.952l-0.011-0.016v8.443v1.107
		l14.161,12.697l14.163-3.695v-1.117v-8.514l-0.012,0.009l-1.022-1.604l1.653-1.273l1.071-1.904l1.308,1.27l-1.184,2.105
		l-0.316,0.244v10.149v2.2l-10.986,2.858l12.802,7.642l-4.245-9.088l1.433,0.521c0.038,0.013,1.135,0.354,3.304-0.062
		c1.493-0.289,2.283-1.071,2.631-1.532l-2.327-4.504l3.023-9.451c-0.294-1.183-1.26-5.387-0.978-8.587
		c0.189-2.142-0.687-5.163-1.303-6.965c-0.556,0.67-1.438,1.485-2.73,2.028c-2.123,0.892-2.956,2.629-2.964,2.646l-0.229,0.49
		l-7.351-3.258l-4.991,1.497v8.862l-1.497-0.472v-8.781L95.931,50.62z M94.053,55.851l1.559,4.999l2.407,3.365l-1.022,0.951
		l-2.651-3.705l-1.683-5.395L94.053,55.851z M89.384,59.917l-1.682-5.385l1.39-0.217l1.559,4.99l2.407,3.356l-1.022,0.951
		L89.384,59.917z M94.746,68.552l-0.025,1.871l-1.498-0.498l0.067-5.015l5.677,6.112l-0.822,1.194l-0.392-0.422v1.519l-1.932-0.61
		v-2.243l0.982,0.31L94.746,68.552z M104.306,81.146l-0.775-1.536l-4.104-1.309l-0.776,1.041l-1.226-1.392l1.223-1.637l5.662,1.802
		l1.223,2.42L104.306,81.146z M103.296,76.704l-1.805,0.24l-1.829-1.396l0.535-1.455l1.291,0.982l1.267-0.169L103.296,76.704z
		 M109.733,75.158l-1.498-0.453l-0.025-1.894l-2.059,0.92l0.981,0.312v2.25l-1.931-0.615v-1.523l-0.393,0.175l-0.821-1.718
		l5.677-2.536L109.733,75.158z M114.257,62.188l1.389,1.09l-1.682,4.367l-2.651,2.045l-1.022-1.602l2.408-1.857L114.257,62.188z
		 M107.738,64.659l1.558-4.04l1.39,1.088l-1.682,4.362l-2.651,2.044l-1.022-1.597L107.738,64.659z"/>
	<g>
		<polygon fill="#333333" points="110.291,68.088 111.313,69.69 113.964,67.646 115.646,63.279 114.257,62.188 112.699,66.231 		"/>
		<polygon fill="#333333" points="105.33,66.517 106.352,68.114 109.003,66.07 110.685,61.707 109.295,60.619 107.738,64.659 		"/>
		<polygon fill="#333333" points="93.057,62.662 90.65,59.305 89.091,54.315 87.702,54.532 89.384,59.917 92.035,63.612 		"/>
		<polygon fill="#333333" points="96.996,65.165 98.019,64.214 95.611,60.85 94.053,55.851 92.663,56.065 94.345,61.461 		"/>
		<polygon fill="#333333" points="98.647,76.314 97.424,77.951 98.65,79.343 99.426,78.302 103.53,79.61 104.306,81.146 
			105.532,80.536 104.309,78.116 		"/>
		<polygon fill="#333333" points="101.488,75.076 100.198,74.094 99.663,75.549 101.492,76.944 103.296,76.704 102.755,74.907 		"/>
		<polygon fill="#333333" points="95.822,72.702 97.754,73.312 97.754,71.793 98.146,72.215 98.968,71.021 93.291,64.909 
			93.223,69.924 94.721,70.422 94.746,68.552 96.804,70.769 95.822,70.459 		"/>
		<polygon fill="#333333" points="103.989,72.611 104.81,74.329 105.203,74.154 105.203,75.678 107.133,76.293 107.133,74.043 
			106.152,73.731 108.211,72.812 108.235,74.705 109.733,75.158 109.666,70.075 		"/>
	</g>
</g>
</svg>
