<?xml version="1.0" encoding="utf-8"?>
<!-- Generator: Adobe Illustrator 15.0.0, SVG Export Plug-In . SVG Version: 6.00 Build 0)  -->
<!DOCTYPE svg PUBLIC "-//W3C//DTD SVG 1.1//EN" "http://www.w3.org/Graphics/SVG/1.1/DTD/svg11.dtd">
<svg version="1.1" id="Layer_1" xmlns="http://www.w3.org/2000/svg" xmlns:xlink="http://www.w3.org/1999/xlink" x="0px" y="0px"
	 width="595.555px" height="595.555px" viewBox="0 0 595.555 595.555" enable-background="new 0 0 595.555 595.555"
	 xml:space="preserve">
<title>Artboard 8</title>
<path d="M500.414,0H91.772C41.297,0,0,41.297,0,91.774v408.641c0,50.475,41.298,91.772,91.772,91.772h408.642
	c50.477,0,91.774-41.299,91.774-91.772V91.774C592.189,41.298,550.891,0,500.414,0z M176.959,225.735
	c-20.123,0-36.443-16.32-36.443-36.442c0-20.13,16.32-36.443,36.443-36.443c20.13,0,36.443,16.313,36.443,36.443
	C213.402,209.415,197.09,225.735,176.959,225.735z M355.234,443.839H236.956c-13.442,0-24.378-10.936-24.378-24.378
	s10.936-24.378,24.378-24.378h118.278c13.442,0,24.379,10.936,24.379,24.378S368.677,443.839,355.234,443.839z M415.217,225.735
	c-20.123,0-36.443-16.32-36.443-36.442c0-20.13,16.32-36.443,36.443-36.443c20.124,0,36.443,16.313,36.443,36.443
	C451.66,209.415,435.341,225.735,415.217,225.735z"/>
</svg>
