<?xml version="1.0" encoding="utf-8"?>
<!-- Generator: Adobe Illustrator 15.0.0, SVG Export Plug-In . SVG Version: 6.00 Build 0)  -->
<!DOCTYPE svg PUBLIC "-//W3C//DTD SVG 1.1//EN" "http://www.w3.org/Graphics/SVG/1.1/DTD/svg11.dtd">
<svg version="1.1" id="Layer_1" xmlns="http://www.w3.org/2000/svg" xmlns:xlink="http://www.w3.org/1999/xlink" x="0px" y="0px"
	 width="367.279px" height="367.812px" viewBox="128.52 142.02 367.279 367.812"
	 enable-background="new 128.52 142.02 367.279 367.812" xml:space="preserve">
<path fill="#FFFFFF" d="M490.824,478.008l-68.544-67.932c52.02-64.872,47.124-160.344-12.24-219.708
	c-31.212-31.212-72.216-48.348-116.28-48.348c-44.064,0-85.68,17.136-116.892,48.348c-31.212,31.212-48.348,72.216-48.348,116.892
	c0,44.676,17.136,85.68,48.348,116.893c31.212,30.6,72.216,48.348,116.892,48.348c37.332,0,74.052-12.852,102.816-36.108
	l67.932,67.933c3.672,3.672,7.956,5.508,12.853,5.508c4.896,0,9.792-1.836,12.852-5.508
	C497.556,496.98,497.556,485.352,490.824,478.008z M422.28,307.26c0,34.272-13.464,66.708-37.944,90.576
	s-56.304,37.944-90.576,37.944c-34.272,0-66.708-13.464-90.576-37.944c-23.868-24.48-37.944-56.304-37.944-90.576
	c0-34.271,13.464-66.708,37.944-90.576c24.48-23.868,55.692-37.944,90.576-37.944c34.272,0,66.708,13.464,90.576,37.944
	S422.28,272.376,422.28,307.26z"/>
</svg>
