<?xml version="1.0" encoding="utf-8"?>
<!-- Generator: Adobe Illustrator 15.0.0, SVG Export Plug-In . SVG Version: 6.00 Build 0)  -->
<!DOCTYPE svg PUBLIC "-//W3C//DTD SVG 1.1//EN" "http://www.w3.org/Graphics/SVG/1.1/DTD/svg11.dtd">
<svg version="1.1" id="Layer_1" xmlns="http://www.w3.org/2000/svg" xmlns:xlink="http://www.w3.org/1999/xlink" x="0px" y="0px"
	 width="595.555px" height="595.555px" viewBox="202.222 102.222 595.555 595.555"
	 enable-background="new 202.222 102.222 595.555 595.555" xml:space="preserve">
<title>Artboard 8</title>
<path d="M742.5,106.222H504.312H266.123c-12.271,0.213-22.047,10.334-21.835,22.606c0.209,11.97,9.863,21.624,21.833,21.833
	l238.19,0l238.19,0c11.97-0.209,21.624-9.863,21.833-21.833C764.547,116.557,754.771,106.436,742.5,106.222z"/>
<path d="M742.5,650.339H504.312H266.123c-12.271,0.213-22.047,10.334-21.835,22.605c0.209,11.971,9.863,21.624,21.833,21.833
	l238.19-0.001l238.19,0.001c11.97-0.209,21.624-9.862,21.833-21.833C764.547,660.673,754.771,650.552,742.5,650.339z"/>
<path d="M1312,697.777c-164.457,0-297.777-133.319-297.777-297.777S1147.543,102.222,1312,102.222
	c164.459,0,297.777,133.32,297.777,297.778C1609.592,564.381,1476.381,697.592,1312,697.777z M1312,146.667
	c-139.912,0-253.334,113.421-253.334,253.333S1172.088,653.333,1312,653.333S1565.334,539.912,1565.334,400
	C1565.178,260.153,1451.848,146.823,1312,146.667z"/>
<path d="M1272,488.889c-5.895,0.009-11.551-2.333-15.715-6.507l-53.334-53.333c-8.525-8.828-8.281-22.896,0.547-31.422
	c8.611-8.317,22.264-8.317,30.875,0L1272,435.235l108.729-108.729c8.828-8.526,22.896-8.282,31.424,0.546
	c8.316,8.612,8.316,22.265,0,30.876l-124.445,124.444C1283.547,486.548,1277.895,488.894,1272,488.889z"/>
<g>
	<path stroke="#000000" stroke-width="14" stroke-miterlimit="10" d="M740.723,652.223v-32c0-65.49-29.416-105.385-56.25-134.25
		c-13.418-14.434-25.959-26.619-34.5-38.25c-8.541-11.631-13.25-21.848-13.25-35.5s4.709-23.869,13.25-35.5
		s21.082-23.817,34.5-38.25c26.834-28.866,56.25-68.76,56.25-134.25v-32l-0.016-32h-31.984v32v32
		c0,56.388-22.584,85.428-47.75,112.5c-12.584,13.536-26.041,26.077-37,41s-19.25,32.966-19.25,54.5
		c0,21.533,8.291,39.577,19.25,54.5c10.959,14.922,24.416,27.463,37,41c25.166,27.072,47.75,56.111,47.75,112.5v32v32h31.671
		L740.723,652.223z"/>
	<path stroke="#000000" stroke-width="14" stroke-miterlimit="10" d="M308.722,684.223v-32v-32c0-56.389,22.584-85.428,47.75-112.5
		c12.583-13.537,26.041-26.078,37-41c10.959-14.923,19.25-32.967,19.25-54.5c0-21.534-8.291-39.577-19.25-54.5s-24.417-27.464-37-41
		c-25.166-27.072-47.75-56.112-47.75-112.5v-32v-32H276.81l-0.088,32v32c0,65.49,29.417,105.384,56.25,134.25
		c13.417,14.433,25.959,26.619,34.5,38.25s13.25,21.848,13.25,35.5s-4.709,23.869-13.25,35.5
		c-8.541,11.631-21.083,23.817-34.5,38.25c-26.833,28.865-56.25,68.76-56.25,134.25v32l0.087,32H308.722z"/>
</g>
<path d="M624.02,523.67c-9.928-10.266-20.193-20.879-29.564-33.639c-17.406-23.705-26.232-49.209-26.232-75.809
	s8.826-52.104,26.232-75.809c9.371-12.76,19.637-23.374,29.564-33.639c3.521-3.64,6.846-7.079,10.086-10.563
	c7.65-8.23,14.533-16.032,20.277-24.489H362.061c5.745,8.457,12.628,16.259,20.279,24.489c3.24,3.485,6.565,6.923,10.085,10.563
	c9.928,10.265,20.194,20.879,29.563,33.639c17.408,23.704,26.234,49.209,26.234,75.809s-8.826,52.104-26.234,75.809
	c-9.37,12.76-19.636,23.373-29.563,33.639c-3.521,3.641-6.846,7.078-10.085,10.562c-22.319,24.01-38.117,44.375-38.117,87.99v29h328
	v-29c0-43.615-15.799-63.98-38.117-87.99C630.865,530.748,627.541,527.311,624.02,523.67z"/>
</svg>
