<?xml version="1.0" encoding="utf-8"?>
<!-- Generator: Adobe Illustrator 15.0.0, SVG Export Plug-In . SVG Version: 6.00 Build 0)  -->
<!DOCTYPE svg PUBLIC "-//W3C//DTD SVG 1.1//EN" "http://www.w3.org/Graphics/SVG/1.1/DTD/svg11.dtd">
<svg version="1.1" id="Layer_1" xmlns="http://www.w3.org/2000/svg" xmlns:xlink="http://www.w3.org/1999/xlink" x="0px" y="0px"
	 width="595.555px" height="595.555px" viewBox="0 0 595.555 595.555" enable-background="new 0 0 595.555 595.555"
	 xml:space="preserve">
<title>Artboard 8</title>
<g>
	<path fill="none" stroke="#000000" stroke-width="30" stroke-miterlimit="10" d="M146.309,37.866
		c-5.28,1.54-12.496,6.245-16.035,10.455L29.207,168.55c-3.539,4.21-3.298,10.882,0.535,14.826l58.186,59.873
		c3.833,3.944,10.398,4.257,14.589,0.695l26.572-22.587c4.191-3.562,7.62-1.977,7.62,3.523v335.398c0,5.5,4.5,10,10,10h297.767
		c5.5,0,10-4.5,10-10V231.153c0-5.5,3.62-7.328,8.046-4.062l27.811,20.527c4.426,3.266,11.168,2.698,14.984-1.262l59.744-61.999
		c3.816-3.96,3.95-10.565,0.298-14.677L461.116,52.324c-3.652-4.112-10.875-9-16.051-10.861l-60.622-21.802
		c-5.176-1.861-11.257,0.719-13.514,5.735c0,0-24.119,53.598-71.679,53.598c-47.562,0-74.447-53.773-74.447-53.773
		c-2.46-4.919-8.792-7.685-14.072-6.145L146.309,37.866z"/>
</g>
<g>
	<path d="M299.358,207.134c-17.242,0-31.227,20.067-31.227,20.067s13.985,20.068,31.227,20.068
		c17.242,0,31.221-20.068,31.221-20.068S316.601,207.134,299.358,207.134z M299.358,239.769c-6.237,0-11.291-5.057-11.291-11.291
		c0-6.237,5.054-11.292,11.291-11.292s11.291,5.054,11.291,11.292C310.649,234.712,305.596,239.769,299.358,239.769z"/>
	<path d="M297.385,127.871c-57.237,0-103.648,46.411-103.648,103.648c0,57.237,46.411,103.648,103.648,103.648
		c57.238,0,103.648-46.411,103.648-103.648C401.033,174.282,354.623,127.871,297.385,127.871z M298.555,275.934H223.13
		l37.704-65.317l37.721-65.317l37.712,65.317l37.704,65.317H298.555z"/>
</g>
</svg>
