<?xml version="1.0" encoding="utf-8"?>
<!-- Generator: Adobe Illustrator 15.0.0, SVG Export Plug-In . SVG Version: 6.00 Build 0)  -->
<!DOCTYPE svg PUBLIC "-//W3C//DTD SVG 1.1//EN" "http://www.w3.org/Graphics/SVG/1.1/DTD/svg11.dtd">
<svg version="1.1" id="Capa_1" xmlns="http://www.w3.org/2000/svg" xmlns:xlink="http://www.w3.org/1999/xlink" x="0px" y="0px"
	 width="512px" height="512px" viewBox="0 0 512 512" enable-background="new 0 0 512 512" xml:space="preserve">
<g>
	<g>
		<g>
			<path fill="#666666" d="M255.99,307.25c28.244,0,51.27-22.985,51.27-51.25c0-11.157-3.65-21.459-9.693-29.873
				c-9.311-12.911-24.449-21.376-41.546-21.376c-17.107,0-32.234,8.456-41.566,21.366c-6.063,8.414-9.683,18.716-9.693,29.873
				C204.73,284.254,227.735,307.25,255.99,307.25z"/>
			<polygon fill="#666666" points="367.903,193.305 367.903,150.346 367.903,143.952 361.479,143.973 318.541,144.107 
				318.706,193.469 			"/>
			<path fill="#666666" d="M256,0C114.842,0,0,114.842,0,256c0,141.147,114.842,256,256,256c141.147,0,256-114.853,256-256
				C512,114.842,397.168,0,256,0z M401.592,226.127v119.204c0,31.049-25.243,56.281-56.271,56.281H166.68
				c-31.039,0-56.271-25.232-56.271-56.281V226.127V166.69c0-31.039,25.233-56.271,56.271-56.271h178.631
				c31.038,0,56.281,25.233,56.281,56.271V226.127z"/>
			<path fill="#666666" d="M335.638,256c0,43.897-35.72,79.638-79.638,79.638s-79.627-35.74-79.627-79.638
				c0-10.559,2.104-20.654,5.857-29.873h-43.464v119.204c0,15.405,12.508,27.883,27.903,27.883H345.3
				c15.375,0,27.903-12.478,27.903-27.883V226.127h-43.484C333.503,235.346,335.638,245.441,335.638,256z"/>
		</g>
	</g>
</g>
</svg>
