<?xml version="1.0" encoding="utf-8"?>
<!-- Generator: Adobe Illustrator 15.0.0, SVG Export Plug-In . SVG Version: 6.00 Build 0)  -->
<!DOCTYPE svg PUBLIC "-//W3C//DTD SVG 1.1//EN" "http://www.w3.org/Graphics/SVG/1.1/DTD/svg11.dtd">
<svg version="1.1" id="Layer_1" xmlns="http://www.w3.org/2000/svg" xmlns:xlink="http://www.w3.org/1999/xlink" x="0px" y="0px"
	 width="571.467px" height="69.922px" viewBox="0 0 571.467 69.922" enable-background="new 0 0 571.467 69.922"
	 xml:space="preserve">
<g>
	<path fill="#FFFFFF" d="M41.751,49.485c0,12.545-7.546,19.699-20.387,19.699C10.095,69.185,3.431,64.579,0,58.11l13.427-8.625
		c1.371,2.352,2.843,4.41,5.881,4.41c2.842,0,4.605-1.568,4.605-5.684V1.56h17.838V49.485z"/>
	<path fill="#FFFFFF" d="M49.507,34.882c0-20.092,16.563-34.105,35.773-34.105c19.209,0,35.772,14.014,35.772,34.105
		S104.489,69.087,85.28,69.087C66.07,69.087,49.507,54.974,49.507,34.882z M102.823,34.882c0-10.486-6.371-18.621-17.543-18.621
		c-11.173,0-17.544,8.135-17.544,18.621c0,10.488,6.371,18.721,17.544,18.721C96.452,53.603,102.823,45.37,102.823,34.882z"/>
	<path fill="#FFFFFF" d="M172.52,3.069v31.91L130.67,0.481c-1.078-0.881-1.372-0.393-1.372,0.197v67.525h16.76V34.979l41.849,34.402
		c1.078,0.881,1.372,0.588,1.372-0.197V17.823L172.52,3.069z"/>
	<path fill="#FFFFFF" d="M214.979,1.56v33.42l-41.85-34.498c-1.078-0.881-1.372-0.393-1.372,0.197v51.723l16.76,14.68V34.979
		l41.848,34.402c1.079,0.881,1.373,0.588,1.373-0.197V1.56H214.979z"/>
	<path fill="#FFFFFF" d="M238.847,1.56h19.602l13.133,24.404L284.714,1.56h18.72l-23.229,40.379v26.266h-17.837V42.429L238.847,1.56
		z"/>
</g>
<g>
	<path fill="#FFFFFF" d="M316.473,68.06l29.5-50.67h-24.502V2.394h51.846c0.589,0,0.784,0.197,0.294,0.98l-29.5,50.67h27.05v14.994
		h-54.394C316.179,69.038,315.981,68.843,316.473,68.06z"/>
	<path fill="#FFFFFF" d="M382.169,2.394h46.75V17.39h-28.912v10.977h24.109v14.211h-24.109v11.467h30.284v14.994h-48.122V2.394z"/>
	<path fill="#FFFFFF" d="M457.669,69.038h-17.838V2.394h26.952c16.955,0,26.364,9.998,26.364,23.619
		c0,8.822-4.215,15.779-12.153,19.406l13.819,23.619h-19.308l-11.761-20.875h-6.076V69.038z M465.901,34.54
		c6.076,0,9.311-3.037,9.311-8.527c0-5.488-3.234-8.525-9.311-8.525h-8.232V34.54H465.901z"/>
	<path fill="#FFFFFF" d="M499.921,35.716c0-20.092,16.563-34.105,35.773-34.105c19.209,0,35.772,14.014,35.772,34.105
		s-16.563,34.205-35.772,34.205C516.484,69.921,499.921,55.808,499.921,35.716z M553.237,35.716
		c0-10.486-6.371-18.621-17.543-18.621c-11.173,0-17.544,8.135-17.544,18.621c0,10.488,6.371,18.721,17.544,18.721
		C546.866,54.437,553.237,46.204,553.237,35.716z"/>
</g>
</svg>
