<?xml version="1.0" encoding="utf-8"?>
<!-- Generator: Adobe Illustrator 15.0.0, SVG Export Plug-In . SVG Version: 6.00 Build 0)  -->
<!DOCTYPE svg PUBLIC "-//W3C//DTD SVG 1.1//EN" "http://www.w3.org/Graphics/SVG/1.1/DTD/svg11.dtd">
<svg version="1.1" id="Layer_1" xmlns="http://www.w3.org/2000/svg" xmlns:xlink="http://www.w3.org/1999/xlink" x="0px" y="0px"
	 width="307.239px" height="146.205px" viewBox="0 0 307.239 146.205" enable-background="new 0 0 307.239 146.205"
	 xml:space="preserve">
<path fill="#FFFFFF" d="M45.557,49.485c0,12.545-7.546,19.699-20.387,19.699c-11.27,0-17.934-4.605-21.364-11.074l13.427-8.625
	c1.371,2.352,2.843,4.41,5.881,4.41c2.842,0,4.605-1.568,4.605-5.684V1.559h17.838V49.485z"/>
<path fill="#FFFFFF" d="M53.312,34.881c0-20.092,16.563-34.105,35.773-34.105c19.209,0,35.772,14.014,35.772,34.105
	s-16.563,34.205-35.772,34.205C69.876,69.086,53.312,54.973,53.312,34.881z M106.629,34.881c0-10.486-6.371-18.621-17.543-18.621
	c-11.173,0-17.544,8.135-17.544,18.621c0,10.488,6.371,18.721,17.544,18.721C100.258,53.602,106.629,45.37,106.629,34.881z"/>
<path fill="#FFFFFF" d="M176.325,3.069v31.91l-41.85-34.498c-1.078-0.881-1.372-0.393-1.372,0.197v67.525h16.76V34.979
	l41.849,34.402c1.078,0.881,1.372,0.588,1.372-0.197V17.823L176.325,3.069z"/>
<path fill="#FFFFFF" d="M218.784,1.559v33.42l-41.85-34.498c-1.078-0.881-1.372-0.393-1.372,0.197v51.723l16.76,14.68V34.979
	l41.848,34.402c1.079,0.881,1.373,0.588,1.373-0.197V1.559H218.784z"/>
<path fill="#FFFFFF" d="M242.652,1.559h19.602l13.133,24.404L288.52,1.559h18.72l-23.229,40.379v26.266h-17.837V42.428
	L242.652,1.559z"/>
<path fill="#FFFFFF" d="M0.278,144.343l29.5-50.67H5.276V78.677h51.846c0.589,0,0.784,0.197,0.294,0.98l-29.5,50.67h27.05v14.994
	H0.572C-0.016,145.322-0.213,145.126,0.278,144.343z"/>
<path fill="#FFFFFF" d="M65.975,78.677h46.75v14.996H83.812v10.977h24.109v14.211H83.812v11.467h30.284v14.994H65.975V78.677z"/>
<path fill="#FFFFFF" d="M141.475,145.322h-17.838V78.677h26.952c16.955,0,26.364,9.998,26.364,23.619
	c0,8.822-4.215,15.779-12.153,19.406l13.819,23.619h-19.308l-11.761-20.875h-6.076V145.322z M149.707,110.824
	c6.076,0,9.311-3.037,9.311-8.527c0-5.488-3.234-8.525-9.311-8.525h-8.232v17.053H149.707z"/>
<path fill="#FFFFFF" d="M183.727,112c0-20.092,16.563-34.105,35.773-34.105c19.209,0,35.772,14.014,35.772,34.105
	s-16.563,34.205-35.772,34.205C200.29,146.205,183.727,132.091,183.727,112z M237.043,112c0-10.486-6.371-18.621-17.543-18.621
	c-11.173,0-17.544,8.135-17.544,18.621c0,10.488,6.371,18.721,17.544,18.721C230.672,130.72,237.043,122.488,237.043,112z"/>
</svg>
