<?xml version="1.0" encoding="utf-8"?>
<!-- Generator: Adobe Illustrator 15.0.0, SVG Export Plug-In . SVG Version: 6.00 Build 0)  -->
<!DOCTYPE svg PUBLIC "-//W3C//DTD SVG 1.1//EN" "http://www.w3.org/Graphics/SVG/1.1/DTD/svg11.dtd">
<svg version="1.1" xmlns="http://www.w3.org/2000/svg" xmlns:xlink="http://www.w3.org/1999/xlink" x="0px" y="0px"
	 width="571.467px" height="69.921px" viewBox="0 0 571.467 69.921" enable-background="new 0 0 571.467 69.921"
	 xml:space="preserve">
<g id="Layer_1">
	<g>
		<path fill="#F26522" d="M-4376.416,234.065l14.177,15.241l-20.547-8.507c-0.838,0.738-1.7,1.449-2.587,2.132l8.329,14.789
			l-15.586-10.127c-1.519,0.801-3.083,1.524-4.688,2.172l-0.379,14.814l-7.697-12.325c-2.215,0.483-4.484,0.817-6.797,1
			l-4.043,13.024l-4.039-13.024c-2.312-0.183-4.581-0.517-6.795-0.999l-7.699,12.324l-0.377-14.814
			c-1.517-0.611-2.997-1.293-4.437-2.043l-15.388,9.998l8.192-14.543c-0.876-0.664-1.725-1.362-2.556-2.08l-19.827,8.209
			l13.6-14.621c-6.299-7.755-10.34-17.408-11.153-27.97c-21.67-4.098-38.719-10.797-51.412-17.395
			c-0.344,2.781-0.521,5.603-0.521,8.458c0,46.047,45.854,83.373,102.416,83.373c56.561,0,102.412-37.326,102.412-83.373
			c0-4.55-0.454-9.013-1.316-13.365c-12.158,8.757-27.616,16.47-50.535,21.237C-4366.268,216.351-4370.191,226.154-4376.416,234.065
			z"/>
		<path fill="#F26522" d="M-4416.231,231.863c-13.652,0-25.104-9.412-28.232-22.101c-5.546-0.485-10.856-1.145-15.929-1.949
			c2.501,22.181,21.315,39.421,44.161,39.421c23.176,0,42.2-17.738,44.26-40.379c-4.949,0.862-10.223,1.595-15.858,2.182
			C-4390.693,222.091-4402.318,231.863-4416.231,231.863z"/>
		<path fill="#F26522" d="M-4434.522,210.422c-0.072,0.443-0.119,0.895-0.119,1.357c0,4.646,3.766,8.412,8.412,8.412
			c2.636,0,4.986-1.215,6.528-3.112c0.566,1.946,2.342,3.376,4.47,3.376c2.582,0,4.676-2.092,4.676-4.676
			c0-2.582-2.094-4.674-4.676-4.674c-0.96,0-1.851,0.291-2.593,0.787c0-0.038,0.006-0.075,0.006-0.113
			c0-0.377-0.034-0.746-0.082-1.11c-1.558,0.019-3.13,0.03-4.731,0.03C-4426.703,210.699-4430.662,210.601-4434.522,210.422z"/>
		<path fill="#F26522" d="M-4283.627,125.086c-1.348-3.402-4.59-5.055-9.913-5.055c-2.044,0-4.375,0.259-6.929,0.771
			c-4.663,0.934-10.572,2.037-17.563,3.278l-3.418,0.606l-0.105-3.47c-0.039-1.287-0.062-2.64-0.059-4.081
			c0.012-6.056,1.48-13.582,3.181-22.297c3.496-17.919,7.847-40.221,0.673-58.833c-10.124-26.265-63.677-38.079-98.471-38.079
			c-18.818,0-81.538,2.762-98.562,38.296c-9.08,18.954-7.152,52.936-3.937,78.106l0.458,3.584l-3.607-0.209
			c-1.946-0.113-3.804-0.17-5.524-0.17c-8.927,0-13.174,1.545-15.165,2.842c-6.123,3.988-9.587,9.457-10.297,16.252
			c-1.185,11.349,5.591,23.762,10.781,28.952c4.005,4.004,41.38,39.121,119.453,39.121c72.809,0,98.967-18.864,119.519-38.186
			C-4289.178,153.414-4280.072,134.056-4283.627,125.086z"/>
	</g>
</g>
<g id="Layer_3">
	<ellipse fill="#D1D3D4" cx="-3954.708" cy="197.779" rx="102.414" ry="83.373"/>
	<circle cx="-3954.707" cy="202.779" r="50.647"/>
	<circle fill="#FFFFFF" cx="-3954.708" cy="202.779" r="44.453"/>
	<circle cx="-3954.707" cy="202.779" r="29.083"/>
	<g>
		<circle fill="#6D6E71" cx="-3964.706" cy="211.779" r="8.411"/>
		<circle fill="#6D6E71" cx="-3953.708" cy="215.779" r="4.675"/>
	</g>
	<g>
		<path d="M-3839.534,168.699c-21.436,20.152-47.84,39-121.573,39s-112.552-30.979-121.574-40c-9.021-9.021-21.283-35.977,0-49.839
			c21.284-13.863,121.574,20,121.574,20s87.245-13.124,121.573-20C-3805.204,110.984-3818.097,148.547-3839.534,168.699z"/>
		<path d="M-3853.438,140.635c0,0-51.914,30-102.573,30s-99.963-30-99.963-30s-15.473-73.41,0-105.709
			c15.474-32.3,66.169-40,101.267-40c35.1,0,90.324,11.603,101.27,40s-3.617,63.97-3.652,82.216
			C-3857.124,135.387-3853.438,140.635-3853.438,140.635z"/>
	</g>
	<polygon points="-3954.71,266.279 -3960.381,247.988 -3949.032,247.988 	"/>
	<polygon points="-3936.173,264.58 -3946.794,247.572 -3935.692,245.803 	"/>
	<polygon points="-3915.521,257.721 -3934.446,245.424 -3925.263,240.422 	"/>
	<polygon points="-3993.444,257.721 -3974.518,245.424 -3983.7,240.422 	"/>
	<polygon points="-4007.635,249.307 -3985.714,240.23 -3993.309,233.904 	"/>
	<polygon points="-3900.716,249.307 -3922.638,240.23 -3915.042,233.904 	"/>
	<polygon points="-3973.242,264.58 -3973.721,245.803 -3962.619,247.574 	"/>
</g>
<g id="DROOG">
	<rect x="-1700.845" y="-41.961" fill="#F26722" width="360" height="432.5"/>
	<g>
		<g>
			<g>
				<path d="M-1521.546,303.97c-38.156,0-74.123-13.082-101.274-36.835c-24.588-21.515-39.634-50.032-42.483-80.446
					c-3.667-5.255-4.294-12.142-1.524-17.999c0.401-0.847,0.879-1.671,1.426-2.465c2.57-30.888,17.651-59.831,42.582-81.642
					c6.818-5.966,14.287-11.324,22.24-15.961c-1.139-8.375,2.161-15.653,9.383-20.357c2.114-1.378,4.959-2.186,8.646-2.448
					c-1.51-17.701-0.359-30.664,3.434-38.581c10.218-21.326,43.352-23.628,57.123-23.628c19.309,0,50.498,6.389,57.282,23.992
					c4.407,11.436,1.946,24.049-0.031,34.185c-0.434,2.226-0.854,4.384-1.145,6.293c0.984-0.187,1.893-0.364,2.721-0.53
					c1.919-0.384,3.721-0.579,5.356-0.579c6.297,0,9.534,2.834,11.143,5.212c2.456,3.633,2.843,8.676,1.167,14.744
					c9.09,5.018,17.563,10.946,25.236,17.659c24.37,21.321,39.38,49.544,42.41,79.657c1.215,1.322,2.218,2.812,2.992,4.449
					c3.18,6.725,1.861,14.645-3.126,19.976c-3.296,29.654-18.258,57.456-42.276,78.471
					C-1447.417,290.888-1483.386,303.97-1521.546,303.97z"/>
				<path d="M-1521.995-11.367c18.229,0,46.908,6.025,52.592,20.773c5.684,14.747-1.877,33.221-1.896,42.697
					c0,0.712,0.012,1.397,0.031,2.068c3.445-0.612,6.547-1.187,9.088-1.696c1.636-0.328,3.087-0.481,4.369-0.481
					c9.587,0,9.697,8.594,6.18,17.357c10.107,5.199,19.535,11.559,28.057,19.014c24.107,21.091,38.404,48.568,40.885,78.182
					c1.344,1.15,2.479,2.59,3.283,4.291c2.576,5.447,1.016,11.773-3.393,15.473c-2.75,29.176-16.979,56.221-40.775,77.041
					c-26.234,22.951-61.027,35.592-97.971,35.592c-36.939,0-71.73-12.641-97.965-35.592c-24.207-21.182-38.52-48.801-40.912-78.557
					c-3.205-3.766-4.111-9.197-1.861-13.957c0.482-1.018,1.092-1.934,1.781-2.762c2.111-30.193,16.471-58.257,40.992-79.711
					c7.545-6.601,15.799-12.343,24.607-17.183c-1.82-6.254-1.262-13.684,6.449-18.707c1.877-1.223,4.939-1.729,8.729-1.729
					c0.869,0,1.775,0.026,2.715,0.077c-1.475-13.405-2.277-31.601,2.426-41.418C-1566.548-7.368-1540.222-11.367-1521.995-11.367
					 M-1521.995-21.419c-14.723,0-50.204,2.581-61.655,26.482c-3.817,7.967-5.24,20.206-4.252,36.468
					c-2.312,0.553-4.299,1.388-6.04,2.522c-7.854,5.117-12.01,12.955-11.872,21.84c-7.223,4.415-14.034,9.412-20.315,14.907
					c-25.581,22.381-41.191,52.025-44.17,83.747c-0.392,0.648-0.748,1.311-1.068,1.985c-3.346,7.078-2.823,15.319,1.184,21.873
					c3.258,31.231,18.828,60.439,44.054,82.513c28.069,24.556,65.211,38.079,104.585,38.079c39.378,0,76.521-13.523,104.59-38.078
					c12.752-11.157,23.03-24.029,30.549-38.257c6.979-13.207,11.424-27.279,13.231-41.881c5.428-6.765,6.671-16.175,2.856-24.24
					c-0.741-1.566-1.645-3.026-2.702-4.371c-1.681-14.832-6.077-29.134-13.091-42.562c-7.544-14.445-17.921-27.501-30.844-38.807
					c-7.018-6.14-14.68-11.644-22.855-16.423c0.929-5.886,0.03-10.983-2.693-15.012c-1.875-2.772-6.355-7.423-15.307-7.423
					c-0.604,0-1.222,0.021-1.854,0.064c1.972-10.129,4.452-23.736-0.357-36.215C-1468.318-15.732-1504.188-21.419-1521.995-21.419
					L-1521.995-21.419z"/>
			</g>
		</g>
		<g>
			<g>
				<g>
					<path fill="#FFFFFF" d="M-1521.546,293.917c-74.005,0-134.212-52.96-134.212-118.058c0-65.099,60.207-118.061,134.212-118.061
						c74.009,0,134.22,52.962,134.22,118.061C-1387.326,240.957-1447.537,293.917-1521.546,293.917z"/>
					<path d="M-1521.546,62.825c71.348,0,129.193,50.604,129.193,113.034c0,62.428-57.846,113.031-129.193,113.031
						c-71.34,0-129.186-50.604-129.186-113.031C-1650.731,113.43-1592.886,62.825-1521.546,62.825 M-1521.546,52.772
						c-36.939,0-71.73,12.641-97.965,35.593c-26.615,23.287-41.273,54.359-41.273,87.494c0,33.134,14.658,64.205,41.273,87.492
						c26.234,22.951,61.025,35.592,97.965,35.592c36.943,0,71.736-12.641,97.971-35.592c26.617-23.286,41.275-54.358,41.275-87.492
						c0-33.135-14.658-64.208-41.274-87.494C-1449.81,65.413-1484.603,52.772-1521.546,52.772L-1521.546,52.772z"/>
				</g>
				<g>
					<path fill="#FFFFFF" stroke="#000000" stroke-width="10.0527" stroke-linecap="round" stroke-miterlimit="10" d="
						M-1504.079,266.635c-5.168,2.947-11.154,4.631-17.529,4.631c-6.322,0-12.258-1.656-17.396-4.557"/>
					<g>
						<path fill="#FFFFFF" stroke="#000000" stroke-width="10.0527" stroke-linecap="round" stroke-miterlimit="10" d="
							M-1494.024,274.438c-2.842-2.291-5.373-5.064-7.469-8.291c-1.965-3.025-3.408-6.236-4.355-9.531"/>
						<path fill="#FFFFFF" stroke="#000000" stroke-width="10.0527" stroke-linecap="round" stroke-miterlimit="10" d="
							M-1549.06,274.438c2.842-2.293,5.373-5.064,7.469-8.293c1.963-3.023,3.408-6.234,4.352-9.531"/>
					</g>
				</g>
				<path fill="#FFFFFF" stroke="#000000" stroke-width="10.0527" stroke-linecap="round" stroke-miterlimit="10" d="
					M-1400.487,185.385c3.76,3.904,9.729,5.174,14.898,2.729c6.477-3.062,9.244-10.799,6.182-17.275
					c-3.062-6.475-10.799-9.244-17.275-6.182c-1.387,0.658-2.607,1.531-3.631,2.559"/>
				<path fill="#FFFFFF" stroke="#000000" stroke-width="10.0527" stroke-linecap="round" stroke-miterlimit="10" d="
					M-1641.202,185.385c-3.76,3.904-9.73,5.174-14.9,2.729c-6.477-3.062-9.244-10.799-6.182-17.275
					c3.064-6.475,10.799-9.244,17.275-6.182c1.387,0.658,2.607,1.531,3.633,2.559"/>
				<path d="M-1398.979,39.485"/>
			</g>
			<g>
				<g>
					<path d="M-1563.505,250.076c1.846-6.252,3.305-12.182,4.391-17.777c-3.545,0.307-7.098,0.572-10.654,0.789
						C-1568.063,239.094-1565.97,244.764-1563.505,250.076z"/>
					<path d="M-1584.474,252.293c4.904-7.021,9.102-13.533,12.623-19.512c-3.438-0.426-6.805-0.959-10.096-1.598
						C-1582.823,238.248-1583.667,245.281-1584.474,252.293z"/>
					<path d="M-1605.214,246.504c8.338-5.799,15.715-11.061,22.191-15.742c-2.49-1.898-4.807-3.969-6.934-6.197
						C-1594.372,231.41-1599.448,238.732-1605.214,246.504z"/>
					<path d="M-1542.938,243.732c-1.385-4.824-2.803-9.623-4.254-14.393c-3.219,0.781-6.516,1.582-9.885,2.404
						C-1552.999,236.387-1548.276,240.391-1542.938,243.732z"/>
				</g>
				<path d="M-1634.198,209.795c13.174,5.174,27.291,7.361,41.311,6.51c-3.023-4.02-6.01-8.094-8.969-12.217
					C-1612.192,207.689-1623.085,209.66-1634.198,209.795z"/>
				<g>
					<path d="M-1611.888,153.186c4.336,9.404,9.49,18.002,15.219,25.791c0.963-4.727,2.375-9.346,4.201-13.789
						C-1598.833,161.783-1605.341,157.807-1611.888,153.186z"/>
					<path d="M-1624.474,172.639c7.016,7.453,14.824,13.785,23.146,18.992c-0.494-4.436-0.629-8.932-0.387-13.449
						C-1609.001,177.012-1616.624,175.229-1624.474,172.639z"/>
					<path d="M-1629.839,188.266c7.639,6.939,16.555,12.354,26.234,15.979c-0.871-3.73-1.613-7.539-2.215-11.416
						C-1613.776,192.314-1621.837,190.848-1629.839,188.266z"/>
					<path d="M-1539.882,184.209c4.303-4.078,7.926-8.852,10.775-14.137c-4.793,1.078-9.719,1.793-14.736,2.113
						C-1542.571,176.168-1541.255,180.178-1539.882,184.209z"/>
					<path d="M-1572.054,161.354c0.725-5.885,2.408-11.631,4.969-17.068c1.98,4.498,4.33,8.887,7.057,13.109
						C-1563.991,158.738-1567.995,160.062-1572.054,161.354z"/>
					<path d="M-1554.474,169.396c1.551-5.725,4.037-11.174,7.342-16.191c1.32,4.734,3.025,9.412,5.123,13.979
						C-1546.12,167.953-1550.272,168.695-1554.474,169.396z"/>
					<path d="M-1622.901,231.492c9.449-8.408,20.615-14.602,32.633-18.215c-1.293,4.301-2.541,8.643-3.748,13.012
						C-1603.796,226.459-1613.538,228.17-1622.901,231.492z"/>
					<path d="M-1594.515,143.915c8.455,5.005,16.127,10.458,23.064,16.157c-5.254,0.512-10.395,1.535-15.35,3.031
						C-1589.04,156.828-1591.604,150.422-1594.515,143.915z"/>
				</g>
			</g>
			<path fill="#FFFFFF" stroke="#000000" stroke-width="10.0527" stroke-linecap="round" stroke-miterlimit="10" d="
				M-1466.694,122.472c-3.438,4.854-8.15,8.909-13.93,11.604"/>
			<path fill="#FFFFFF" stroke="#000000" stroke-width="10.0527" stroke-linecap="round" stroke-miterlimit="10" d="
				M-1568.317,122.472c3.439,4.854,8.152,8.909,13.93,11.604"/>
			<g>
				<g>
					<g>
						<path fill="#FFFFFF" d="M-1469.021,238.378c-21.925,0-39.763-17.839-39.763-39.765s17.838-39.765,39.763-39.765
							s39.763,17.839,39.763,39.765S-1447.096,238.378-1469.021,238.378z"/>
						<path d="M-1469.021,163.17c19.572,0,35.441,15.867,35.441,35.443c0,19.574-15.869,35.443-35.441,35.443
							s-35.441-15.869-35.441-35.443C-1504.462,179.037-1488.593,163.17-1469.021,163.17 M-1469.021,154.528
							c-24.308,0-44.084,19.776-44.084,44.085s19.776,44.085,44.084,44.085s44.084-19.776,44.084-44.085
							S-1444.713,154.528-1469.021,154.528L-1469.021,154.528z"/>
					</g>
					<circle cx="-1469.021" cy="198.613" r="23.188"/>
					<g>
						<circle fill="#6D6E71" cx="-1476.993" cy="205.787" r="6.707"/>
						<path fill="#6D6E71" d="M-1464.497,208.977c0,2.061-1.67,3.729-3.729,3.729c-2.055,0-3.727-1.668-3.727-3.729
							c0-2.059,1.672-3.727,3.727-3.727C-1466.167,205.25-1464.497,206.918-1464.497,208.977z"/>
					</g>
				</g>
				<g>
					<g>
						<path fill="#FFFFFF" d="M-1572.671,238.378c-21.925,0-39.763-17.839-39.763-39.765s17.838-39.765,39.763-39.765
							c21.926,0,39.765,17.839,39.765,39.765S-1550.745,238.378-1572.671,238.378z"/>
						<path d="M-1572.671,163.17c19.576,0,35.443,15.867,35.443,35.443c0,19.574-15.867,35.443-35.443,35.443
							c-19.572,0-35.441-15.869-35.441-35.443C-1608.112,179.037-1592.243,163.17-1572.671,163.17 M-1572.671,154.528
							c-24.308,0-44.084,19.776-44.084,44.085s19.776,44.085,44.084,44.085c24.309,0,44.086-19.776,44.086-44.085
							S-1548.362,154.528-1572.671,154.528L-1572.671,154.528z"/>
					</g>
					<path d="M-1549.481,198.613c0,12.805-10.381,23.186-23.189,23.186c-12.803,0-23.184-10.381-23.184-23.186
						c0-12.807,10.381-23.189,23.184-23.189C-1559.862,175.424-1549.481,185.807-1549.481,198.613z"/>
					<g>
						<path fill="#6D6E71" d="M-1573.935,205.787c0,3.705-3.002,6.707-6.703,6.707c-3.707,0-6.709-3.002-6.709-6.707
							c0-3.703,3.002-6.705,6.709-6.705C-1576.937,199.082-1573.935,202.084-1573.935,205.787z"/>
						<circle fill="#6D6E71" cx="-1571.871" cy="208.977" r="3.728"/>
					</g>
				</g>
			</g>
			<g>
				<path d="M-1455.995,77.642c-7.66,11.647-27.318,27.1-65.611,27.1c-38.291,0-61.744-13.799-69.984-26.382
					c-4.277-6.536-7.916-18.684,3.137-25.884s63.135,10.388,63.135,10.388s45.311-6.817,63.139-10.388
					C-1444.353,48.905-1448.335,65.994-1455.995,77.642z"/>
				<path d="M-1469.403,67.42c0,0-26.961,15.58-53.268,15.58c-26.311,0-51.914-15.58-51.914-15.58s-8.035-41.24,0-58.014
					c8.037-16.774,34.363-20.773,52.59-20.773c18.229,0,46.908,6.025,52.592,20.773c5.684,14.747-1.877,33.221-1.896,42.697
					C-1471.317,61.579-1469.403,67.42-1469.403,67.42z"/>
				<path fill="#6D6E71" d="M-1520.341,73.829c-42.455-2.514-56.416-20.79-56.416-20.79l2.172,14.381c0,0,9.43,20.174,52.234,21.062
					c42.803,0.887,52.947-21.062,52.947-21.062l-1.547-8.332C-1470.95,59.088-1486.173,75.852-1520.341,73.829z"/>
			</g>
		</g>
	</g>
	<text transform="matrix(1 0 0 1 -1634.4893 372.249)" font-family="'Neutraface2Display-Titling'" font-size="62">DROOG</text>
	<g>
		<g>
			<g>
				<path d="M-2563.992,303.97c-38.156,0-74.123-13.082-101.274-36.835c-24.588-21.515-39.634-50.032-42.483-80.446
					c-3.667-5.255-4.294-12.142-1.524-17.999c0.401-0.847,0.879-1.671,1.426-2.465c2.57-30.888,17.651-59.831,42.582-81.642
					c6.818-5.966,14.287-11.324,22.24-15.961c-1.139-8.375,2.161-15.653,9.383-20.357c2.114-1.378,4.959-2.186,8.646-2.448
					c-1.51-17.701-0.359-30.664,3.434-38.581c10.218-21.326,43.352-23.628,57.123-23.628c19.309,0,50.498,6.389,57.282,23.992
					c4.407,11.436,1.946,24.049-0.031,34.185c-0.434,2.226-0.854,4.384-1.145,6.293c0.984-0.187,1.893-0.364,2.721-0.53
					c1.919-0.384,3.721-0.579,5.356-0.579c6.297,0,9.534,2.834,11.143,5.212c2.456,3.633,2.843,8.676,1.167,14.744
					c9.09,5.018,17.563,10.946,25.236,17.659c24.37,21.321,39.38,49.544,42.41,79.657c1.215,1.322,2.218,2.812,2.992,4.449
					c3.18,6.725,1.861,14.645-3.126,19.976c-3.296,29.654-18.258,57.456-42.276,78.471
					C-2489.863,290.888-2525.832,303.97-2563.992,303.97z"/>
				<path d="M-2564.441-11.367c18.229,0,46.908,6.025,52.592,20.773c5.684,14.747-1.877,33.221-1.896,42.697
					c0,0.712,0.012,1.397,0.031,2.068c3.445-0.612,6.547-1.187,9.088-1.696c1.636-0.328,3.087-0.481,4.369-0.481
					c9.587,0,9.697,8.594,6.18,17.357c10.107,5.199,19.535,11.559,28.057,19.014c24.107,21.091,38.404,48.568,40.885,78.182
					c1.344,1.15,2.479,2.59,3.283,4.291c2.576,5.447,1.016,11.773-3.393,15.473c-2.75,29.176-16.979,56.221-40.775,77.041
					c-26.234,22.951-61.027,35.592-97.971,35.592c-36.939,0-71.73-12.641-97.965-35.592c-24.207-21.182-38.52-48.801-40.912-78.557
					c-3.205-3.766-4.111-9.197-1.861-13.957c0.482-1.018,1.092-1.934,1.781-2.762c2.111-30.193,16.471-58.257,40.992-79.711
					c7.545-6.601,15.799-12.343,24.607-17.183c-1.82-6.254-1.262-13.684,6.449-18.707c1.877-1.223,4.939-1.729,8.729-1.729
					c0.869,0,1.775,0.026,2.715,0.077c-1.475-13.405-2.277-31.601,2.426-41.418C-2608.994-7.368-2582.668-11.367-2564.441-11.367
					 M-2564.441-21.419c-14.723,0-50.204,2.581-61.655,26.482c-3.817,7.967-5.24,20.206-4.252,36.468
					c-2.312,0.553-4.299,1.388-6.04,2.522c-7.854,5.117-12.01,12.955-11.872,21.84c-7.223,4.415-14.034,9.412-20.315,14.907
					c-25.581,22.381-41.191,52.025-44.17,83.747c-0.392,0.648-0.748,1.311-1.068,1.985c-3.346,7.078-2.823,15.319,1.184,21.873
					c3.258,31.231,18.828,60.439,44.054,82.513c28.069,24.556,65.211,38.079,104.585,38.079c39.378,0,76.521-13.523,104.59-38.078
					c12.752-11.157,23.03-24.029,30.549-38.257c6.979-13.207,11.424-27.279,13.231-41.881c5.428-6.765,6.671-16.175,2.856-24.24
					c-0.741-1.566-1.645-3.026-2.702-4.371c-1.681-14.832-6.077-29.134-13.091-42.562c-7.544-14.445-17.921-27.501-30.844-38.807
					c-7.018-6.14-14.68-11.644-22.855-16.423c0.929-5.886,0.03-10.983-2.693-15.012c-1.875-2.772-6.355-7.423-15.307-7.423
					c-0.604,0-1.222,0.021-1.854,0.064c1.972-10.129,4.452-23.736-0.357-36.215C-2510.765-15.732-2546.634-21.419-2564.441-21.419
					L-2564.441-21.419z"/>
			</g>
		</g>
		<g>
			<g>
				<g>
					<path fill="#FFFFFF" d="M-2563.992,293.917c-74.005,0-134.212-52.96-134.212-118.058c0-65.099,60.207-118.061,134.212-118.061
						c74.009,0,134.22,52.962,134.22,118.061C-2429.772,240.957-2489.983,293.917-2563.992,293.917z"/>
					<path d="M-2563.992,62.825c71.348,0,129.193,50.604,129.193,113.034c0,62.428-57.846,113.031-129.193,113.031
						c-71.34,0-129.186-50.604-129.186-113.031C-2693.178,113.43-2635.332,62.825-2563.992,62.825 M-2563.992,52.772
						c-36.939,0-71.73,12.641-97.965,35.593c-26.615,23.287-41.273,54.359-41.273,87.494c0,33.134,14.658,64.205,41.273,87.492
						c26.234,22.951,61.025,35.592,97.965,35.592c36.943,0,71.736-12.641,97.971-35.592c26.617-23.286,41.275-54.358,41.275-87.492
						c0-33.135-14.658-64.208-41.274-87.494C-2492.256,65.413-2527.049,52.772-2563.992,52.772L-2563.992,52.772z"/>
				</g>
				<g>
					<path fill="#FFFFFF" stroke="#000000" stroke-width="10.0527" stroke-linecap="round" stroke-miterlimit="10" d="
						M-2546.525,266.635c-5.168,2.947-11.154,4.631-17.529,4.631c-6.322,0-12.258-1.656-17.396-4.557"/>
					<g>
						<path fill="#FFFFFF" stroke="#000000" stroke-width="10.0527" stroke-linecap="round" stroke-miterlimit="10" d="
							M-2536.471,274.438c-2.842-2.291-5.373-5.064-7.469-8.291c-1.965-3.025-3.408-6.236-4.355-9.531"/>
						<path fill="#FFFFFF" stroke="#000000" stroke-width="10.0527" stroke-linecap="round" stroke-miterlimit="10" d="
							M-2591.506,274.438c2.842-2.293,5.373-5.064,7.469-8.293c1.963-3.023,3.408-6.234,4.352-9.531"/>
					</g>
				</g>
				<path fill="#FFFFFF" stroke="#000000" stroke-width="10.0527" stroke-linecap="round" stroke-miterlimit="10" d="
					M-2442.934,185.385c3.76,3.904,9.729,5.174,14.898,2.729c6.477-3.062,9.244-10.799,6.182-17.275
					c-3.062-6.475-10.799-9.244-17.275-6.182c-1.387,0.658-2.607,1.531-3.631,2.559"/>
				<path fill="#FFFFFF" stroke="#000000" stroke-width="10.0527" stroke-linecap="round" stroke-miterlimit="10" d="
					M-2683.648,185.385c-3.76,3.904-9.73,5.174-14.9,2.729c-6.477-3.062-9.244-10.799-6.182-17.275
					c3.064-6.475,10.799-9.244,17.275-6.182c1.387,0.658,2.607,1.531,3.633,2.559"/>
				<path d="M-2441.426,39.485"/>
			</g>
			<g>
				<g>
					<path d="M-2605.951,250.076c1.846-6.252,3.305-12.182,4.391-17.777c-3.545,0.307-7.098,0.572-10.654,0.789
						C-2610.51,239.094-2608.416,244.764-2605.951,250.076z"/>
					<path d="M-2626.92,252.293c4.904-7.021,9.102-13.533,12.623-19.512c-3.438-0.426-6.805-0.959-10.096-1.598
						C-2625.27,238.248-2626.113,245.281-2626.92,252.293z"/>
					<path d="M-2647.66,246.504c8.338-5.799,15.715-11.061,22.191-15.742c-2.49-1.898-4.807-3.969-6.934-6.197
						C-2636.818,231.41-2641.895,238.732-2647.66,246.504z"/>
					<path d="M-2585.385,243.732c-1.385-4.824-2.803-9.623-4.254-14.393c-3.219,0.781-6.516,1.582-9.885,2.404
						C-2595.445,236.387-2590.723,240.391-2585.385,243.732z"/>
				</g>
				<path d="M-2676.645,209.795c13.174,5.174,27.291,7.361,41.311,6.51c-3.023-4.02-6.01-8.094-8.969-12.217
					C-2654.639,207.689-2665.531,209.66-2676.645,209.795z"/>
				<g>
					<path d="M-2654.334,153.186c4.336,9.404,9.49,18.002,15.219,25.791c0.963-4.727,2.375-9.346,4.201-13.789
						C-2641.279,161.783-2647.787,157.807-2654.334,153.186z"/>
					<path d="M-2666.92,172.639c7.016,7.453,14.824,13.785,23.146,18.992c-0.494-4.436-0.629-8.932-0.387-13.449
						C-2651.447,177.012-2659.07,175.229-2666.92,172.639z"/>
					<path d="M-2672.285,188.266c7.639,6.939,16.555,12.354,26.234,15.979c-0.871-3.73-1.613-7.539-2.215-11.416
						C-2656.223,192.314-2664.283,190.848-2672.285,188.266z"/>
					<path d="M-2582.328,184.209c4.303-4.078,7.926-8.852,10.775-14.137c-4.793,1.078-9.719,1.793-14.736,2.113
						C-2585.018,176.168-2583.701,180.178-2582.328,184.209z"/>
					<path d="M-2614.5,161.354c0.725-5.885,2.408-11.631,4.969-17.068c1.98,4.498,4.33,8.887,7.057,13.109
						C-2606.438,158.738-2610.441,160.062-2614.5,161.354z"/>
					<path d="M-2596.92,169.396c1.551-5.725,4.037-11.174,7.342-16.191c1.32,4.734,3.025,9.412,5.123,13.979
						C-2588.566,167.953-2592.719,168.695-2596.92,169.396z"/>
					<path d="M-2665.348,231.492c9.449-8.408,20.615-14.602,32.633-18.215c-1.293,4.301-2.541,8.643-3.748,13.012
						C-2646.242,226.459-2655.984,228.17-2665.348,231.492z"/>
					<path d="M-2636.961,143.915c8.455,5.005,16.127,10.458,23.064,16.157c-5.254,0.512-10.395,1.535-15.35,3.031
						C-2631.486,156.828-2634.051,150.422-2636.961,143.915z"/>
				</g>
			</g>
			<path fill="#FFFFFF" stroke="#000000" stroke-width="10.0527" stroke-linecap="round" stroke-miterlimit="10" d="
				M-2509.141,122.472c-3.438,4.854-8.15,8.909-13.93,11.604"/>
			<path fill="#FFFFFF" stroke="#000000" stroke-width="10.0527" stroke-linecap="round" stroke-miterlimit="10" d="
				M-2610.764,122.472c3.439,4.854,8.152,8.909,13.93,11.604"/>
			<g>
				<g>
					<g>
						<path fill="#FFFFFF" d="M-2511.467,238.378c-21.925,0-39.763-17.839-39.763-39.765s17.838-39.765,39.763-39.765
							s39.763,17.839,39.763,39.765S-2489.542,238.378-2511.467,238.378z"/>
						<path d="M-2511.467,163.17c19.572,0,35.441,15.867,35.441,35.443c0,19.574-15.869,35.443-35.441,35.443
							s-35.441-15.869-35.441-35.443C-2546.908,179.037-2531.039,163.17-2511.467,163.17 M-2511.467,154.528
							c-24.308,0-44.084,19.776-44.084,44.085s19.776,44.085,44.084,44.085s44.084-19.776,44.084-44.085
							S-2487.159,154.528-2511.467,154.528L-2511.467,154.528z"/>
					</g>
					<circle cx="-2511.467" cy="198.613" r="23.188"/>
					<g>
						<circle fill="#6D6E71" cx="-2519.439" cy="205.787" r="6.707"/>
						<path fill="#6D6E71" d="M-2506.943,208.977c0,2.061-1.67,3.729-3.729,3.729c-2.055,0-3.727-1.668-3.727-3.729
							c0-2.059,1.672-3.727,3.727-3.727C-2508.613,205.25-2506.943,206.918-2506.943,208.977z"/>
					</g>
				</g>
				<g>
					<g>
						<path fill="#FFFFFF" d="M-2615.117,238.378c-21.925,0-39.763-17.839-39.763-39.765s17.838-39.765,39.763-39.765
							c21.926,0,39.765,17.839,39.765,39.765S-2593.191,238.378-2615.117,238.378z"/>
						<path d="M-2615.117,163.17c19.576,0,35.443,15.867,35.443,35.443c0,19.574-15.867,35.443-35.443,35.443
							c-19.572,0-35.441-15.869-35.441-35.443C-2650.559,179.037-2634.689,163.17-2615.117,163.17 M-2615.117,154.528
							c-24.308,0-44.084,19.776-44.084,44.085s19.776,44.085,44.084,44.085c24.309,0,44.086-19.776,44.086-44.085
							S-2590.809,154.528-2615.117,154.528L-2615.117,154.528z"/>
					</g>
					<path d="M-2591.928,198.613c0,12.805-10.381,23.186-23.189,23.186c-12.803,0-23.184-10.381-23.184-23.186
						c0-12.807,10.381-23.189,23.184-23.189C-2602.309,175.424-2591.928,185.807-2591.928,198.613z"/>
					<g>
						<path fill="#6D6E71" d="M-2616.381,205.787c0,3.705-3.002,6.707-6.703,6.707c-3.707,0-6.709-3.002-6.709-6.707
							c0-3.703,3.002-6.705,6.709-6.705C-2619.383,199.082-2616.381,202.084-2616.381,205.787z"/>
						<circle fill="#6D6E71" cx="-2614.317" cy="208.977" r="3.728"/>
					</g>
				</g>
			</g>
			<g>
				<path d="M-2498.441,77.642c-7.66,11.647-27.318,27.1-65.611,27.1c-38.291,0-61.744-13.799-69.984-26.382
					c-4.277-6.536-7.916-18.684,3.137-25.884s63.135,10.388,63.135,10.388s45.311-6.817,63.139-10.388
					C-2486.799,48.905-2490.781,65.994-2498.441,77.642z"/>
				<path d="M-2511.85,67.42c0,0-26.961,15.58-53.268,15.58c-26.311,0-51.914-15.58-51.914-15.58s-8.035-41.24,0-58.014
					c8.037-16.774,34.363-20.773,52.59-20.773c18.229,0,46.908,6.025,52.592,20.773c5.684,14.747-1.877,33.221-1.896,42.697
					C-2513.764,61.579-2511.85,67.42-2511.85,67.42z"/>
				<path fill="#6D6E71" d="M-2562.787,73.829c-42.455-2.514-56.416-20.79-56.416-20.79l2.172,14.381c0,0,9.43,20.174,52.234,21.062
					c42.803,0.887,52.947-21.062,52.947-21.062l-1.547-8.332C-2513.396,59.088-2528.619,75.852-2562.787,73.829z"/>
			</g>
		</g>
	</g>
	<text transform="matrix(1 0 0 1 -2734.5635 372.249)" font-family="'Neutraface2Display-Titling'" font-size="62">DROOG API</text>
	<path fill="#FFFFFF" stroke="#000000" stroke-width="10.0527" stroke-miterlimit="10" d="M-4104.137,91.839"/>
</g>
<g id="LUDWIG">
	<rect x="-2099.327" y="-41.961" fill="#CADB2A" width="360" height="432.5"/>
	<g id="rwz1oO.tif" display="none" opacity="0.1">
		
			<image display="inline" overflow="visible" width="668" height="717" id="Layer_0_2_" xlink:href="82537E0C.png"  transform="matrix(0.5174 0 0 0.5174 -3202.3594 -45.9609)">
		</image>
	</g>
	
		<text transform="matrix(1 0 0 1 -2046.3125 372.249)" font-family="'Neutraface2Display-Titling'" font-size="62" letter-spacing="2">Ludwig</text>
	
		<text transform="matrix(1 0 0 1 -2044.3154 -451.9263)" font-family="'Neutraface2Display-Bold'" font-size="79.6" letter-spacing="4">CUTTER &amp; DENG</text>
	
		<text transform="matrix(1 0 0 1 -3235.8242 798.6855)" font-family="'Neutraface2Display-Bold'" font-size="64" letter-spacing="3">CUTTER &amp; DENG</text>
	<g>
		<g>
			<path d="M-1935.708,295.179l-39.001-5.225l11.979-11.567l-54.917-16.459l-50.06,11.709l35.071-54.552
				c-4.144-1.124-8.834-2.792-13.46-5.26c-14.264-7.608-23.209-20.768-24.183-22.243l-3.827-5.808l17.088-23.548l-19.756-58.239
				l2.145-3.885c0.06-0.114,8.973-17.241,5.709-40.769c-4.389-31.63,14.515-55.08,15.321-56.062l10.696-13.036l6.38,15.611
				c0.025,0.059,4.991,11.49,14.311,15.205c11.414,4.55,20.127,15.493,25.082,23.116l44.015-4.853l35.15,18.945l35.977-18.94
				l44.05,4.857c3.819-5.48,10.741-13.635,21.638-20.499c12.771-8.046,17.846-18.247,17.896-18.349l8.337-17.711l9.527,17.149
				c1.717,3.09,16.7,30.863,14.351,54.191c-1.844,18.3,6.292,42.507,6.374,42.75l1.107,3.236l-19.43,57.282l16.486,22.717
				l-2.516,5.37c-0.706,1.507-7.448,14.948-26.693,23.465c-4.21,1.862-8.255,3.413-12.092,4.635l35.504,55.224l-50.059-11.709
				l-54.919,16.459l11.923,11.513l-39.25,5.376l-17.807,8.639L-1935.708,295.179z"/>
			<path d="M-1789.697-1.367l4.764,8.574c0.653,1.176,15.978,29.06,13.743,51.247c-1.965,19.506,6.532,44.625,6.618,44.876
				l0.555,1.621l-19.715,58.123l16.271,22.422l-1.258,2.686c-0.249,0.531-6.295,13.088-24.176,21
				c-7.627,3.375-13.626,5.209-17.979,6.205l32.485,50.529l-39.279-9.188l-64.428,19.309l10.653,10.287l-29.786,4.08l-16.341,7.928
				l-16.68-8.029l-29.494-3.951l10.682-10.314l-64.427-19.309l-39.279,9.188l32.271-50.197c-5.308-0.875-12.369-2.666-19.234-6.328
				c-13.404-7.15-21.992-20.031-22.352-20.576l-1.913-2.902l16.572-22.838l-19.878-58.6l1.072-1.942
				c0.092-0.17,9.822-18.401,6.287-43.889c-4.088-29.467,13.478-51.269,14.228-52.183l5.349-6.518l3.189,7.805
				c0.051,0.121,5.68,13.419,17.103,17.972c11.813,4.709,20.751,17.789,24.356,23.789l45.596-5.027l36.129,19.473l36.983-19.47
				l45.571,5.024c2.972-4.777,9.787-14.001,21.815-21.578c14.24-8.971,19.692-20.309,19.746-20.422L-1789.697-1.367
				 M-1790.438-23.398l-8.355,17.75l-4.134,8.782c-0.295,0.57-4.957,9.301-16.053,16.291c-10.078,6.349-16.981,13.755-21.302,19.436
				l-39.625-4.369l-3.061-0.337l-2.724,1.434l-32.245,16.976l-31.415-16.932l-2.758-1.486l-3.113,0.343l-39.439,4.348
				c-5.529-7.921-14.317-17.923-25.688-22.456c-6.034-2.405-10.364-9.811-11.558-12.53l-3.151-7.712l-6.379-15.611l-10.698,13.037
				l-5.349,6.518c-2.163,2.636-21.021,26.727-16.413,59.941c2.945,21.24-4.746,36.879-5.188,37.753l-1.015,1.838l-2.145,3.885
				l1.426,4.202l18.207,53.676l-13.518,18.629l-4.086,5.63l3.828,5.807l1.913,2.902c1.047,1.587,10.656,15.722,26.014,23.913
				c2.562,1.366,5.25,2.575,8.054,3.621l-24.815,38.599l-13.422,20.878l24.167-5.653l36.671-8.577l45.408,13.609l-13.276,12.819
				l20.598,2.76l27.909,3.738l15.239,7.336l4.377,2.107l4.371-2.12l14.902-7.23l28.201-3.862l20.512-2.81l-13.191-12.738
				l45.409-13.609l36.671,8.577l24.167,5.653l-13.422-20.878l-25.354-39.436c2.109-0.808,4.264-1.698,6.458-2.669
				c20.919-9.257,28.424-24.248,29.211-25.927l1.259-2.688l2.515-5.369l-3.482-4.799l-13.217-18.213l18.045-53.198l1.1-3.243
				l-1.109-3.24l-0.555-1.621c-0.072-0.217-7.855-23.456-6.127-40.614c2.503-24.853-13.162-53.905-14.957-57.136l-4.764-8.575
				L-1790.438-23.398L-1790.438-23.398z"/>
		</g>
		<g>
			<polyline fill="#FFFFFF" stroke="#000000" stroke-width="10.0527" stroke-linecap="square" stroke-miterlimit="10" points="
				-2018.106,185.918 -2018.106,251.426 -1918.011,281.426 -1817.916,251.426 -1817.916,185.918 			"/>
			<g>
				<polygon fill="#FFFFFF" stroke="#000000" stroke-width="10.0527" stroke-miterlimit="10" points="-1918.011,292.75 
					-1903.136,285.533 -1882.813,282.75 -1905.412,260.928 -1918.011,239.107 -1930.61,260.928 -1953.209,282.75 -1933.222,285.428 
									"/>
				<polyline fill="#FFFFFF" stroke="#000000" stroke-width="6" stroke-miterlimit="10" points="-1927.441,275.426 
					-1933.222,285.428 -1918.011,292.75 -1903.136,285.533 -1908.823,275.43 				"/>
			</g>
			<polyline fill="#FFFFFF" stroke="#000000" stroke-width="6" stroke-linecap="square" stroke-miterlimit="10" points="
				-2018.106,173.918 -2018.106,239.426 -1918.011,269.426 -1817.916,239.426 -1817.916,173.918 			"/>
			<polyline fill="#FFFFFF" stroke="#000000" stroke-width="6" stroke-linecap="square" stroke-miterlimit="10" points="
				-2018.106,163.918 -2018.106,229.426 -1918.011,259.426 -1817.916,229.426 -1817.916,163.918 			"/>
			<g>
				<polyline fill="#FFFFFF" stroke="#000000" stroke-width="6" stroke-linecap="square" stroke-miterlimit="10" points="
					-2018.106,153.918 -2018.106,219.426 -1918.011,249.426 -1817.916,219.426 -1817.916,153.918 				"/>
				<polyline fill="#FFFFFF" stroke="#000000" stroke-width="6" stroke-linecap="square" stroke-miterlimit="10" points="
					-2018.106,143.918 -2018.106,209.426 -1918.011,239.426 -1817.916,209.426 -1817.916,143.918 				"/>
			</g>
			<path fill="#FFFFFF" stroke="#000000" stroke-width="10.0527" stroke-miterlimit="10" d="M-1880.462,49.649l47.326,5.218
				c0,0,6.111-12.826,21.76-22.684s21.615-22.534,21.615-22.534s15.238,27.427,13.136,48.302s6.864,47.01,6.864,47.01l-20,58.961
				l16.057,22.127c0,0-5.291,11.295-21.657,18.535c-16.366,7.242-24.399,6.947-24.399,6.947l30,46.664l-128.25-30l-128.25,30
				l30-46.664c0,0-13.107,0.055-25.537-6.576c-12.43-6.629-20.52-18.906-20.52-18.906l16.057-22.127l-20-58.961
				c0,0,10.697-19.381,6.865-47.008s13.135-48.304,13.135-48.304s6.254,15.303,19.894,20.74s23.481,24.478,23.481,24.478
				l47.326-5.218l37.107,20L-1880.462,49.649z"/>
			<g>
				<g>
					<polyline fill="#FFFFFF" stroke="#000000" stroke-width="10.0527" stroke-linecap="square" stroke-miterlimit="10" points="
						-2018.106,124.918 -2018.106,190.426 -1918.011,240.426 -1817.916,190.426 -1817.916,124.918 					"/>
					<g>
						<g>
							<polyline fill="#FFFFFF" stroke="#000000" stroke-width="10.0527" stroke-linecap="square" stroke-miterlimit="10" points="
								-1830.747,94.969 -1839.757,117.453 -1853.062,129.878 							"/>
							<polyline fill="#FFFFFF" stroke="#000000" stroke-width="10.0527" stroke-linecap="square" stroke-miterlimit="10" points="
								-1809.655,108.26 -1814.778,117.453 -1822.772,124.918 							"/>
							<polyline fill="#FFFFFF" stroke="#000000" stroke-width="10.0527" stroke-linecap="square" stroke-miterlimit="10" points="
								-1864.052,94.969 -1873.062,117.453 -1886.366,129.878 							"/>
						</g>
						<g>
							<polyline fill="#FFFFFF" stroke="#000000" stroke-width="10.0527" stroke-linecap="square" stroke-miterlimit="10" points="
								-2005.274,94.969 -1996.265,117.453 -1982.96,129.878 							"/>
							<polyline fill="#FFFFFF" stroke="#000000" stroke-width="10.0527" stroke-linecap="square" stroke-miterlimit="10" points="
								-2026.366,108.26 -2021.245,117.453 -2013.249,124.918 							"/>
							<polyline fill="#FFFFFF" stroke="#000000" stroke-width="10.0527" stroke-linecap="square" stroke-miterlimit="10" points="
								-1971.97,94.969 -1962.96,117.453 -1949.655,129.878 							"/>
						</g>
					</g>
				</g>
				
					<line fill="#FFFFFF" stroke="#000000" stroke-width="10.0527" stroke-linecap="square" stroke-miterlimit="10" x1="-1918.011" y1="67.952" x2="-1918.011" y2="118.567"/>
			</g>
			<polyline fill="#FFFFFF" stroke="#000000" stroke-width="10.0527" stroke-miterlimit="10" points="-1942.427,212.996 
				-1935.718,203.436 -1902.937,203.436 -1896.228,212.996 			"/>
			<polyline fill="#FFFFFF" stroke="#000000" stroke-width="10.0527" stroke-miterlimit="10" points="-1929.718,187.436 
				-1919.248,191.436 -1908.937,187.436 			"/>
			<polyline fill="#FFFFFF" stroke="#000000" stroke-width="10.0527" stroke-miterlimit="10" points="-1938.937,171.436 
				-1969.406,151.436 -1969.718,171.436 			"/>
			<rect x="-1957.298" y="169.725" width="12.971" height="12.971"/>
			<g>
				<polyline fill="#FFFFFF" stroke="#000000" stroke-width="10.0527" stroke-miterlimit="10" points="-1899.718,171.436 
					-1869.248,151.436 -1868.937,171.436 				"/>
				<rect x="-1894.327" y="169.725" width="12.971" height="12.971"/>
			</g>
		</g>
	</g>
	<g>
		<g>
			<circle cx="-3213.731" cy="637.051" r="9.484"/>
			<circle cx="-3201.818" cy="631.846" r="9.484"/>
		</g>
		<g>
			<circle cx="-3169.731" cy="631.846" r="9.484"/>
			<circle cx="-3157.818" cy="637.051" r="9.484"/>
		</g>
	</g>
	<path d="M-3186.059,719.599c-0.265,0.527-0.792,0.527-1.057,0l-28.159-60.454h17.072l12.231,27.895l11.88-27.895h16.279
		L-3186.059,719.599z"/>
	<path d="M-3206.505,641.888c-2.832,1.238-4.913,3.471-6.036,6.106c-2.696-0.966-5.749-0.956-8.58,0.28
		c-5.89,2.574-8.577,9.435-6.005,15.324c2.574,5.89,9.434,8.578,15.324,6.004c2.832-1.237,4.913-3.471,6.036-6.105
		c2.695,0.967,5.749,0.956,8.58-0.281c5.89-2.574,8.577-9.434,6.005-15.324C-3193.755,642.003-3200.614,639.314-3206.505,641.888z"
		/>
	<path d="M-3152.196,648.274c-2.832-1.236-5.885-1.246-8.581-0.28c-1.123-2.635-3.204-4.868-6.035-6.106
		c-5.891-2.573-12.751,0.115-15.325,6.004c-2.572,5.891,0.115,12.75,6.005,15.324c2.831,1.237,5.885,1.248,8.58,0.281
		c1.123,2.636,3.204,4.869,6.036,6.105c5.891,2.574,12.751-0.114,15.324-6.004S-3146.308,650.849-3152.196,648.274z"/>
	<g>
		<g>
			<path d="M-3152.196,668.274c-2.832-1.236-5.885-1.246-8.581-0.28c-1.123-2.635-3.204-4.868-6.035-6.106
				c-5.891-2.573-12.751,0.115-15.325,6.004c-2.572,5.891,0.115,12.75,6.005,15.324c0.088,0.038,0.178,0.064,0.266,0.101
				l-10.104,23.723l-10.584-24.138c5.441-2.777,7.852-9.337,5.374-15.01c-2.574-5.889-9.434-8.577-15.324-6.004
				c-2.832,1.238-4.913,3.471-6.036,6.106c-2.696-0.966-5.749-0.956-8.58,0.28c-5.89,2.574-8.577,9.435-6.005,15.324
				c2.574,5.89,9.434,8.578,15.324,6.004c0.393-0.172,0.768-0.366,1.131-0.575l23.556,50.571c0.265,0.527,0.792,0.527,1.057,0
				l23.583-50.472c0.31,0.171,0.628,0.331,0.959,0.476c5.891,2.574,12.751-0.114,15.324-6.004S-3146.308,670.849-3152.196,668.274z"
				/>
		</g>
		<g>
			<path fill="none" stroke="#FFFFFF" stroke-width="6" stroke-miterlimit="10" d="M-3152.196,668.274
				c-2.832-1.236-5.885-1.246-8.581-0.28c-1.123-2.635-3.204-4.868-6.035-6.106c-5.891-2.573-12.751,0.115-15.325,6.004
				c-2.572,5.891,0.115,12.75,6.005,15.324c0.088,0.038,0.178,0.064,0.266,0.101l-10.104,23.723l-10.584-24.138
				c5.441-2.777,7.852-9.337,5.374-15.01c-2.574-5.889-9.434-8.577-15.324-6.004c-2.832,1.238-4.913,3.471-6.036,6.106
				c-2.696-0.966-5.749-0.956-8.58,0.28c-5.89,2.574-8.577,9.435-6.005,15.324c2.574,5.89,9.434,8.578,15.324,6.004
				c0.393-0.172,0.768-0.366,1.131-0.575l23.556,50.571c0.265,0.527,0.792,0.527,1.057,0l23.583-50.472
				c0.31,0.171,0.628,0.331,0.959,0.476c5.891,2.574,12.751-0.114,15.324-6.004S-3146.308,670.849-3152.196,668.274z"/>
		</g>
	</g>
	<g>
		<g>
			<path d="M-1710.053-185.825c-1.577-0.304-2.747-1.34-3.132-2.717c-0.384-1.376,0.081-2.868,1.213-3.891l57.099-48.914
				c-5.922-8.208-4.486-19.75,3.454-26.229c3.435-2.802,7.763-4.345,12.187-4.345c5.825,0,11.276,2.586,14.958,7.096
				c2.55,3.125,4.03,6.924,4.288,10.91c3.854,1.052,7.278,3.266,9.829,6.391c6.725,8.243,5.491,20.42-2.75,27.146
				c-3.43,2.797-7.75,4.338-12.167,4.338c-4.426,0-8.711-1.533-12.119-4.275l-21.162,17.312l2.494,0.327l-22.173,22.172
				L-1710.053-185.825z"/>
			<path fill="#FFFFFF" d="M-1639.232-268.921c4.725,0,9.412,2.046,12.634,5.993c2.733,3.35,3.897,7.462,3.61,11.463
				c3.977,0.521,7.771,2.486,10.507,5.838c5.689,6.974,4.648,17.235-2.322,22.925c-3.021,2.464-6.656,3.662-10.271,3.662
				c-4.419,0-8.806-1.792-11.993-5.254l-28.561,23.364l3.34,0.438l-16.776,16.776l-30.496-5.068
				c-0.812-0.157-1.012-0.87-0.399-1.424l59.316-50.812c-0.421-0.412-0.823-0.844-1.203-1.309
				c-5.688-6.975-4.648-17.233,2.324-22.924C-1646.497-267.72-1642.854-268.921-1639.232-268.921 M-1639.231-274.921
				L-1639.231-274.921c-5.113,0-10.115,1.782-14.084,5.02c-8.44,6.889-10.521,18.726-5.474,27.959l-55.074,47.177l-0.062,0.052
				l-0.06,0.054c-1.98,1.791-2.781,4.443-2.09,6.922c0.691,2.479,2.751,4.335,5.374,4.843l0.078,0.015l0.078,0.013l30.496,5.068
				l3.044,0.506l2.183-2.182l16.775-16.776l8.611-8.61l-1.649-0.216l14.015-11.465c3.553,2.261,7.718,3.5,11.995,3.5
				c5.105,0,10.1-1.78,14.062-5.013c9.523-7.773,10.949-21.844,3.18-31.367c-2.507-3.071-5.742-5.38-9.39-6.75
				c-0.61-3.849-2.223-7.481-4.729-10.551C-1626.203-271.932-1632.502-274.92-1639.231-274.921L-1639.231-274.921z"/>
		</g>
		<path d="M-1947.19-240.69h58.766v18.848h-36.344v13.8h30.307v17.862h-30.307v14.414h38.068v18.85h-60.49V-240.69z"/>
		<path d="M-1868.467-240.69h22.422v64.924h35.604v18.85h-58.026V-240.69z"/>
		<g>
			<path d="M-1575.499-152.809c-26.137,0-46.611-20.204-46.611-45.995c0-25.723,19.933-45.872,45.379-45.872
				c16.989,0,30.011,6.494,38.703,19.302l1.685,2.482l-21.893,14.861l-1.668-2.566c-2.606-4.011-6.833-8.614-16.457-8.614
				c-11.63,0-16.835,10.25-16.835,20.408c0,10.219,5.434,20.53,17.573,20.53c8.31,0,13.255-2.897,17.069-10l1.535-2.859
				l22.41,14.407l-1.475,2.489C-1544.751-159.618-1557.275-152.809-1575.499-152.809z"/>
			<path fill="#FFFFFF" d="M-1576.731-241.676c18.11,0,29.197,7.638,36.221,17.986l-16.878,11.457
				c-3.203-4.928-8.378-9.979-18.973-9.979c-12.319,0-19.835,10.226-19.835,23.408s7.762,23.53,20.573,23.53
				c10.842,0,16.14-4.929,19.712-11.581l17.247,11.088c-8.254,13.922-19.834,19.958-36.835,19.958
				c-23.53,0-43.611-17.74-43.611-42.995C-1619.11-224.06-1599.152-241.676-1576.731-241.676 M-1576.731-247.676
				c-12.703,0-24.698,4.851-33.775,13.659c-9.417,9.138-14.604,21.643-14.604,35.213c0,13.644,5.271,26.184,14.841,35.311
				c9.255,8.825,21.603,13.685,34.771,13.685c19.39,0,32.734-7.276,41.996-22.898l2.951-4.978l-4.867-3.129l-17.248-11.088
				l-5.459-3.51l-3.071,5.719c-2.714,5.054-6.206,8.419-14.426,8.419c-10.757,0-14.573-9.443-14.573-17.53
				c0-8.03,3.623-17.408,13.835-17.408c8.133,0,11.612,3.665,13.942,7.25l3.336,5.132l5.064-3.438l16.878-11.457l4.964-3.37
				l-3.369-4.964C-1544.831-240.739-1558.688-247.676-1576.731-247.676L-1576.731-247.676z"/>
		</g>
		<path d="M-1428.183-221.843h-22.175v-18.848h66.772v18.848h-22.176v64.926h-22.422V-221.843z"/>
		<g>
			<g>
				<path d="M-2002.63-152.501c-1.427,0-2.738-0.847-3.421-2.209l-31.75-68.159c-2.139,0.789-4.368,1.188-6.646,1.188
					c-7.671,0-14.613-4.542-17.687-11.572c-4.257-9.749,0.209-21.145,9.955-25.404c2.443-1.067,5.027-1.609,7.681-1.609
					c1.342,0,2.673,0.139,3.98,0.415c2.05-3.427,5.104-6.13,8.801-7.747c2.458-1.074,5.055-1.618,7.717-1.618
					c7.673,0,14.615,4.542,17.688,11.571c3.688,8.443,0.829,18.202-6.474,23.409l10.979,25.037l10.318-24.229
					c-8.123-4.923-11.569-15.264-7.661-24.215c3.073-7.03,10.017-11.572,17.689-11.572c2.663,0,5.259,0.544,7.717,1.618
					c3.696,1.617,6.749,4.32,8.799,7.747c1.309-0.275,2.64-0.415,3.98-0.415c2.653,0,5.238,0.542,7.682,1.608
					c9.749,4.261,14.214,15.657,9.955,25.404c-3.071,7.03-10.014,11.573-17.686,11.573h-0.001c-2.188,0-4.331-0.368-6.389-1.094
					l-31.77,67.991C-1999.892-153.348-2001.203-152.501-2002.63-152.501z"/>
				<path fill="#FFFFFF" d="M-1981.461-266.217c2.178,0,4.392,0.439,6.516,1.367c3.963,1.733,6.877,4.86,8.449,8.549
					c1.763-0.632,3.634-0.965,5.531-0.965c2.167,0,4.368,0.435,6.481,1.358c8.244,3.604,12.009,13.208,8.406,21.453
					c-2.675,6.123-8.657,9.774-14.938,9.774c-2.178,0-4.393-0.44-6.517-1.368c-0.464-0.203-0.909-0.427-1.343-0.666l-33.017,70.66
					c-0.185,0.369-0.462,0.554-0.739,0.554s-0.555-0.185-0.739-0.554l-32.979-70.799c-0.509,0.292-1.033,0.563-1.583,0.805
					c-2.124,0.928-4.338,1.368-6.517,1.368c-6.278,0-12.262-3.652-14.938-9.774c-3.601-8.245,0.161-17.85,8.407-21.453
					c2.112-0.923,4.313-1.358,6.48-1.358c1.897,0,3.769,0.334,5.531,0.965c1.572-3.69,4.486-6.815,8.451-8.549
					c2.124-0.928,4.337-1.367,6.516-1.367c6.278,0,12.262,3.652,14.938,9.772c3.469,7.941,0.095,17.125-7.523,21.014l14.817,33.793
					l14.144-33.211c-0.123-0.051-0.247-0.087-0.37-0.142c-8.245-3.604-12.008-13.207-8.407-21.454
					C-1993.726-262.565-1987.741-266.217-1981.461-266.217 M-1981.461-272.217L-1981.461-272.217
					c-8.864,0-16.888,5.248-20.438,13.369c-0.319,0.732-0.597,1.473-0.832,2.219c-0.235-0.746-0.512-1.485-0.832-2.217
					c-3.55-8.122-11.571-13.37-20.436-13.371c-3.078,0-6.079,0.629-8.918,1.869c-3.633,1.588-6.729,4.083-9.029,7.228
					c-0.846-0.097-1.696-0.146-2.551-0.146c-3.07,0-6.059,0.626-8.883,1.86c-11.262,4.921-16.422,18.089-11.504,29.353
					c3.552,8.124,11.573,13.373,20.437,13.373c1.702,0,3.38-0.192,5.021-0.574l30.619,65.734l0.036,0.078l0.038,0.077
					c1.195,2.384,3.534,3.865,6.104,3.865s4.908-1.481,6.104-3.865l0.037-0.074l0.034-0.075l30.689-65.68
					c1.555,0.341,3.142,0.513,4.751,0.513c8.865,0,16.887-5.249,20.436-13.372c4.921-11.262-0.238-24.43-11.501-29.353
					c-2.827-1.235-5.815-1.86-8.885-1.86c-0.854,0-1.706,0.049-2.551,0.146c-2.301-3.144-5.395-5.639-9.025-7.227
					C-1975.382-271.588-1978.382-272.216-1981.461-272.217L-1981.461-272.217z M-2009.116-233.338
					c3.02-2.707,5.197-6.157,6.382-9.928c1.332,4.248,3.92,8.083,7.528,10.907l-6.642,15.597L-2009.116-233.338L-2009.116-233.338z"
					/>
			</g>
		</g>
		<g>
			<path d="M-1616.748-152.965c-0.9,0-1.811-0.064-2.707-0.19c-5.102-0.716-9.62-3.377-12.722-7.492
				c-2.812-3.733-4.154-8.257-3.844-12.874l-49.29-8.191l21.946-21.946l31.131,4.075c2.323-8.202,9.885-14.085,18.551-14.085
				c0.898,0,1.808,0.063,2.703,0.189c10.533,1.482,17.899,11.257,16.422,21.79c-0.562,3.994-2.345,7.662-5.095,10.56
				c1.846,3.542,2.549,7.559,1.987,11.555C-1598.995-160.106-1607.199-152.965-1616.748-152.965L-1616.748-152.965z"/>
			<path fill="#FFFFFF" d="M-1613.683-210.669c0.754,0,1.518,0.052,2.286,0.16c8.909,1.254,15.118,9.49,13.868,18.402
				c-0.603,4.284-2.833,7.932-5.961,10.438c2.319,3.271,3.455,7.393,2.854,11.677c-1.144,8.141-8.119,14.027-16.112,14.027
				c-0.755,0-1.521-0.053-2.289-0.161c-8.909-1.251-15.118-9.488-13.865-18.399c0.069-0.5,0.164-0.991,0.28-1.473l-46.442-7.718
				l16.776-16.776l32.453,4.248c0.017-0.132,0.02-0.263,0.036-0.395C-1628.652-204.782-1621.678-210.669-1613.683-210.669
				 M-1613.683-216.669c-9.128,0-17.195,5.648-20.582,13.794l-27.244-3.566l-2.932-0.384l-2.09,2.09l-16.777,16.776l-8.248,8.249
				l11.508,1.913l41.016,6.816c0.241,4.365,1.768,8.565,4.46,12.139c3.584,4.755,8.805,7.83,14.701,8.658
				c1.033,0.145,2.084,0.219,3.123,0.219c11.035,0,20.517-8.25,22.054-19.192c0.552-3.927,0.048-7.87-1.424-11.477
				c2.409-3.063,3.979-6.713,4.531-10.637c1.707-12.172-6.805-23.466-18.974-25.179
				C-1611.596-216.596-1612.646-216.669-1613.683-216.669L-1613.683-216.669z"/>
		</g>
		<g>
			<path d="M-1742.131-183.333c-0.896,0-1.804-0.063-2.698-0.188c-10.533-1.481-17.899-11.256-16.421-21.79
				c0.561-3.997,2.343-7.666,5.092-10.563c-1.846-3.542-2.549-7.557-1.987-11.55c1.329-9.472,9.535-16.614,19.088-16.614
				c0.897,0,1.807,0.063,2.7,0.188c5.104,0.718,9.623,3.379,12.725,7.495c2.869,3.807,4.208,8.436,3.824,13.147l74.103,12.225
				c1.579,0.305,2.748,1.339,3.134,2.713c0.385,1.375-0.077,2.865-1.205,3.891l-21.955,18.854l-32.285-5.849l1.056-0.845
				l-27.066-3.836C-1726.753-188.539-1733.966-183.333-1742.131-183.333z"/>
			<path fill="#FFFFFF" d="M-1739.058-241.038c0.754,0,1.517,0.052,2.284,0.16c8.91,1.253,15.121,9.49,13.866,18.402
				c-0.082,0.594-0.204,1.173-0.349,1.74l77.062,12.713c0.812,0.157,1.01,0.869,0.399,1.424l-20.809,17.868l-24.393-4.419
				l1.33-1.064l-36.533-5.178c-1.542,7.635-8.262,13.059-15.932,13.059c-0.753,0-1.515-0.052-2.281-0.16
				c-8.91-1.253-15.118-9.49-13.867-18.401c0.602-4.284,2.826-7.933,5.958-10.441c-2.318-3.271-3.455-7.39-2.854-11.671
				C-1754.031-235.152-1747.054-241.038-1739.058-241.038 M-1739.058-247.038c-11.039,0-20.523,8.253-22.059,19.198
				c-0.552,3.922-0.048,7.864,1.425,11.471c-2.409,3.063-3.979,6.715-4.529,10.641c-1.709,12.171,6.803,23.466,18.974,25.177
				c1.033,0.145,2.081,0.218,3.116,0.218c8.59,0,16.269-4.985,19.953-12.429l17.921,2.54l-0.782,0.626l12.974,2.35l24.393,4.419
				l2.811,0.509l2.168-1.861l20.809-17.868l0.063-0.055l0.062-0.057c1.974-1.794,2.77-4.445,2.076-6.92
				c-0.693-2.475-2.751-4.327-5.37-4.834l-0.082-0.016l-0.082-0.014l-71.545-11.803c-0.19-4.462-1.724-8.766-4.475-12.415
				c-3.583-4.755-8.804-7.83-14.701-8.659C-1736.973-246.964-1738.021-247.038-1739.058-247.038L-1739.058-247.038z"/>
		</g>
		<g>
			<polygon points="-1795.698,-153.917 -1795.698,-243.69 -1767.276,-243.69 -1767.276,-178.767 -1731.672,-178.767 
				-1731.672,-153.917 			"/>
			<path fill="#FFFFFF" d="M-1770.276-240.69v64.924h35.604v18.85h-58.026v-83.773H-1770.276 M-1764.276-246.69h-6h-22.422h-6v6
				v83.773v6h6h58.026h6v-6v-18.85v-6h-6h-29.604v-58.924V-246.69L-1764.276-246.69z"/>
		</g>
		<g>
			<path d="M-1716.577-125.081c-5.827,0-11.279-2.587-14.957-7.096c-2.55-3.125-4.031-6.924-4.29-10.91
				c-3.852-1.051-7.276-3.263-9.829-6.389c-6.725-8.243-5.491-20.42,2.748-27.148c3.438-2.802,7.766-4.345,12.189-4.345
				c4.956,0,9.643,1.872,13.197,5.208l25.714-20.584l31.936,5.786l-40.908,35.128c2.658,3.788,3.855,8.353,3.385,13.004
				c-0.519,5.128-3.004,9.746-6.996,13.003C-1707.824-126.624-1712.152-125.081-1716.577-125.081L-1716.577-125.081z"/>
			<path fill="#FFFFFF" d="M-1690.996-193.149l24.393,4.419l-38.363,32.942c0.346,0.354,0.684,0.724,1.003,1.115
				c5.688,6.972,4.65,17.236-2.321,22.924c-3.026,2.467-6.67,3.668-10.292,3.668c-4.727,0-9.414-2.046-12.633-5.992
				c-2.734-3.351-3.898-7.463-3.612-11.465c-3.975-0.519-7.771-2.484-10.508-5.835c-5.689-6.975-4.646-17.236,2.322-22.927
				c3.026-2.467,6.671-3.668,10.292-3.668c4.727,0,9.413,2.045,12.635,5.993c0.086,0.104,0.153,0.213,0.237,0.318L-1690.996-193.149
				 M-1692.614-199.54l-2.132,1.707l-22.734,18.2c-3.78-2.79-8.396-4.334-13.235-4.334c-5.112,0-10.114,1.782-14.084,5.018
				c-9.522,7.776-10.947,21.847-3.18,31.37c2.509,3.072,5.745,5.381,9.392,6.75c0.611,3.849,2.224,7.481,4.729,10.551
				c4.25,5.21,10.549,8.199,17.281,8.199c5.113,0,10.115-1.782,14.084-5.018c4.614-3.765,7.486-9.101,8.086-15.027
				c0.449-4.45-0.422-8.832-2.479-12.693l34.191-29.36l9.561-8.21l-12.4-2.246l-24.393-4.419L-1692.614-199.54L-1692.614-199.54z"/>
		</g>
		<g>
			<path fill="#FFFFFF" d="M-1718.853-197.856c0-22.999,18.96-39.04,40.947-39.04s40.947,16.041,40.947,39.04
				c0,22.997-18.96,39.152-40.947,39.152S-1718.853-174.859-1718.853-197.856z"/>
			<path d="M-1722.872-197.862c0-25.256,20.819-42.872,44.967-42.872s44.967,17.616,44.967,42.872
				c0,25.255-20.819,42.996-44.967,42.996S-1722.872-172.607-1722.872-197.862z M-1655.853-197.862
				c0-13.182-8.009-23.407-22.053-23.407s-22.053,10.226-22.053,23.407c0,13.183,8.009,23.531,22.053,23.531
				S-1655.853-184.68-1655.853-197.862z"/>
		</g>
		<path d="M-1524.647-240.69h58.766v18.848h-36.344v13.8h30.307v17.862h-30.307v14.414h38.068v18.85h-60.49V-240.69z"/>
	</g>
	
		<text transform="matrix(1 0 0 1 -3131.042 372.249)" font-family="'Neutraface2Display-Titling'" font-size="62" letter-spacing="2">Ludwig UI</text>
	
		<text transform="matrix(1 0 0 1 -3086.7617 -451.9263)" font-family="'Neutraface2Display-Bold'" font-size="79.6" letter-spacing="4">CUTTER &amp; DENG</text>
	<g>
		<g>
			<path d="M-2978.154,295.179l-39.001-5.225l11.979-11.567l-54.917-16.459l-50.06,11.709l35.071-54.552
				c-4.144-1.124-8.834-2.792-13.46-5.26c-14.264-7.608-23.209-20.768-24.183-22.243l-3.827-5.808l17.088-23.548l-19.756-58.239
				l2.145-3.885c0.06-0.114,8.973-17.241,5.709-40.769c-4.389-31.63,14.515-55.08,15.321-56.062l10.696-13.036l6.38,15.611
				c0.025,0.059,4.991,11.49,14.311,15.205c11.414,4.55,20.127,15.493,25.082,23.116l44.015-4.853l35.15,18.945l35.977-18.94
				l44.05,4.857c3.819-5.48,10.741-13.635,21.638-20.499c12.771-8.046,17.846-18.247,17.896-18.349l8.337-17.711l9.527,17.149
				c1.717,3.09,16.7,30.863,14.351,54.191c-1.844,18.3,6.292,42.507,6.374,42.75l1.107,3.236l-19.43,57.282l16.486,22.717
				l-2.516,5.37c-0.706,1.507-7.448,14.948-26.693,23.465c-4.21,1.862-8.255,3.413-12.092,4.635l35.504,55.224l-50.059-11.709
				l-54.919,16.459l11.923,11.513l-39.25,5.376l-17.807,8.639L-2978.154,295.179z"/>
			<path d="M-2832.144-1.367l4.764,8.574c0.653,1.176,15.978,29.06,13.743,51.247c-1.965,19.506,6.532,44.625,6.618,44.876
				l0.555,1.621l-19.715,58.123l16.271,22.422l-1.258,2.686c-0.249,0.531-6.295,13.088-24.176,21
				c-7.627,3.375-13.626,5.209-17.979,6.205l32.485,50.529l-39.279-9.188l-64.428,19.309l10.653,10.287l-29.786,4.08l-16.341,7.928
				l-16.68-8.029l-29.494-3.951l10.682-10.314l-64.427-19.309l-39.279,9.188l32.271-50.197c-5.308-0.875-12.369-2.666-19.234-6.328
				c-13.404-7.15-21.992-20.031-22.352-20.576l-1.913-2.902l16.572-22.838l-19.878-58.6l1.072-1.942
				c0.092-0.17,9.822-18.401,6.287-43.889c-4.088-29.467,13.478-51.269,14.228-52.183l5.349-6.518l3.189,7.805
				c0.051,0.121,5.68,13.419,17.103,17.972c11.813,4.709,20.751,17.789,24.356,23.789l45.596-5.027l36.129,19.473l36.983-19.47
				l45.571,5.024c2.972-4.777,9.787-14.001,21.815-21.578c14.24-8.971,19.692-20.309,19.746-20.422L-2832.144-1.367
				 M-2832.884-23.398l-8.355,17.75l-4.134,8.782c-0.295,0.57-4.957,9.301-16.053,16.291c-10.078,6.349-16.981,13.755-21.302,19.436
				l-39.625-4.369l-3.061-0.337l-2.724,1.434l-32.245,16.976l-31.415-16.932l-2.758-1.486l-3.113,0.343l-39.439,4.348
				c-5.529-7.921-14.317-17.923-25.688-22.456c-6.034-2.405-10.364-9.811-11.558-12.53l-3.151-7.712l-6.379-15.611l-10.698,13.037
				l-5.349,6.518c-2.163,2.636-21.021,26.727-16.413,59.941c2.945,21.24-4.746,36.879-5.188,37.753l-1.015,1.838l-2.145,3.885
				l1.426,4.202l18.207,53.676l-13.518,18.629l-4.086,5.63l3.828,5.807l1.913,2.902c1.047,1.587,10.656,15.722,26.014,23.913
				c2.562,1.366,5.25,2.575,8.054,3.621l-24.815,38.599l-13.422,20.878l24.167-5.653l36.671-8.577l45.408,13.609l-13.276,12.819
				l20.598,2.76l27.909,3.738l15.239,7.336l4.377,2.107l4.371-2.12l14.902-7.23l28.201-3.862l20.512-2.81l-13.191-12.738
				l45.409-13.609l36.671,8.577l24.167,5.653l-13.422-20.878l-25.354-39.436c2.109-0.808,4.264-1.698,6.458-2.669
				c20.919-9.257,28.424-24.248,29.211-25.927l1.259-2.688l2.515-5.369l-3.482-4.799l-13.217-18.213l18.045-53.198l1.1-3.243
				l-1.109-3.24l-0.555-1.621c-0.072-0.217-7.855-23.456-6.127-40.614c2.503-24.853-13.162-53.905-14.957-57.136l-4.764-8.575
				L-2832.884-23.398L-2832.884-23.398z"/>
		</g>
		<g>
			<polyline fill="#FFFFFF" stroke="#000000" stroke-width="10.0527" stroke-linecap="square" stroke-miterlimit="10" points="
				-3060.553,185.918 -3060.553,251.426 -2960.457,281.426 -2860.362,251.426 -2860.362,185.918 			"/>
			<g>
				<polygon fill="#FFFFFF" stroke="#000000" stroke-width="10.0527" stroke-miterlimit="10" points="-2960.457,292.75 
					-2945.582,285.533 -2925.26,282.75 -2947.858,260.928 -2960.457,239.107 -2973.057,260.928 -2995.655,282.75 -2975.668,285.428 
									"/>
				<polyline fill="#FFFFFF" stroke="#000000" stroke-width="6" stroke-miterlimit="10" points="-2969.888,275.426 
					-2975.668,285.428 -2960.457,292.75 -2945.582,285.533 -2951.27,275.43 				"/>
			</g>
			<polyline fill="#FFFFFF" stroke="#000000" stroke-width="6" stroke-linecap="square" stroke-miterlimit="10" points="
				-3060.553,173.918 -3060.553,239.426 -2960.457,269.426 -2860.362,239.426 -2860.362,173.918 			"/>
			<polyline fill="#FFFFFF" stroke="#000000" stroke-width="6" stroke-linecap="square" stroke-miterlimit="10" points="
				-3060.553,163.918 -3060.553,229.426 -2960.457,259.426 -2860.362,229.426 -2860.362,163.918 			"/>
			<g>
				<polyline fill="#FFFFFF" stroke="#000000" stroke-width="6" stroke-linecap="square" stroke-miterlimit="10" points="
					-3060.553,153.918 -3060.553,219.426 -2960.457,249.426 -2860.362,219.426 -2860.362,153.918 				"/>
				<polyline fill="#FFFFFF" stroke="#000000" stroke-width="6" stroke-linecap="square" stroke-miterlimit="10" points="
					-3060.553,143.918 -3060.553,209.426 -2960.457,239.426 -2860.362,209.426 -2860.362,143.918 				"/>
			</g>
			<path fill="#FFFFFF" stroke="#000000" stroke-width="10.0527" stroke-miterlimit="10" d="M-2922.908,49.649l47.326,5.218
				c0,0,6.111-12.826,21.76-22.684s21.615-22.534,21.615-22.534s15.238,27.427,13.136,48.302s6.864,47.01,6.864,47.01l-20,58.961
				l16.057,22.127c0,0-5.291,11.295-21.657,18.535c-16.366,7.242-24.399,6.947-24.399,6.947l30,46.664l-128.25-30l-128.25,30
				l30-46.664c0,0-13.107,0.055-25.537-6.576c-12.43-6.629-20.52-18.906-20.52-18.906l16.057-22.127l-20-58.961
				c0,0,10.697-19.381,6.865-47.008s13.135-48.304,13.135-48.304s6.254,15.303,19.894,20.74s23.481,24.478,23.481,24.478
				l47.326-5.218l37.107,20L-2922.908,49.649z"/>
			<g>
				<g>
					<polyline fill="#FFFFFF" stroke="#000000" stroke-width="10.0527" stroke-linecap="square" stroke-miterlimit="10" points="
						-3060.553,124.918 -3060.553,190.426 -2960.457,240.426 -2860.362,190.426 -2860.362,124.918 					"/>
					<g>
						<g>
							<polyline fill="#FFFFFF" stroke="#000000" stroke-width="10.0527" stroke-linecap="square" stroke-miterlimit="10" points="
								-2873.193,94.969 -2882.203,117.453 -2895.508,129.878 							"/>
							<polyline fill="#FFFFFF" stroke="#000000" stroke-width="10.0527" stroke-linecap="square" stroke-miterlimit="10" points="
								-2852.102,108.26 -2857.225,117.453 -2865.219,124.918 							"/>
							<polyline fill="#FFFFFF" stroke="#000000" stroke-width="10.0527" stroke-linecap="square" stroke-miterlimit="10" points="
								-2906.498,94.969 -2915.508,117.453 -2928.812,129.878 							"/>
						</g>
						<g>
							<polyline fill="#FFFFFF" stroke="#000000" stroke-width="10.0527" stroke-linecap="square" stroke-miterlimit="10" points="
								-3047.721,94.969 -3038.711,117.453 -3025.406,129.878 							"/>
							<polyline fill="#FFFFFF" stroke="#000000" stroke-width="10.0527" stroke-linecap="square" stroke-miterlimit="10" points="
								-3068.812,108.26 -3063.691,117.453 -3055.695,124.918 							"/>
							<polyline fill="#FFFFFF" stroke="#000000" stroke-width="10.0527" stroke-linecap="square" stroke-miterlimit="10" points="
								-3014.416,94.969 -3005.406,117.453 -2992.102,129.878 							"/>
						</g>
					</g>
				</g>
				
					<line fill="#FFFFFF" stroke="#000000" stroke-width="10.0527" stroke-linecap="square" stroke-miterlimit="10" x1="-2960.457" y1="67.952" x2="-2960.457" y2="118.567"/>
			</g>
			<polyline fill="#FFFFFF" stroke="#000000" stroke-width="10.0527" stroke-miterlimit="10" points="-2984.873,212.996 
				-2978.164,203.436 -2945.383,203.436 -2938.674,212.996 			"/>
			<polyline fill="#FFFFFF" stroke="#000000" stroke-width="10.0527" stroke-miterlimit="10" points="-2972.164,187.436 
				-2961.694,191.436 -2951.383,187.436 			"/>
			<polyline fill="#FFFFFF" stroke="#000000" stroke-width="10.0527" stroke-miterlimit="10" points="-2981.383,171.436 
				-3011.853,151.436 -3012.164,171.436 			"/>
			<rect x="-2999.744" y="169.725" width="12.971" height="12.971"/>
			<g>
				<polyline fill="#FFFFFF" stroke="#000000" stroke-width="10.0527" stroke-miterlimit="10" points="-2942.164,171.436 
					-2911.694,151.436 -2911.383,171.436 				"/>
				<rect x="-2936.773" y="169.725" width="12.971" height="12.971"/>
			</g>
		</g>
	</g>
	<g>
		<g>
			<path d="M-2752.499-205.825c-1.577-0.304-2.747-1.34-3.132-2.717c-0.384-1.376,0.081-2.868,1.213-3.891l57.099-48.914
				c-5.922-8.208-4.486-19.75,3.454-26.229c3.435-2.802,7.763-4.345,12.187-4.345c5.825,0,11.276,2.586,14.958,7.096
				c2.55,3.125,4.03,6.924,4.288,10.91c3.854,1.052,7.278,3.266,9.829,6.391c6.725,8.243,5.491,20.42-2.75,27.146
				c-3.43,2.797-7.75,4.338-12.167,4.338c-4.426,0-8.711-1.533-12.119-4.275l-21.162,17.312l2.494,0.327l-22.173,22.172
				L-2752.499-205.825z"/>
			<path fill="#FFFFFF" d="M-2681.679-288.921c4.725,0,9.412,2.046,12.634,5.993c2.733,3.35,3.897,7.462,3.61,11.463
				c3.977,0.521,7.771,2.486,10.507,5.838c5.689,6.974,4.648,17.235-2.322,22.925c-3.021,2.464-6.656,3.662-10.271,3.662
				c-4.419,0-8.806-1.792-11.993-5.254l-28.561,23.364l3.34,0.438l-16.776,16.776l-30.496-5.068
				c-0.812-0.157-1.012-0.87-0.399-1.424l59.316-50.812c-0.421-0.412-0.823-0.844-1.203-1.309
				c-5.688-6.975-4.648-17.233,2.324-22.924C-2688.943-287.72-2685.3-288.921-2681.679-288.921 M-2681.678-294.921
				L-2681.678-294.921c-5.113,0-10.115,1.782-14.084,5.02c-8.44,6.889-10.521,18.726-5.474,27.959l-55.074,47.177l-0.062,0.052
				l-0.06,0.054c-1.98,1.791-2.781,4.443-2.09,6.922c0.691,2.479,2.751,4.335,5.374,4.843l0.078,0.015l0.078,0.013l30.496,5.068
				l3.044,0.506l2.183-2.182l16.775-16.776l8.611-8.61l-1.649-0.216l14.015-11.465c3.553,2.261,7.718,3.5,11.995,3.5
				c5.105,0,10.1-1.78,14.062-5.013c9.523-7.773,10.949-21.844,3.18-31.367c-2.507-3.071-5.742-5.38-9.39-6.75
				c-0.61-3.849-2.223-7.481-4.729-10.551C-2668.649-291.932-2674.948-294.92-2681.678-294.921L-2681.678-294.921z"/>
		</g>
		<path d="M-2989.637-260.69h58.766v18.848h-36.344v13.8h30.307v17.862h-30.307v14.414h38.068v18.85h-60.49V-260.69z"/>
		<path d="M-2910.913-260.69h22.422v64.924h35.604v18.85h-58.026V-260.69z"/>
		<g>
			<path d="M-2617.945-172.809c-26.137,0-46.611-20.204-46.611-45.995c0-25.723,19.933-45.872,45.379-45.872
				c16.989,0,30.011,6.494,38.703,19.302l1.685,2.482l-21.893,14.861l-1.668-2.566c-2.606-4.011-6.833-8.614-16.457-8.614
				c-11.63,0-16.835,10.25-16.835,20.408c0,10.219,5.434,20.53,17.573,20.53c8.31,0,13.255-2.897,17.069-10l1.535-2.859
				l22.41,14.407l-1.476,2.489C-2587.197-179.618-2599.722-172.809-2617.945-172.809z"/>
			<path fill="#FFFFFF" d="M-2619.178-261.676c18.11,0,29.197,7.638,36.221,17.986l-16.878,11.457
				c-3.203-4.928-8.378-9.979-18.973-9.979c-12.319,0-19.835,10.226-19.835,23.408s7.762,23.53,20.573,23.53
				c10.842,0,16.14-4.929,19.712-11.581l17.247,11.088c-8.254,13.922-19.834,19.958-36.835,19.958
				c-23.53,0-43.611-17.74-43.611-42.995C-2661.557-244.06-2641.599-261.676-2619.178-261.676 M-2619.178-267.676
				c-12.703,0-24.698,4.851-33.775,13.659c-9.417,9.138-14.604,21.643-14.604,35.213c0,13.644,5.271,26.184,14.841,35.311
				c9.255,8.825,21.604,13.685,34.771,13.685c19.39,0,32.734-7.276,41.996-22.898l2.951-4.978l-4.868-3.129l-17.246-11.088
				l-5.46-3.51l-3.071,5.719c-2.714,5.054-6.205,8.419-14.426,8.419c-10.757,0-14.573-9.443-14.573-17.53
				c0-8.03,3.623-17.408,13.835-17.408c8.133,0,11.611,3.665,13.942,7.25l3.336,5.132l5.064-3.438l16.878-11.457l4.964-3.37
				l-3.369-4.964C-2587.277-260.739-2601.134-267.676-2619.178-267.676L-2619.178-267.676z"/>
		</g>
		<path d="M-2468.629-241.843h-22.175v-18.848h66.772v18.848h-22.176v64.926h-22.422V-241.843z"/>
		<g>
			<g>
				<path d="M-2728.708-104.523v-55.636h14.959v0.338c1.72-0.696,3.854-1.143,6.498-1.143c9.771,0,17.424,8.401,17.424,19.126
					c0,10.726-7.653,19.127-17.424,19.127c-2.644,0-4.778-0.447-6.498-1.144v19.331H-2728.708z M-2709.581-147.081
					c-3.593,0-4.347,2.851-4.347,5.243c0,2.392,0.754,5.242,4.347,5.242c3.938,0,4.526-3.284,4.526-5.242
					C-2705.055-143.415-2705.496-147.081-2709.581-147.081z"/>
				<path fill="#FFFFFF" d="M-2707.251-157.964c7.974,0,14.424,6.809,14.424,16.126s-6.45,16.127-14.424,16.127
					c-4.659,0-7.794-1.613-9.498-4.301v22.488h-8.959v-49.636h8.959v3.495C-2715.045-156.353-2711.91-157.964-2707.251-157.964
					 M-2709.581-133.596c4.569,0,7.526-3.225,7.526-8.242s-2.957-8.243-7.526-8.243c-4.568,0-7.347,3.226-7.347,8.243
					S-2714.149-133.596-2709.581-133.596 M-2707.251-163.964c-2.143,0-4.141,0.274-5.961,0.805h-3.537h-8.959h-6v6v49.636v6h6h8.959
					h6v-6v-12.448c1.115,0.173,2.284,0.261,3.498,0.261c11.453,0,20.424-9.719,20.424-22.127
					C-2686.827-154.245-2695.798-163.964-2707.251-163.964L-2707.251-163.964z M-2709.581-139.596c-0.662,0-1.347,0-1.347-2.242
					c0-2.243,0.685-2.243,1.347-2.243c0.716,0,1.526,0,1.526,2.243C-2708.055-139.596-2708.865-139.596-2709.581-139.596
					L-2709.581-139.596z"/>
			</g>
			<g>
				<rect x="-2684.356" y="-193.129" width="14.959" height="69.611"/>
				<path fill="#FFFFFF" d="M-2672.397-190.129v63.611h-8.959v-63.611H-2672.397 M-2666.397-196.129h-6h-8.959h-6v6v63.611v6h6
					h8.959h6v-6v-63.611V-196.129L-2666.397-196.129z"/>
			</g>
			<g>
				<path d="M-2650.088-122.711c-8.733,0-14.377-5.187-14.377-13.214c0-4.666,2.429-8.271,6.582-10.253l-6.257-5.744l1.949-2.206
					c4.008-4.536,9.256-6.836,15.598-6.836c10.686,0,17.065,6.179,17.065,16.528v20.918h-14.959v-0.146
					C-2646.174-123.034-2648.053-122.711-2650.088-122.711z"/>
				<path fill="#FFFFFF" d="M-2646.593-157.964c8.689,0,14.065,4.479,14.065,13.528v17.918h-8.959v-2.776
					c-2.061,2.418-5.018,3.583-8.602,3.583c-6.182,0-11.377-3.046-11.377-10.214c0-6.002,5.285-8.959,12.005-8.959h7.974
					c-0.089-4.121-2.419-5.556-5.644-5.556c-3.227,0-5.556,1.256-7.348,3.315l-5.465-5.018
					C-2656.538-155.994-2652.059-157.964-2646.593-157.964 M-2648.475-132.879c4.032,0,6.988-2.149,6.988-4.658v-1.255h-7.526
					c-2.328,0-3.584,1.165-3.584,2.957C-2652.597-134.133-2651.432-132.879-2648.475-132.879 M-2646.593-163.964
					c-7.137,0-13.309,2.714-17.846,7.849l-3.898,4.412l4.337,3.981l1.265,1.162c-3.01,2.61-4.729,6.274-4.729,10.636
					c0,9.698,6.983,16.214,17.377,16.214c2.025,0,3.927-0.272,5.681-0.807h2.921h8.959h6v-6v-17.918
					C-2626.527-156.481-2634.216-163.964-2646.593-163.964L-2646.593-163.964z"/>
			</g>
			<g>
				<path d="M-2608.514-122.711c-4.868,0-13.035-1.868-13.035-14.379v-9.633h-3.584v-13.437h3.584v-11.02h14.959v11.02h7.168v13.437
					h-7.168v9.454c0,0.278,0.01,0.505,0.024,0.689c0.122-0.07,0.273-0.17,0.462-0.311l2.749-2.063l6.385,11.461l-1.933,1.59
					C-2601.478-123.785-2604.711-122.711-2608.514-122.711z"/>
				<path fill="#FFFFFF" d="M-2609.59-168.179v11.02h7.168v7.437h-7.168v12.454c0,3.136,0.985,3.853,2.599,3.853
					c1.075,0,1.972-0.537,2.688-1.075l3.494,6.271c-1.524,1.254-3.943,2.509-7.705,2.509c-5.824,0-10.035-2.867-10.035-11.379
					v-12.633h-3.584v-7.437h3.584v-11.02H-2609.59 M-2603.59-174.179h-6h-8.959h-6v6v5.02h-3.584v6v7.437v6h3.584v6.633
					c0,10.882,5.994,17.379,16.035,17.379c4.452,0,8.435-1.34,11.517-3.875l3.866-3.181l-2.437-4.374l-3.494-6.271l-3.346-6.005
					l-1.183,0.888v-1.194h1.168h6v-6v-7.437v-6h-6h-1.168v-5.02V-174.179L-2603.59-174.179z"/>
			</g>
			<g>
				<path d="M-2592.966-123.518v-23.205h-3.583v-13.437h3.583v-19.218c0-9.059,4.974-14.468,13.304-14.468
					c4.771,0,8.251,1.436,10.948,4.517l1.744,1.991l-9.216,10.367l-1.82-2.428v19.238h7.347v13.437h-7.347v23.205H-2592.966z"/>
				<path fill="#FFFFFF" d="M-2579.662-190.845c4.301,0,6.81,1.344,8.691,3.493l-5.018,5.645c-0.538-0.718-1.434-1.255-2.777-1.255
					c-1.165,0-2.24,0.807-2.24,3.495v22.308h7.347v7.437h-7.347v23.205h-8.96v-23.205h-3.583v-7.437h3.583v-22.218
					C-2589.966-186.993-2586.022-190.845-2579.662-190.845 M-2579.662-196.845c-9.904,0-16.304,6.856-16.304,17.468v16.218h-3.583v6
					v7.437v6h3.583v17.205v6h6h8.96h6v-6v-17.205h1.347h6v-6v-7.437v-6h-6h-1.347v-10.622l3.502-3.939l5.018-5.645l3.517-3.956
					l-3.486-3.982C-2569.721-195.032-2574.04-196.845-2579.662-196.845L-2579.662-196.845z"/>
			</g>
			<g>
				<path d="M-2548.392-122.711c-11.262,0-19.754-8.223-19.754-19.127c0-10.904,8.492-19.126,19.754-19.126
					c11.261,0,19.753,8.222,19.753,19.126C-2528.639-130.934-2537.131-122.711-2548.392-122.711z M-2548.392-147.349
					c-4.199,0-4.525,4.218-4.525,5.511s0.326,5.512,4.525,5.512c4.2,0,4.526-4.219,4.526-5.512S-2544.191-147.349-2548.392-147.349z
					"/>
				<path fill="#FFFFFF" d="M-2548.392-157.964c9.407,0,16.753,6.809,16.753,16.126s-7.346,16.127-16.753,16.127
					c-9.408,0-16.754-6.81-16.754-16.127S-2557.8-157.964-2548.392-157.964 M-2548.392-133.326c4.659,0,7.526-3.585,7.526-8.512
					c0-4.928-2.867-8.511-7.526-8.511c-4.658,0-7.525,3.583-7.525,8.511C-2555.917-136.911-2553.05-133.326-2548.392-133.326
					 M-2548.392-163.964c-6.128,0-11.825,2.21-16.041,6.223c-4.329,4.119-6.713,9.767-6.713,15.903s2.384,11.784,6.713,15.904
					c4.216,4.013,9.913,6.223,16.041,6.223c6.127,0,11.824-2.21,16.041-6.223c4.328-4.12,6.712-9.768,6.712-15.904
					s-2.384-11.784-6.712-15.903C-2536.567-161.754-2542.265-163.964-2548.392-163.964L-2548.392-163.964z M-2548.392-139.326
					c-0.417,0-1.525,0-1.525-2.512c0-2.511,1.108-2.511,1.525-2.511c0.418,0,1.526,0,1.526,2.511
					C-2546.865-139.326-2547.974-139.326-2548.392-139.326L-2548.392-139.326z"/>
			</g>
			<g>
				<path d="M-2523.347-123.518v-36.642h14.959v0.49c1.712-0.852,3.656-1.295,5.78-1.295c2.361,0,4.459,0.585,6.412,1.79
					l2.096,1.292l-4.926,13.241l-3.034-1.635c-0.836-0.45-1.517-0.626-2.43-0.626c-1.458,0-3.898,0-3.898,5.959v17.425H-2523.347z"
					/>
				<path fill="#FFFFFF" d="M-2502.607-157.964c2.15,0,3.674,0.626,4.838,1.344l-2.866,7.704c-1.165-0.628-2.33-0.985-3.854-0.985
					c-4.3,0-6.898,2.599-6.898,8.959v14.425h-8.959v-30.642h8.959v4.749C-2509.326-156.62-2505.833-157.964-2502.607-157.964
					 M-2502.607-163.964c-1.812,0-3.535,0.275-5.135,0.805h-3.646h-8.959h-6v6v30.642v6h6h8.959h6v-6v-14.425
					c0-1.664,0.247-2.573,0.404-2.925c0.104-0.017,0.264-0.034,0.494-0.034c0.411,0,0.608,0.052,1.007,0.267l6.067,3.27l2.402-6.459
					l2.867-7.704l1.717-4.615l-4.191-2.584C-2497.062-163.232-2499.674-163.964-2502.607-163.964L-2502.607-163.964z"/>
			</g>
			<g>
				<path d="M-2451.134-123.518v-20.829c0-2.555-0.485-2.555-1.927-2.555c-1.702,0-3.004,0.287-3.004,3.898v19.485h-14.959v-20.829
					c0-2.555-0.485-2.555-1.927-2.555c-1.702,0-3.004,0.287-3.004,3.898v19.485h-14.959v-36.642h14.959v0.223
					c1.659-0.68,3.536-1.027,5.602-1.027c3.688,0,6.738,1.192,9,3.486c2.828-2.34,6.395-3.486,10.801-3.486
					c8.6,0,14.378,6.318,14.378,15.722v21.725H-2451.134z"/>
				<path fill="#FFFFFF" d="M-2450.552-157.964c7.078,0,11.378,5.016,11.378,12.722v18.725h-8.96v-17.829
					c0-3.493-1.164-5.555-4.927-5.555c-4.032,0-6.004,2.329-6.004,6.898v16.485h-8.959v-17.829c0-3.493-1.165-5.555-4.927-5.555
					c-4.032,0-6.004,2.329-6.004,6.898v16.485h-8.959v-30.642h8.959v3.495c1.883-2.956,4.839-4.3,8.602-4.3
					c4.122,0,6.988,1.791,8.69,5.195C-2459.064-156.353-2455.479-157.964-2450.552-157.964 M-2450.552-163.964
					c-4.098,0-7.655,0.909-10.642,2.712c-2.536-1.776-5.643-2.712-9.159-2.712c-2.115,0-3.955,0.301-5.553,0.805h-3.049h-8.959h-6v6
					v30.642v6h6h8.959h6h4.931h8.959h6h4.931h8.96h6v-6v-18.725C-2433.174-156.44-2440.157-163.964-2450.552-163.964
					L-2450.552-163.964z"/>
			</g>
		</g>
		<g>
			<g>
				<path d="M-3045.076-172.501c-1.427,0-2.738-0.847-3.421-2.209l-31.75-68.159c-2.139,0.789-4.368,1.188-6.646,1.188
					c-7.671,0-14.613-4.542-17.687-11.572c-4.257-9.749,0.209-21.145,9.955-25.404c2.443-1.067,5.027-1.609,7.681-1.609
					c1.342,0,2.673,0.139,3.98,0.415c2.05-3.427,5.104-6.13,8.801-7.747c2.458-1.074,5.055-1.618,7.717-1.618
					c7.673,0,14.615,4.542,17.688,11.571c3.688,8.443,0.829,18.202-6.474,23.409l10.979,25.037l10.318-24.229
					c-8.123-4.923-11.569-15.264-7.661-24.215c3.073-7.03,10.017-11.572,17.689-11.572c2.663,0,5.259,0.544,7.717,1.618
					c3.696,1.617,6.749,4.32,8.799,7.747c1.309-0.275,2.64-0.415,3.98-0.415c2.653,0,5.238,0.542,7.682,1.608
					c9.749,4.261,14.214,15.657,9.955,25.404c-3.071,7.03-10.014,11.573-17.686,11.573h-0.001c-2.188,0-4.331-0.368-6.389-1.094
					l-31.77,67.991C-3042.338-173.348-3043.649-172.501-3045.076-172.501z"/>
				<path fill="#FFFFFF" d="M-3023.907-286.217c2.178,0,4.392,0.439,6.516,1.367c3.963,1.733,6.877,4.86,8.449,8.549
					c1.763-0.632,3.634-0.965,5.531-0.965c2.167,0,4.368,0.435,6.481,1.358c8.244,3.604,12.009,13.208,8.406,21.453
					c-2.675,6.123-8.657,9.774-14.938,9.774c-2.178,0-4.393-0.44-6.517-1.368c-0.464-0.203-0.909-0.427-1.343-0.666l-33.017,70.66
					c-0.185,0.369-0.462,0.554-0.739,0.554s-0.555-0.185-0.739-0.554l-32.979-70.799c-0.509,0.292-1.033,0.563-1.583,0.805
					c-2.124,0.928-4.338,1.368-6.517,1.368c-6.278,0-12.262-3.652-14.938-9.774c-3.601-8.245,0.161-17.85,8.407-21.453
					c2.112-0.923,4.313-1.358,6.48-1.358c1.897,0,3.769,0.334,5.531,0.965c1.572-3.69,4.486-6.815,8.451-8.549
					c2.124-0.928,4.337-1.367,6.516-1.367c6.278,0,12.262,3.652,14.938,9.772c3.469,7.941,0.095,17.125-7.523,21.014l14.817,33.793
					l14.144-33.211c-0.123-0.051-0.247-0.087-0.37-0.142c-8.245-3.604-12.008-13.207-8.407-21.454
					C-3036.172-282.565-3030.188-286.217-3023.907-286.217 M-3023.907-292.217L-3023.907-292.217
					c-8.864,0-16.888,5.248-20.438,13.369c-0.319,0.732-0.597,1.473-0.832,2.219c-0.235-0.746-0.512-1.485-0.832-2.217
					c-3.55-8.122-11.571-13.37-20.436-13.371c-3.078,0-6.079,0.629-8.918,1.869c-3.633,1.588-6.729,4.083-9.029,7.228
					c-0.846-0.097-1.696-0.146-2.551-0.146c-3.07,0-6.059,0.626-8.883,1.86c-11.262,4.921-16.422,18.089-11.504,29.353
					c3.552,8.124,11.573,13.373,20.437,13.373c1.702,0,3.38-0.192,5.021-0.574l30.619,65.734l0.036,0.078l0.038,0.077
					c1.195,2.384,3.534,3.865,6.104,3.865s4.908-1.481,6.104-3.865l0.037-0.074l0.034-0.075l30.689-65.68
					c1.555,0.341,3.142,0.513,4.751,0.513c8.865,0,16.887-5.249,20.436-13.372c4.921-11.262-0.238-24.43-11.501-29.353
					c-2.827-1.235-5.815-1.86-8.885-1.86c-0.854,0-1.706,0.049-2.551,0.146c-2.301-3.144-5.395-5.639-9.025-7.227
					C-3017.828-291.588-3020.828-292.216-3023.907-292.217L-3023.907-292.217z M-3051.562-253.338
					c3.02-2.707,5.197-6.157,6.382-9.928c1.332,4.248,3.92,8.083,7.528,10.907l-6.642,15.597L-3051.562-253.338L-3051.562-253.338z"
					/>
			</g>
		</g>
		<g>
			<path d="M-2659.194-172.965c-0.9,0-1.811-0.064-2.707-0.19c-5.102-0.716-9.62-3.377-12.722-7.492
				c-2.812-3.733-4.154-8.257-3.844-12.874l-49.29-8.191l21.946-21.946l31.131,4.075c2.323-8.202,9.885-14.085,18.551-14.085
				c0.898,0,1.808,0.063,2.703,0.189c10.533,1.482,17.899,11.257,16.422,21.79c-0.562,3.994-2.345,7.662-5.095,10.56
				c1.846,3.542,2.549,7.559,1.987,11.555C-2641.441-180.106-2649.646-172.965-2659.194-172.965L-2659.194-172.965z"/>
			<path fill="#FFFFFF" d="M-2656.129-230.669c0.754,0,1.518,0.052,2.286,0.16c8.909,1.254,15.118,9.49,13.868,18.402
				c-0.603,4.284-2.833,7.932-5.961,10.438c2.319,3.271,3.455,7.393,2.854,11.677c-1.144,8.141-8.119,14.027-16.112,14.027
				c-0.755,0-1.521-0.053-2.289-0.161c-8.909-1.251-15.118-9.488-13.865-18.399c0.069-0.5,0.164-0.991,0.28-1.473l-46.442-7.718
				l16.776-16.776l32.453,4.248c0.017-0.132,0.02-0.263,0.036-0.395C-2671.099-224.782-2664.124-230.669-2656.129-230.669
				 M-2656.129-236.669c-9.128,0-17.195,5.648-20.582,13.794l-27.244-3.566l-2.932-0.384l-2.09,2.09l-16.777,16.776l-8.248,8.249
				l11.508,1.913l41.016,6.816c0.241,4.365,1.768,8.565,4.46,12.139c3.584,4.755,8.805,7.83,14.701,8.658
				c1.033,0.145,2.084,0.219,3.123,0.219c11.035,0,20.517-8.25,22.054-19.192c0.552-3.927,0.048-7.87-1.424-11.477
				c2.409-3.063,3.979-6.713,4.531-10.637c1.707-12.172-6.805-23.466-18.974-25.179
				C-2654.042-236.596-2655.092-236.669-2656.129-236.669L-2656.129-236.669z"/>
		</g>
		<g>
			<path d="M-2784.577-203.333c-0.896,0-1.804-0.063-2.698-0.188c-10.533-1.481-17.899-11.256-16.421-21.79
				c0.561-3.997,2.343-7.666,5.092-10.563c-1.846-3.542-2.549-7.557-1.987-11.55c1.329-9.472,9.535-16.614,19.088-16.614
				c0.897,0,1.807,0.063,2.7,0.188c5.104,0.718,9.623,3.379,12.725,7.495c2.869,3.807,4.208,8.436,3.824,13.147l74.103,12.225
				c1.579,0.305,2.748,1.339,3.134,2.713c0.385,1.375-0.077,2.865-1.205,3.891l-21.955,18.854l-32.285-5.849l1.056-0.845
				l-27.066-3.836C-2769.199-208.539-2776.412-203.333-2784.577-203.333z"/>
			<path fill="#FFFFFF" d="M-2781.504-261.038c0.754,0,1.517,0.052,2.284,0.16c8.91,1.253,15.121,9.49,13.866,18.402
				c-0.082,0.594-0.204,1.173-0.349,1.74l77.062,12.713c0.812,0.157,1.01,0.869,0.399,1.424l-20.809,17.868l-24.393-4.419
				l1.33-1.064l-36.533-5.178c-1.542,7.635-8.262,13.059-15.932,13.059c-0.753,0-1.515-0.052-2.281-0.16
				c-8.91-1.253-15.118-9.49-13.867-18.401c0.602-4.284,2.826-7.933,5.958-10.441c-2.318-3.271-3.455-7.39-2.854-11.671
				C-2796.478-255.152-2789.5-261.038-2781.504-261.038 M-2781.504-267.038c-11.039,0-20.523,8.253-22.059,19.198
				c-0.552,3.922-0.048,7.864,1.425,11.471c-2.409,3.063-3.979,6.715-4.529,10.641c-1.709,12.171,6.803,23.466,18.974,25.177
				c1.033,0.145,2.081,0.218,3.116,0.218c8.59,0,16.269-4.985,19.953-12.429l17.921,2.54l-0.782,0.626l12.974,2.35l24.393,4.419
				l2.811,0.509l2.168-1.861l20.809-17.868l0.063-0.055l0.062-0.057c1.974-1.794,2.77-4.445,2.076-6.92
				c-0.693-2.475-2.751-4.327-5.37-4.834l-0.082-0.016l-0.082-0.014l-71.545-11.803c-0.19-4.462-1.724-8.766-4.475-12.415
				c-3.583-4.755-8.804-7.83-14.701-8.659C-2779.419-266.964-2780.467-267.038-2781.504-267.038L-2781.504-267.038z"/>
		</g>
		<g>
			<polygon points="-2838.145,-173.917 -2838.145,-263.69 -2809.723,-263.69 -2809.723,-198.767 -2774.118,-198.767 
				-2774.118,-173.917 			"/>
			<path fill="#FFFFFF" d="M-2812.723-260.69v64.924h35.604v18.85h-58.026v-83.773H-2812.723 M-2806.723-266.69h-6h-22.422h-6v6
				v83.773v6h6h58.026h6v-6v-18.85v-6h-6h-29.604v-58.924V-266.69L-2806.723-266.69z"/>
		</g>
		<g>
			<path d="M-2759.023-145.081c-5.827,0-11.279-2.587-14.957-7.096c-2.55-3.125-4.031-6.924-4.29-10.91
				c-3.852-1.051-7.276-3.263-9.829-6.389c-6.725-8.243-5.491-20.42,2.748-27.148c3.438-2.802,7.766-4.345,12.189-4.345
				c4.956,0,9.643,1.872,13.197,5.208l25.714-20.584l31.936,5.786l-40.908,35.128c2.658,3.788,3.855,8.353,3.385,13.004
				c-0.519,5.128-3.004,9.746-6.996,13.003C-2750.271-146.624-2754.599-145.081-2759.023-145.081L-2759.023-145.081z"/>
			<path fill="#FFFFFF" d="M-2733.442-213.149l24.393,4.419l-38.363,32.942c0.346,0.354,0.684,0.724,1.003,1.115
				c5.688,6.972,4.65,17.236-2.321,22.924c-3.026,2.467-6.67,3.668-10.292,3.668c-4.727,0-9.414-2.046-12.633-5.992
				c-2.734-3.351-3.898-7.463-3.612-11.465c-3.975-0.519-7.771-2.484-10.508-5.835c-5.689-6.975-4.646-17.236,2.322-22.927
				c3.026-2.467,6.671-3.668,10.292-3.668c4.727,0,9.413,2.045,12.635,5.993c0.086,0.104,0.153,0.213,0.237,0.318L-2733.442-213.149
				 M-2735.061-219.54l-2.132,1.707l-22.734,18.2c-3.78-2.79-8.396-4.334-13.235-4.334c-5.112,0-10.114,1.782-14.084,5.018
				c-9.522,7.776-10.947,21.847-3.18,31.37c2.509,3.072,5.745,5.381,9.392,6.75c0.611,3.849,2.224,7.481,4.729,10.551
				c4.25,5.21,10.549,8.199,17.281,8.199c5.113,0,10.115-1.782,14.084-5.018c4.614-3.765,7.486-9.101,8.086-15.027
				c0.449-4.45-0.422-8.832-2.479-12.693l34.191-29.36l9.561-8.21l-12.4-2.246l-24.393-4.419L-2735.061-219.54L-2735.061-219.54z"/>
		</g>
		<g>
			<path fill="#FFFFFF" d="M-2761.299-217.856c0-22.999,18.96-39.04,40.947-39.04s40.947,16.041,40.947,39.04
				c0,22.997-18.96,39.152-40.947,39.152S-2761.299-194.859-2761.299-217.856z"/>
			<path d="M-2765.318-217.862c0-25.256,20.819-42.872,44.967-42.872s44.967,17.616,44.967,42.872
				c0,25.255-20.819,42.996-44.967,42.996S-2765.318-192.607-2765.318-217.862z M-2698.299-217.862
				c0-13.182-8.009-23.407-22.053-23.407s-22.053,10.226-22.053,23.407c0,13.183,8.009,23.531,22.053,23.531
				S-2698.299-204.68-2698.299-217.862z"/>
		</g>
		<path d="M-2565.094-260.69h58.766v18.848h-36.344v13.8h30.307v17.862h-30.307v14.414h38.068v18.85h-60.49V-260.69z"/>
	</g>
	<path d="M-1009.896-504.68c0,12.545-7.546,19.699-20.386,19.699c-11.271,0-17.935-4.606-21.365-11.075l13.427-8.625
		c1.372,2.352,2.843,4.41,5.881,4.41c2.842,0,4.606-1.568,4.606-5.685v-46.651h17.837V-504.68z"/>
	<path d="M-963.824-519.283c0-10.487-6.371-18.622-17.543-18.622c-11.173,0-17.544,8.135-17.544,18.622s6.371,18.719,17.544,18.719
		C-970.195-500.564-963.824-508.796-963.824-519.283z"/>
	<path fill="#FFFFFF" d="M-909.128-513.186l-26.214-21.609v21.813l41.601,34.197c1.078,0.882,1.372,0.588,1.372-0.196v-20.181
		L-909.128-513.186z"/>
	<path d="M-935.59-519.186v33.225h-16.76v-67.527c0-0.588,0.294-1.078,1.372-0.196l41.85,34.499v-33.42h16.759v67.625
		c0,0.784-0.294,1.078-1.372,0.196L-935.59-519.186z"/>
	<polygon fill="#FFFFFF" points="-925.891,-497.961 -909.131,-497.961 -909.131,-527.341 -925.891,-540.804 	"/>
	<polygon fill="#FFFFFF" points="-915.891,-487.961 -899.131,-487.961 -899.131,-517.341 -915.891,-530.804 	"/>
	<polygon points="-920.891,-485.961 -904.131,-485.961 -904.131,-515.341 -920.891,-528.804 	"/>
	<path fill="#FFFFFF" d="M-908.128-551.352l-26.214-21.609v21.813l41.601,34.197c1.078,0.882,1.372,0.588,1.372-0.196v-20.181
		L-908.128-551.352z"/>
	<path d="M-852.801-552.606h19.602l13.133,24.404l13.133-24.404h18.72l-23.229,40.379v26.266h-17.837v-25.776L-852.801-552.606z"/>
	<path d="M-1057.175-406.941l29.5-50.67h-24.502v-14.995h51.846c0.589,0,0.784,0.196,0.294,0.98l-29.5,50.67h27.05v14.995h-54.394
		C-1057.469-405.961-1057.665-406.157-1057.175-406.941z"/>
	<path d="M-988.479-472.606h46.75v14.995h-28.912v10.977h24.109v14.211h-24.109v11.467h30.284v14.995h-48.122V-472.606z"/>
	<path d="M-909.979-405.961h-17.838v-66.645h26.952c16.955,0,26.364,9.997,26.364,23.62c0,8.821-4.215,15.779-12.153,19.406
		l13.819,23.62h-19.308l-11.761-20.875h-6.076V-405.961z M-901.746-440.459c6.076,0,9.311-3.038,9.311-8.527
		c0-5.488-3.234-8.526-9.311-8.526h-8.232v17.053H-901.746z"/>
	<path d="M-830.41-439.283c0-10.487-6.371-18.622-17.543-18.622c-11.173,0-17.544,8.135-17.544,18.622s6.371,18.719,17.544,18.719
		C-836.781-420.564-830.41-428.796-830.41-439.283z"/>
	<path d="M-407.937-464.68c0,12.545-7.546,19.699-20.386,19.699c-11.271,0-17.935-4.606-21.365-11.075l13.427-8.625
		c1.372,2.352,2.842,4.41,5.881,4.41c2.842,0,4.606-1.568,4.606-5.685v-46.651h17.837V-464.68z"/>
	<path d="M-430.249-446.002l29.921-51.395h-24.851v-15.209h52.586c0.598,0,0.795,0.199,0.299,0.994l-29.922,51.395h27.438v15.209
		h-55.173C-430.548-445.008-430.747-445.206-430.249-446.002z"/>
	<path d="M-158.579-439.217v15.209h61.936v-15.209H-158.579z"/>
	<path d="M-142.45-464.68c0,12.545-7.546,19.699-20.386,19.699c-11.271,0-17.935-4.606-21.366-11.075l13.428-8.625
		c1.372,2.352,2.843,4.41,5.881,4.41c2.842,0,4.606-1.568,4.606-5.685v-46.651h17.837V-464.68z"/>
	<path fill="#FFFFFF" d="M-161.763-442.002l29.921-51.395h-0.851v-15.209h28.586c0.598,0,0.795,0.199,0.299,0.994l-29.922,51.395
		h27.438v15.209h-55.173C-162.062-441.008-162.261-441.206-161.763-442.002z"/>
	<path d="M-877.669-552.606v33.42l-41.85-34.499c-1.078-0.882-1.372-0.392-1.372,0.196v24.684l16.76,13.463v-3.845l41.849,34.401
		c1.078,0.882,1.372,0.588,1.372-0.196v-67.625H-877.669z"/>
	<path d="M-151.763-446.002l29.921-51.395h-24.851v-15.209h52.586c0.598,0,0.795,0.199,0.299,0.994l-29.922,51.395h27.438v15.209
		h-55.173C-152.062-445.008-152.261-445.206-151.763-446.002z"/>
	
		<text transform="matrix(1 0 0 1 -1271.5225 -168.9609)" font-family="'Neutraface2Display-Titling'" font-size="98" letter-spacing="3">JONNY ZERO.</text>
	<path d="M-1213.896,90.319c0,12.545-7.546,19.699-20.386,19.699c-11.271,0-17.935-4.605-21.365-11.074l13.427-8.625
		c1.372,2.352,2.843,4.41,5.881,4.41c2.842,0,4.606-1.568,4.606-5.684V42.394h17.837V90.319z"/>
	<path d="M-1202.141,75.716c0-20.092,16.563-34.105,35.773-34.105c19.209,0,35.772,14.014,35.772,34.105
		s-16.563,34.205-35.772,34.205C-1185.577,109.921-1202.141,95.808-1202.141,75.716z M-1148.824,75.716
		c0-10.486-6.371-18.621-17.543-18.621c-11.173,0-17.544,8.135-17.544,18.621c0,10.488,6.371,18.721,17.544,18.721
		C-1155.195,94.437-1148.824,86.204-1148.824,75.716z"/>
	<path d="M-1075.128,43.903v31.91l-41.85-34.498c-1.078-0.881-1.372-0.393-1.372,0.197v67.525h16.76V75.813l41.849,34.402
		c1.078,0.881,1.372,0.588,1.372-0.197V58.657L-1075.128,43.903z"/>
	<path d="M-1032.669,42.394v33.42l-41.85-34.498c-1.078-0.881-1.372-0.393-1.372,0.197v51.723l16.76,14.68V75.813l41.849,34.402
		c1.078,0.881,1.372,0.588,1.372-0.197V42.394H-1032.669z"/>
	<path d="M-1005.801,42.394h19.602l13.133,24.404l13.133-24.404h18.72l-23.229,40.379v26.266h-17.837V83.263L-1005.801,42.394z"/>
	<path d="M-909.175,108.06l29.5-50.67h-24.502V42.394h51.846c0.589,0,0.784,0.197,0.294,0.98l-29.5,50.67h27.05v14.994h-54.394
		C-909.469,109.038-909.665,108.843-909.175,108.06z"/>
	<path d="M-840.479,42.394h46.75V57.39h-28.912v10.977h24.109v14.211h-24.109v11.467h30.284v14.994h-48.122V42.394z"/>
	<path d="M-761.979,109.038h-17.838V42.394h26.952c16.955,0,26.364,9.998,26.364,23.619c0,8.822-4.215,15.779-12.153,19.406
		l13.819,23.619h-19.308l-11.761-20.875h-6.076V109.038z M-753.746,74.54c6.076,0,9.311-3.037,9.311-8.527
		c0-5.488-3.234-8.525-9.311-8.525h-8.232V74.54H-753.746z"/>
	<path d="M-715.727,75.716c0-20.092,16.563-34.105,35.773-34.105c19.209,0,35.772,14.014,35.772,34.105
		s-16.563,34.205-35.772,34.205C-699.163,109.921-715.727,95.808-715.727,75.716z M-662.41,75.716
		c0-10.486-6.371-18.621-17.543-18.621c-11.173,0-17.544,8.135-17.544,18.621c0,10.488,6.371,18.721,17.544,18.721
		C-668.781,94.437-662.41,86.204-662.41,75.716z"/>
	<path d="M-424.249,50.319c0,12.545-7.546,19.699-20.387,19.699c-11.27,0-17.934-4.605-21.364-11.074l13.427-8.625
		c1.371,2.352,2.843,4.41,5.881,4.41c2.842,0,4.605-1.568,4.605-5.684V2.394h17.838V50.319z"/>
	<path d="M-416.493,35.716c0-20.092,16.563-34.105,35.773-34.105c19.209,0,35.772,14.014,35.772,34.105
		s-16.563,34.205-35.772,34.205C-399.93,69.921-416.493,55.808-416.493,35.716z M-363.177,35.716
		c0-10.486-6.371-18.621-17.543-18.621c-11.173,0-17.544,8.135-17.544,18.621c0,10.488,6.371,18.721,17.544,18.721
		C-369.548,54.437-363.177,46.204-363.177,35.716z"/>
	<path d="M-293.48,3.903v31.91l-41.85-34.498c-1.078-0.881-1.372-0.393-1.372,0.197v67.525h16.76V35.813l41.849,34.402
		c1.078,0.881,1.372,0.588,1.372-0.197V18.657L-293.48,3.903z"/>
	<path d="M-251.021,2.394v33.42l-41.85-34.498c-1.078-0.881-1.372-0.393-1.372,0.197v51.723l16.76,14.68V35.813l41.848,34.402
		c1.079,0.881,1.373,0.588,1.373-0.197V2.394H-251.021z"/>
	<path d="M-227.153,2.394h19.602l13.133,24.404l13.133-24.404h18.72l-23.229,40.379v26.266h-17.837V43.263L-227.153,2.394z"/>
	<path d="M-469.527,148.06l29.5-50.67h-24.502V82.394h51.846c0.589,0,0.784,0.197,0.294,0.98l-29.5,50.67h27.05v14.994h-54.394
		C-469.821,149.038-470.019,148.843-469.527,148.06z"/>
	<path d="M-403.831,82.394h46.75V97.39h-28.912v10.977h24.109v14.211h-24.109v11.467h30.284v14.994h-48.122V82.394z"/>
	<path d="M-328.331,149.038h-17.838V82.394h26.952c16.955,0,26.364,9.998,26.364,23.619c0,8.822-4.215,15.779-12.153,19.406
		l13.819,23.619h-19.308l-11.761-20.875h-6.076V149.038z M-320.099,114.54c6.076,0,9.311-3.037,9.311-8.527
		c0-5.488-3.234-8.525-9.311-8.525h-8.232v17.053H-320.099z"/>
	<path d="M-286.079,115.716c0-20.092,16.563-34.105,35.773-34.105c19.209,0,35.772,14.014,35.772,34.105
		s-16.563,34.205-35.772,34.205C-269.516,149.921-286.079,135.808-286.079,115.716z M-232.763,115.716
		c0-10.486-6.371-18.621-17.543-18.621c-11.173,0-17.544,8.135-17.544,18.621c0,10.488,6.371,18.721,17.544,18.721
		C-239.134,134.437-232.763,126.204-232.763,115.716z"/>
	<g>
		<path d="M41.751,49.485c0,12.545-7.546,19.699-20.387,19.699C10.095,69.185,3.431,64.579,0,58.11l13.427-8.625
			c1.371,2.352,2.843,4.41,5.881,4.41c2.842,0,4.605-1.568,4.605-5.684V1.56h17.838V49.485z"/>
		<path d="M49.507,34.882c0-20.092,16.563-34.105,35.773-34.105c19.209,0,35.772,14.014,35.772,34.105S104.489,69.087,85.28,69.087
			C66.07,69.087,49.507,54.974,49.507,34.882z M102.823,34.882c0-10.486-6.371-18.621-17.543-18.621
			c-11.173,0-17.544,8.135-17.544,18.621c0,10.488,6.371,18.721,17.544,18.721C96.452,53.603,102.823,45.37,102.823,34.882z"/>
		<path d="M172.52,3.069v31.91L130.67,0.481c-1.078-0.881-1.372-0.393-1.372,0.197v67.525h16.76V34.979l41.849,34.402
			c1.078,0.881,1.372,0.588,1.372-0.197V17.823L172.52,3.069z"/>
		<path d="M214.979,1.56v33.42l-41.85-34.498c-1.078-0.881-1.372-0.393-1.372,0.197v51.723l16.76,14.68V34.979l41.848,34.402
			c1.079,0.881,1.373,0.588,1.373-0.197V1.56H214.979z"/>
		<path d="M238.847,1.56h19.602l13.133,24.404L284.714,1.56h18.72l-23.229,40.379v26.266h-17.837V42.429L238.847,1.56z"/>
	</g>
	<g>
		<path d="M316.473,68.06l29.5-50.67h-24.502V2.394h51.846c0.589,0,0.784,0.197,0.294,0.98l-29.5,50.67h27.05v14.994h-54.394
			C316.179,69.038,315.981,68.843,316.473,68.06z"/>
		<path d="M382.169,2.394h46.75V17.39h-28.912v10.977h24.109v14.211h-24.109v11.467h30.284v14.994h-48.122V2.394z"/>
		<path d="M457.669,69.038h-17.838V2.394h26.952c16.955,0,26.364,9.998,26.364,23.619c0,8.822-4.215,15.779-12.153,19.406
			l13.819,23.619h-19.308l-11.761-20.875h-6.076V69.038z M465.901,34.54c6.076,0,9.311-3.037,9.311-8.527
			c0-5.488-3.234-8.525-9.311-8.525h-8.232V34.54H465.901z"/>
		<path d="M499.921,35.716c0-20.092,16.563-34.105,35.773-34.105c19.209,0,35.772,14.014,35.772,34.105
			s-16.563,34.205-35.772,34.205C516.484,69.921,499.921,55.808,499.921,35.716z M553.237,35.716
			c0-10.486-6.371-18.621-17.543-18.621c-11.173,0-17.544,8.135-17.544,18.621c0,10.488,6.371,18.721,17.544,18.721
			C546.866,54.437,553.237,46.204,553.237,35.716z"/>
	</g>
	<path fill="#CCCCCC" d="M-1172.141,351.702c0-20.092,16.563-34.105,35.773-34.105c19.209,0,35.772,14.014,35.772,34.105
		s-16.563,34.205-35.772,34.205C-1155.577,385.907-1172.141,371.794-1172.141,351.702z"/>
	<path d="M-1118.824,351.702c0-10.486-6.371-18.621-17.543-18.621c-11.173,0-17.544,8.135-17.544,18.621
		c0,10.488,6.371,18.721,17.544,18.721C-1125.195,370.423-1118.824,362.19-1118.824,351.702z"/>
	<path fill="#CCCCCC" d="M-751.141,351.702c0-20.092,16.563-34.105,35.773-34.105c19.209,0,35.772,14.014,35.772,34.105
		s-16.563,34.205-35.772,34.205C-734.577,385.907-751.141,371.794-751.141,351.702z"/>
	<path d="M-697.824,351.702c0-10.486-6.371-18.621-17.543-18.621c-11.173,0-17.544,8.135-17.544,18.621
		c0,10.488,6.371,18.721,17.544,18.721C-704.195,370.423-697.824,362.19-697.824,351.702z"/>
	<path d="M-1161.896,366.306c0,12.545-7.546,19.699-20.386,19.699c-11.271,0-17.935-4.605-21.365-11.074l13.427-8.625
		c1.372,2.352,2.843,4.41,5.881,4.41c2.842,0,4.606-1.568,4.606-5.684V318.38h17.837V366.306z"/>
	<path d="M-1067.128,319.89v31.91l-41.85-34.498c-1.078-0.881-1.372-0.393-1.372,0.197v67.525h16.76V351.8l41.849,34.402
		c1.078,0.881,1.372,0.588,1.372-0.197v-51.361L-1067.128,319.89z"/>
	<path d="M-1024.669,318.38v33.42l-41.85-34.498c-1.078-0.881-1.372-0.393-1.372,0.197v51.723l16.76,14.68V351.8l41.849,34.402
		c1.078,0.881,1.372,0.588,1.372-0.197V318.38H-1024.669z"/>
	<path d="M-997.801,318.38h19.602l13.133,24.404l13.133-24.404h18.72l-23.229,40.379v26.266h-17.837v-25.775L-997.801,318.38z"/>
	<path d="M-921.175,384.046l29.5-50.67h-24.502V318.38h51.846c0.589,0,0.784,0.197,0.294,0.98l-29.5,50.67h27.05v14.994h-54.394
		C-921.469,385.024-921.665,384.829-921.175,384.046z"/>
	<path d="M-852.479,318.38h46.75v14.996h-28.912v10.977h24.109v14.211h-24.109v11.467h30.284v14.994h-48.122V318.38z"/>
	<path d="M-773.979,385.024h-17.838V318.38h26.952c16.955,0,26.364,9.998,26.364,23.619c0,8.822-4.215,15.779-12.153,19.406
		l13.819,23.619h-19.308l-11.761-20.875h-6.076V385.024z M-765.746,350.526c6.076,0,9.311-3.037,9.311-8.527
		c0-5.488-3.234-8.525-9.311-8.525h-8.232v17.053H-765.746z"/>
	<path d="M-1118.824,632.188c0-10.486-6.371-18.621-17.543-18.621c-11.173,0-17.544,8.135-17.544,18.621
		c0,10.488,6.371,18.721,17.544,18.721C-1125.195,650.909-1118.824,642.677-1118.824,632.188z"/>
	<path d="M-697.824,632.188c0-10.486-6.371-18.621-17.543-18.621c-11.173,0-17.544,8.135-17.544,18.621
		c0,10.488,6.371,18.721,17.544,18.721C-704.195,650.909-697.824,642.677-697.824,632.188z"/>
	<path d="M-1161.896,646.792c0,12.545-7.546,19.699-20.386,19.699c-11.271,0-17.935-4.605-21.365-11.074l13.427-8.625
		c1.372,2.352,2.843,4.41,5.881,4.41c2.842,0,4.606-1.568,4.606-5.684v-46.652h17.837V646.792z"/>
	<path d="M-1067.128,600.376v31.91l-41.85-34.498c-1.078-0.881-1.372-0.393-1.372,0.197v67.525h16.76v-33.225l41.849,34.402
		c1.078,0.881,1.372,0.588,1.372-0.197V615.13L-1067.128,600.376z"/>
	<path d="M-1024.669,598.866v33.42l-41.85-34.498c-1.078-0.881-1.372-0.393-1.372,0.197v51.723l16.76,14.68v-32.102l41.849,34.402
		c1.078,0.881,1.372,0.588,1.372-0.197v-67.625H-1024.669z"/>
	<path d="M-997.801,598.866h19.602l13.133,24.404l13.133-24.404h18.72l-23.229,40.379v26.266h-17.837v-25.775L-997.801,598.866z"/>
	<path d="M-921.175,664.532l29.5-50.67h-24.502v-14.996h51.846c0.589,0,0.784,0.197,0.294,0.98l-29.5,50.67h27.05v14.994h-54.394
		C-921.469,665.511-921.665,665.315-921.175,664.532z"/>
	<path d="M-852.479,598.866h46.75v14.996h-28.912v10.977h24.109v14.211h-24.109v11.467h30.284v14.994h-48.122V598.866z"/>
	<path d="M-773.979,665.511h-17.838v-66.645h26.952c16.955,0,26.364,9.998,26.364,23.619c0,8.822-4.215,15.779-12.153,19.406
		l13.819,23.619h-19.308l-11.761-20.875h-6.076V665.511z M-765.746,631.013c6.076,0,9.311-3.037,9.311-8.527
		c0-5.488-3.234-8.525-9.311-8.525h-8.232v17.053H-765.746z"/>
	<path fill="#CCCCCC" stroke="#000000" stroke-width="6" stroke-linecap="round" stroke-miterlimit="10" d="M-1118.962,885.258
		c-5.205-2.688-11.163-4.175-17.405-4.175c-5.954,0-11.651,1.349-16.683,3.805"/>
	<path fill="#CCCCCC" stroke="#000000" stroke-width="6" stroke-linecap="round" stroke-miterlimit="10" d="M-1153.05,945.566
		c5.031,2.469,10.729,3.827,16.683,3.827c6.242,0,12.2-1.498,17.405-4.2"/>
	<path d="M-1118.824,915.188c0-10.486-6.371-18.621-17.543-18.621c-11.173,0-17.544,8.135-17.544,18.621
		c0,10.488,6.371,18.721,17.544,18.721C-1125.195,933.909-1118.824,925.677-1118.824,915.188z"/>
	<path fill="none" stroke="#000000" stroke-width="6" stroke-linecap="round" stroke-miterlimit="10" d="M-715.367,881.083
		c19.209,0,35.772,14.014,35.772,34.105s-16.563,34.205-35.772,34.205"/>
	<path d="M-697.824,915.188c0-10.486-6.371-18.621-17.543-18.621c-11.173,0-17.544,8.135-17.544,18.621
		c0,10.488,6.371,18.721,17.544,18.721C-704.195,933.909-697.824,925.677-697.824,915.188z"/>
	<path d="M-1161.896,929.792c0,12.545-7.546,19.699-20.386,19.699c-11.271,0-17.935-4.605-21.365-11.074l13.427-8.625
		c1.372,2.352,2.843,4.41,5.881,4.41c2.842,0,4.606-1.568,4.606-5.684v-46.652h17.837V929.792z"/>
	<path d="M-1067.128,883.376v31.91l-41.85-34.498c-1.078-0.881-1.372-0.393-1.372,0.197v67.525h16.76v-33.225l41.849,34.402
		c1.078,0.881,1.372,0.588,1.372-0.197V898.13L-1067.128,883.376z"/>
	<path d="M-1024.669,881.866v33.42l-41.85-34.498c-1.078-0.881-1.372-0.393-1.372,0.197v51.723l16.76,14.68v-32.102l41.849,34.402
		c1.078,0.881,1.372,0.588,1.372-0.197v-67.625H-1024.669z"/>
	<path d="M-997.801,881.866h19.602l13.133,24.404l13.133-24.404h18.72l-23.229,40.379v26.266h-17.837v-25.775L-997.801,881.866z"/>
	<path d="M-921.175,947.532l29.5-50.67h-24.502v-14.996h51.846c0.589,0,0.784,0.197,0.294,0.98l-29.5,50.67h27.05v14.994h-54.394
		C-921.469,948.511-921.665,948.315-921.175,947.532z"/>
	<path d="M-852.479,881.866h46.75v14.996h-28.912v10.977h24.109v14.211h-24.109v11.467h30.284v14.994h-48.122V881.866z"/>
	<path d="M-773.979,948.511h-17.838v-66.645h26.952c16.955,0,26.364,9.998,26.364,23.619c0,8.822-4.215,15.779-12.153,19.406
		l13.819,23.619h-19.308l-11.761-20.875h-6.076V948.511z M-765.746,914.013c6.076,0,9.311-3.037,9.311-8.527
		c0-5.488-3.234-8.525-9.311-8.525h-8.232v17.053H-765.746z"/>
</g>
<g id="VELLOCET">
</g>
</svg>
