<?xml version="1.0" encoding="utf-8"?>
<!-- Generator: Adobe Illustrator 15.0.0, SVG Export Plug-In . SVG Version: 6.00 Build 0)  -->
<!DOCTYPE svg PUBLIC "-//W3C//DTD SVG 1.1//EN" "http://www.w3.org/Graphics/SVG/1.1/DTD/svg11.dtd">
<svg version="1.1" id="Layer_1" xmlns="http://www.w3.org/2000/svg" xmlns:xlink="http://www.w3.org/1999/xlink" x="0px" y="0px"
	 width="252.746px" height="220.953px" viewBox="0 0 252.746 220.953" enable-background="new 0 0 252.746 220.953"
	 xml:space="preserve">
<g>
	<g>
		<path fill="#E39AC2" d="M234.137,193.23l-0.58-0.426c-0.222-0.139-0.562-0.318-0.692-0.432c-0.344-0.248-0.758-0.455-1.212-0.65
			c-1.41-0.615-3.147-0.951-4.954-1.346c-0.301,0.6-0.659,1.168-1.083,1.68c-0.873,1.072-2.039,1.943-3.203,2.404
			c-1.282,0.533-2.559,0.686-3.796,0.428c0.92-0.826,1.692-1.654,2.204-2.449c0.621-0.883,0.991-1.682,1.276-2.52
			c0.546-1.654,0.592-3.287,0.274-4.834c-0.329-1.535-1.05-3.035-2.217-4.359c-1.176-1.328-2.797-2.479-5.132-3.299
			c2.099-1.379,5.093-1.328,7.534-0.029c2.459,1.281,4.346,3.764,4.938,6.6c0.369,1.662,0.257,3.416-0.256,5.021
			c0.392-0.148,0.781-0.301,1.185-0.432c1.008-0.326,2.068-0.559,3.211-0.652c-0.064-2.932-0.519-5.891-1.375-8.799
			c-2.782-9.434-9.398-16.955-16.862-19.162l-1.281-0.379c-2.205,1.398-4.736,2.146-7.282,1.969c1.979-2.738,3.447-5.047,4.472-7.34
			c1.027-2.273,1.583-4.447,1.696-6.461c0.073-1.004-0.014-2.018-0.186-2.951c-0.02-0.104-0.018-0.178-0.045-0.309l-0.164-0.533
			c-0.023-0.102-0.113-0.467-0.19-0.678c-0.167-0.502-0.373-1-0.615-1.506c-0.271-0.568-0.607-1.133-0.996-1.699
			c-0.084-0.037-0.175-0.064-0.261-0.098c-0.092,0.381-0.181,0.762-0.286,1.139c-2.046,7.348-7.33,13.625-13.974,16.967
			c2.493,1.365,4.702,3.404,6.219,6.01c1.467,2.494,2.231,5.506,2.057,8.514c-0.041,0.762-0.135,1.479-0.305,2.258l-0.102,0.467
			l-0.156,0.582c-0.105,0.412-0.234,0.748-0.354,1.109c-0.527,1.418-1.282,2.752-2.178,3.967c-3.674,4.869-9.878,7.135-15.502,6.551
			c-2.823-0.273-5.521-1.225-7.854-2.684c-2.296-1.49-4.23-3.496-5.364-5.848c4.042,3.273,8.787,4.67,13.331,4.416
			c4.494-0.25,8.715-2.299,11.216-5.602c2.524-3.273,3.168-7.812,1.528-11.91c-0.973-2.545-2.72-4.848-5.014-6.738
			c-7.481,2.896-16.103,2.012-22.114-2.256c7.336,1.221,14.312-0.113,19.811-3.449c5.515-3.318,9.508-8.59,11.197-14.514
			c1.697-5.924,1.133-12.525-1.815-18.24c-2.917-5.752-8.115-10.585-14.999-13.405c2.378-0.148,4.814,0.164,7.182,0.861l0.225-0.733
			c0.395-1.292,0.682-2.569,0.882-3.817c-0.062-1.804-0.255-3.502-0.635-5.104c-0.712-3.189-2.143-6.139-3.957-8.034
			c-0.22-0.225-0.443-0.426-0.65-0.584c-0.062-0.075-0.492-0.373-0.761-0.545c-0.621-0.385-1.256-0.761-1.923-1.081
			c-1.34-0.637-2.796-1.146-4.381-1.506c-3.187-0.728-6.803-0.802-11.009-0.707c1.798-2.146,4.201-3.76,6.933-4.727l0.045-0.212
			c1.066-4.95,0.808-10.364-0.756-15.66c-2.706-9.187-8.893-16.442-16.139-18.937l-0.489-0.169
			c-0.755-0.217-1.513-0.404-2.271-0.525c-4.31-0.694-8.704,0.319-12.445,3.151c-3.792,2.808-6.759,7.249-9.182,12.423
			c-0.784-5.667,0.718-11.96,4.91-16.857c2.077-2.433,4.88-4.417,8.034-5.551c3.063-1.135,6.452-1.415,9.656-0.958
			c0.032-0.426,0.051-0.852,0.051-1.282c0-4.167-1.589-7.999-4.197-10.917c-1.598-1.351-3.31-2.488-5.136-3.375
			c-1.38-0.681-2.836-1.199-4.351-1.598c-0.736-0.208-1.574-0.345-2.279-0.486c-0.41-0.053-0.788-0.105-1.161-0.15l-1.833-0.129
			c-3.148-0.156-6.463,0.258-10.246,1.289c1.949-3.653,5.744-6.301,10.008-7.374c-0.112-0.423-0.251-0.84-0.435-1.239
			c-1.41-3.041-4.851-4.93-8.981-4.93c-2.082,0-4.239,0.49-6.236,1.417c-1.528,0.71-2.891,1.635-4.041,2.719
			c-0.335,0.365-0.655,0.74-0.949,1.127c-2.423,3.183-3.344,7.054-1.884,10.539c0.091,0.155,0.193,0.316,0.312,0.496l1.737,2.604
			c0.75,0.765,1.638,1.461,2.652,2.057c2.077,1.244,4.602,2.013,7.403,2.428c-2.54,1.259-5.582,1.719-8.641,1.209
			c-1.9-0.314-3.827-1.062-5.542-2.235l-0.633,0.039c-2.22,0.139-4.385,0.693-6.435,1.647c-5.123,2.377-8.617,6.854-9.303,11.338
			c-0.007,0.048-0.015,0.095-0.021,0.142c-0.049,0.344-0.082,0.687-0.096,1.03c-0.001,0.012-0.001,0.024-0.002,0.036
			c-0.043,1.119,0.095,2.226,0.437,3.289l0.829,2.585c0.469,0.903,1.05,1.761,1.784,2.583c1.837,2.062,4.5,3.68,7.716,4.862
			c0.139-0.538,0.306-1.069,0.519-1.587c0.986-2.412,2.838-4.527,5.2-5.691c2.331-1.178,5.256-1.274,7.289,0.093
			c-2.26,0.86-3.75,1.997-4.942,3.294c-1.186,1.296-2.05,2.745-2.708,4.31c-0.644,1.559-1.089,3.268-1.272,5.103
			c-0.187,1.844-0.135,3.79,0.333,6.147c-2.216-1.024-3.753-3.262-4.413-5.694c-0.344-1.264-0.456-2.592-0.353-3.915
			c-3.622,0.717-7.684,0.113-11.203-2.101c-1.573-0.984-2.998-2.333-4.135-3.898c-0.756,0.427-1.453,0.933-2.082,1.521
			c-3.862,3.633-4.789,9.996-2.479,17.019l0.12,0.363c1.271,0.012,2.532,0.152,3.758,0.45c3.445,0.824,6.487,2.819,8.367,5.474
			c-1.489-0.644-2.968-1.147-4.423-1.403l-1.129-0.172c-0.318-0.031-0.713-0.07-1.062-0.085c-0.719-0.034-1.429-0.033-2.126,0.031
			c-2.789,0.222-5.371,1.151-7.69,2.525c-4.654,2.754-8.268,7.137-10.798,12.042c-0.644,1.213-1.214,2.528-1.685,3.784
			c-0.527,1.353-0.917,2.658-1.283,4.021c-0.708,2.709-1.11,5.502-1.178,8.33c-0.051,2.823,0.237,5.686,1.021,8.486
			c0.762,2.82,2.058,5.537,4.053,8.1c-2.354-0.926-4.455-2.59-6.156-4.625l-3.809-0.062c-9.037,0.043-16.378,7.41-16.378,16.459
			c0,3.006,0.838,5.965,2.426,8.559l0.431,0.703c0.814-0.143,1.635-0.25,2.456-0.312c3.345-0.254,6.748,0.127,9.725,1.412
			c-6.394,0.797-11.75,3.271-16.453,6.572c-4.693,3.311-8.675,7.475-12.004,12.125c-3.315,4.666-6.008,9.83-7.908,15.35
			c-1.909,5.539-3.028,11.404-3.139,17.83c-1.898-3.496-2.891-7.465-3.162-11.525l-0.185-0.012
			c-4.911-0.297-9.513,4.033-10.877,10.045c-0.697,3.068-0.447,6.135,0.679,8.744c1.599,1.744,3.447,2.857,5.395,3.303
			c2.469,0.568,5.26,0.107,8.061-1.482c1.249-0.699,2.451-1.602,3.618-2.676l0.777-0.957l0.106,0.102
			c1.147-1.164,2.263-2.494,3.353-4.012c0.38,2.191,0.155,4.508-0.595,6.711l0.219,0.215c1.318,1.287,2.785,2.354,4.358,3.168
			c2.63,1.359,5.537,2.051,8.636,2.051c1.879,0,3.801-0.283,5.728-0.777c1.98-0.768,3.907-1.668,5.788-2.695
			c3.379-1.865,6.611-4.111,9.78-6.662c3.191-2.547,6.242-5.416,9.672-8.494c-0.543,4.596-2.467,8.898-5.163,12.688
			c-0.367,0.508-0.752,1.006-1.15,1.492c3.111,3.594,7.627,5.689,12.442,5.689c4.805,0,9.361-2.104,12.5-5.775l0.559-0.648
			c2.503-3.133,4.031-7.057,4.202-11.314c0.183-3.828-0.759-7.838-2.875-11.652c0.015,6.092-2.47,11.928-6.451,15.979
			c2.704-5.842,3.673-12.143,2.257-17.787c-1.345-5.648-5.073-10.32-10.125-12.83c-4.982-2.543-11.048-2.971-16.778-1.541
			c-5.765,1.406-11.187,4.607-15.688,9.225c2.692-5.906,8.054-10.713,14.444-13.15c4.506-1.742,9.646-2.258,14.548-1.242
			c0.333-0.561,0.666-1.105,1.004-1.637c1.021-1.26,1.986-2.527,2.776-3.83c1.611-2.615,2.49-5.277,2.189-7.898
			c-0.131-1.281-0.589-2.744-1.089-3.824c-0.379-0.828-1.391-1.73-2.642-2.445c-2.556-1.447-5.784-2.279-9.274-2.869
			c2.393-1.156,5.105-1.701,7.897-1.471c1.031-0.502,1.845-1.154,2.469-1.887c1.13-1.326,1.78-2.945,2.104-4.68
			c0.17-0.859,0.216-1.787,0.196-2.674c-0.025-0.963-0.151-1.875-0.358-2.834c-0.441-1.902-1.228-3.82-2.82-5.82
			c2.615,0.033,5.1,1.803,6.56,4.129c0.74,1.162,1.266,2.506,1.531,3.852c0.28,1.42,0.292,2.842,0.047,4.273
			c-0.478,2.787-2.133,5.527-4.708,7c1.188,0.619,2.329,1.51,3.235,2.828c1.14,1.902,1.76,3.738,2.037,5.83
			c0.254,2.062-0.004,4.219-0.688,6.125c-0.669,1.92-1.704,3.604-2.878,5.076c-1.173,1.465-2.499,2.721-3.894,3.84
			c0.735,0.285,1.463,0.602,2.173,0.967c3.156,1.604,6.003,4.004,8.05,6.941c2.057,2.939,3.328,6.373,3.727,9.842
			c0.001,0.006,0.002,0.014,0.002,0.02c2.001,1.129,3.803,2.721,5.281,4.615c1.987,2.572,3.35,5.74,3.884,9.086
			c0.068,0.42,0.12,0.84,0.162,1.264l0.056,0.652c0.014,0.191,0.033,0.348,0.04,0.594c0.037,0.906,0.008,1.725-0.058,2.596
			c-0.12,1.717-0.486,3.42-1.023,5.076c-0.432,1.316-0.999,2.59-1.675,3.799c4.285,2.613,9.468,4.043,14.961,4.043
			c4.578,0,8.979-0.99,12.853-2.877c-1.266-1.744-2.209-3.691-2.653-5.775c3.549,2.164,6.767,3.67,10.064,4.805
			c3.279,1.133,6.563,1.869,9.912,2.312c0.825,0.129,1.707,0.203,2.502,0.268c0.36,0.045,0.875,0.072,1.348,0.1l1.23,0.059
			c1.712,0.068,3.436,0.051,5.193-0.025c0.393-0.021,0.788-0.059,1.183-0.086c2.133-0.623,4.149-1.486,6.004-2.561
			c-1.103-1.789-1.928-3.74-2.333-5.766c-0.486-2.488-0.391-5.055,0.467-7.303c1.658,4.492,4.203,7.674,7.226,10.127
			c3.023,2.447,6.514,4.141,10.212,5.266c2.917,0.877,5.992,1.369,9.151,1.518c4.341-0.383,8.382-1.848,11.636-4.16
			c-2.467-2.83-4.179-6.193-4.77-9.818c3.438,2.367,6.465,4.449,9.562,6.035c3.076,1.596,6.144,2.676,9.158,3.102
			c3.009,0.43,6.021,0.191,9.078-0.871c3.069-1.039,6.083-2.975,9.326-5.598c-0.259,3.027-1.552,5.998-3.646,8.449
			c0.26,0.119,0.5,0.264,0.766,0.367c1.795,0.705,3.64,1.061,5.481,1.061c0,0,0,0,0.002,0c0.93,0,1.815-0.111,2.666-0.291
			c2.137-1.922,3.192-4.359,3.183-6.943c0-3.141-1.59-6.607-4.33-9.316C235.705,194.475,234.954,193.828,234.137,193.23z
			 M151.552,171.949l-2.613,0.312c-0.812,0.141-1.692,0.291-2.511,0.463c-3.324,0.67-6.423,1.66-9.057,3.23
			c-2.636,1.564-4.79,3.734-6.459,6.504c-1.682,2.768-2.813,6.051-3.921,9.623c-1.104-3.572-1.125-7.535,0.134-11.326
			c0.174-0.531,0.384-1.057,0.615-1.574c-0.872-1.529-1.969-2.744-3.245-3.645c-2.069-1.486-4.549-2.279-7.153-2.6
			c-2.607-0.314-5.336-0.152-8.09,0.432c-2.772,0.572-5.531,1.586-8.531,2.873c2.47-4.611,7.505-7.814,13.024-8.49
			c-1.566-2.252-2.422-5.053-1.836-7.611c1.515,2.602,3.399,4.316,5.461,5.674c2.056,1.332,4.32,2.256,6.499,2.615
			c2.203,0.328,4.113,0.098,5.66-1.186c0.15-0.121,0.293-0.26,0.434-0.402c-0.133-1.434-0.051-2.85,0.185-4.213
			c0.42-2.371,1.365-4.623,2.762-6.514c1.391-1.889,3.278-3.406,5.392-4.102c-2.79,3.424-3.826,7.301-3.836,11.043
			c-0.007,1.852,0.321,3.684,0.939,5.164c0.311,0.703,0.743,1.375,1.094,1.697c0.037,0.027,0.037,0.043,0.087,0.092l0.319,0.238
			l0.077,0.061c-0.017-0.012-0.048-0.033-0.102-0.074l0.005,0.006l0.013,0.012l0.028,0.021c0.021,0.021,0.043,0.045,0.066,0.064
			c2.959-1.225,6.126-1.68,9.136-1.564c0.967,0.039,1.88,0.127,2.858,0.27c0.864,0.143,1.858,0.287,2.756,0.543
			c1.823,0.461,3.585,1.119,5.2,2.047C155.083,171.711,153.303,171.762,151.552,171.949z"/>
		<path fill="#E39AC2" d="M239.394,185.523c-0.224-2.887-0.759-5.77-1.595-8.605c-3.018-10.229-9.544-18.508-17.587-22.635
			c1.936-4.449,2.021-9.311,0.084-13.48c-1.694-3.652-4.757-6.469-8.646-8.047c0.037-0.615,0.057-1.223,0.057-1.83
			c0-9.482-4.586-18.443-12.14-24.038c2.345-10.497-0.356-19.945-7.344-25.115c-2.34-1.729-5.068-2.884-8.032-3.415
			c0.438-4.936-0.09-10.082-1.571-15.107c-3.019-10.24-9.691-18.658-17.839-22.758c0.188-1.227,0.285-2.471,0.285-3.724
			c0-11.542-8.203-21.391-19.215-23.757c-0.238-1.213-0.618-2.395-1.146-3.53C141.99,3.633,135.816,0,128.595,0
			c-2.504,0-5.056,0.463-7.494,1.326c-2.504,0.815-4.857,2.122-6.911,3.85c-2.48,2.01-4.471,4.494-5.791,7.288
			c-1.696,3.579-2.157,7.329-1.379,10.841c-1.36,0.378-2.693,0.871-3.992,1.474c-8.301,3.854-13.556,11.412-13.948,19.107
			c-0.005,0.126-0.013,0.255-0.015,0.382c-0.023,0.731-0.017,1.464,0.052,2.193c-1.686,0.827-3.22,1.885-4.586,3.168
			c-5.282,4.968-7.285,12.628-5.653,21.032c-8.702,2.852-16.331,11.002-19.752,21.527c-2.213,6.814-2.466,13.899-0.807,20.139
			c-10.931,2.381-19.141,12.131-19.141,23.764c0,2.986,0.557,5.938,1.629,8.717c-8.11,4.256-15.224,11.582-19.902,20.627
			c-2.288,4.426-3.906,9.025-4.826,13.719c-7.252,1.273-13.502,7.588-15.398,15.945c-1.166,5.127-0.58,10.357,1.646,14.732
			c2.351,4.619,6.221,7.744,10.903,8.812c4.883,1.104,10.115-0.309,14.221-3.721c1.04,0.754,2.127,1.426,3.256,2.012
			c3.757,1.939,7.877,2.926,12.246,2.926c6.501,0,13.28-2.242,19.427-6.371c4.556,4.826,10.915,7.615,17.67,7.615
			c5.367,0,10.51-1.789,14.71-4.994c0.348-0.26,0.69-0.531,1.024-0.809c0.045-0.039,0.096-0.07,0.142-0.111
			c5.688,3.729,12.66,5.754,19.991,5.754c5.871,0,11.546-1.307,16.551-3.795c5.006,2.488,10.679,3.795,16.552,3.795
			c6.854,0,13.491-1.809,19.004-5.137c5.075,3.432,11.337,5.297,17.941,5.297c7.204,0,14.105-2.281,19.372-6.334
			c5.418,2.625,11.277,3.221,16.581,1.656c0.306-0.09,0.616-0.188,0.924-0.297c1.166,0.721,2.396,1.33,3.671,1.834
			c2.715,1.066,5.527,1.605,8.354,1.605c0,0,0,0,0.002,0c7.713,0,14.311-4.109,16.808-10.473
			C255.181,200.172,249.673,189.625,239.394,185.523z M237.536,211.418c-0.851,0.18-1.736,0.291-2.666,0.291
			c-0.002,0-0.002,0-0.002,0c-1.842,0-3.687-0.355-5.481-1.061c-0.266-0.104-0.506-0.248-0.766-0.367
			c2.094-2.451,3.387-5.422,3.646-8.449c-3.243,2.623-6.257,4.559-9.326,5.598c-3.057,1.062-6.069,1.301-9.078,0.871
			c-3.015-0.426-6.082-1.506-9.158-3.102c-3.097-1.586-6.124-3.668-9.562-6.035c0.591,3.625,2.303,6.988,4.77,9.818
			c-3.254,2.312-7.295,3.777-11.636,4.16c-3.159-0.148-6.234-0.641-9.151-1.518c-3.698-1.125-7.188-2.818-10.212-5.266
			c-3.022-2.453-5.567-5.635-7.226-10.127c-0.857,2.248-0.953,4.814-0.467,7.303c0.405,2.025,1.23,3.977,2.333,5.766
			c-1.854,1.074-3.871,1.938-6.004,2.561c-0.395,0.027-0.79,0.064-1.183,0.086c-1.758,0.076-3.481,0.094-5.193,0.025l-1.23-0.059
			c-0.473-0.027-0.987-0.055-1.348-0.1c-0.795-0.064-1.677-0.139-2.502-0.268c-3.349-0.443-6.633-1.18-9.912-2.312
			c-3.298-1.135-6.516-2.641-10.064-4.805c0.444,2.084,1.388,4.031,2.653,5.775c-3.875,1.887-8.275,2.877-12.853,2.877
			c-5.494,0-10.676-1.43-14.961-4.043c0.676-1.209,1.244-2.482,1.675-3.799c0.537-1.656,0.903-3.359,1.023-5.076
			c0.066-0.871,0.095-1.689,0.058-2.596c-0.006-0.246-0.025-0.402-0.04-0.594l-0.056-0.652c-0.042-0.424-0.094-0.844-0.162-1.264
			c-0.534-3.346-1.896-6.514-3.884-9.086c-1.478-1.895-3.28-3.486-5.281-4.615c0-0.006-0.001-0.014-0.002-0.02
			c-0.399-3.469-1.67-6.902-3.727-9.842c-2.047-2.938-4.894-5.338-8.05-6.941c-0.71-0.365-1.438-0.682-2.173-0.967
			c1.395-1.119,2.721-2.375,3.894-3.84c1.174-1.473,2.209-3.156,2.878-5.076c0.684-1.906,0.942-4.062,0.688-6.125
			c-0.277-2.092-0.897-3.928-2.037-5.83c-0.906-1.318-2.047-2.209-3.235-2.828c2.576-1.473,4.231-4.213,4.708-7
			c0.245-1.432,0.233-2.854-0.047-4.273c-0.265-1.346-0.792-2.689-1.531-3.852c-1.46-2.326-3.945-4.096-6.56-4.129
			c1.592,2,2.379,3.918,2.82,5.82c0.207,0.959,0.333,1.871,0.358,2.834c0.02,0.887-0.026,1.814-0.196,2.674
			c-0.323,1.734-0.973,3.354-2.104,4.68c-0.624,0.732-1.438,1.385-2.469,1.887c-2.792-0.23-5.504,0.314-7.897,1.471
			c3.49,0.59,6.718,1.422,9.274,2.869c1.251,0.715,2.263,1.617,2.642,2.445c0.5,1.08,0.958,2.543,1.089,3.824
			c0.301,2.621-0.579,5.283-2.189,7.898c-0.79,1.303-1.755,2.57-2.776,3.83c-0.338,0.531-0.671,1.076-1.004,1.637
			c-4.902-1.016-10.042-0.5-14.548,1.242c-6.39,2.438-11.751,7.244-14.444,13.15c4.501-4.617,9.923-7.818,15.688-9.225
			c5.73-1.43,11.796-1.002,16.778,1.541c5.051,2.51,8.78,7.182,10.125,12.83c1.416,5.645,0.446,11.945-2.257,17.787
			c3.98-4.051,6.465-9.887,6.451-15.979c2.117,3.814,3.059,7.824,2.875,11.652c-0.171,4.258-1.699,8.182-4.202,11.314l-0.559,0.648
			c-3.14,3.672-7.696,5.775-12.5,5.775c-4.815,0-9.332-2.096-12.442-5.689c0.398-0.486,0.783-0.984,1.15-1.492
			c2.696-3.789,4.62-8.092,5.163-12.688c-3.43,3.078-6.481,5.947-9.672,8.494c-3.168,2.551-6.401,4.797-9.78,6.662
			c-1.881,1.027-3.807,1.928-5.788,2.695c-1.927,0.494-3.849,0.777-5.728,0.777c-3.099,0-6.005-0.691-8.636-2.051
			c-1.574-0.814-3.041-1.881-4.358-3.168l-0.219-0.215c0.75-2.203,0.975-4.52,0.595-6.711c-1.09,1.518-2.206,2.848-3.353,4.012
			l-0.106-0.102l-0.777,0.957c-1.167,1.074-2.369,1.977-3.618,2.676c-2.801,1.59-5.592,2.051-8.061,1.482
			c-1.948-0.445-3.796-1.559-5.395-3.303c-1.125-2.609-1.375-5.676-0.679-8.744c1.364-6.012,5.967-10.342,10.877-10.045l0.185,0.012
			c0.271,4.061,1.264,8.029,3.162,11.525c0.111-6.426,1.23-12.291,3.139-17.83c1.9-5.52,4.593-10.684,7.908-15.35
			c3.329-4.65,7.311-8.814,12.004-12.125c4.703-3.301,10.06-5.775,16.453-6.572c-2.977-1.285-6.38-1.666-9.725-1.412
			c-0.821,0.062-1.642,0.17-2.456,0.312l-0.431-0.703c-1.587-2.594-2.426-5.553-2.426-8.559c0-9.049,7.341-16.416,16.378-16.459
			l3.809,0.062c1.702,2.035,3.802,3.699,6.156,4.625c-1.996-2.562-3.292-5.279-4.053-8.1c-0.785-2.801-1.072-5.663-1.021-8.486
			c0.068-2.828,0.469-5.621,1.178-8.33c0.367-1.362,0.756-2.668,1.283-4.021c0.471-1.255,1.042-2.571,1.685-3.784
			c2.53-4.906,6.145-9.288,10.798-12.042c2.319-1.374,4.901-2.303,7.69-2.525c0.697-0.063,1.407-0.065,2.126-0.031
			c0.35,0.015,0.744,0.054,1.062,0.085l1.129,0.172c1.455,0.256,2.935,0.759,4.423,1.403c-1.88-2.655-4.922-4.65-8.367-5.474
			c-1.226-0.298-2.487-0.438-3.758-0.45l-0.12-0.363c-2.31-7.023-1.383-13.386,2.479-17.019c0.629-0.589,1.326-1.095,2.082-1.521
			c1.137,1.565,2.562,2.914,4.135,3.898c3.52,2.214,7.582,2.818,11.203,2.101c-0.104,1.323,0.009,2.65,0.353,3.915
			c0.66,2.432,2.197,4.67,4.413,5.694c-0.468-2.357-0.52-4.303-0.333-6.147c0.183-1.834,0.628-3.544,1.272-5.103
			c0.658-1.565,1.523-3.014,2.708-4.31c1.191-1.297,2.682-2.434,4.942-3.294c-2.033-1.367-4.958-1.271-7.289-0.093
			c-2.362,1.164-4.214,3.279-5.2,5.691c-0.213,0.519-0.38,1.049-0.519,1.587c-3.215-1.182-5.878-2.8-7.716-4.862
			c-0.733-0.823-1.314-1.681-1.784-2.583l-0.829-2.585c-0.342-1.063-0.48-2.17-0.437-3.289c0.001-0.012,0.001-0.024,0.002-0.036
			c0.014-0.344,0.047-0.687,0.096-1.03c0.006-0.046,0.014-0.093,0.021-0.142c0.686-4.484,4.18-8.96,9.303-11.338
			c2.05-0.954,4.215-1.508,6.435-1.647l0.633-0.039c1.715,1.173,3.642,1.92,5.542,2.235c3.06,0.509,6.101,0.05,8.641-1.209
			c-2.802-0.415-5.326-1.184-7.403-2.428c-1.014-0.595-1.902-1.292-2.652-2.057l-1.737-2.604c-0.119-0.179-0.22-0.341-0.312-0.496
			c-1.46-3.484-0.539-7.356,1.884-10.539c0.294-0.387,0.613-0.762,0.949-1.127c1.15-1.084,2.513-2.009,4.041-2.719
			c1.998-0.927,4.154-1.417,6.236-1.417c4.131,0,7.571,1.889,8.981,4.93c0.184,0.399,0.322,0.816,0.435,1.239
			c-4.264,1.073-8.059,3.721-10.008,7.374c3.783-1.031,7.098-1.445,10.246-1.289l1.833,0.129c0.373,0.045,0.751,0.097,1.161,0.15
			c0.705,0.142,1.543,0.278,2.279,0.486c1.515,0.398,2.971,0.917,4.351,1.598c1.826,0.887,3.538,2.024,5.136,3.375
			c2.608,2.918,4.197,6.75,4.197,10.917c0,0.43-0.019,0.856-0.051,1.282c-3.204-0.457-6.593-0.177-9.656,0.958
			c-3.154,1.134-5.957,3.119-8.034,5.551c-4.192,4.897-5.694,11.191-4.91,16.857c2.423-5.174,5.39-9.615,9.182-12.423
			c3.741-2.832,8.136-3.845,12.445-3.151c0.759,0.121,1.517,0.308,2.271,0.525l0.489,0.169c7.246,2.495,13.433,9.75,16.139,18.937
			c1.563,5.296,1.822,10.71,0.756,15.66l-0.045,0.212c-2.731,0.967-5.135,2.581-6.933,4.727c4.206-0.095,7.822-0.021,11.009,0.707
			c1.585,0.361,3.041,0.869,4.381,1.506c0.667,0.32,1.302,0.696,1.923,1.081c0.269,0.173,0.698,0.471,0.761,0.545
			c0.207,0.158,0.431,0.359,0.65,0.584c1.814,1.895,3.245,4.845,3.957,8.034c0.38,1.602,0.573,3.3,0.635,5.104
			c-0.2,1.248-0.487,2.525-0.882,3.817l-0.225,0.733c-2.367-0.697-4.804-1.009-7.182-0.861c6.884,2.82,12.082,7.653,14.999,13.405
			c2.948,5.715,3.513,12.316,1.815,18.24c-1.689,5.924-5.683,11.195-11.197,14.514c-5.498,3.336-12.475,4.67-19.811,3.449
			c6.012,4.268,14.633,5.152,22.114,2.256c2.294,1.891,4.041,4.193,5.014,6.738c1.64,4.098,0.996,8.637-1.528,11.91
			c-2.501,3.303-6.722,5.352-11.216,5.602c-4.544,0.254-9.289-1.143-13.331-4.416c1.134,2.352,3.068,4.357,5.364,5.848
			c2.333,1.459,5.031,2.41,7.854,2.684c5.624,0.584,11.828-1.682,15.502-6.551c0.896-1.215,1.65-2.549,2.178-3.967
			c0.119-0.361,0.248-0.697,0.354-1.109l0.156-0.582l0.102-0.467c0.17-0.779,0.264-1.496,0.305-2.258
			c0.175-3.008-0.59-6.02-2.057-8.514c-1.517-2.605-3.726-4.645-6.219-6.01c6.644-3.342,11.928-9.619,13.974-16.967
			c0.105-0.377,0.194-0.758,0.286-1.139c0.086,0.033,0.177,0.061,0.261,0.098c0.389,0.566,0.725,1.131,0.996,1.699
			c0.242,0.506,0.448,1.004,0.615,1.506c0.077,0.211,0.167,0.576,0.19,0.678l0.164,0.533c0.027,0.131,0.025,0.205,0.045,0.309
			c0.172,0.934,0.259,1.947,0.186,2.951c-0.113,2.014-0.669,4.188-1.696,6.461c-1.024,2.293-2.492,4.602-4.472,7.34
			c2.546,0.178,5.077-0.57,7.282-1.969l1.281,0.379c7.464,2.207,14.08,9.729,16.862,19.162c0.856,2.908,1.311,5.867,1.375,8.799
			c-1.143,0.094-2.203,0.326-3.211,0.652c-0.403,0.131-0.793,0.283-1.185,0.432c0.513-1.605,0.625-3.359,0.256-5.021
			c-0.593-2.836-2.479-5.318-4.938-6.6c-2.441-1.299-5.436-1.35-7.534,0.029c2.335,0.82,3.956,1.971,5.132,3.299
			c1.167,1.324,1.888,2.824,2.217,4.359c0.317,1.547,0.271,3.18-0.274,4.834c-0.285,0.838-0.655,1.637-1.276,2.52
			c-0.512,0.795-1.284,1.623-2.204,2.449c1.237,0.258,2.514,0.105,3.796-0.428c1.164-0.461,2.33-1.332,3.203-2.404
			c0.424-0.512,0.782-1.08,1.083-1.68c1.807,0.395,3.544,0.73,4.954,1.346c0.454,0.195,0.868,0.402,1.212,0.65
			c0.131,0.113,0.471,0.293,0.692,0.432l0.58,0.426c0.817,0.598,1.568,1.244,2.252,1.928c2.74,2.709,4.33,6.176,4.33,9.316
			C240.729,207.059,239.673,209.496,237.536,211.418z"/>
		<path fill="#E39AC2" d="M148.987,169.043c-0.979-0.143-1.892-0.23-2.858-0.27c-3.01-0.115-6.177,0.34-9.136,1.564
			c-0.023-0.02-0.046-0.043-0.066-0.064l-0.028-0.021l-0.013-0.012l-0.005-0.006c0.054,0.041,0.085,0.062,0.102,0.074l-0.077-0.061
			l-0.319-0.238c-0.05-0.049-0.05-0.064-0.087-0.092c-0.351-0.322-0.783-0.994-1.094-1.697c-0.618-1.48-0.946-3.312-0.939-5.164
			c0.01-3.742,1.046-7.619,3.836-11.043c-2.113,0.695-4.001,2.213-5.392,4.102c-1.396,1.891-2.342,4.143-2.762,6.514
			c-0.235,1.363-0.317,2.779-0.185,4.213c-0.141,0.143-0.283,0.281-0.434,0.402c-1.547,1.283-3.457,1.514-5.66,1.186
			c-2.179-0.359-4.443-1.283-6.499-2.615c-2.062-1.357-3.946-3.072-5.461-5.674c-0.586,2.559,0.27,5.359,1.836,7.611
			c-5.519,0.676-10.555,3.879-13.024,8.49c3-1.287,5.758-2.301,8.531-2.873c2.753-0.584,5.483-0.746,8.09-0.432
			c2.604,0.32,5.083,1.113,7.153,2.6c1.276,0.9,2.373,2.115,3.245,3.645c-0.231,0.518-0.441,1.043-0.615,1.574
			c-1.259,3.791-1.238,7.754-0.134,11.326c1.107-3.572,2.239-6.855,3.921-9.623c1.669-2.77,3.823-4.939,6.459-6.504
			c2.634-1.57,5.732-2.561,9.057-3.23c0.818-0.172,1.698-0.322,2.511-0.463l2.613-0.312c1.751-0.188,3.531-0.238,5.392-0.316
			c-1.615-0.928-3.377-1.586-5.2-2.047C150.846,169.33,149.852,169.186,148.987,169.043z"/>
	</g>
	<g>
		<path fill="none" d="M234.137,193.23l-0.58-0.426c-0.222-0.139-0.562-0.318-0.692-0.432c-0.344-0.248-0.758-0.455-1.212-0.65
			c-1.41-0.615-3.147-0.951-4.954-1.346c-0.301,0.6-0.659,1.168-1.083,1.68c-0.873,1.072-2.039,1.943-3.203,2.404
			c-1.282,0.533-2.559,0.686-3.796,0.428c0.92-0.826,1.692-1.654,2.204-2.449c0.621-0.883,0.991-1.682,1.276-2.52
			c0.546-1.654,0.592-3.287,0.274-4.834c-0.329-1.535-1.05-3.035-2.217-4.359c-1.176-1.328-2.797-2.479-5.132-3.299
			c2.099-1.379,5.093-1.328,7.534-0.029c2.459,1.281,4.346,3.764,4.938,6.6c0.369,1.662,0.257,3.416-0.256,5.021
			c0.392-0.148,0.781-0.301,1.185-0.432c1.008-0.326,2.068-0.559,3.211-0.652c-0.064-2.932-0.519-5.891-1.375-8.799
			c-2.782-9.434-9.398-16.955-16.862-19.162l-1.281-0.379c-2.205,1.398-4.736,2.146-7.282,1.969c1.979-2.738,3.447-5.047,4.472-7.34
			c1.027-2.273,1.583-4.447,1.696-6.461c0.073-1.004-0.014-2.018-0.186-2.951c-0.02-0.104-0.018-0.178-0.045-0.309l-0.164-0.533
			c-0.023-0.102-0.113-0.467-0.19-0.678c-0.167-0.502-0.373-1-0.615-1.506c-0.271-0.568-0.607-1.133-0.996-1.699
			c-0.084-0.037-0.175-0.064-0.261-0.098c-0.092,0.381-0.181,0.762-0.286,1.139c-2.046,7.348-7.33,13.625-13.974,16.967
			c2.493,1.365,4.702,3.404,6.219,6.01c1.467,2.494,2.231,5.506,2.057,8.514c-0.041,0.762-0.135,1.479-0.305,2.258l-0.102,0.467
			l-0.156,0.582c-0.105,0.412-0.234,0.748-0.354,1.109c-0.527,1.418-1.282,2.752-2.178,3.967c-3.674,4.869-9.878,7.135-15.502,6.551
			c-2.823-0.273-5.521-1.225-7.854-2.684c-2.296-1.49-4.23-3.496-5.364-5.848c4.042,3.273,8.787,4.67,13.331,4.416
			c4.494-0.25,8.715-2.299,11.216-5.602c2.524-3.273,3.168-7.812,1.528-11.91c-0.973-2.545-2.72-4.848-5.014-6.738
			c-7.481,2.896-16.103,2.012-22.114-2.256c7.336,1.221,14.312-0.113,19.811-3.449c5.515-3.318,9.508-8.59,11.197-14.514
			c1.697-5.924,1.133-12.525-1.815-18.24c-2.917-5.752-8.115-10.585-14.999-13.405c2.378-0.148,4.814,0.164,7.182,0.861l0.225-0.733
			c0.395-1.292,0.682-2.569,0.882-3.817c-0.062-1.804-0.255-3.502-0.635-5.104c-0.712-3.189-2.143-6.139-3.957-8.034
			c-0.22-0.225-0.443-0.426-0.65-0.584c-0.062-0.075-0.492-0.373-0.761-0.545c-0.621-0.385-1.256-0.761-1.923-1.081
			c-1.34-0.637-2.796-1.146-4.381-1.506c-3.187-0.728-6.803-0.802-11.009-0.707c1.798-2.146,4.201-3.76,6.933-4.727l0.045-0.212
			c1.066-4.95,0.808-10.364-0.756-15.66c-2.706-9.187-8.893-16.442-16.139-18.937l-0.489-0.169
			c-0.755-0.217-1.513-0.404-2.271-0.525c-4.31-0.694-8.704,0.319-12.445,3.151c-3.792,2.808-6.759,7.249-9.182,12.423
			c-0.784-5.667,0.718-11.96,4.91-16.857c2.077-2.433,4.88-4.417,8.034-5.551c3.063-1.135,6.452-1.415,9.656-0.958
			c0.032-0.426,0.051-0.852,0.051-1.282c0-4.167-1.589-7.999-4.197-10.917c-1.598-1.351-3.31-2.488-5.136-3.375
			c-1.38-0.681-2.836-1.199-4.351-1.598c-0.736-0.208-1.574-0.345-2.279-0.486c-0.41-0.053-0.788-0.105-1.161-0.15l-1.833-0.129
			c-3.148-0.156-6.463,0.258-10.246,1.289c1.949-3.653,5.744-6.301,10.008-7.374c-0.112-0.423-0.251-0.84-0.435-1.239
			c-1.41-3.041-4.851-4.93-8.981-4.93c-2.082,0-4.239,0.49-6.236,1.417c-1.528,0.71-2.891,1.635-4.041,2.719
			c-0.335,0.365-0.655,0.74-0.949,1.127c-2.423,3.183-3.344,7.054-1.884,10.539c0.091,0.155,0.193,0.316,0.312,0.496l1.737,2.604
			c0.75,0.765,1.638,1.461,2.652,2.057c2.077,1.244,4.602,2.013,7.403,2.428c-2.54,1.259-5.582,1.719-8.641,1.209
			c-1.9-0.314-3.827-1.062-5.542-2.235l-0.633,0.039c-2.22,0.139-4.385,0.693-6.435,1.647c-5.123,2.377-8.617,6.854-9.303,11.338
			c-0.007,0.048-0.015,0.095-0.021,0.142c-0.049,0.344-0.082,0.687-0.096,1.03c-0.001,0.012-0.001,0.024-0.002,0.036
			c-0.043,1.119,0.095,2.226,0.437,3.289l0.829,2.585c0.469,0.903,1.05,1.761,1.784,2.583c1.837,2.062,4.5,3.68,7.716,4.862
			c0.139-0.538,0.306-1.069,0.519-1.587c0.986-2.412,2.838-4.527,5.2-5.691c2.331-1.178,5.256-1.274,7.289,0.093
			c-2.26,0.86-3.75,1.997-4.942,3.294c-1.186,1.296-2.05,2.745-2.708,4.31c-0.644,1.559-1.089,3.268-1.272,5.103
			c-0.187,1.844-0.135,3.79,0.333,6.147c-2.216-1.024-3.753-3.262-4.413-5.694c-0.344-1.264-0.456-2.592-0.353-3.915
			c-3.622,0.717-7.684,0.113-11.203-2.101c-1.573-0.984-2.998-2.333-4.135-3.898c-0.756,0.427-1.453,0.933-2.082,1.521
			c-3.862,3.633-4.789,9.996-2.479,17.019l0.12,0.363c1.271,0.012,2.532,0.152,3.758,0.45c3.445,0.824,6.487,2.819,8.367,5.474
			c-1.489-0.644-2.968-1.147-4.423-1.403l-1.129-0.172c-0.318-0.031-0.713-0.07-1.062-0.085c-0.719-0.034-1.429-0.033-2.126,0.031
			c-2.789,0.222-5.371,1.151-7.69,2.525c-4.654,2.754-8.268,7.137-10.798,12.042c-0.644,1.213-1.214,2.528-1.685,3.784
			c-0.527,1.353-0.917,2.658-1.283,4.021c-0.708,2.709-1.11,5.502-1.178,8.33c-0.051,2.823,0.237,5.686,1.021,8.486
			c0.762,2.82,2.058,5.537,4.053,8.1c-2.354-0.926-4.455-2.59-6.156-4.625l-3.809-0.062c-9.037,0.043-16.378,7.41-16.378,16.459
			c0,3.006,0.838,5.965,2.426,8.559l0.431,0.703c0.814-0.143,1.635-0.25,2.456-0.312c3.345-0.254,6.748,0.127,9.725,1.412
			c-6.394,0.797-11.75,3.271-16.453,6.572c-4.693,3.311-8.675,7.475-12.004,12.125c-3.315,4.666-6.008,9.83-7.908,15.35
			c-1.909,5.539-3.028,11.404-3.139,17.83c-1.898-3.496-2.891-7.465-3.162-11.525l-0.185-0.012
			c-4.911-0.297-9.513,4.033-10.877,10.045c-0.697,3.068-0.447,6.135,0.679,8.744c1.599,1.744,3.447,2.857,5.395,3.303
			c2.469,0.568,5.26,0.107,8.061-1.482c1.249-0.699,2.451-1.602,3.618-2.676l0.777-0.957l0.106,0.102
			c1.147-1.164,2.263-2.494,3.353-4.012c0.38,2.191,0.155,4.508-0.595,6.711l0.219,0.215c1.318,1.287,2.785,2.354,4.358,3.168
			c2.63,1.359,5.537,2.051,8.636,2.051c1.879,0,3.801-0.283,5.728-0.777c1.98-0.768,3.907-1.668,5.788-2.695
			c3.379-1.865,6.611-4.111,9.78-6.662c3.191-2.547,6.242-5.416,9.672-8.494c-0.543,4.596-2.467,8.898-5.163,12.688
			c-0.367,0.508-0.752,1.006-1.15,1.492c3.111,3.594,7.627,5.689,12.442,5.689c4.805,0,9.361-2.104,12.5-5.775l0.559-0.648
			c2.503-3.133,4.031-7.057,4.202-11.314c0.183-3.828-0.759-7.838-2.875-11.652c0.015,6.092-2.47,11.928-6.451,15.979
			c2.704-5.842,3.673-12.143,2.257-17.787c-1.345-5.648-5.073-10.32-10.125-12.83c-4.982-2.543-11.048-2.971-16.778-1.541
			c-5.765,1.406-11.187,4.607-15.688,9.225c2.692-5.906,8.054-10.713,14.444-13.15c4.506-1.742,9.646-2.258,14.548-1.242
			c0.333-0.561,0.666-1.105,1.004-1.637c1.021-1.26,1.986-2.527,2.776-3.83c1.611-2.615,2.49-5.277,2.189-7.898
			c-0.131-1.281-0.589-2.744-1.089-3.824c-0.379-0.828-1.391-1.73-2.642-2.445c-2.556-1.447-5.784-2.279-9.274-2.869
			c2.393-1.156,5.105-1.701,7.897-1.471c1.031-0.502,1.845-1.154,2.469-1.887c1.13-1.326,1.78-2.945,2.104-4.68
			c0.17-0.859,0.216-1.787,0.196-2.674c-0.025-0.963-0.151-1.875-0.358-2.834c-0.441-1.902-1.228-3.82-2.82-5.82
			c2.615,0.033,5.1,1.803,6.56,4.129c0.74,1.162,1.266,2.506,1.531,3.852c0.28,1.42,0.292,2.842,0.047,4.273
			c-0.478,2.787-2.133,5.527-4.708,7c1.188,0.619,2.329,1.51,3.235,2.828c1.14,1.902,1.76,3.738,2.037,5.83
			c0.254,2.062-0.004,4.219-0.688,6.125c-0.669,1.92-1.704,3.604-2.878,5.076c-1.173,1.465-2.499,2.721-3.894,3.84
			c0.735,0.285,1.463,0.602,2.173,0.967c3.156,1.604,6.003,4.004,8.05,6.941c2.057,2.939,3.328,6.373,3.727,9.842
			c0.001,0.006,0.002,0.014,0.002,0.02c2.001,1.129,3.803,2.721,5.281,4.615c1.987,2.572,3.35,5.74,3.884,9.086
			c0.068,0.42,0.12,0.84,0.162,1.264l0.056,0.652c0.014,0.191,0.033,0.348,0.04,0.594c0.037,0.906,0.008,1.725-0.058,2.596
			c-0.12,1.717-0.486,3.42-1.023,5.076c-0.432,1.316-0.999,2.59-1.675,3.799c4.285,2.613,9.468,4.043,14.961,4.043
			c4.578,0,8.979-0.99,12.853-2.877c-1.266-1.744-2.209-3.691-2.653-5.775c3.549,2.164,6.767,3.67,10.064,4.805
			c3.279,1.133,6.563,1.869,9.912,2.312c0.825,0.129,1.707,0.203,2.502,0.268c0.36,0.045,0.875,0.072,1.348,0.1l1.23,0.059
			c1.712,0.068,3.436,0.051,5.193-0.025c0.393-0.021,0.788-0.059,1.183-0.086c2.133-0.623,4.149-1.486,6.004-2.561
			c-1.103-1.789-1.928-3.74-2.333-5.766c-0.486-2.488-0.391-5.055,0.467-7.303c1.658,4.492,4.203,7.674,7.226,10.127
			c3.023,2.447,6.514,4.141,10.212,5.266c2.917,0.877,5.992,1.369,9.151,1.518c4.341-0.383,8.382-1.848,11.636-4.16
			c-2.467-2.83-4.179-6.193-4.77-9.818c3.438,2.367,6.465,4.449,9.562,6.035c3.076,1.596,6.144,2.676,9.158,3.102
			c3.009,0.43,6.021,0.191,9.078-0.871c3.069-1.039,6.083-2.975,9.326-5.598c-0.259,3.027-1.552,5.998-3.646,8.449
			c0.26,0.119,0.5,0.264,0.766,0.367c1.795,0.705,3.64,1.061,5.481,1.061c0,0,0,0,0.002,0c0.93,0,1.815-0.111,2.666-0.291
			c2.137-1.922,3.192-4.359,3.183-6.943c0-3.141-1.59-6.607-4.33-9.316C235.705,194.475,234.954,193.828,234.137,193.23z
			 M151.552,171.949l-2.613,0.312c-0.812,0.141-1.692,0.291-2.511,0.463c-3.324,0.67-6.423,1.66-9.057,3.23
			c-2.636,1.564-4.79,3.734-6.459,6.504c-1.682,2.768-2.813,6.051-3.921,9.623c-1.104-3.572-1.125-7.535,0.134-11.326
			c0.174-0.531,0.384-1.057,0.615-1.574c-0.872-1.529-1.969-2.744-3.245-3.645c-2.069-1.486-4.549-2.279-7.153-2.6
			c-2.607-0.314-5.336-0.152-8.09,0.432c-2.772,0.572-5.531,1.586-8.531,2.873c2.47-4.611,7.505-7.814,13.024-8.49
			c-1.566-2.252-2.422-5.053-1.836-7.611c1.515,2.602,3.399,4.316,5.461,5.674c2.056,1.332,4.32,2.256,6.499,2.615
			c2.203,0.328,4.113,0.098,5.66-1.186c0.15-0.121,0.293-0.26,0.434-0.402c-0.133-1.434-0.051-2.85,0.185-4.213
			c0.42-2.371,1.365-4.623,2.762-6.514c1.391-1.889,3.278-3.406,5.392-4.102c-2.79,3.424-3.826,7.301-3.836,11.043
			c-0.007,1.852,0.321,3.684,0.939,5.164c0.311,0.703,0.743,1.375,1.094,1.697c0.037,0.027,0.037,0.043,0.087,0.092l0.319,0.238
			l0.077,0.061c-0.017-0.012-0.048-0.033-0.102-0.074l0.005,0.006l0.013,0.012l0.028,0.021c0.021,0.021,0.043,0.045,0.066,0.064
			c2.959-1.225,6.126-1.68,9.136-1.564c0.967,0.039,1.88,0.127,2.858,0.27c0.864,0.143,1.858,0.287,2.756,0.543
			c1.823,0.461,3.585,1.119,5.2,2.047C155.083,171.711,153.303,171.762,151.552,171.949z"/>
		<path fill="#676768" d="M239.394,185.523c-0.224-2.887-0.759-5.77-1.595-8.605c-3.018-10.229-9.544-18.508-17.587-22.635
			c1.936-4.449,2.021-9.311,0.084-13.48c-1.694-3.652-4.757-6.469-8.646-8.047c0.037-0.615,0.057-1.223,0.057-1.83
			c0-9.482-4.586-18.443-12.14-24.038c2.345-10.497-0.356-19.945-7.344-25.115c-2.34-1.729-5.068-2.884-8.032-3.415
			c0.438-4.936-0.09-10.082-1.571-15.107c-3.019-10.24-9.691-18.658-17.839-22.758c0.188-1.227,0.285-2.471,0.285-3.724
			c0-11.542-8.203-21.391-19.215-23.757c-0.238-1.213-0.618-2.395-1.146-3.53C141.99,3.633,135.816,0,128.595,0
			c-2.504,0-5.056,0.463-7.494,1.326c-2.504,0.815-4.857,2.122-6.911,3.85c-2.48,2.01-4.471,4.494-5.791,7.288
			c-1.696,3.579-2.157,7.329-1.379,10.841c-1.36,0.378-2.693,0.871-3.992,1.474c-8.301,3.854-13.556,11.412-13.948,19.107
			c-0.005,0.126-0.013,0.255-0.015,0.382c-0.023,0.731-0.017,1.464,0.052,2.193c-1.686,0.827-3.22,1.885-4.586,3.168
			c-5.282,4.968-7.285,12.628-5.653,21.032c-8.702,2.852-16.331,11.002-19.752,21.527c-2.213,6.814-2.466,13.899-0.807,20.139
			c-10.931,2.381-19.141,12.131-19.141,23.764c0,2.986,0.557,5.938,1.629,8.717c-8.11,4.256-15.224,11.582-19.902,20.627
			c-2.288,4.426-3.906,9.025-4.826,13.719c-7.252,1.273-13.502,7.588-15.398,15.945c-1.166,5.127-0.58,10.357,1.646,14.732
			c2.351,4.619,6.221,7.744,10.903,8.812c4.883,1.104,10.115-0.309,14.221-3.721c1.04,0.754,2.127,1.426,3.256,2.012
			c3.757,1.939,7.877,2.926,12.246,2.926c6.501,0,13.28-2.242,19.427-6.371c4.556,4.826,10.915,7.615,17.67,7.615
			c5.367,0,10.51-1.789,14.71-4.994c0.348-0.26,0.69-0.531,1.024-0.809c0.045-0.039,0.096-0.07,0.142-0.111
			c5.688,3.729,12.66,5.754,19.991,5.754c5.871,0,11.546-1.307,16.551-3.795c5.006,2.488,10.679,3.795,16.552,3.795
			c6.854,0,13.491-1.809,19.004-5.137c5.075,3.432,11.337,5.297,17.941,5.297c7.204,0,14.105-2.281,19.372-6.334
			c5.418,2.625,11.277,3.221,16.581,1.656c0.306-0.09,0.616-0.188,0.924-0.297c1.166,0.721,2.396,1.33,3.671,1.834
			c2.715,1.066,5.527,1.605,8.354,1.605c0,0,0,0,0.002,0c7.713,0,14.311-4.109,16.808-10.473
			C255.181,200.172,249.673,189.625,239.394,185.523z M237.536,211.418c-0.851,0.18-1.736,0.291-2.666,0.291
			c-0.002,0-0.002,0-0.002,0c-1.842,0-3.687-0.355-5.481-1.061c-0.266-0.104-0.506-0.248-0.766-0.367
			c2.094-2.451,3.387-5.422,3.646-8.449c-3.243,2.623-6.257,4.559-9.326,5.598c-3.057,1.062-6.069,1.301-9.078,0.871
			c-3.015-0.426-6.082-1.506-9.158-3.102c-3.097-1.586-6.124-3.668-9.562-6.035c0.591,3.625,2.303,6.988,4.77,9.818
			c-3.254,2.312-7.295,3.777-11.636,4.16c-3.159-0.148-6.234-0.641-9.151-1.518c-3.698-1.125-7.188-2.818-10.212-5.266
			c-3.022-2.453-5.567-5.635-7.226-10.127c-0.857,2.248-0.953,4.814-0.467,7.303c0.405,2.025,1.23,3.977,2.333,5.766
			c-1.854,1.074-3.871,1.938-6.004,2.561c-0.395,0.027-0.79,0.064-1.183,0.086c-1.758,0.076-3.481,0.094-5.193,0.025l-1.23-0.059
			c-0.473-0.027-0.987-0.055-1.348-0.1c-0.795-0.064-1.677-0.139-2.502-0.268c-3.349-0.443-6.633-1.18-9.912-2.312
			c-3.298-1.135-6.516-2.641-10.064-4.805c0.444,2.084,1.388,4.031,2.653,5.775c-3.875,1.887-8.275,2.877-12.853,2.877
			c-5.494,0-10.676-1.43-14.961-4.043c0.676-1.209,1.244-2.482,1.675-3.799c0.537-1.656,0.903-3.359,1.023-5.076
			c0.066-0.871,0.095-1.689,0.058-2.596c-0.006-0.246-0.025-0.402-0.04-0.594l-0.056-0.652c-0.042-0.424-0.094-0.844-0.162-1.264
			c-0.534-3.346-1.896-6.514-3.884-9.086c-1.478-1.895-3.28-3.486-5.281-4.615c0-0.006-0.001-0.014-0.002-0.02
			c-0.399-3.469-1.67-6.902-3.727-9.842c-2.047-2.938-4.894-5.338-8.05-6.941c-0.71-0.365-1.438-0.682-2.173-0.967
			c1.395-1.119,2.721-2.375,3.894-3.84c1.174-1.473,2.209-3.156,2.878-5.076c0.684-1.906,0.942-4.062,0.688-6.125
			c-0.277-2.092-0.897-3.928-2.037-5.83c-0.906-1.318-2.047-2.209-3.235-2.828c2.576-1.473,4.231-4.213,4.708-7
			c0.245-1.432,0.233-2.854-0.047-4.273c-0.265-1.346-0.792-2.689-1.531-3.852c-1.46-2.326-3.945-4.096-6.56-4.129
			c1.592,2,2.379,3.918,2.82,5.82c0.207,0.959,0.333,1.871,0.358,2.834c0.02,0.887-0.026,1.814-0.196,2.674
			c-0.323,1.734-0.973,3.354-2.104,4.68c-0.624,0.732-1.438,1.385-2.469,1.887c-2.792-0.23-5.504,0.314-7.897,1.471
			c3.49,0.59,6.718,1.422,9.274,2.869c1.251,0.715,2.263,1.617,2.642,2.445c0.5,1.08,0.958,2.543,1.089,3.824
			c0.301,2.621-0.579,5.283-2.189,7.898c-0.79,1.303-1.755,2.57-2.776,3.83c-0.338,0.531-0.671,1.076-1.004,1.637
			c-4.902-1.016-10.042-0.5-14.548,1.242c-6.39,2.438-11.751,7.244-14.444,13.15c4.501-4.617,9.923-7.818,15.688-9.225
			c5.73-1.43,11.796-1.002,16.778,1.541c5.051,2.51,8.78,7.182,10.125,12.83c1.416,5.645,0.446,11.945-2.257,17.787
			c3.98-4.051,6.465-9.887,6.451-15.979c2.117,3.814,3.059,7.824,2.875,11.652c-0.171,4.258-1.699,8.182-4.202,11.314l-0.559,0.648
			c-3.14,3.672-7.696,5.775-12.5,5.775c-4.815,0-9.332-2.096-12.442-5.689c0.398-0.486,0.783-0.984,1.15-1.492
			c2.696-3.789,4.62-8.092,5.163-12.688c-3.43,3.078-6.481,5.947-9.672,8.494c-3.168,2.551-6.401,4.797-9.78,6.662
			c-1.881,1.027-3.807,1.928-5.788,2.695c-1.927,0.494-3.849,0.777-5.728,0.777c-3.099,0-6.005-0.691-8.636-2.051
			c-1.574-0.814-3.041-1.881-4.358-3.168l-0.219-0.215c0.75-2.203,0.975-4.52,0.595-6.711c-1.09,1.518-2.206,2.848-3.353,4.012
			l-0.106-0.102l-0.777,0.957c-1.167,1.074-2.369,1.977-3.618,2.676c-2.801,1.59-5.592,2.051-8.061,1.482
			c-1.948-0.445-3.796-1.559-5.395-3.303c-1.125-2.609-1.375-5.676-0.679-8.744c1.364-6.012,5.967-10.342,10.877-10.045l0.185,0.012
			c0.271,4.061,1.264,8.029,3.162,11.525c0.111-6.426,1.23-12.291,3.139-17.83c1.9-5.52,4.593-10.684,7.908-15.35
			c3.329-4.65,7.311-8.814,12.004-12.125c4.703-3.301,10.06-5.775,16.453-6.572c-2.977-1.285-6.38-1.666-9.725-1.412
			c-0.821,0.062-1.642,0.17-2.456,0.312l-0.431-0.703c-1.587-2.594-2.426-5.553-2.426-8.559c0-9.049,7.341-16.416,16.378-16.459
			l3.809,0.062c1.702,2.035,3.802,3.699,6.156,4.625c-1.996-2.562-3.292-5.279-4.053-8.1c-0.785-2.801-1.072-5.663-1.021-8.486
			c0.068-2.828,0.469-5.621,1.178-8.33c0.367-1.362,0.756-2.668,1.283-4.021c0.471-1.255,1.042-2.571,1.685-3.784
			c2.53-4.906,6.145-9.288,10.798-12.042c2.319-1.374,4.901-2.303,7.69-2.525c0.697-0.063,1.407-0.065,2.126-0.031
			c0.35,0.015,0.744,0.054,1.062,0.085l1.129,0.172c1.455,0.256,2.935,0.759,4.423,1.403c-1.88-2.655-4.922-4.65-8.367-5.474
			c-1.226-0.298-2.487-0.438-3.758-0.45l-0.12-0.363c-2.31-7.023-1.383-13.386,2.479-17.019c0.629-0.589,1.326-1.095,2.082-1.521
			c1.137,1.565,2.562,2.914,4.135,3.898c3.52,2.214,7.582,2.818,11.203,2.101c-0.104,1.323,0.009,2.65,0.353,3.915
			c0.66,2.432,2.197,4.67,4.413,5.694c-0.468-2.357-0.52-4.303-0.333-6.147c0.183-1.834,0.628-3.544,1.272-5.103
			c0.658-1.565,1.523-3.014,2.708-4.31c1.191-1.297,2.682-2.434,4.942-3.294c-2.033-1.367-4.958-1.271-7.289-0.093
			c-2.362,1.164-4.214,3.279-5.2,5.691c-0.213,0.519-0.38,1.049-0.519,1.587c-3.215-1.182-5.878-2.8-7.716-4.862
			c-0.733-0.823-1.314-1.681-1.784-2.583l-0.829-2.585c-0.342-1.063-0.48-2.17-0.437-3.289c0.001-0.012,0.001-0.024,0.002-0.036
			c0.014-0.344,0.047-0.687,0.096-1.03c0.006-0.046,0.014-0.093,0.021-0.142c0.686-4.484,4.18-8.96,9.303-11.338
			c2.05-0.954,4.215-1.508,6.435-1.647l0.633-0.039c1.715,1.173,3.642,1.92,5.542,2.235c3.06,0.509,6.101,0.05,8.641-1.209
			c-2.802-0.415-5.326-1.184-7.403-2.428c-1.014-0.595-1.902-1.292-2.652-2.057l-1.737-2.604c-0.119-0.179-0.22-0.341-0.312-0.496
			c-1.46-3.484-0.539-7.356,1.884-10.539c0.294-0.387,0.613-0.762,0.949-1.127c1.15-1.084,2.513-2.009,4.041-2.719
			c1.998-0.927,4.154-1.417,6.236-1.417c4.131,0,7.571,1.889,8.981,4.93c0.184,0.399,0.322,0.816,0.435,1.239
			c-4.264,1.073-8.059,3.721-10.008,7.374c3.783-1.031,7.098-1.445,10.246-1.289l1.833,0.129c0.373,0.045,0.751,0.097,1.161,0.15
			c0.705,0.142,1.543,0.278,2.279,0.486c1.515,0.398,2.971,0.917,4.351,1.598c1.826,0.887,3.538,2.024,5.136,3.375
			c2.608,2.918,4.197,6.75,4.197,10.917c0,0.43-0.019,0.856-0.051,1.282c-3.204-0.457-6.593-0.177-9.656,0.958
			c-3.154,1.134-5.957,3.119-8.034,5.551c-4.192,4.897-5.694,11.191-4.91,16.857c2.423-5.174,5.39-9.615,9.182-12.423
			c3.741-2.832,8.136-3.845,12.445-3.151c0.759,0.121,1.517,0.308,2.271,0.525l0.489,0.169c7.246,2.495,13.433,9.75,16.139,18.937
			c1.563,5.296,1.822,10.71,0.756,15.66l-0.045,0.212c-2.731,0.967-5.135,2.581-6.933,4.727c4.206-0.095,7.822-0.021,11.009,0.707
			c1.585,0.361,3.041,0.869,4.381,1.506c0.667,0.32,1.302,0.696,1.923,1.081c0.269,0.173,0.698,0.471,0.761,0.545
			c0.207,0.158,0.431,0.359,0.65,0.584c1.814,1.895,3.245,4.845,3.957,8.034c0.38,1.602,0.573,3.3,0.635,5.104
			c-0.2,1.248-0.487,2.525-0.882,3.817l-0.225,0.733c-2.367-0.697-4.804-1.009-7.182-0.861c6.884,2.82,12.082,7.653,14.999,13.405
			c2.948,5.715,3.513,12.316,1.815,18.24c-1.689,5.924-5.683,11.195-11.197,14.514c-5.498,3.336-12.475,4.67-19.811,3.449
			c6.012,4.268,14.633,5.152,22.114,2.256c2.294,1.891,4.041,4.193,5.014,6.738c1.64,4.098,0.996,8.637-1.528,11.91
			c-2.501,3.303-6.722,5.352-11.216,5.602c-4.544,0.254-9.289-1.143-13.331-4.416c1.134,2.352,3.068,4.357,5.364,5.848
			c2.333,1.459,5.031,2.41,7.854,2.684c5.624,0.584,11.828-1.682,15.502-6.551c0.896-1.215,1.65-2.549,2.178-3.967
			c0.119-0.361,0.248-0.697,0.354-1.109l0.156-0.582l0.102-0.467c0.17-0.779,0.264-1.496,0.305-2.258
			c0.175-3.008-0.59-6.02-2.057-8.514c-1.517-2.605-3.726-4.645-6.219-6.01c6.644-3.342,11.928-9.619,13.974-16.967
			c0.105-0.377,0.194-0.758,0.286-1.139c0.086,0.033,0.177,0.061,0.261,0.098c0.389,0.566,0.725,1.131,0.996,1.699
			c0.242,0.506,0.448,1.004,0.615,1.506c0.077,0.211,0.167,0.576,0.19,0.678l0.164,0.533c0.027,0.131,0.025,0.205,0.045,0.309
			c0.172,0.934,0.259,1.947,0.186,2.951c-0.113,2.014-0.669,4.188-1.696,6.461c-1.024,2.293-2.492,4.602-4.472,7.34
			c2.546,0.178,5.077-0.57,7.282-1.969l1.281,0.379c7.464,2.207,14.08,9.729,16.862,19.162c0.856,2.908,1.311,5.867,1.375,8.799
			c-1.143,0.094-2.203,0.326-3.211,0.652c-0.403,0.131-0.793,0.283-1.185,0.432c0.513-1.605,0.625-3.359,0.256-5.021
			c-0.593-2.836-2.479-5.318-4.938-6.6c-2.441-1.299-5.436-1.35-7.534,0.029c2.335,0.82,3.956,1.971,5.132,3.299
			c1.167,1.324,1.888,2.824,2.217,4.359c0.317,1.547,0.271,3.18-0.274,4.834c-0.285,0.838-0.655,1.637-1.276,2.52
			c-0.512,0.795-1.284,1.623-2.204,2.449c1.237,0.258,2.514,0.105,3.796-0.428c1.164-0.461,2.33-1.332,3.203-2.404
			c0.424-0.512,0.782-1.08,1.083-1.68c1.807,0.395,3.544,0.73,4.954,1.346c0.454,0.195,0.868,0.402,1.212,0.65
			c0.131,0.113,0.471,0.293,0.692,0.432l0.58,0.426c0.817,0.598,1.568,1.244,2.252,1.928c2.74,2.709,4.33,6.176,4.33,9.316
			C240.729,207.059,239.673,209.496,237.536,211.418z"/>
		<path fill="#676768" d="M148.987,169.043c-0.979-0.143-1.892-0.23-2.858-0.27c-3.01-0.115-6.177,0.34-9.136,1.564
			c-0.023-0.02-0.046-0.043-0.066-0.064l-0.028-0.021l-0.013-0.012l-0.005-0.006c0.054,0.041,0.085,0.062,0.102,0.074l-0.077-0.061
			l-0.319-0.238c-0.05-0.049-0.05-0.064-0.087-0.092c-0.351-0.322-0.783-0.994-1.094-1.697c-0.618-1.48-0.946-3.312-0.939-5.164
			c0.01-3.742,1.046-7.619,3.836-11.043c-2.113,0.695-4.001,2.213-5.392,4.102c-1.396,1.891-2.342,4.143-2.762,6.514
			c-0.235,1.363-0.317,2.779-0.185,4.213c-0.141,0.143-0.283,0.281-0.434,0.402c-1.547,1.283-3.457,1.514-5.66,1.186
			c-2.179-0.359-4.443-1.283-6.499-2.615c-2.062-1.357-3.946-3.072-5.461-5.674c-0.586,2.559,0.27,5.359,1.836,7.611
			c-5.519,0.676-10.555,3.879-13.024,8.49c3-1.287,5.758-2.301,8.531-2.873c2.753-0.584,5.483-0.746,8.09-0.432
			c2.604,0.32,5.083,1.113,7.153,2.6c1.276,0.9,2.373,2.115,3.245,3.645c-0.231,0.518-0.441,1.043-0.615,1.574
			c-1.259,3.791-1.238,7.754-0.134,11.326c1.107-3.572,2.239-6.855,3.921-9.623c1.669-2.77,3.823-4.939,6.459-6.504
			c2.634-1.57,5.732-2.561,9.057-3.23c0.818-0.172,1.698-0.322,2.511-0.463l2.613-0.312c1.751-0.188,3.531-0.238,5.392-0.316
			c-1.615-0.928-3.377-1.586-5.2-2.047C150.846,169.33,149.852,169.186,148.987,169.043z"/>
	</g>
	<g>
		<g>
			<path fill="#676768" d="M101.35,148.65c1.612-1.941,3.84-3.424,6.416-4.156c1.287-0.359,2.667-0.508,4.052-0.383
				c1.376,0.119,2.78,0.545,3.985,1.184c2.554,1.336,4.334,3.705,5.2,6.215c0.867,2.521,0.953,5.188,0.322,7.631
				c-0.625-2.439-1.342-4.713-2.475-6.67c-1.104-1.951-2.622-3.559-4.424-4.512c-1.87-1.01-3.982-1.357-6.223-1.154
				C105.959,146.986,103.69,147.723,101.35,148.65z"/>
		</g>
		<g>
			<path fill="#676768" d="M157.379,147.574c-1.098-2.76-0.7-6.039,0.492-8.832c1.203-2.818,3.243-5.287,5.666-7.109
				c2.471-1.865,5.386-3.111,8.452-3.461c3.023-0.346,6.312,0.279,8.562,2.229c-2.817-0.791-5.565-0.613-8.132,0.09
				c-2.562,0.701-4.961,1.951-7.055,3.52c-2.142,1.613-3.979,3.543-5.404,5.811C158.539,142.082,157.548,144.656,157.379,147.574z"
				/>
		</g>
		<g>
			<path fill="#FFFFFF" stroke="#676768" stroke-width="3" stroke-miterlimit="10" d="M130.019,143.238
				c1.884-0.873,3.823-1.408,5.733-1.662c1.659-4.506,4.21-7.824,7.473-10.129c3.808-2.686,9.321-3.861,14.101-1.828
				c2.563-4.842,4.02-10.361,4.02-16.217c0-0.604-0.018-1.203-0.048-1.795c-3.265-1.157-5.941-3.368-7.386-6.478
				c-1.169-2.518-1.359-5.274-0.743-7.954c-4.943-0.48-9.23-3.058-11.207-7.314c-0.931-2.007-1.231-4.165-1.009-6.314
				c-3.202,2.285-7.483,3.527-12.083,3.186c-2.843-0.211-5.47-1.005-7.734-2.222c-1.615,1.712-3.616,3.196-5.962,4.287
				c-4.745,2.203-9.821,2.351-13.918,0.799c-5.848,6.22-9.439,14.59-9.439,23.805c0,18.191,13.973,33.107,31.77,34.625
				C125.271,146.098,127.442,144.436,130.019,143.238z"/>
		</g>
		<circle fill="#676768" cx="122.597" cy="114.064" r="14.332"/>
		<circle fill="#FFFFFF" cx="115.293" cy="106.099" r="7.177"/>
		<g>
			<path fill="#676768" d="M168.388,111.852c-2.791,0.768-5.915,0.566-8.749-0.623c-2.829-1.173-5.325-3.523-6.567-6.458
				c-1.297-2.948-1.276-6.343-0.224-9.216c1.049-2.883,3.007-5.318,5.451-6.87c-1.546,2.436-2.705,4.934-3.18,7.504
				c-0.492,2.553-0.274,5.132,0.7,7.381c0.976,2.282,2.686,4.193,4.895,5.568C162.917,110.536,165.545,111.367,168.388,111.852z"/>
		</g>
		<g>
			<path fill="#676768" d="M119.278,84.941c-1.502,2.01-3.604,3.511-5.964,4.538c-2.356,1.012-4.988,1.467-7.602,1.291
				c-2.608-0.182-5.22-1.029-7.357-2.579c-2.132-1.533-3.75-3.811-4.192-6.277c1.593,1.915,3.396,3.324,5.409,4.257
				c1.999,0.947,4.157,1.445,6.352,1.608c2.197,0.148,4.437-0.03,6.659-0.533C114.802,86.764,117.021,85.957,119.278,84.941z"/>
		</g>
		<g>
			<path fill="#676768" d="M141.12,83.424c-2.659,2.726-6.544,4.269-10.474,4.528c-3.936,0.29-8.037-0.66-11.458-2.843
				c-3.401-2.145-6.171-5.668-6.837-9.767c-0.357-2.036-0.152-4.091,0.521-5.984c0.695-1.866,1.835-3.516,3.298-4.723
				c-1.961,3.239-2.513,6.953-1.535,10.193c0.974,3.242,3.299,5.927,6.167,7.753c2.877,1.844,6.3,2.841,9.815,3.04
				C134.133,85.783,137.738,85.115,141.12,83.424z"/>
		</g>
		<g>
			<path fill="#676768" d="M153.495,97.215c-3.232,0.38-6.766-0.498-9.521-2.704c-1.396-1.087-2.524-2.493-3.341-4.142
				c-0.779-1.57-1.219-3.4-1.262-5.186c-0.086-3.611,1.342-7.076,3.552-9.678c2.182-2.619,5.174-4.517,8.339-5.289
				c-2.642,1.921-4.842,4.113-6.449,6.671c-1.57,2.543-2.511,5.401-2.442,8.224c0.03,1.417,0.309,2.774,0.863,4.119
				c0.519,1.263,1.32,2.495,2.307,3.552C147.552,94.903,150.361,96.352,153.495,97.215z"/>
		</g>
		<g>
			<path fill="#676768" d="M120.604,155.691c0.051-3.131,1.484-6.236,3.603-8.672c2.116-2.469,4.956-4.309,8.049-5.355
				c3.096-1.045,6.508-1.289,9.687-0.492c3.159,0.752,6.142,2.609,7.748,5.309c-2.525-1.812-5.329-2.723-8.149-3.002
				c-2.828-0.25-5.659,0.131-8.327,1.027c-2.673,0.898-5.172,2.307-7.353,4.156C123.704,150.541,121.878,152.861,120.604,155.691z"
				/>
		</g>
		<g>
			<path fill="#676768" d="M134.603,143.006c0.172-3.002,1.474-5.975,3.419-8.395c0.976-1.211,2.085-2.316,3.295-3.281
				c1.209-0.986,2.637-1.85,4.126-2.424c2.979-1.176,6.396-1.459,9.493-0.473c3.105,0.932,5.702,3.197,6.958,5.939
				c-2.33-1.922-4.872-3.172-7.526-3.566c-2.646-0.391-5.351-0.051-7.858,0.881c-1.261,0.477-2.436,1.051-3.579,1.834
				c-1.164,0.779-2.281,1.619-3.309,2.568C137.553,137.975,135.865,140.287,134.603,143.006z"/>
		</g>
		<polygon fill="#676768" points="121.325,153.4 119.278,148.877 123.211,148.166 		"/>
	</g>
</g>
</svg>
