<?xml version="1.0" encoding="utf-8"?>
<!-- Generator: Adobe Illustrator 15.0.0, SVG Export Plug-In . SVG Version: 6.00 Build 0)  -->
<!DOCTYPE svg PUBLIC "-//W3C//DTD SVG 1.1//EN" "http://www.w3.org/Graphics/SVG/1.1/DTD/svg11.dtd">
<svg version="1.1" id="Layer_1" xmlns="http://www.w3.org/2000/svg" xmlns:xlink="http://www.w3.org/1999/xlink" x="0px" y="0px"
	 width="266.746px" height="234.951px" viewBox="-6.998 -6.999 266.746 234.951"
	 enable-background="new -6.998 -6.999 266.746 234.951" xml:space="preserve">
<g>
	<path fill="#FFFFFF" d="M256.926,193.159c-2.46-4.641-6.318-8.497-11.068-11.125c-0.33-2.139-0.806-4.268-1.424-6.367
		c-2.92-9.901-8.86-18.427-16.394-23.811c0.885-4.591,0.369-9.263-1.564-13.428c-1.762-3.796-4.577-6.961-8.145-9.226
		c-0.479-9.5-4.712-18.43-11.684-24.836c1.453-11.448-2.328-21.817-10.354-27.755c-1.687-1.246-3.543-2.275-5.518-3.067
		c-0.099-4.153-0.76-8.374-1.962-12.455c-3.05-10.343-9.411-19.19-17.454-24.53c0.003-0.152,0.004-0.305,0.004-0.457
		c0-13.17-8.424-24.672-20.576-28.86c-0.158-0.402-0.329-0.799-0.511-1.192c-3.735-8.048-12.057-13.049-21.715-13.049
		c-1.578,0-3.199,0.143-4.818,0.426c-5.666,0.862-11.015,3.533-15.085,7.533c-2.51,2.363-4.499,5.074-5.912,8.058
		c-1.46,3.086-2.244,6.275-2.337,9.447c-0.054,0.025-0.108,0.05-0.162,0.075c-9.571,4.444-16.239,13.143-17.402,22.701l-0.007,0.048
		c-0.028,0.2-0.053,0.4-0.073,0.603c-0.019,0.201-0.029,0.374-0.038,0.547c0,0.005-0.001,0.01-0.001,0.016
		c-0.955,0.671-1.86,1.41-2.714,2.211c-5.775,5.43-8.604,13.178-8.115,21.832c-8.623,4.484-15.681,13.073-19.103,23.604
		c-1.934,5.954-2.59,12.166-1.955,18.047c-11.012,4.723-18.451,15.609-18.451,28.069c0,2.023,0.199,4.022,0.593,5.983
		c-7.491,4.987-13.882,12.212-18.335,20.822c-1.967,3.801-3.499,7.739-4.575,11.755c-7.948,2.973-14.237,10.324-16.339,19.583
		c-3.221,14.184,4.496,28.071,17.203,30.959c1.559,0.353,3.154,0.531,4.747,0.531c3.833,0,7.633-1.032,11.074-2.967
		c0.119,0.063,0.238,0.126,0.357,0.188c4.656,2.407,9.743,3.628,15.12,3.628c6.353,0,12.793-1.713,18.886-4.992
		c5.275,4.017,11.769,6.244,18.507,6.244c5.817,0,11.456-1.656,16.379-4.802c5.944,3.049,12.687,4.642,19.774,4.642
		c5.795,0,11.496-1.113,16.685-3.241c5.188,2.128,10.89,3.241,16.688,3.241c6.738,0,13.224-1.465,19.001-4.268
		c5.451,2.908,11.673,4.428,18.238,4.428c7.322,0,14.362-1.963,20.246-5.592c3.254,1.145,6.628,1.74,9.941,1.74
		c2.123,0,4.22-0.24,6.253-0.714c0.727,0.358,1.468,0.686,2.221,0.982c3.442,1.353,7.02,2.039,10.633,2.039
		c10.277,0,19.134-5.65,22.564-14.396C260.631,205.955,260.16,199.259,256.926,193.159z M235.688,219.408
		c-2.731,0-5.447-0.522-8.07-1.554c-1.378-0.542-2.696-1.219-3.937-2.021c-0.44,0.165-0.88,0.312-1.318,0.44
		c-1.87,0.553-3.813,0.826-5.781,0.826c-3.601,0-7.288-0.914-10.777-2.703c-5.197,4.188-12.144,6.555-19.41,6.555
		c-6.689,0-13.012-1.948-18.054-5.524c-5.508,3.473-12.232,5.364-19.186,5.364c-5.938,0-11.671-1.358-16.688-3.942
		c-5.02,2.584-10.751,3.942-16.686,3.942c-7.466,0-14.544-2.133-20.232-6.052c-0.479,0.437-0.975,0.852-1.489,1.244
		c-0.193,0.15-0.392,0.292-0.589,0.436c-0.155,0.11-0.312,0.219-0.471,0.325c-3.899,2.701-8.541,4.207-13.372,4.207
		c-6.819,0-13.222-2.935-17.666-7.979c-6.215,4.355-13.122,6.727-19.727,6.727c-4.249,0-8.254-0.958-11.905-2.846
		c-1.316-0.681-2.577-1.484-3.767-2.403c-3.138,2.825-6.977,4.4-10.88,4.4c-1.073,0-2.148-0.12-3.196-0.357
		c-8.944-2.032-14.294-12.162-11.927-22.583c1.883-8.295,8.193-14.496,15.402-15.436c0.884-4.873,2.529-9.65,4.903-14.236
		c4.773-9.23,12.104-16.647,20.431-20.779c-1.253-2.918-1.906-6.061-1.906-9.242c0-11.62,8.458-21.303,19.542-23.211
		c-1.928-6.344-1.772-13.686,0.521-20.743c3.461-10.655,11.292-18.82,20.114-21.334c-1.884-8.477-0.015-16.224,5.24-21.163
		c1.467-1.378,3.14-2.488,4.995-3.315c-0.115-0.851-0.146-1.706-0.13-2.562c0.001-0.118-0.001-0.237,0.002-0.355
		c0.008-0.203,0.022-0.405,0.037-0.607c0.008-0.121,0.011-0.242,0.022-0.362c0.016-0.162,0.041-0.32,0.061-0.48
		c0.848-6.974,5.812-13.674,13.402-17.198c1.551-0.72,3.151-1.277,4.788-1.667c-1.036-3.586-0.67-7.49,1.09-11.208
		c1.062-2.242,2.58-4.271,4.439-6.009c3.104-3.073,7.141-5.042,11.357-5.668c1.229-0.219,2.467-0.335,3.692-0.335
		c6.901,0,12.79,3.448,15.366,8.999c0.59,1.27,0.987,2.597,1.192,3.968c10.981,2.042,19.243,11.736,19.243,23.135
		c0,1.45-0.132,2.889-0.393,4.302c8.265,3.886,15.079,12.325,18.128,22.664c1.549,5.256,2.04,10.64,1.456,15.765
		c3.183,0.427,6.107,1.583,8.574,3.406c6.86,5.076,9.412,14.497,6.891,24.947c7.674,5.431,12.356,14.361,12.356,23.827
		c0,0.82-0.036,1.65-0.108,2.483c4.008,1.446,7.16,4.222,8.857,7.879c1.953,4.207,1.729,9.173-0.481,13.628
		c8.255,3.881,15.004,12.229,18.074,22.641c0.883,2.998,1.423,6.044,1.613,9.082c0.148,0.054,0.295,0.108,0.439,0.165
		c9.95,3.907,15.315,14.029,11.964,22.564C249.364,215.501,243.064,219.408,235.688,219.408z"/>
</g>
<g>
	<path fill="none" d="M123.532,147.604l-0.044,0.101c0.023-0.034,0.045-0.07,0.07-0.104
		C123.55,147.602,123.541,147.604,123.532,147.604z"/>
	<path fill="none" d="M115.404,113.716c-2.571,0-4.81-1.428-5.965-3.532c-0.447,1.345-0.699,2.782-0.699,4.28
		c0,7.504,6.082,13.586,13.586,13.586s13.586-6.082,13.588-13.586c0-7.501-6.082-13.584-13.588-13.584
		c-1.082,0-2.129,0.14-3.141,0.379c1.822,1.22,3.021,3.297,3.021,5.655C122.207,110.67,119.16,113.716,115.404,113.716z"/>
	<path fill="none" d="M126.074,205.104c3.25,2.422,6.441,4.193,9.781,5.51c3.326,1.316,6.744,2.162,10.232,2.619
		c0.859,0.131,1.768,0.209,2.607,0.267c0.395,0.043,0.903,0.062,1.385,0.086l1.289,0.039c1.774,0.033,3.559-0.039,5.356-0.203
		c0.862-0.079,1.725-0.186,2.591-0.313c2.005-0.688,3.91-1.568,5.658-2.652c-1.421-1.941-2.514-4.129-3.076-6.428
		c-0.582-2.406-0.619-4.916,0.033-7.185c1.26,4.535,3.674,8.041,6.727,10.72c3.054,2.68,6.701,4.545,10.576,5.721
		c3.324,0.994,6.842,1.475,10.415,1.453c4.537-0.54,8.756-2.183,12.077-4.755c-2.934-2.848-5.092-6.352-6.07-10.179
		c3.119,2.604,6.063,4.91,9.184,6.687c3.098,1.782,6.316,3.021,9.553,3.479c3.23,0.455,6.508,0.099,9.654-1.178
		c3.166-1.259,6.117-3.474,9.027-6.304c-0.588,3.321-2.35,6.511-4.99,8.969c0.564,0.303,1.144,0.58,1.741,0.815
		c1.92,0.755,3.897,1.138,5.875,1.138c2.904,0,5.526-0.855,7.488-2.327c1.323-1.734,2.035-3.79,2.013-5.935
		c-0.002-3.547-1.883-7.258-4.881-9.996c-0.75-0.688-1.566-1.327-2.449-1.905c-0.221-0.146-0.443-0.285-0.672-0.422l-0.33-0.193
		c-0.117-0.063-0.285-0.151-0.361-0.2c-0.395-0.236-0.852-0.429-1.338-0.599c-1.432-0.509-3.097-0.74-4.812-0.987
		c-0.229,0.464-0.485,0.912-0.791,1.325c-0.746,1.035-1.767,1.877-2.81,2.445c-1.131,0.584-2.297,0.903-3.479,0.875
		c0.994-0.605,1.891-1.275,2.565-2.031c0.758-0.778,1.285-1.625,1.705-2.515c0.821-1.774,1.017-3.737,0.629-5.573
		c-0.39-1.832-1.369-3.556-2.83-4.882c-1.452-1.338-3.392-2.248-5.692-2.602c2.17-0.91,4.883-0.611,7.069,0.696
		c2.197,1.299,3.849,3.59,4.39,6.164c0.359,1.644,0.246,3.379-0.282,4.959c0.341-0.102,0.678-0.211,1.026-0.3
		c0.51-0.133,1.031-0.239,1.564-0.324l-0.001-0.098c-0.02-3.209-0.506-6.453-1.445-9.644c-2.895-9.817-9.821-17.654-17.646-19.967
		l-0.404-0.119c-2.136,1.575-4.627,2.548-7.181,2.644c2.168-2.392,3.881-4.607,5.104-6.937c1.229-2.308,1.955-4.662,2.074-6.928
		c0.123-2.257-0.371-4.478-1.603-6.57c-0.226-0.39-0.487-0.771-0.767-1.146c-0.574-0.384-1.192-0.722-1.862-0.997
		c-0.124,0.575-0.26,1.148-0.42,1.715c-1.132,3.93-3.136,7.602-5.837,10.639c-2.616,2.951-5.867,5.317-9.441,6.861
		c2.568,1.46,4.796,3.618,6.259,6.324c1.354,2.41,1.979,5.266,1.805,8.088c-0.188,2.807-1.256,5.594-2.947,7.852
		c-1.731,2.246-4.051,3.986-6.608,5.07c-2.572,1.051-5.361,1.537-8.089,1.32c-5.416-0.342-10.653-3.25-13.348-7.695
		c3.693,3.623,8.604,5.426,13.412,5.355c4.77-0.08,9.484-2.168,12.242-5.861c2.842-3.619,3.383-8.775,1.441-13.096
		c-1.169-2.674-3.146-4.993-5.62-6.772c-7.117,2.619-15.226,1.902-21.22-1.89c7.246,1.613,14.506,0.535,20.305-2.797
		c5.812-3.305,10.107-8.811,11.879-15.045c1.789-6.234,1.09-13.186-2.117-19.053c-3.171-5.906-8.745-10.671-15.758-13.113
		c2.296-0.026,4.613,0.364,6.856,1.089l0.208-0.681c0.04-0.131,0.07-0.259,0.108-0.39c0.401-3.159,0.463-6.137-0.049-8.916
		c-0.293-1.704-0.802-3.32-1.472-4.812c-0.68-1.481-1.557-2.851-2.547-3.904c-0.248-0.258-0.504-0.493-0.754-0.688
		c-0.139-0.131-0.565-0.421-0.873-0.617c-0.676-0.416-1.367-0.808-2.1-1.139c-1.459-0.657-3.037-1.139-4.719-1.435
		c-3.373-0.595-7.071-0.408-11.129,0.071c2.13-2.101,4.864-3.627,7.896-4.402l0.08-0.372c1.109-5.145,0.84-10.768-0.779-16.262
		c-2.816-9.554-9.284-17.112-16.877-19.724l-0.367-0.126c-0.853-0.259-1.711-0.479-2.579-0.617
		c-4.625-0.757-9.402,0.469-13.219,3.583c-3.873,3.088-6.682,7.79-8.73,13.067c-0.4-5.652,1.293-11.771,5.471-16.451
		c2.068-2.327,4.799-4.204,7.852-5.271c3.041-1.097,6.396-1.346,9.562-0.852c0.247,0.041,0.491,0.093,0.736,0.142
		c0.109-0.796,0.172-1.601,0.172-2.413c0-4.25-1.556-8.171-4.122-11.229c-1.751-1.659-3.714-3.018-5.832-4.044
		c-1.476-0.723-3.037-1.26-4.649-1.64c-0.793-0.199-1.666-0.324-2.438-0.44c-0.904-0.093-1.707-0.166-2.58-0.173
		c-3.449-0.077-6.999,0.622-10.779,2.038c2.229-3.39,6.046-5.799,10.253-6.709c0.305-0.069,0.624-0.113,0.938-0.167
		c-0.125-0.765-0.341-1.507-0.668-2.212c-1.582-3.408-5.385-5.525-9.924-5.525c-2.237,0-4.552,0.525-6.69,1.518
		c-1.65,0.766-3.124,1.769-4.365,2.95c-0.363,0.391-0.711,0.795-1.031,1.216c-2.75,3.574-3.699,8.265-1.549,12.133
		c1.023,1.928,2.797,3.571,5.008,4.713c2.211,1.165,4.82,1.79,7.612,2.004c-2.593,1.065-5.596,1.377-8.559,0.774
		c-2.063-0.417-4.12-1.351-5.874-2.762l-0.557,0.035c-2.359,0.149-4.658,0.737-6.835,1.748c-7.351,3.413-11.553,10.937-9.566,17.129
		l0.707,2.206c0.593,1.203,1.377,2.289,2.368,3.299c2.283,2.318,5.537,3.91,9.271,4.831c0.145-0.572,0.328-1.136,0.555-1.685
		c0.922-2.246,2.574-4.233,4.699-5.436c2.104-1.207,4.736-1.54,6.836-0.643c-4.447,0.754-7.285,3.721-8.766,7.229
		c-0.727,1.76-1.118,3.696-1.119,5.678c-0.009,1.988,0.376,4.012,1.225,6.098c-1.856-1.323-3.071-3.517-3.561-5.839
		c-0.292-1.405-0.315-2.871-0.089-4.307c-3.885,0.829-8.283,0.196-11.978-2.247c-1.729-1.131-3.262-2.726-4.386-4.534
		c-1.108,0.535-2.122,1.201-3.005,2.03c-4.173,3.924-5.204,10.711-2.755,18.156l0.214,0.651c1.092,0.01,2.178,0.11,3.24,0.336
		c3.387,0.725,6.456,2.518,8.479,5.047c-2.855-1.479-5.855-2.251-8.765-2.115c-2.894,0.097-5.641,0.962-8.107,2.328
		c-4.956,2.742-8.801,7.29-11.43,12.39c-0.664,1.268-1.253,2.624-1.738,3.944c-0.534,1.394-0.933,2.76-1.292,4.175
		c-0.699,2.818-1.058,5.724-1.043,8.646c0.041,3.527,0.614,7.13,2.015,10.497l0.292,0.604l-0.031-0.001
		c0.883,1.962,2.054,3.836,3.587,5.557c-2.569-1.181-4.745-3.229-6.442-5.626l-2.028-0.049c-0.083-0.002-0.167-0.007-0.249-0.014
		c-9.641,0.044-17.472,7.901-17.472,17.553c0,3.208,0.894,6.366,2.586,9.132l0.414,0.677c0.697-0.135,1.398-0.248,2.102-0.327
		c3.3-0.34,6.665-0.141,9.696,0.965c-6.401,0.393-12.045,2.701-16.956,5.967c-4.913,3.277-9.086,7.533-12.512,12.322
		c-3.415,4.805-6.121,10.16-7.923,15.857c-1.808,5.711-2.713,11.754-2.431,18.146c-1.812-3.878-2.618-8.213-2.654-12.593
		c-5.146,0.071-9.882,4.628-11.301,10.875c-0.738,3.252-0.457,6.439,0.593,9.083c1.696,2.185,3.865,3.677,6.254,4.209
		c2.824,0.662,5.962-0.021,8.823-1.852c2.878-1.82,5.353-4.636,7.435-8.18c0.208,2.451-0.285,4.998-1.375,7.349l0.324,0.317
		c1.397,1.366,2.952,2.496,4.621,3.358c2.792,1.443,5.87,2.176,9.149,2.176c1.769,0,3.574-0.222,5.384-0.641
		c2.305-0.787,4.533-1.801,6.686-2.983c3.506-1.934,6.806-4.322,9.946-7.043c3.156-2.719,6.092-5.782,9.198-9.073
		c-0.902,4.447-2.978,8.608-5.756,12.276c-0.558,0.727-1.154,1.428-1.77,2.112c3.323,4.157,8.338,6.604,13.705,6.604
		c4.473,0,8.742-1.712,11.982-4.748c0.012-0.011,0.022-0.02,0.033-0.029c0.46-0.434,0.899-0.894,1.315-1.379l0.527-0.616
		c2.69-3.364,4.26-7.627,4.294-12.121c0.078-4.644-1.508-9.42-4.635-13.571c0.794,6.572-1.462,13.195-5.521,17.983
		c3.126-5.621,4.445-12.103,3.167-18.087c-1.229-5.973-5.166-11.147-10.574-13.791c-5.328-2.756-11.797-3.049-17.708-1.399
		c-5.943,1.656-11.398,5.223-15.541,10.16c3.109-5.67,8.523-10.179,14.833-12.394c3.146-1.146,6.537-1.649,9.928-1.553
		c1.444,0.059,2.886,0.252,4.304,0.564l1.754-2.176c1.124-1.231,2.157-2.526,3.044-3.873c1.787-2.687,2.865-5.688,2.506-8.68
		c-0.164-1.472-0.661-3.025-1.305-4.291c-0.61-1.115-1.853-2.037-3.242-2.74c-2.85-1.362-6.228-1.923-9.688-2.052
		c2.313-0.771,4.827-1.075,7.344-0.799c1.434-0.307,2.681-0.952,3.641-1.863c1.465-1.365,2.347-3.25,2.707-5.234
		c0.188-0.99,0.221-2.035,0.146-3.043c-0.079-1.055-0.294-2.068-0.618-3.08c-0.662-2.016-1.834-3.912-3.657-5.502
		c2.415,0.461,4.541,2.282,5.798,4.53c0.629,1.129,1.073,2.392,1.288,3.662c0.225,1.313,0.226,2.642-0.005,3.959
		c-0.452,2.606-1.929,5.155-4.254,6.601c-0.497,0.314-1.034,0.552-1.584,0.737c1.683,0.599,3.389,1.59,4.552,3.339
		c1.009,1.736,1.601,3.506,1.847,5.439c0.229,1.918,0.001,3.904-0.625,5.699c-0.614,1.807-1.569,3.428-2.67,4.871
		c-1.099,1.453-2.381,2.709-3.706,3.879c-0.502,0.382-1.034,0.728-1.578,1.053c1.322,0.394,2.614,0.896,3.856,1.517
		c3.032,1.564,5.765,3.832,7.765,6.632c1.871,2.655,3.141,5.717,3.647,8.881c2.276,1.259,4.3,3.093,5.896,5.293
		c1.865,2.592,3.117,5.711,3.574,8.983c0.059,0.41,0.103,0.82,0.137,1.231l0.043,0.634c0.011,0.19,0.024,0.354,0.027,0.588
		c0.021,0.873-0.016,1.676-0.09,2.519c-0.143,1.668-0.511,3.319-1.047,4.918c-0.529,1.57-1.249,3.077-2.126,4.487
		c4.614,3.04,10.317,4.701,16.369,4.701c5.019,0,9.835-1.16,14.03-3.341C128.135,209.594,126.802,207.453,126.074,205.104z
		 M91.646,113.831c0-8.366,3.012-16.35,8.495-22.631c-0.19-0.103-0.384-0.203-0.569-0.316c-2.303-1.363-4.123-3.588-4.717-6.069
		c1.771,1.821,3.7,3.095,5.807,3.883c2.094,0.791,4.311,1.15,6.553,1.138c2.243-0.005,4.502-0.381,6.751-1.032
		c0.549-0.146,1.11-0.327,1.705-0.548c0.495-0.205,1.046-0.468,1.54-0.772c0.732-0.447,1.438-0.964,2.062-1.596
		c-3.107-2.056-5.614-5.323-6.22-9.115c-0.335-1.942-0.132-3.896,0.515-5.696c0.672-1.773,1.764-3.335,3.164-4.468
		c-1.834,3.092-2.328,6.6-1.396,9.649c0.931,3.05,3.123,5.574,5.828,7.297c2.713,1.738,5.94,2.686,9.261,2.886
		c1.693,0.083,3.409-0.037,5.111-0.38c1.15-0.434,2.229-0.994,3.205-1.676c0.317-2.814,1.546-5.451,3.306-7.509
		c2.082-2.486,4.942-4.275,7.955-4.977c-2.49,1.852-4.558,3.935-6.063,6.359c-1.474,2.41-2.351,5.104-2.287,7.76
		c0.028,1.334,0.289,2.608,0.811,3.876c0.482,1.188,1.234,2.351,2.159,3.353c1.396,1.486,3.209,2.631,5.261,3.472
		c0.403,0.085,0.821,0.141,1.241,0.191c0.093-0.342,0.199-0.68,0.321-1.009c1.01-2.742,2.887-5.049,5.227-6.497
		c-1.441,2.332-2.52,4.702-2.955,7.131c-0.451,2.413-0.238,4.836,0.678,6.949c0.918,2.146,2.518,3.947,4.596,5.256
		c2.069,1.33,4.549,2.134,7.246,2.627c-1.825,0.524-3.806,0.593-5.746,0.224l0.022,0.471c0.028,0.587,0.045,1.178,0.045,1.772
		c0,5.297-1.175,10.382-3.49,15.116l-0.187,0.381c2.052,1.347,3.564,3.288,4.466,5.415c1.152-2.535,3.011-4.758,5.209-6.414
		c2.354-1.773,5.129-2.955,8.05-3.279c2.879-0.316,6.012,0.297,8.129,2.174c-2.687-0.721-5.275-0.529-7.697,0.146
		c-2.416,0.674-4.678,1.857-6.65,3.338c-2.023,1.523-3.76,3.338-5.115,5.475c-1.355,2.129-2.311,4.549-2.507,7.319
		c-1.016-2.477-0.735-5.409,0.254-7.976c-1.633-1.95-3.506-3.527-5.645-4.41c-2.582-1.068-5.437-1.178-8.14-0.525
		c-1.354,0.316-2.668,0.832-3.891,1.504l-0.443,0.256l-0.447,0.281c-0.276,0.184-0.553,0.381-0.819,0.596
		c-0.531,0.435-1.051,0.92-1.549,1.447c-0.915,0.981-1.765,2.091-2.632,3.218c-0.003,0.007-0.007,0.013-0.011,0.02
		c-0.553,0.943-1.13,1.899-1.729,2.825c1.827-0.19,3.684-0.093,5.465,0.35c3,0.744,5.836,2.518,7.332,5.104
		c-2.418-1.69-5.066-2.543-7.736-2.776c-2.668-0.24-5.34,0.14-7.854,0.979c-2.521,0.852-4.892,2.166-6.946,3.916
		c-1.578,1.342-2.957,2.942-4.076,4.814c0.259,1.718,0.166,3.448-0.275,5.072c-0.625-2.312-1.32-4.459-2.402-6.301
		c-1.052-1.836-2.484-3.34-4.173-4.232c-1.757-0.949-3.736-1.283-5.853-1.104c-2.119,0.158-4.271,0.836-6.509,1.688
		c1.509-1.867,3.62-3.291,6.071-4.002c0.278-0.079,0.562-0.144,0.849-0.201C98.861,138.121,91.646,126.625,91.646,113.831z
		 M124.838,175.212c-2.102-1.646-4.706-2.532-7.41-2.864c-2.712-0.324-5.535-0.103-8.318,0.592c-2.801,0.68-5.535,1.85-8.357,3.322
		c2.889-4.559,8.269-7.616,13.992-7.965c-1.973-2.248-3.229-5.268-2.818-8.117c1.255,2.646,3.066,4.551,5.13,6.025
		c2.06,1.461,4.401,2.48,6.72,2.863c2.328,0.361,4.522,0.024,6.125-1.488c0.223-0.205,0.432-0.438,0.632-0.686
		c-0.153-1.414-0.091-2.818,0.118-4.18c0.369-2.309,1.231-4.518,2.535-6.404c1.312-1.871,3.063-3.438,5.102-4.246
		c-1.471,1.605-2.562,3.359-3.244,5.238c-0.701,1.865-1.045,3.818-1.098,5.738c-0.049,1.91,0.233,3.828,0.887,5.424
		c0.334,0.787,0.762,1.484,1.256,1.955c0.198,0.236,0.494,0.323,0.734,0.672c2.981-1.33,6.216-1.867,9.317-1.824
		c0.947,0.016,1.854,0.073,2.813,0.184c0.869,0.109,1.839,0.227,2.734,0.441c1.812,0.383,3.574,0.957,5.219,1.768
		c-1.834-0.041-3.606-0.074-5.364,0.035c-0.888,0.053-1.707,0.127-2.627,0.215c-0.83,0.105-1.714,0.227-2.55,0.375
		c-3.375,0.574-6.584,1.531-9.321,3.16c-2.744,1.619-4.972,3.94-6.584,6.828c-1.626,2.885-2.622,6.242-3.47,9.81
		c-0.842-3.569-0.729-7.447,0.578-11.11c0.173-0.484,0.372-0.962,0.591-1.433C127.363,177.762,126.242,176.29,124.838,175.212z"/>
	<path fill="#FFFFFF" d="M239.784,186.892c-0.145-0.057-0.291-0.111-0.439-0.165c-0.19-3.038-0.73-6.084-1.613-9.082
		c-3.07-10.411-9.819-18.76-18.074-22.641c2.21-4.455,2.435-9.421,0.481-13.628c-1.697-3.657-4.85-6.433-8.857-7.879
		c0.072-0.833,0.108-1.663,0.108-2.483c0-9.466-4.683-18.396-12.356-23.827c2.521-10.45-0.03-19.871-6.891-24.947
		c-2.467-1.823-5.392-2.979-8.574-3.406c0.584-5.125,0.093-10.509-1.456-15.765c-3.049-10.339-9.863-18.778-18.128-22.664
		c0.261-1.413,0.393-2.852,0.393-4.302c0-11.399-8.262-21.092-19.243-23.135c-0.205-1.372-0.603-2.699-1.192-3.968
		c-2.576-5.551-8.465-8.999-15.366-8.999c-1.226,0-2.463,0.116-3.692,0.335c-4.217,0.625-8.254,2.595-11.357,5.668
		c-1.859,1.739-3.378,3.768-4.439,6.009c-1.76,3.718-2.126,7.622-1.09,11.208c-1.637,0.39-3.236,0.947-4.787,1.667
		c-7.59,3.524-12.555,10.224-13.402,17.198c-0.021,0.16-0.045,0.319-0.061,0.48c-0.012,0.121-0.014,0.242-0.022,0.362
		c-0.015,0.202-0.028,0.404-0.036,0.607c-0.004,0.118-0.002,0.237-0.003,0.355c-0.016,0.855,0.015,1.711,0.13,2.562
		c-1.855,0.827-3.528,1.937-4.995,3.315c-5.254,4.939-7.124,12.686-5.24,21.163c-8.822,2.515-16.653,10.68-20.114,21.334
		c-2.293,7.057-2.448,14.398-0.521,20.743c-11.084,1.908-19.542,11.591-19.542,23.211c0,3.182,0.652,6.324,1.906,9.242
		c-8.327,4.132-15.657,11.549-20.431,20.779c-2.374,4.586-4.019,9.363-4.903,14.236c-7.209,0.939-13.519,7.141-15.402,15.436
		c-2.367,10.421,2.983,20.551,11.927,22.583c1.048,0.237,2.123,0.357,3.196,0.357c3.903,0,7.742-1.575,10.88-4.4
		c1.19,0.919,2.451,1.723,3.767,2.403c3.651,1.888,7.656,2.846,11.905,2.846c6.605,0,13.512-2.371,19.727-6.727
		c4.444,5.044,10.846,7.979,17.666,7.979c4.832,0,9.473-1.506,13.372-4.207c0.158-0.106,0.315-0.215,0.471-0.325
		c0.197-0.144,0.396-0.285,0.589-0.436c0.515-0.393,1.011-0.808,1.489-1.244c5.688,3.919,12.767,6.052,20.232,6.052
		c5.935,0,11.666-1.358,16.686-3.942c5.017,2.584,10.749,3.942,16.688,3.942c6.953,0,13.678-1.892,19.186-5.364
		c5.042,3.576,11.364,5.524,18.054,5.524c7.267,0,14.213-2.366,19.41-6.555c5.396,2.767,11.267,3.44,16.559,1.877
		c0.438-0.129,0.878-0.275,1.318-0.44c1.24,0.802,2.559,1.479,3.937,2.021c2.623,1.031,5.339,1.554,8.07,1.554
		c7.377,0,13.677-3.907,16.048-9.952C255.1,200.921,249.734,190.799,239.784,186.892z M99.425,210.091
		c0.877-1.41,1.597-2.917,2.126-4.487c0.536-1.599,0.904-3.25,1.047-4.918c0.074-0.843,0.111-1.646,0.09-2.519
		c-0.003-0.233-0.017-0.397-0.027-0.588l-0.043-0.634c-0.034-0.411-0.078-0.821-0.137-1.231c-0.457-3.272-1.709-6.392-3.574-8.983
		c-1.596-2.2-3.619-4.034-5.896-5.293c-0.507-3.164-1.776-6.226-3.647-8.881c-2-2.8-4.732-5.067-7.765-6.632
		c-1.242-0.621-2.535-1.123-3.856-1.517c0.544-0.325,1.075-0.671,1.578-1.053c1.325-1.17,2.607-2.426,3.706-3.879
		c1.101-1.443,2.056-3.064,2.67-4.871c0.626-1.795,0.854-3.781,0.625-5.699c-0.246-1.934-0.838-3.703-1.847-5.439
		c-1.163-1.749-2.87-2.74-4.552-3.339c0.551-0.186,1.088-0.423,1.584-0.737c2.325-1.445,3.802-3.994,4.254-6.601
		c0.231-1.317,0.23-2.646,0.005-3.959c-0.215-1.271-0.659-2.533-1.288-3.662c-1.257-2.248-3.383-4.069-5.798-4.53
		c1.823,1.59,2.995,3.486,3.657,5.502c0.324,1.012,0.539,2.025,0.618,3.08c0.075,1.008,0.042,2.053-0.146,3.043
		c-0.36,1.984-1.242,3.869-2.707,5.234c-0.96,0.911-2.207,1.557-3.641,1.863c-2.518-0.276-5.031,0.028-7.344,0.799
		c3.46,0.129,6.838,0.689,9.688,2.052c1.389,0.703,2.632,1.625,3.242,2.74c0.644,1.266,1.141,2.819,1.305,4.291
		c0.359,2.991-0.719,5.993-2.506,8.68c-0.887,1.347-1.92,2.642-3.044,3.873l-1.754,2.176c-1.418-0.312-2.859-0.506-4.304-0.564
		c-3.391-0.097-6.782,0.407-9.928,1.553c-6.31,2.215-11.724,6.724-14.833,12.394c4.143-4.938,9.598-8.504,15.541-10.16
		c5.911-1.649,12.38-1.356,17.708,1.399c5.408,2.644,9.345,7.818,10.574,13.791c1.278,5.984-0.041,12.466-3.167,18.087
		c4.059-4.788,6.314-11.411,5.521-17.983c3.127,4.151,4.713,8.928,4.635,13.571c-0.034,4.494-1.604,8.757-4.294,12.121l-0.527,0.616
		c-0.416,0.485-0.855,0.945-1.315,1.379c-0.011,0.01-0.021,0.019-0.033,0.029c-3.24,3.036-7.51,4.748-11.982,4.748
		c-5.366,0-10.382-2.446-13.705-6.604c0.616-0.685,1.212-1.386,1.77-2.112c2.778-3.668,4.854-7.829,5.756-12.276
		c-3.106,3.291-6.042,6.354-9.198,9.073c-3.14,2.721-6.44,5.109-9.946,7.043c-2.153,1.183-4.381,2.196-6.686,2.983
		c-1.81,0.419-3.615,0.641-5.384,0.641c-3.28,0-6.358-0.732-9.149-2.176c-1.669-0.862-3.224-1.992-4.621-3.358l-0.324-0.317
		c1.089-2.351,1.583-4.897,1.375-7.349c-2.082,3.544-4.557,6.359-7.435,8.18c-2.861,1.83-5.999,2.514-8.823,1.852
		c-2.389-0.532-4.558-2.024-6.254-4.209c-1.05-2.644-1.331-5.831-0.593-9.083c1.419-6.247,6.156-10.804,11.301-10.875
		c0.036,4.38,0.843,8.715,2.654,12.593c-0.282-6.393,0.623-12.436,2.431-18.146c1.802-5.697,4.508-11.053,7.923-15.857
		c3.426-4.789,7.599-9.045,12.512-12.322c4.911-3.266,10.555-5.574,16.956-5.967c-3.031-1.105-6.396-1.305-9.696-0.965
		c-0.704,0.079-1.405,0.192-2.102,0.327l-0.414-0.677c-1.692-2.766-2.586-5.924-2.586-9.132c0-9.651,7.831-17.509,17.472-17.553
		c0.083,0.007,0.166,0.012,0.249,0.014l2.028,0.049c1.698,2.396,3.873,4.445,6.442,5.626c-1.533-1.721-2.705-3.595-3.587-5.557
		l0.031,0.001l-0.292-0.604c-1.401-3.367-1.975-6.97-2.015-10.497c-0.015-2.922,0.344-5.828,1.043-8.646
		c0.359-1.415,0.758-2.781,1.292-4.175c0.485-1.32,1.074-2.676,1.738-3.944c2.629-5.1,6.474-9.648,11.43-12.39
		c2.466-1.366,5.213-2.231,8.107-2.328c2.909-0.136,5.909,0.636,8.765,2.115c-2.022-2.529-5.092-4.322-8.479-5.047
		c-1.062-0.226-2.148-0.326-3.24-0.336l-0.214-0.651c-2.448-7.445-1.418-14.232,2.755-18.156c0.883-0.829,1.896-1.495,3.005-2.03
		c1.124,1.809,2.657,3.403,4.386,4.534c3.694,2.443,8.093,3.076,11.978,2.247c-0.227,1.437-0.203,2.902,0.089,4.307
		c0.489,2.322,1.704,4.516,3.561,5.839c-0.849-2.086-1.233-4.11-1.225-6.098c0.001-1.982,0.393-3.918,1.119-5.678
		c1.48-3.508,4.318-6.475,8.766-7.229c-2.1-0.897-4.732-0.564-6.836,0.643c-2.125,1.203-3.777,3.19-4.699,5.436
		c-0.227,0.549-0.41,1.113-0.555,1.685c-3.734-0.921-6.988-2.513-9.271-4.831c-0.991-1.011-1.775-2.097-2.368-3.299l-0.707-2.206
		c-1.986-6.192,2.216-13.716,9.566-17.129c2.177-1.011,4.476-1.599,6.835-1.748l0.557-0.035c1.754,1.411,3.811,2.345,5.874,2.762
		c2.963,0.603,5.966,0.291,8.559-0.774c-2.792-0.214-5.401-0.839-7.612-2.004c-2.211-1.142-3.984-2.785-5.008-4.713
		c-2.15-3.868-1.201-8.559,1.549-12.133c0.32-0.421,0.668-0.825,1.031-1.216c1.241-1.181,2.715-2.184,4.365-2.95
		c2.139-0.993,4.453-1.518,6.69-1.518c4.539,0,8.342,2.117,9.924,5.525c0.327,0.706,0.543,1.447,0.668,2.212
		c-0.314,0.053-0.634,0.098-0.938,0.167c-4.207,0.91-8.023,3.319-10.253,6.709c3.78-1.416,7.33-2.115,10.779-2.038
		c0.873,0.007,1.676,0.08,2.58,0.173c0.772,0.116,1.646,0.241,2.438,0.44c1.612,0.38,3.174,0.917,4.649,1.64
		c2.118,1.027,4.081,2.386,5.832,4.044c2.566,3.059,4.122,6.979,4.122,11.229c0,0.812-0.062,1.617-0.172,2.413
		c-0.245-0.049-0.489-0.101-0.736-0.142c-3.167-0.494-6.521-0.245-9.562,0.852c-3.053,1.067-5.783,2.944-7.852,5.271
		c-4.178,4.68-5.871,10.799-5.471,16.451c2.049-5.277,4.857-9.979,8.73-13.067c3.816-3.114,8.594-4.34,13.219-3.583
		c0.868,0.138,1.727,0.358,2.579,0.617l0.367,0.126c7.593,2.612,14.061,10.17,16.877,19.724c1.619,5.494,1.889,11.117,0.779,16.262
		l-0.08,0.372c-3.031,0.775-5.766,2.301-7.896,4.402c4.058-0.479,7.756-0.666,11.129-0.071c1.682,0.296,3.26,0.778,4.719,1.435
		c0.732,0.331,1.424,0.723,2.1,1.139c0.308,0.196,0.734,0.486,0.873,0.617c0.25,0.195,0.506,0.43,0.754,0.688
		c0.99,1.053,1.867,2.423,2.547,3.904c0.67,1.492,1.179,3.108,1.472,4.812c0.512,2.779,0.45,5.757,0.049,8.916
		c-0.038,0.13-0.068,0.259-0.108,0.39l-0.208,0.681c-2.243-0.725-4.561-1.115-6.856-1.089c7.013,2.442,12.587,7.207,15.758,13.113
		c3.207,5.867,3.906,12.818,2.117,19.053c-1.771,6.234-6.066,11.74-11.879,15.045c-5.799,3.332-13.059,4.41-20.305,2.797
		c5.994,3.792,14.103,4.509,21.22,1.89c2.474,1.779,4.451,4.099,5.62,6.772c1.941,4.32,1.4,9.477-1.441,13.096
		c-2.758,3.693-7.473,5.781-12.242,5.861c-4.808,0.07-9.719-1.732-13.412-5.355c2.694,4.445,7.932,7.354,13.348,7.695
		c2.728,0.217,5.517-0.27,8.089-1.32c2.558-1.084,4.877-2.824,6.608-5.07c1.691-2.258,2.76-5.045,2.947-7.852
		c0.174-2.822-0.451-5.678-1.805-8.088c-1.463-2.706-3.69-4.864-6.259-6.324c3.574-1.544,6.825-3.91,9.441-6.861
		c2.701-3.037,4.705-6.709,5.837-10.639c0.16-0.566,0.296-1.14,0.42-1.715c0.67,0.275,1.288,0.613,1.862,0.997
		c0.279,0.376,0.541,0.757,0.767,1.146c1.231,2.093,1.726,4.313,1.603,6.57c-0.119,2.266-0.845,4.62-2.074,6.928
		c-1.224,2.329-2.937,4.545-5.104,6.937c2.554-0.096,5.045-1.068,7.181-2.644l0.404,0.119c7.825,2.312,14.752,10.149,17.646,19.967
		c0.939,3.19,1.426,6.435,1.445,9.644l0.001,0.098c-0.533,0.085-1.055,0.191-1.564,0.324c-0.349,0.089-0.686,0.198-1.026,0.3
		c0.528-1.58,0.642-3.315,0.282-4.959c-0.541-2.574-2.192-4.865-4.39-6.164c-2.187-1.308-4.899-1.606-7.069-0.696
		c2.301,0.354,4.24,1.264,5.692,2.602c1.461,1.326,2.44,3.05,2.83,4.882c0.388,1.836,0.192,3.799-0.629,5.573
		c-0.42,0.89-0.947,1.736-1.705,2.515c-0.675,0.756-1.571,1.426-2.565,2.031c1.183,0.028,2.349-0.291,3.479-0.875
		c1.043-0.568,2.063-1.41,2.81-2.445c0.306-0.413,0.562-0.861,0.791-1.325c1.716,0.247,3.381,0.479,4.812,0.987
		c0.486,0.17,0.943,0.362,1.338,0.599c0.076,0.049,0.244,0.137,0.361,0.2l0.33,0.193c0.229,0.137,0.451,0.276,0.672,0.422
		c0.883,0.578,1.699,1.217,2.449,1.905c2.998,2.738,4.879,6.449,4.881,9.996c0.022,2.145-0.689,4.2-2.013,5.935
		c-1.962,1.472-4.584,2.327-7.488,2.327c-1.978,0-3.955-0.383-5.875-1.138c-0.598-0.235-1.177-0.513-1.741-0.815
		c2.641-2.458,4.402-5.647,4.99-8.969c-2.91,2.83-5.861,5.045-9.027,6.304c-3.146,1.276-6.424,1.633-9.654,1.178
		c-3.236-0.458-6.455-1.696-9.553-3.479c-3.12-1.776-6.064-4.082-9.184-6.687c0.979,3.827,3.137,7.331,6.07,10.179
		c-3.321,2.572-7.54,4.215-12.077,4.755c-3.573,0.021-7.091-0.459-10.415-1.453c-3.875-1.176-7.522-3.041-10.576-5.721
		c-3.053-2.679-5.467-6.185-6.727-10.72c-0.652,2.269-0.615,4.778-0.033,7.185c0.562,2.299,1.655,4.486,3.076,6.428
		c-1.748,1.084-3.653,1.965-5.658,2.652c-0.866,0.128-1.729,0.234-2.591,0.313c-1.798,0.164-3.582,0.236-5.356,0.203l-1.289-0.039
		c-0.481-0.024-0.99-0.043-1.385-0.086c-0.84-0.058-1.748-0.136-2.607-0.267c-3.488-0.457-6.906-1.303-10.232-2.619
		c-3.34-1.316-6.531-3.088-9.781-5.51c0.728,2.35,2.061,4.49,3.75,6.348c-4.195,2.181-9.012,3.341-14.03,3.341
		C109.742,214.792,104.039,213.131,99.425,210.091z"/>
	<path fill="#FFFFFF" d="M127.568,180.973c-1.307,3.663-1.42,7.541-0.578,11.11c0.848-3.567,1.844-6.925,3.47-9.81
		c1.612-2.888,3.84-5.209,6.584-6.828c2.737-1.629,5.946-2.586,9.321-3.16c0.836-0.148,1.72-0.27,2.55-0.375
		c0.92-0.088,1.739-0.162,2.627-0.215c1.758-0.109,3.53-0.076,5.364-0.035c-1.645-0.811-3.406-1.385-5.219-1.768
		c-0.896-0.215-1.865-0.332-2.734-0.441c-0.959-0.11-1.866-0.168-2.813-0.184c-3.102-0.043-6.336,0.494-9.317,1.824
		c-0.24-0.349-0.536-0.436-0.734-0.672c-0.494-0.471-0.922-1.168-1.256-1.955c-0.653-1.596-0.936-3.514-0.887-5.424
		c0.053-1.92,0.396-3.873,1.098-5.738c0.683-1.879,1.773-3.633,3.244-5.238c-2.038,0.808-3.79,2.375-5.102,4.246
		c-1.304,1.887-2.166,4.096-2.535,6.404c-0.209,1.361-0.271,2.766-0.118,4.18c-0.2,0.248-0.409,0.48-0.632,0.686
		c-1.603,1.513-3.797,1.85-6.125,1.488c-2.318-0.383-4.66-1.402-6.72-2.863c-2.063-1.475-3.875-3.379-5.13-6.025
		c-0.41,2.85,0.846,5.869,2.818,8.117c-5.724,0.349-11.104,3.406-13.992,7.965c2.822-1.473,5.557-2.643,8.357-3.322
		c2.783-0.694,5.606-0.916,8.318-0.592c2.704,0.332,5.309,1.219,7.41,2.864c1.404,1.078,2.525,2.55,3.321,4.328
		C127.94,180.011,127.741,180.488,127.568,180.973z"/>
	<path fill="#FFFFFF" d="M109.604,144.048c-0.286,0.058-0.57,0.122-0.849,0.201c-2.451,0.711-4.562,2.135-6.071,4.002
		c2.237-0.853,4.39-1.53,6.509-1.688c2.116-0.18,4.096,0.154,5.853,1.104c1.688,0.893,3.121,2.396,4.173,4.232
		c1.082,1.842,1.777,3.988,2.402,6.301c0.441-1.624,0.534-3.354,0.275-5.072c1.119-1.872,2.498-3.473,4.076-4.814
		c2.055-1.75,4.426-3.064,6.946-3.916c2.515-0.84,5.187-1.22,7.854-0.979c2.67,0.233,5.318,1.086,7.736,2.776
		c-1.496-2.586-4.332-4.359-7.332-5.104c-1.781-0.442-3.638-0.54-5.465-0.35c0.6-0.926,1.177-1.882,1.729-2.825
		c0.004-0.007,0.008-0.013,0.011-0.02c0.867-1.127,1.717-2.236,2.632-3.218c0.498-0.527,1.018-1.013,1.549-1.447
		c0.267-0.215,0.543-0.412,0.819-0.596l0.447-0.281l0.443-0.256c1.223-0.672,2.536-1.188,3.891-1.504
		c2.703-0.652,5.558-0.543,8.14,0.525c2.139,0.883,4.012,2.46,5.645,4.41c-0.989,2.566-1.27,5.499-0.254,7.976
		c0.196-2.771,1.151-5.19,2.507-7.319c1.355-2.137,3.092-3.951,5.115-5.475c1.973-1.48,4.234-2.664,6.65-3.338
		c2.422-0.676,5.011-0.867,7.697-0.146c-2.117-1.877-5.25-2.49-8.129-2.174c-2.921,0.324-5.695,1.506-8.05,3.279
		c-2.198,1.656-4.057,3.879-5.209,6.414c-0.901-2.127-2.414-4.068-4.466-5.415l0.187-0.381c2.315-4.734,3.49-9.819,3.49-15.116
		c0-0.595-0.017-1.186-0.045-1.772l-0.022-0.471c1.94,0.369,3.921,0.301,5.746-0.224c-2.697-0.493-5.177-1.297-7.246-2.627
		c-2.078-1.309-3.678-3.11-4.596-5.256c-0.916-2.113-1.129-4.536-0.678-6.949c0.436-2.429,1.514-4.799,2.955-7.131
		c-2.34,1.448-4.217,3.755-5.227,6.497c-0.122,0.329-0.229,0.667-0.321,1.009c-0.42-0.05-0.838-0.105-1.241-0.191
		c-2.052-0.84-3.865-1.985-5.261-3.472c-0.925-1.002-1.677-2.165-2.159-3.353c-0.521-1.268-0.782-2.542-0.811-3.876
		c-0.063-2.656,0.813-5.35,2.287-7.76c1.506-2.424,3.573-4.507,6.063-6.359c-3.013,0.702-5.873,2.491-7.955,4.977
		c-1.76,2.058-2.988,4.695-3.306,7.509c-0.976,0.683-2.055,1.243-3.205,1.676c-1.702,0.343-3.418,0.463-5.111,0.38
		c-3.32-0.2-6.548-1.148-9.261-2.886c-2.705-1.723-4.897-4.247-5.828-7.297c-0.933-3.049-0.438-6.557,1.396-9.649
		c-1.4,1.133-2.492,2.695-3.164,4.468c-0.646,1.8-0.85,3.754-0.515,5.696c0.605,3.792,3.112,7.059,6.22,9.115
		c-0.625,0.632-1.33,1.149-2.062,1.596c-0.494,0.304-1.045,0.567-1.54,0.772c-0.595,0.221-1.156,0.402-1.705,0.548
		c-2.249,0.651-4.508,1.027-6.751,1.032c-2.242,0.012-4.459-0.347-6.553-1.138c-2.106-0.788-4.036-2.062-5.807-3.883
		c0.594,2.481,2.414,4.706,4.717,6.069c0.186,0.113,0.379,0.213,0.569,0.316c-5.483,6.281-8.495,14.265-8.495,22.631
		C91.646,126.625,98.861,138.121,109.604,144.048z M119.186,101.259c1.012-0.239,2.059-0.379,3.141-0.379
		c7.506,0,13.588,6.083,13.588,13.584c-0.002,7.504-6.084,13.586-13.588,13.586s-13.586-6.082-13.586-13.586
		c0-1.498,0.252-2.935,0.699-4.28c1.155,2.104,3.394,3.532,5.965,3.532c3.756,0,6.803-3.046,6.803-6.802
		C122.207,104.556,121.008,102.479,119.186,101.259z M123.532,147.604c0.009-0.001,0.018-0.003,0.026-0.004
		c-0.025,0.034-0.047,0.07-0.07,0.104L123.532,147.604z"/>
</g>
</svg>
