<?xml version="1.0" encoding="utf-8"?>
<!-- Generator: Adobe Illustrator 15.0.0, SVG Export Plug-In . SVG Version: 6.00 Build 0)  -->
<!DOCTYPE svg PUBLIC "-//W3C//DTD SVG 1.1//EN" "http://www.w3.org/Graphics/SVG/1.1/DTD/svg11.dtd">
<svg version="1.1" id="Layer_1" xmlns="http://www.w3.org/2000/svg" xmlns:xlink="http://www.w3.org/1999/xlink" x="0px" y="0px"
	 width="192.872px" height="168.797px" viewBox="0 0 192.872 168.797" enable-background="new 0 0 192.872 168.797"
	 xml:space="preserve">
<g>
	<path fill="#E49BC4" d="M178.674,147.517l-0.44-0.321c-0.172-0.108-0.431-0.246-0.53-0.332c-0.261-0.188-0.579-0.348-0.926-0.496
		c-1.076-0.47-2.403-0.726-3.781-1.028c-0.229,0.459-0.503,0.893-0.827,1.284c-0.667,0.817-1.557,1.483-2.445,1.834
		c-0.979,0.407-1.953,0.523-2.897,0.328c0.702-0.632,1.292-1.265,1.681-1.871c0.475-0.672,0.758-1.283,0.975-1.924
		c0.418-1.261,0.453-2.508,0.211-3.689c-0.25-1.173-0.801-2.316-1.693-3.328c-0.896-1.013-2.135-1.893-3.918-2.52
		c1.604-1.051,3.889-1.012,5.752-0.021c1.877,0.977,3.319,2.874,3.771,5.039c0.28,1.27,0.195,2.607-0.194,3.832
		c0.298-0.113,0.595-0.229,0.903-0.327c0.769-0.25,1.578-0.427,2.45-0.498c-0.05-2.239-0.396-4.497-1.05-6.718
		c-2.123-7.202-7.176-12.944-12.872-14.629l-0.978-0.289c-1.686,1.067-3.617,1.637-5.561,1.502c1.51-2.09,2.631-3.852,3.413-5.604
		c0.786-1.736,1.209-3.395,1.296-4.934c0.056-0.764-0.012-1.539-0.142-2.252c-0.014-0.078-0.013-0.135-0.033-0.234l-0.126-0.407
		c-0.018-0.078-0.086-0.356-0.146-0.52c-0.126-0.382-0.284-0.763-0.47-1.149c-0.207-0.433-0.464-0.864-0.762-1.297
		c-0.064-0.027-0.133-0.049-0.199-0.074c-0.068,0.29-0.137,0.581-0.219,0.869c-1.561,5.609-5.595,10.401-10.666,12.953
		c1.904,1.043,3.59,2.599,4.746,4.59c1.121,1.902,1.703,4.201,1.571,6.498c-0.031,0.582-0.103,1.129-0.232,1.725l-0.077,0.355
		l-0.12,0.445c-0.081,0.312-0.179,0.568-0.271,0.846c-0.402,1.084-0.978,2.102-1.66,3.027c-2.807,3.718-7.542,5.447-11.838,5.004
		c-2.154-0.209-4.214-0.938-5.994-2.05c-1.754-1.14-3.23-2.668-4.096-4.466c3.086,2.502,6.708,3.566,10.177,3.371
		c3.431-0.189,6.652-1.754,8.563-4.275c1.926-2.5,2.418-5.965,1.166-9.092c-0.742-1.943-2.076-3.701-3.827-5.145
		c-5.712,2.212-12.294,1.535-16.884-1.722c5.602,0.932,10.928-0.086,15.126-2.634c4.209-2.531,7.259-6.559,8.548-11.079
		c1.295-4.524,0.862-9.562-1.387-13.926c-2.227-4.393-6.195-8.081-11.451-10.234c1.815-0.113,3.676,0.125,5.482,0.657l0.172-0.56
		c0.302-0.987,0.52-1.96,0.674-2.914c-0.048-1.377-0.195-2.674-0.484-3.896c-0.545-2.435-1.636-4.687-3.021-6.133
		c-0.167-0.171-0.339-0.325-0.497-0.446c-0.047-0.057-0.375-0.285-0.582-0.417c-0.475-0.293-0.957-0.58-1.468-0.825
		c-1.022-0.486-2.133-0.874-3.344-1.149c-2.435-0.555-5.192-0.611-8.405-0.539c1.373-1.639,3.208-2.871,5.293-3.61l0.035-0.161
		c0.814-3.778,0.615-7.913-0.576-11.956c-2.068-7.013-6.789-12.553-12.322-14.457l-0.374-0.129c-0.575-0.166-1.153-0.31-1.733-0.401
		c-3.29-0.53-6.645,0.244-9.5,2.406c-2.897,2.144-5.16,5.534-7.01,9.484c-0.6-4.326,0.547-9.131,3.747-12.87
		c1.586-1.857,3.726-3.372,6.134-4.238c2.339-0.866,4.926-1.08,7.373-0.731c0.024-0.325,0.038-0.651,0.038-0.979
		c0-3.181-1.214-6.106-3.204-8.335c-1.221-1.032-2.527-1.899-3.922-2.577c-1.053-0.52-2.166-0.916-3.32-1.219
		c-0.562-0.16-1.202-0.263-1.741-0.373c-0.312-0.041-0.601-0.08-0.886-0.114l-1.4-0.099c-2.402-0.12-4.934,0.196-7.823,0.984
		c1.491-2.789,4.387-4.811,7.641-5.63c-0.086-0.323-0.189-0.641-0.332-0.946C103.879,7.442,101.252,6,98.101,6
		c-1.59,0-3.236,0.375-4.761,1.083c-1.167,0.542-2.207,1.248-3.085,2.076c-0.256,0.278-0.5,0.564-0.725,0.86
		c-1.85,2.429-2.553,5.385-1.437,8.045c0.069,0.117,0.146,0.241,0.237,0.378l1.327,1.989c0.571,0.583,1.25,1.115,2.024,1.57
		c1.585,0.949,3.513,1.536,5.652,1.853c-1.939,0.962-4.262,1.312-6.597,0.924c-1.451-0.241-2.921-0.811-4.229-1.707l-0.483,0.03
		c-1.695,0.106-3.349,0.529-4.914,1.257c-3.911,1.816-6.579,5.233-7.103,8.657c-0.005,0.036-0.011,0.072-0.016,0.107
		c-0.037,0.263-0.063,0.525-0.074,0.787c0,0.009-0.001,0.019-0.001,0.028c-0.033,0.854,0.073,1.699,0.333,2.511l0.633,1.973
		c0.357,0.689,0.802,1.345,1.361,1.973c1.404,1.573,3.436,2.81,5.891,3.712c0.105-0.411,0.234-0.817,0.396-1.212
		c0.752-1.841,2.167-3.456,3.97-4.345c1.779-0.898,4.013-0.973,5.564,0.071c-1.726,0.656-2.863,1.524-3.774,2.515
		c-0.904,0.99-1.565,2.096-2.067,3.291c-0.492,1.19-0.832,2.495-0.972,3.896c-0.142,1.407-0.104,2.894,0.254,4.693
		c-1.692-0.783-2.865-2.491-3.369-4.347c-0.262-0.965-0.348-1.979-0.269-2.988c-2.765,0.547-5.866,0.086-8.553-1.604
		c-1.201-0.751-2.29-1.781-3.157-2.976c-0.577,0.327-1.11,0.712-1.589,1.162c-2.949,2.773-3.657,7.63-1.893,12.993l0.091,0.277
		c0.97,0.008,1.934,0.115,2.869,0.343c2.629,0.63,4.952,2.152,6.387,4.179c-1.137-0.492-2.267-0.875-3.377-1.071l-0.861-0.131
		c-0.243-0.024-0.544-0.054-0.812-0.065c-0.549-0.026-1.09-0.025-1.623,0.024c-2.129,0.17-4.101,0.879-5.871,1.927
		c-3.552,2.103-6.312,5.45-8.244,9.193c-0.49,0.927-0.927,1.93-1.286,2.889c-0.403,1.033-0.701,2.029-0.98,3.069
		c-0.541,2.068-0.847,4.201-0.898,6.359c-0.038,2.155,0.18,4.342,0.779,6.479c0.583,2.151,1.571,4.228,3.094,6.184
		c-1.796-0.708-3.399-1.979-4.699-3.53l-2.907-0.05c-6.9,0.034-12.504,5.657-12.504,12.565c0,2.296,0.64,4.556,1.852,6.535
		l0.329,0.537c0.622-0.109,1.248-0.191,1.876-0.241c2.554-0.192,5.15,0.099,7.424,1.08c-4.881,0.606-8.972,2.499-12.562,5.019
		c-3.582,2.527-6.623,5.706-9.164,9.256c-2.531,3.562-4.587,7.506-6.037,11.719c-1.458,4.229-2.312,8.705-2.396,13.612
		c-1.449-2.671-2.207-5.7-2.414-8.801l-0.142-0.009c-3.749-0.225-7.262,3.079-8.304,7.67c-0.532,2.342-0.34,4.686,0.519,6.676
		c1.221,1.331,2.631,2.18,4.119,2.52c1.885,0.435,4.016,0.082,6.155-1.13c0.953-0.534,1.87-1.224,2.761-2.043l0.593-0.731
		l0.082,0.079c0.876-0.889,1.728-1.906,2.56-3.063c0.29,1.674,0.118,3.439-0.454,5.123l0.167,0.162
		c1.006,0.984,2.126,1.799,3.328,2.42c2.009,1.039,4.227,1.566,6.593,1.566c1.434,0,2.902-0.216,4.373-0.594
		c1.511-0.585,2.982-1.272,4.418-2.059c2.58-1.422,5.047-3.139,7.466-5.086c2.436-1.945,4.764-4.133,7.384-6.484
		c-0.416,3.508-1.883,6.794-3.942,9.687c-0.28,0.388-0.574,0.767-0.878,1.14c2.375,2.744,5.823,4.344,9.499,4.344
		c3.667,0,7.146-1.606,9.543-4.408l0.426-0.497c1.912-2.392,3.079-5.388,3.209-8.636c0.14-2.924-0.581-5.985-2.196-8.897
		c0.012,4.65-1.886,9.106-4.925,12.198c2.064-4.46,2.805-9.27,1.725-13.579c-1.027-4.313-3.874-7.88-7.729-9.794
		c-3.804-1.942-8.435-2.269-12.809-1.176c-4.402,1.072-8.541,3.517-11.977,7.042c2.055-4.511,6.149-8.18,11.026-10.04
		c3.44-1.328,7.365-1.724,11.106-0.949c0.254-0.428,0.508-0.844,0.766-1.248c0.781-0.962,1.518-1.93,2.121-2.926
		c1.23-1.994,1.901-4.029,1.671-6.028c-0.1-0.981-0.45-2.097-0.832-2.919c-0.289-0.635-1.062-1.322-2.016-1.869
		c-1.952-1.104-4.416-1.738-7.08-2.19c1.826-0.882,3.897-1.296,6.028-1.122c0.787-0.383,1.409-0.881,1.886-1.44
		c0.862-1.011,1.359-2.247,1.605-3.571c0.13-0.655,0.165-1.366,0.151-2.041c-0.02-0.736-0.117-1.433-0.275-2.164
		c-0.337-1.454-0.938-2.918-2.152-4.445c1.996,0.025,3.893,1.377,5.008,3.152c0.564,0.888,0.967,1.916,1.169,2.941
		c0.213,1.084,0.224,2.169,0.036,3.261c-0.364,2.129-1.629,4.22-3.595,5.347c0.907,0.473,1.778,1.15,2.47,2.158
		c0.87,1.451,1.345,2.854,1.555,4.45c0.195,1.575-0.002,3.222-0.524,4.677c-0.511,1.467-1.302,2.753-2.198,3.875
		c-0.896,1.118-1.907,2.078-2.973,2.932c0.562,0.217,1.117,0.459,1.659,0.737c2.41,1.226,4.583,3.056,6.146,5.302
		c1.571,2.241,2.541,4.863,2.846,7.511c0,0.005,0.001,0.011,0.001,0.017c1.527,0.861,2.903,2.076,4.032,3.523
		c1.517,1.963,2.557,4.38,2.964,6.936c0.051,0.32,0.092,0.642,0.124,0.964l0.043,0.499c0.011,0.146,0.025,0.264,0.03,0.452
		c0.028,0.693,0.006,1.317-0.043,1.981c-0.093,1.312-0.372,2.614-0.782,3.877c-0.33,1.005-0.763,1.976-1.279,2.902
		c3.271,1.992,7.228,3.085,11.422,3.085c3.495,0,6.855-0.757,9.811-2.197c-0.965-1.332-1.685-2.817-2.024-4.411
		c2.709,1.653,5.166,2.804,7.684,3.67c2.503,0.865,5.011,1.428,7.568,1.765c0.629,0.1,1.301,0.157,1.909,0.206
		c0.274,0.034,0.668,0.054,1.03,0.077l0.938,0.044c1.307,0.051,2.621,0.037,3.964-0.021c0.3-0.015,0.603-0.044,0.903-0.064
		c1.627-0.477,3.166-1.133,4.583-1.954c-0.841-1.366-1.472-2.855-1.781-4.401c-0.37-1.899-0.298-3.859,0.357-5.577
		c1.265,3.43,3.208,5.86,5.517,7.732c2.309,1.866,4.971,3.161,7.795,4.021c2.227,0.669,4.574,1.045,6.986,1.157
		c3.313-0.291,6.4-1.409,8.883-3.176c-1.885-2.161-3.189-4.728-3.64-7.493c2.623,1.805,4.933,3.396,7.299,4.605
		c2.348,1.218,4.688,2.043,6.991,2.368c2.299,0.325,4.598,0.144,6.93-0.665c2.344-0.794,4.646-2.273,7.12-4.275
		c-0.198,2.312-1.186,4.579-2.782,6.453c0.196,0.091,0.383,0.2,0.585,0.279c1.37,0.538,2.778,0.811,4.185,0.811c0,0,0,0,0.001,0
		c0.709,0,1.386-0.086,2.034-0.223c1.631-1.468,2.439-3.329,2.432-5.303c0-2.398-1.215-5.043-3.307-7.112
		C179.873,148.468,179.299,147.975,178.674,147.517z M115.626,131.271l-1.994,0.241c-0.621,0.106-1.292,0.221-1.918,0.353
		c-2.537,0.513-4.903,1.266-6.914,2.466c-2.012,1.195-3.656,2.852-4.93,4.967c-1.283,2.113-2.147,4.618-2.994,7.346
		c-0.842-2.729-0.859-5.754,0.102-8.646c0.132-0.406,0.293-0.807,0.47-1.201c-0.667-1.168-1.503-2.098-2.478-2.784
		c-1.58-1.135-3.474-1.739-5.46-1.985c-1.991-0.239-4.075-0.115-6.176,0.332c-2.117,0.434-4.223,1.21-6.513,2.191
		c1.884-3.521,5.729-5.965,9.943-6.48c-1.196-1.721-1.849-3.857-1.402-5.812c1.157,1.986,2.596,3.297,4.17,4.332
		c1.568,1.018,3.297,1.724,4.96,1.997c1.683,0.25,3.142,0.075,4.323-0.905c0.114-0.092,0.222-0.199,0.33-0.308
		c-0.102-1.095-0.039-2.175,0.141-3.216c0.321-1.811,1.043-3.529,2.108-4.975c1.062-1.438,2.502-2.598,4.116-3.129
		c-2.13,2.613-2.92,5.574-2.929,8.428c-0.005,1.416,0.247,2.816,0.717,3.943c0.237,0.539,0.568,1.051,0.837,1.297
		c0.026,0.021,0.027,0.032,0.065,0.069l0.243,0.183l0.061,0.047c-0.014-0.01-0.037-0.026-0.079-0.057l0.005,0.004l0.01,0.009
		l0.021,0.017c0.017,0.017,0.034,0.033,0.052,0.049c2.259-0.934,4.676-1.282,6.975-1.194c0.738,0.03,1.435,0.098,2.182,0.207
		c0.659,0.106,1.418,0.218,2.104,0.414c1.391,0.352,2.738,0.854,3.971,1.562C118.321,131.09,116.963,131.128,115.626,131.271z"/>
	<path fill="#E49BC4" d="M182.688,141.633c-0.171-2.201-0.579-4.402-1.218-6.569c-2.303-7.808-7.285-14.128-13.426-17.278
		c1.478-3.396,1.541-7.109,0.064-10.291c-1.294-2.789-3.631-4.938-6.602-6.146c0.029-0.468,0.044-0.933,0.044-1.396
		c0-7.24-3.501-14.08-9.269-18.352c1.789-8.015-0.271-15.228-5.604-19.174c-1.786-1.32-3.87-2.202-6.134-2.607
		c0.336-3.768-0.066-7.696-1.198-11.533c-2.305-7.817-7.399-14.244-13.619-17.374c0.144-0.937,0.217-1.887,0.217-2.843
		c0-8.812-6.263-16.33-14.669-18.137c-0.181-0.927-0.473-1.829-0.875-2.696C108.328,2.773,103.615,0,98.101,0
		c-1.913,0-3.86,0.354-5.721,1.012c-1.912,0.623-3.708,1.62-5.276,2.938c-1.894,1.535-3.413,3.431-4.422,5.563
		c-1.293,2.732-1.646,5.596-1.052,8.276c-1.038,0.289-2.056,0.665-3.048,1.126c-6.337,2.942-10.349,8.711-10.648,14.587
		c-0.004,0.097-0.01,0.194-0.012,0.292c-0.017,0.559-0.012,1.117,0.04,1.674c-1.287,0.631-2.458,1.439-3.5,2.418
		c-4.034,3.793-5.562,9.641-4.316,16.057c-6.643,2.176-12.468,8.398-15.079,16.434c-1.69,5.202-1.884,10.61-0.618,15.374
		c-8.344,1.817-14.612,9.261-14.612,18.142c0,2.281,0.425,4.535,1.245,6.655c-6.192,3.249-11.622,8.843-15.194,15.747
		c-1.748,3.378-2.983,6.891-3.686,10.475c-5.536,0.973-10.307,5.793-11.755,12.172c-0.889,3.914-0.442,7.908,1.257,11.248
		c1.794,3.526,4.75,5.914,8.323,6.727c3.729,0.844,7.723-0.234,10.856-2.84c0.793,0.576,1.624,1.088,2.486,1.534
		c2.869,1.484,6.014,2.237,9.349,2.237c4.963,0,10.138-1.711,14.831-4.865c3.479,3.684,8.333,5.812,13.491,5.812
		c4.097,0,8.023-1.366,11.229-3.812c0.267-0.198,0.527-0.404,0.783-0.618c0.035-0.029,0.073-0.055,0.107-0.084
		c4.344,2.848,9.666,4.392,15.262,4.392c4.482,0,8.815-0.997,12.636-2.897c3.821,1.9,8.154,2.897,12.637,2.897
		c5.231,0,10.3-1.38,14.508-3.921c3.874,2.621,8.654,4.043,13.697,4.043c5.499,0,10.769-1.741,14.79-4.834
		c4.136,2.005,8.608,2.457,12.657,1.264c0.234-0.069,0.47-0.145,0.705-0.227c0.891,0.549,1.828,1.018,2.803,1.4
		c2.072,0.814,4.219,1.227,6.379,1.227c0,0,0,0,0.001,0c5.888,0,10.925-3.139,12.831-7.997
		C194.74,152.818,190.537,144.766,182.688,141.633z M181.269,161.404c-0.648,0.137-1.325,0.223-2.034,0.223
		c-0.001,0-0.001,0-0.001,0c-1.406,0-2.814-0.272-4.185-0.811c-0.202-0.079-0.389-0.188-0.585-0.279
		c1.597-1.874,2.584-4.141,2.782-6.453c-2.474,2.002-4.776,3.481-7.12,4.275c-2.332,0.809-4.631,0.99-6.93,0.665
		c-2.303-0.325-4.644-1.15-6.991-2.368c-2.366-1.21-4.676-2.801-7.299-4.605c0.45,2.766,1.755,5.332,3.64,7.493
		c-2.482,1.767-5.569,2.885-8.883,3.176c-2.412-0.112-4.76-0.488-6.986-1.157c-2.824-0.859-5.486-2.154-7.795-4.021
		c-2.309-1.872-4.252-4.303-5.517-7.732c-0.655,1.718-0.728,3.678-0.357,5.577c0.31,1.546,0.94,3.035,1.781,4.401
		c-1.417,0.821-2.956,1.478-4.583,1.954c-0.301,0.021-0.604,0.05-0.903,0.064c-1.343,0.059-2.657,0.072-3.964,0.021l-0.938-0.044
		c-0.362-0.023-0.756-0.043-1.03-0.077c-0.608-0.049-1.28-0.106-1.909-0.206c-2.558-0.337-5.065-0.899-7.568-1.765
		c-2.519-0.866-4.975-2.017-7.684-3.67c0.34,1.594,1.059,3.079,2.024,4.411c-2.956,1.44-6.316,2.197-9.811,2.197
		c-4.194,0-8.15-1.093-11.422-3.085c0.516-0.927,0.949-1.897,1.279-2.902c0.41-1.263,0.689-2.565,0.782-3.877
		c0.049-0.664,0.071-1.288,0.043-1.981c-0.005-0.188-0.02-0.307-0.03-0.452l-0.043-0.499c-0.032-0.322-0.072-0.644-0.124-0.964
		c-0.408-2.556-1.447-4.973-2.964-6.936c-1.128-1.447-2.504-2.662-4.032-3.523c0-0.006-0.001-0.012-0.001-0.017
		c-0.305-2.647-1.275-5.27-2.846-7.511c-1.562-2.246-3.736-4.076-6.146-5.302c-0.542-0.278-1.097-0.521-1.659-0.737
		c1.066-0.854,2.077-1.813,2.973-2.932c0.896-1.122,1.687-2.408,2.198-3.875c0.522-1.455,0.719-3.102,0.524-4.677
		c-0.21-1.597-0.685-2.999-1.555-4.45c-0.692-1.008-1.563-1.686-2.47-2.158c1.966-1.127,3.231-3.218,3.595-5.347
		c0.188-1.092,0.177-2.177-0.036-3.261c-0.202-1.025-0.604-2.054-1.169-2.941c-1.115-1.775-3.012-3.127-5.008-3.152
		c1.214,1.527,1.815,2.991,2.152,4.445c0.158,0.731,0.255,1.428,0.275,2.164c0.014,0.675-0.021,1.386-0.151,2.041
		c-0.247,1.324-0.743,2.561-1.605,3.571c-0.477,0.56-1.099,1.058-1.886,1.44c-2.131-0.174-4.202,0.24-6.028,1.122
		c2.664,0.452,5.128,1.086,7.08,2.19c0.955,0.547,1.728,1.234,2.016,1.869c0.382,0.822,0.732,1.938,0.832,2.919
		c0.229,1.999-0.441,4.034-1.671,6.028c-0.603,0.996-1.339,1.964-2.121,2.926c-0.257,0.404-0.511,0.82-0.766,1.248
		c-3.742-0.774-7.667-0.379-11.106,0.949c-4.877,1.86-8.971,5.529-11.026,10.04c3.436-3.525,7.575-5.97,11.977-7.042
		c4.374-1.093,9.005-0.767,12.809,1.176c3.855,1.914,6.703,5.48,7.729,9.794c1.081,4.31,0.34,9.119-1.725,13.579
		c3.039-3.092,4.937-7.548,4.925-12.198c1.615,2.912,2.336,5.974,2.196,8.897c-0.13,3.248-1.297,6.244-3.209,8.636l-0.426,0.497
		c-2.397,2.802-5.876,4.408-9.543,4.408c-3.676,0-7.124-1.6-9.499-4.344c0.304-0.373,0.598-0.752,0.878-1.14
		c2.059-2.893,3.526-6.179,3.942-9.687c-2.62,2.352-4.948,4.539-7.384,6.484c-2.419,1.947-4.887,3.664-7.466,5.086
		c-1.437,0.786-2.908,1.474-4.418,2.059c-1.471,0.378-2.939,0.594-4.373,0.594c-2.366,0-4.584-0.527-6.593-1.566
		c-1.202-0.621-2.321-1.436-3.328-2.42l-0.167-0.162c0.572-1.684,0.744-3.449,0.454-5.123c-0.832,1.157-1.684,2.175-2.56,3.063
		l-0.082-0.079l-0.593,0.731c-0.892,0.819-1.809,1.509-2.761,2.043c-2.14,1.212-4.271,1.564-6.155,1.13
		c-1.487-0.34-2.897-1.188-4.119-2.52c-0.859-1.99-1.05-4.334-0.519-6.676c1.042-4.591,4.556-7.895,8.304-7.67l0.142,0.009
		c0.207,3.101,0.965,6.13,2.414,8.801c0.084-4.907,0.939-9.384,2.396-13.612c1.45-4.213,3.506-8.157,6.037-11.719
		c2.542-3.55,5.582-6.729,9.164-9.256c3.59-2.52,7.681-4.412,12.562-5.019c-2.273-0.981-4.87-1.272-7.424-1.08
		c-0.628,0.05-1.254,0.132-1.876,0.241l-0.329-0.537c-1.211-1.979-1.852-4.239-1.852-6.535c0-6.908,5.604-12.531,12.504-12.565
		l2.907,0.05c1.299,1.551,2.902,2.822,4.699,3.53c-1.523-1.956-2.512-4.032-3.094-6.184c-0.599-2.138-0.817-4.324-0.779-6.479
		c0.052-2.159,0.358-4.291,0.898-6.359c0.28-1.04,0.577-2.036,0.98-3.069c0.359-0.959,0.795-1.962,1.286-2.889
		c1.933-3.744,4.692-7.09,8.244-9.193c1.77-1.048,3.741-1.757,5.871-1.927c0.533-0.049,1.074-0.05,1.623-0.024
		c0.267,0.012,0.568,0.042,0.812,0.065l0.861,0.131c1.111,0.196,2.241,0.579,3.377,1.071c-1.435-2.027-3.758-3.549-6.387-4.179
		c-0.935-0.228-1.899-0.335-2.869-0.343l-0.091-0.277c-1.764-5.362-1.056-10.219,1.893-12.993c0.479-0.45,1.012-0.835,1.589-1.162
		c0.867,1.195,1.956,2.225,3.157,2.976c2.687,1.69,5.788,2.151,8.553,1.604c-0.079,1.01,0.007,2.023,0.269,2.988
		c0.504,1.856,1.677,3.564,3.369,4.347c-0.357-1.799-0.396-3.286-0.254-4.693c0.141-1.4,0.48-2.706,0.972-3.896
		c0.502-1.194,1.163-2.301,2.067-3.291c0.911-0.991,2.048-1.858,3.774-2.515c-1.552-1.044-3.786-0.97-5.564-0.071
		c-1.804,0.889-3.218,2.503-3.97,4.345c-0.163,0.396-0.291,0.802-0.396,1.212c-2.455-0.902-4.487-2.139-5.891-3.712
		c-0.559-0.627-1.004-1.283-1.361-1.973l-0.633-1.973c-0.26-0.812-0.366-1.657-0.333-2.511c0-0.009,0.001-0.019,0.001-0.028
		c0.011-0.262,0.037-0.524,0.074-0.787c0.004-0.036,0.01-0.071,0.016-0.107c0.524-3.424,3.191-6.841,7.103-8.657
		c1.565-0.728,3.218-1.15,4.914-1.257l0.483-0.03c1.308,0.896,2.779,1.466,4.229,1.707c2.335,0.388,4.658,0.038,6.597-0.924
		c-2.139-0.316-4.066-0.903-5.652-1.853c-0.774-0.455-1.453-0.986-2.024-1.57l-1.327-1.989c-0.091-0.137-0.168-0.261-0.237-0.378
		c-1.116-2.66-0.413-5.616,1.437-8.045c0.225-0.296,0.469-0.583,0.725-0.86c0.878-0.829,1.918-1.535,3.085-2.076
		C94.865,6.375,96.511,6,98.101,6c3.151,0,5.778,1.442,6.855,3.764c0.143,0.305,0.246,0.623,0.332,0.946
		c-3.254,0.819-6.15,2.841-7.641,5.63c2.889-0.789,5.42-1.104,7.823-0.984l1.4,0.099c0.285,0.034,0.574,0.073,0.886,0.114
		c0.539,0.109,1.179,0.213,1.741,0.373c1.154,0.303,2.268,0.699,3.32,1.219c1.395,0.678,2.701,1.545,3.922,2.577
		c1.99,2.229,3.204,5.154,3.204,8.335c0,0.328-0.014,0.654-0.038,0.979c-2.447-0.349-5.034-0.135-7.373,0.731
		c-2.408,0.866-4.548,2.381-6.134,4.238c-3.2,3.739-4.347,8.544-3.747,12.87c1.85-3.951,4.112-7.341,7.01-9.484
		c2.855-2.162,6.21-2.937,9.5-2.406c0.58,0.092,1.158,0.235,1.733,0.401l0.374,0.129c5.533,1.904,10.254,7.443,12.322,14.457
		c1.191,4.043,1.391,8.177,0.576,11.956l-0.035,0.161c-2.085,0.739-3.92,1.971-5.293,3.61c3.213-0.072,5.971-0.016,8.405,0.539
		c1.211,0.276,2.321,0.663,3.344,1.149c0.511,0.245,0.993,0.532,1.468,0.825c0.207,0.132,0.535,0.36,0.582,0.417
		c0.158,0.121,0.33,0.275,0.497,0.446c1.385,1.446,2.476,3.698,3.021,6.133c0.289,1.222,0.437,2.519,0.484,3.896
		c-0.154,0.954-0.372,1.927-0.674,2.914l-0.172,0.56c-1.807-0.532-3.667-0.77-5.482-0.657c5.256,2.153,9.225,5.842,11.451,10.234
		c2.249,4.364,2.682,9.401,1.387,13.926c-1.289,4.521-4.339,8.548-8.548,11.079c-4.198,2.548-9.524,3.565-15.126,2.634
		c4.59,3.257,11.172,3.934,16.884,1.722c1.751,1.443,3.085,3.201,3.827,5.145c1.252,3.127,0.76,6.592-1.166,9.092
		c-1.911,2.521-5.133,4.086-8.563,4.275c-3.469,0.195-7.091-0.869-10.177-3.371c0.865,1.798,2.342,3.326,4.096,4.466
		c1.78,1.112,3.84,1.841,5.994,2.05c4.296,0.443,9.031-1.286,11.838-5.004c0.683-0.926,1.258-1.943,1.66-3.027
		c0.092-0.277,0.189-0.534,0.271-0.846l0.12-0.445l0.077-0.355c0.13-0.596,0.201-1.143,0.232-1.725
		c0.132-2.297-0.45-4.596-1.571-6.498c-1.156-1.991-2.842-3.547-4.746-4.59c5.071-2.552,9.105-7.344,10.666-12.953
		c0.082-0.288,0.15-0.579,0.219-0.869c0.066,0.025,0.135,0.047,0.199,0.074c0.298,0.433,0.555,0.864,0.762,1.297
		c0.186,0.387,0.344,0.768,0.47,1.149c0.06,0.163,0.128,0.441,0.146,0.52l0.126,0.407c0.021,0.1,0.02,0.156,0.033,0.234
		c0.13,0.713,0.197,1.488,0.142,2.252c-0.087,1.539-0.51,3.197-1.296,4.934c-0.782,1.752-1.903,3.514-3.413,5.604
		c1.943,0.135,3.875-0.435,5.561-1.502l0.978,0.289c5.696,1.685,10.749,7.427,12.872,14.629c0.654,2.221,1,4.479,1.05,6.718
		c-0.872,0.071-1.682,0.248-2.45,0.498c-0.309,0.099-0.605,0.214-0.903,0.327c0.39-1.225,0.475-2.562,0.194-3.832
		c-0.452-2.165-1.895-4.062-3.771-5.039c-1.863-0.99-4.148-1.029-5.752,0.021c1.783,0.627,3.021,1.507,3.918,2.52
		c0.893,1.012,1.443,2.155,1.693,3.328c0.242,1.182,0.207,2.429-0.211,3.689c-0.217,0.641-0.5,1.252-0.975,1.924
		c-0.389,0.606-0.979,1.239-1.681,1.871c0.944,0.195,1.918,0.079,2.897-0.328c0.889-0.351,1.778-1.017,2.445-1.834
		c0.324-0.392,0.598-0.825,0.827-1.284c1.378,0.303,2.705,0.559,3.781,1.028c0.347,0.148,0.665,0.308,0.926,0.496
		c0.1,0.086,0.358,0.224,0.53,0.332l0.44,0.321c0.625,0.458,1.198,0.951,1.72,1.473c2.092,2.069,3.307,4.714,3.307,7.112
		C183.708,158.075,182.9,159.937,181.269,161.404z"/>
	<path fill="#E49BC4" d="M113.669,129.054c-0.747-0.109-1.443-0.177-2.182-0.207c-2.299-0.088-4.716,0.261-6.975,1.194
		c-0.018-0.016-0.035-0.032-0.052-0.049l-0.021-0.017l-0.01-0.009l-0.005-0.004c0.042,0.03,0.065,0.047,0.079,0.057l-0.061-0.047
		l-0.243-0.183c-0.038-0.037-0.039-0.048-0.065-0.069c-0.269-0.246-0.6-0.758-0.837-1.297c-0.47-1.127-0.722-2.527-0.717-3.943
		c0.009-2.854,0.799-5.814,2.929-8.428c-1.614,0.531-3.054,1.69-4.116,3.129c-1.065,1.445-1.787,3.164-2.108,4.975
		c-0.18,1.041-0.242,2.121-0.141,3.216c-0.108,0.108-0.216,0.216-0.33,0.308c-1.181,0.98-2.64,1.155-4.323,0.905
		c-1.663-0.273-3.392-0.979-4.96-1.997c-1.574-1.035-3.013-2.346-4.17-4.332c-0.447,1.955,0.206,4.092,1.402,5.812
		c-4.214,0.516-8.059,2.96-9.943,6.48c2.29-0.981,4.396-1.758,6.513-2.191c2.102-0.447,4.186-0.571,6.176-0.332
		c1.987,0.246,3.88,0.851,5.46,1.985c0.975,0.687,1.811,1.616,2.478,2.784c-0.177,0.395-0.338,0.795-0.47,1.201
		c-0.961,2.893-0.944,5.918-0.102,8.646c0.846-2.728,1.71-5.232,2.994-7.346c1.273-2.115,2.918-3.771,4.93-4.967
		c2.011-1.2,4.377-1.953,6.914-2.466c0.626-0.132,1.297-0.246,1.918-0.353l1.994-0.241c1.337-0.143,2.694-0.181,4.117-0.24
		c-1.232-0.708-2.58-1.211-3.971-1.562C115.087,129.271,114.329,129.16,113.669,129.054z"/>
</g>
<g>
	<path fill="none" d="M178.674,147.517l-0.44-0.321c-0.172-0.108-0.431-0.246-0.53-0.332c-0.261-0.188-0.579-0.348-0.926-0.496
		c-1.076-0.47-2.403-0.726-3.781-1.028c-0.229,0.459-0.503,0.893-0.827,1.284c-0.667,0.817-1.557,1.483-2.445,1.834
		c-0.979,0.407-1.953,0.523-2.897,0.328c0.702-0.632,1.292-1.265,1.681-1.871c0.475-0.672,0.758-1.283,0.975-1.924
		c0.418-1.261,0.453-2.508,0.211-3.689c-0.25-1.173-0.801-2.316-1.693-3.328c-0.896-1.013-2.135-1.893-3.918-2.52
		c1.604-1.051,3.889-1.012,5.752-0.021c1.877,0.977,3.319,2.874,3.771,5.039c0.28,1.27,0.195,2.607-0.194,3.832
		c0.298-0.113,0.595-0.229,0.903-0.327c0.769-0.25,1.578-0.427,2.45-0.498c-0.05-2.239-0.396-4.497-1.05-6.718
		c-2.123-7.202-7.176-12.944-12.872-14.629l-0.978-0.289c-1.686,1.067-3.617,1.637-5.561,1.502c1.51-2.09,2.631-3.852,3.413-5.604
		c0.786-1.736,1.209-3.395,1.296-4.934c0.056-0.764-0.012-1.539-0.142-2.252c-0.014-0.078-0.013-0.135-0.033-0.234l-0.126-0.407
		c-0.018-0.078-0.086-0.356-0.146-0.52c-0.126-0.382-0.284-0.763-0.47-1.149c-0.207-0.433-0.464-0.864-0.762-1.297
		c-0.064-0.027-0.133-0.049-0.199-0.074c-0.068,0.29-0.137,0.581-0.219,0.869c-1.561,5.609-5.595,10.401-10.666,12.953
		c1.904,1.043,3.59,2.599,4.746,4.59c1.121,1.902,1.703,4.201,1.571,6.498c-0.031,0.582-0.103,1.129-0.232,1.725l-0.077,0.355
		l-0.12,0.445c-0.081,0.312-0.179,0.568-0.271,0.846c-0.402,1.084-0.978,2.102-1.66,3.027c-2.807,3.718-7.542,5.447-11.838,5.004
		c-2.154-0.209-4.214-0.938-5.994-2.05c-1.754-1.14-3.23-2.668-4.096-4.466c3.086,2.502,6.708,3.566,10.177,3.371
		c3.431-0.189,6.652-1.754,8.563-4.275c1.926-2.5,2.418-5.965,1.166-9.092c-0.742-1.943-2.076-3.701-3.827-5.145
		c-5.712,2.212-12.294,1.535-16.884-1.722c5.602,0.932,10.928-0.086,15.126-2.634c4.209-2.531,7.259-6.559,8.548-11.079
		c1.295-4.524,0.862-9.562-1.387-13.926c-2.227-4.393-6.195-8.081-11.451-10.234c1.815-0.113,3.676,0.125,5.482,0.657l0.172-0.56
		c0.302-0.987,0.52-1.96,0.674-2.914c-0.048-1.377-0.195-2.674-0.484-3.896c-0.545-2.435-1.636-4.687-3.021-6.133
		c-0.167-0.171-0.339-0.325-0.497-0.446c-0.047-0.057-0.375-0.285-0.582-0.417c-0.475-0.293-0.957-0.58-1.468-0.825
		c-1.022-0.486-2.133-0.874-3.344-1.149c-2.435-0.555-5.192-0.611-8.405-0.539c1.373-1.639,3.208-2.871,5.293-3.61l0.035-0.161
		c0.814-3.778,0.615-7.913-0.576-11.956c-2.068-7.013-6.789-12.553-12.322-14.457l-0.374-0.129c-0.575-0.166-1.153-0.31-1.733-0.401
		c-3.29-0.53-6.645,0.244-9.5,2.406c-2.897,2.144-5.16,5.534-7.01,9.484c-0.6-4.326,0.547-9.131,3.747-12.87
		c1.586-1.857,3.726-3.372,6.134-4.238c2.339-0.866,4.926-1.08,7.373-0.731c0.024-0.325,0.038-0.651,0.038-0.979
		c0-3.181-1.214-6.106-3.204-8.335c-1.221-1.032-2.527-1.899-3.922-2.577c-1.053-0.52-2.166-0.916-3.32-1.219
		c-0.562-0.16-1.202-0.263-1.741-0.373c-0.312-0.041-0.601-0.08-0.886-0.114l-1.4-0.099c-2.402-0.12-4.934,0.196-7.823,0.984
		c1.491-2.789,4.387-4.811,7.641-5.63c-0.086-0.323-0.189-0.641-0.332-0.946C103.879,7.442,101.252,6,98.101,6
		c-1.59,0-3.236,0.375-4.761,1.083c-1.167,0.542-2.207,1.248-3.085,2.076c-0.256,0.278-0.5,0.564-0.725,0.86
		c-1.85,2.429-2.553,5.385-1.437,8.045c0.069,0.117,0.146,0.241,0.237,0.378l1.327,1.989c0.571,0.583,1.25,1.115,2.024,1.57
		c1.585,0.949,3.513,1.536,5.652,1.853c-1.939,0.962-4.262,1.312-6.597,0.924c-1.451-0.241-2.921-0.811-4.229-1.707l-0.483,0.03
		c-1.695,0.106-3.349,0.529-4.914,1.257c-3.911,1.816-6.579,5.233-7.103,8.657c-0.005,0.036-0.011,0.072-0.016,0.107
		c-0.037,0.263-0.063,0.525-0.074,0.787c0,0.009-0.001,0.019-0.001,0.028c-0.033,0.854,0.073,1.699,0.333,2.511l0.633,1.973
		c0.357,0.689,0.802,1.345,1.361,1.973c1.404,1.573,3.436,2.81,5.891,3.712c0.105-0.411,0.234-0.817,0.396-1.212
		c0.752-1.841,2.167-3.456,3.97-4.345c1.779-0.898,4.013-0.973,5.564,0.071c-1.726,0.656-2.863,1.524-3.774,2.515
		c-0.904,0.99-1.565,2.096-2.067,3.291c-0.492,1.19-0.832,2.495-0.972,3.896c-0.142,1.407-0.104,2.894,0.254,4.693
		c-1.692-0.783-2.865-2.491-3.369-4.347c-0.262-0.965-0.348-1.979-0.269-2.988c-2.765,0.547-5.866,0.086-8.553-1.604
		c-1.201-0.751-2.29-1.781-3.157-2.976c-0.577,0.327-1.11,0.712-1.589,1.162c-2.949,2.773-3.657,7.63-1.893,12.993l0.091,0.277
		c0.97,0.008,1.934,0.115,2.869,0.343c2.629,0.63,4.952,2.152,6.387,4.179c-1.137-0.492-2.267-0.875-3.377-1.071l-0.861-0.131
		c-0.243-0.024-0.544-0.054-0.812-0.065c-0.549-0.026-1.09-0.025-1.623,0.024c-2.129,0.17-4.101,0.879-5.871,1.927
		c-3.552,2.103-6.312,5.45-8.244,9.193c-0.49,0.927-0.927,1.93-1.286,2.889c-0.403,1.033-0.701,2.029-0.98,3.069
		c-0.541,2.068-0.847,4.201-0.898,6.359c-0.038,2.155,0.18,4.342,0.779,6.479c0.583,2.151,1.571,4.228,3.094,6.184
		c-1.796-0.708-3.399-1.979-4.699-3.53l-2.907-0.05c-6.9,0.034-12.504,5.657-12.504,12.565c0,2.296,0.64,4.556,1.852,6.535
		l0.329,0.537c0.622-0.109,1.248-0.191,1.876-0.241c2.554-0.192,5.15,0.099,7.424,1.08c-4.881,0.606-8.972,2.499-12.562,5.019
		c-3.582,2.527-6.623,5.706-9.164,9.256c-2.531,3.562-4.587,7.506-6.037,11.719c-1.458,4.229-2.312,8.705-2.396,13.612
		c-1.449-2.671-2.207-5.7-2.414-8.801l-0.142-0.009c-3.749-0.225-7.262,3.079-8.304,7.67c-0.532,2.342-0.34,4.686,0.519,6.676
		c1.221,1.331,2.631,2.18,4.119,2.52c1.885,0.435,4.016,0.082,6.155-1.13c0.953-0.534,1.87-1.224,2.761-2.043l0.593-0.731
		l0.082,0.079c0.876-0.889,1.728-1.906,2.56-3.063c0.29,1.674,0.118,3.439-0.454,5.123l0.167,0.162
		c1.006,0.984,2.126,1.799,3.328,2.42c2.009,1.039,4.227,1.566,6.593,1.566c1.434,0,2.902-0.216,4.373-0.594
		c1.511-0.585,2.982-1.272,4.418-2.059c2.58-1.422,5.047-3.139,7.466-5.086c2.436-1.945,4.764-4.133,7.384-6.484
		c-0.416,3.508-1.883,6.794-3.942,9.687c-0.28,0.388-0.574,0.767-0.878,1.14c2.375,2.744,5.823,4.344,9.499,4.344
		c3.667,0,7.146-1.606,9.543-4.408l0.426-0.497c1.912-2.392,3.079-5.388,3.209-8.636c0.14-2.924-0.581-5.985-2.196-8.897
		c0.012,4.65-1.886,9.106-4.925,12.198c2.064-4.46,2.805-9.27,1.725-13.579c-1.027-4.313-3.874-7.88-7.729-9.794
		c-3.804-1.942-8.435-2.269-12.809-1.176c-4.402,1.072-8.541,3.517-11.977,7.042c2.055-4.511,6.149-8.18,11.026-10.04
		c3.44-1.328,7.365-1.724,11.106-0.949c0.254-0.428,0.508-0.844,0.766-1.248c0.781-0.962,1.518-1.93,2.121-2.926
		c1.23-1.994,1.901-4.029,1.671-6.028c-0.1-0.981-0.45-2.097-0.832-2.919c-0.289-0.635-1.062-1.322-2.016-1.869
		c-1.952-1.104-4.416-1.738-7.08-2.19c1.826-0.882,3.897-1.296,6.028-1.122c0.787-0.383,1.409-0.881,1.886-1.44
		c0.862-1.011,1.359-2.247,1.605-3.571c0.13-0.655,0.165-1.366,0.151-2.041c-0.02-0.736-0.117-1.433-0.275-2.164
		c-0.337-1.454-0.938-2.918-2.152-4.445c1.996,0.025,3.893,1.377,5.008,3.152c0.564,0.888,0.967,1.916,1.169,2.941
		c0.213,1.084,0.224,2.169,0.036,3.261c-0.364,2.129-1.629,4.22-3.595,5.347c0.907,0.473,1.778,1.15,2.47,2.158
		c0.87,1.451,1.345,2.854,1.555,4.45c0.195,1.575-0.002,3.222-0.524,4.677c-0.511,1.467-1.302,2.753-2.198,3.875
		c-0.896,1.118-1.907,2.078-2.973,2.932c0.562,0.217,1.117,0.459,1.659,0.737c2.41,1.226,4.583,3.056,6.146,5.302
		c1.571,2.241,2.541,4.863,2.846,7.511c0,0.005,0.001,0.011,0.001,0.017c1.527,0.861,2.903,2.076,4.032,3.523
		c1.517,1.963,2.557,4.38,2.964,6.936c0.051,0.32,0.092,0.642,0.124,0.964l0.043,0.499c0.011,0.146,0.025,0.264,0.03,0.452
		c0.028,0.693,0.006,1.317-0.043,1.981c-0.093,1.312-0.372,2.614-0.782,3.877c-0.33,1.005-0.763,1.976-1.279,2.902
		c3.271,1.992,7.228,3.085,11.422,3.085c3.495,0,6.855-0.757,9.811-2.197c-0.965-1.332-1.685-2.817-2.024-4.411
		c2.709,1.653,5.166,2.804,7.684,3.67c2.503,0.865,5.011,1.428,7.568,1.765c0.629,0.1,1.301,0.157,1.909,0.206
		c0.274,0.034,0.668,0.054,1.03,0.077l0.938,0.044c1.307,0.051,2.621,0.037,3.964-0.021c0.3-0.015,0.603-0.044,0.903-0.064
		c1.627-0.477,3.166-1.133,4.583-1.954c-0.841-1.366-1.472-2.855-1.781-4.401c-0.37-1.899-0.298-3.859,0.357-5.577
		c1.265,3.43,3.208,5.86,5.517,7.732c2.309,1.866,4.971,3.161,7.795,4.021c2.227,0.669,4.574,1.045,6.986,1.157
		c3.313-0.291,6.4-1.409,8.883-3.176c-1.885-2.161-3.189-4.728-3.64-7.493c2.623,1.805,4.933,3.396,7.299,4.605
		c2.348,1.218,4.688,2.043,6.991,2.368c2.299,0.325,4.598,0.144,6.93-0.665c2.344-0.794,4.646-2.273,7.12-4.275
		c-0.198,2.312-1.186,4.579-2.782,6.453c0.196,0.091,0.383,0.2,0.585,0.279c1.37,0.538,2.778,0.811,4.185,0.811c0,0,0,0,0.001,0
		c0.709,0,1.386-0.086,2.034-0.223c1.631-1.468,2.439-3.329,2.432-5.303c0-2.398-1.215-5.043-3.307-7.112
		C179.873,148.468,179.299,147.975,178.674,147.517z M115.626,131.271l-1.994,0.241c-0.621,0.106-1.292,0.221-1.918,0.353
		c-2.537,0.513-4.903,1.266-6.914,2.466c-2.012,1.195-3.656,2.852-4.93,4.967c-1.283,2.113-2.147,4.618-2.994,7.346
		c-0.842-2.729-0.859-5.754,0.102-8.646c0.132-0.406,0.293-0.807,0.47-1.201c-0.667-1.168-1.503-2.098-2.478-2.784
		c-1.58-1.135-3.474-1.739-5.46-1.985c-1.991-0.239-4.075-0.115-6.176,0.332c-2.117,0.434-4.223,1.21-6.513,2.191
		c1.884-3.521,5.729-5.965,9.943-6.48c-1.196-1.721-1.849-3.857-1.402-5.812c1.157,1.986,2.596,3.297,4.17,4.332
		c1.568,1.018,3.297,1.724,4.96,1.997c1.683,0.25,3.142,0.075,4.323-0.905c0.114-0.092,0.222-0.199,0.33-0.308
		c-0.102-1.095-0.039-2.175,0.141-3.216c0.321-1.811,1.043-3.529,2.108-4.975c1.062-1.438,2.502-2.598,4.116-3.129
		c-2.13,2.613-2.92,5.574-2.929,8.428c-0.005,1.416,0.247,2.816,0.717,3.943c0.237,0.539,0.568,1.051,0.837,1.297
		c0.026,0.021,0.027,0.032,0.065,0.069l0.243,0.183l0.061,0.047c-0.014-0.01-0.037-0.026-0.079-0.057l0.005,0.004l0.01,0.009
		l0.021,0.017c0.017,0.017,0.034,0.033,0.052,0.049c2.259-0.934,4.676-1.282,6.975-1.194c0.738,0.03,1.435,0.098,2.182,0.207
		c0.659,0.106,1.418,0.218,2.104,0.414c1.391,0.352,2.738,0.854,3.971,1.562C118.321,131.09,116.963,131.128,115.626,131.271z"/>
	<path fill="#686869" d="M182.688,141.633c-0.171-2.201-0.579-4.402-1.218-6.569c-2.303-7.808-7.285-14.128-13.426-17.278
		c1.478-3.396,1.541-7.109,0.064-10.291c-1.294-2.789-3.631-4.938-6.602-6.146c0.029-0.468,0.044-0.933,0.044-1.396
		c0-7.24-3.501-14.08-9.269-18.352c1.789-8.015-0.271-15.228-5.604-19.174c-1.786-1.32-3.87-2.202-6.134-2.607
		c0.336-3.768-0.066-7.696-1.198-11.533c-2.305-7.817-7.399-14.244-13.619-17.374c0.144-0.937,0.217-1.887,0.217-2.843
		c0-8.812-6.263-16.33-14.669-18.137c-0.181-0.927-0.473-1.829-0.875-2.696C108.328,2.773,103.615,0,98.101,0
		c-1.913,0-3.86,0.354-5.721,1.012c-1.912,0.623-3.708,1.62-5.276,2.938c-1.894,1.535-3.413,3.431-4.422,5.563
		c-1.293,2.732-1.646,5.596-1.052,8.276c-1.038,0.289-2.056,0.665-3.048,1.126c-6.337,2.942-10.349,8.711-10.648,14.587
		c-0.004,0.097-0.01,0.194-0.012,0.292c-0.017,0.559-0.012,1.117,0.04,1.674c-1.287,0.631-2.458,1.439-3.5,2.418
		c-4.034,3.793-5.562,9.641-4.316,16.057c-6.643,2.176-12.468,8.398-15.079,16.434c-1.69,5.202-1.884,10.61-0.618,15.374
		c-8.344,1.817-14.612,9.261-14.612,18.142c0,2.281,0.425,4.535,1.245,6.655c-6.192,3.249-11.622,8.843-15.194,15.747
		c-1.748,3.378-2.983,6.891-3.686,10.475c-5.536,0.973-10.307,5.793-11.755,12.172c-0.889,3.914-0.442,7.908,1.257,11.248
		c1.794,3.526,4.75,5.914,8.323,6.727c3.729,0.844,7.723-0.234,10.856-2.84c0.793,0.576,1.624,1.088,2.486,1.534
		c2.869,1.484,6.014,2.237,9.349,2.237c4.963,0,10.138-1.711,14.831-4.865c3.479,3.684,8.333,5.812,13.491,5.812
		c4.097,0,8.023-1.366,11.229-3.812c0.267-0.198,0.527-0.404,0.783-0.618c0.035-0.029,0.073-0.055,0.107-0.084
		c4.344,2.848,9.666,4.392,15.262,4.392c4.482,0,8.815-0.997,12.636-2.897c3.821,1.9,8.154,2.897,12.637,2.897
		c5.231,0,10.3-1.38,14.508-3.921c3.874,2.621,8.654,4.043,13.697,4.043c5.499,0,10.769-1.741,14.79-4.834
		c4.136,2.005,8.608,2.457,12.657,1.264c0.234-0.069,0.47-0.145,0.705-0.227c0.891,0.549,1.828,1.018,2.803,1.4
		c2.072,0.814,4.219,1.227,6.379,1.227c0,0,0,0,0.001,0c5.888,0,10.925-3.139,12.831-7.997
		C194.74,152.818,190.537,144.766,182.688,141.633z M181.269,161.404c-0.648,0.137-1.325,0.223-2.034,0.223
		c-0.001,0-0.001,0-0.001,0c-1.406,0-2.814-0.272-4.185-0.811c-0.202-0.079-0.389-0.188-0.585-0.279
		c1.597-1.874,2.584-4.141,2.782-6.453c-2.474,2.002-4.776,3.481-7.12,4.275c-2.332,0.809-4.631,0.99-6.93,0.665
		c-2.303-0.325-4.644-1.15-6.991-2.368c-2.366-1.21-4.676-2.801-7.299-4.605c0.45,2.766,1.755,5.332,3.64,7.493
		c-2.482,1.767-5.569,2.885-8.883,3.176c-2.412-0.112-4.76-0.488-6.986-1.157c-2.824-0.859-5.486-2.154-7.795-4.021
		c-2.309-1.872-4.252-4.303-5.517-7.732c-0.655,1.718-0.728,3.678-0.357,5.577c0.31,1.546,0.94,3.035,1.781,4.401
		c-1.417,0.821-2.956,1.478-4.583,1.954c-0.301,0.021-0.604,0.05-0.903,0.064c-1.343,0.059-2.657,0.072-3.964,0.021l-0.938-0.044
		c-0.362-0.023-0.756-0.043-1.03-0.077c-0.608-0.049-1.28-0.106-1.909-0.206c-2.558-0.337-5.065-0.899-7.568-1.765
		c-2.519-0.866-4.975-2.017-7.684-3.67c0.34,1.594,1.059,3.079,2.024,4.411c-2.956,1.44-6.316,2.197-9.811,2.197
		c-4.194,0-8.15-1.093-11.422-3.085c0.516-0.927,0.949-1.897,1.279-2.902c0.41-1.263,0.689-2.565,0.782-3.877
		c0.049-0.664,0.071-1.288,0.043-1.981c-0.005-0.188-0.02-0.307-0.03-0.452l-0.043-0.499c-0.032-0.322-0.072-0.644-0.124-0.964
		c-0.408-2.556-1.447-4.973-2.964-6.936c-1.128-1.447-2.504-2.662-4.032-3.523c0-0.006-0.001-0.012-0.001-0.017
		c-0.305-2.647-1.275-5.27-2.846-7.511c-1.562-2.246-3.736-4.076-6.146-5.302c-0.542-0.278-1.097-0.521-1.659-0.737
		c1.066-0.854,2.077-1.813,2.973-2.932c0.896-1.122,1.687-2.408,2.198-3.875c0.522-1.455,0.719-3.102,0.524-4.677
		c-0.21-1.597-0.685-2.999-1.555-4.45c-0.692-1.008-1.563-1.686-2.47-2.158c1.966-1.127,3.231-3.218,3.595-5.347
		c0.188-1.092,0.177-2.177-0.036-3.261c-0.202-1.025-0.604-2.054-1.169-2.941c-1.115-1.775-3.012-3.127-5.008-3.152
		c1.214,1.527,1.815,2.991,2.152,4.445c0.158,0.731,0.255,1.428,0.275,2.164c0.014,0.675-0.021,1.386-0.151,2.041
		c-0.247,1.324-0.743,2.561-1.605,3.571c-0.477,0.56-1.099,1.058-1.886,1.44c-2.131-0.174-4.202,0.24-6.028,1.122
		c2.664,0.452,5.128,1.086,7.08,2.19c0.955,0.547,1.728,1.234,2.016,1.869c0.382,0.822,0.732,1.938,0.832,2.919
		c0.229,1.999-0.441,4.034-1.671,6.028c-0.603,0.996-1.339,1.964-2.121,2.926c-0.257,0.404-0.511,0.82-0.766,1.248
		c-3.742-0.774-7.667-0.379-11.106,0.949c-4.877,1.86-8.971,5.529-11.026,10.04c3.436-3.525,7.575-5.97,11.977-7.042
		c4.374-1.093,9.005-0.767,12.809,1.176c3.855,1.914,6.703,5.48,7.729,9.794c1.081,4.31,0.34,9.119-1.725,13.579
		c3.039-3.092,4.937-7.548,4.925-12.198c1.615,2.912,2.336,5.974,2.196,8.897c-0.13,3.248-1.297,6.244-3.209,8.636l-0.426,0.497
		c-2.397,2.802-5.876,4.408-9.543,4.408c-3.676,0-7.124-1.6-9.499-4.344c0.304-0.373,0.598-0.752,0.878-1.14
		c2.059-2.893,3.526-6.179,3.942-9.687c-2.62,2.352-4.948,4.539-7.384,6.484c-2.419,1.947-4.887,3.664-7.466,5.086
		c-1.437,0.786-2.908,1.474-4.418,2.059c-1.471,0.378-2.939,0.594-4.373,0.594c-2.366,0-4.584-0.527-6.593-1.566
		c-1.202-0.621-2.321-1.436-3.328-2.42l-0.167-0.162c0.572-1.684,0.744-3.449,0.454-5.123c-0.832,1.157-1.684,2.175-2.56,3.063
		l-0.082-0.079l-0.593,0.731c-0.892,0.819-1.809,1.509-2.761,2.043c-2.14,1.212-4.271,1.564-6.155,1.13
		c-1.487-0.34-2.897-1.188-4.119-2.52c-0.859-1.99-1.05-4.334-0.519-6.676c1.042-4.591,4.556-7.895,8.304-7.67l0.142,0.009
		c0.207,3.101,0.965,6.13,2.414,8.801c0.084-4.907,0.939-9.384,2.396-13.612c1.45-4.213,3.506-8.157,6.037-11.719
		c2.542-3.55,5.582-6.729,9.164-9.256c3.59-2.52,7.681-4.412,12.562-5.019c-2.273-0.981-4.87-1.272-7.424-1.08
		c-0.628,0.05-1.254,0.132-1.876,0.241l-0.329-0.537c-1.211-1.979-1.852-4.239-1.852-6.535c0-6.908,5.604-12.531,12.504-12.565
		l2.907,0.05c1.299,1.551,2.902,2.822,4.699,3.53c-1.523-1.956-2.512-4.032-3.094-6.184c-0.599-2.138-0.817-4.324-0.779-6.479
		c0.052-2.159,0.358-4.291,0.898-6.359c0.28-1.04,0.577-2.036,0.98-3.069c0.359-0.959,0.795-1.962,1.286-2.889
		c1.933-3.744,4.692-7.09,8.244-9.193c1.77-1.048,3.741-1.757,5.871-1.927c0.533-0.049,1.074-0.05,1.623-0.024
		c0.267,0.012,0.568,0.042,0.812,0.065l0.861,0.131c1.111,0.196,2.241,0.579,3.377,1.071c-1.435-2.027-3.758-3.549-6.387-4.179
		c-0.935-0.228-1.899-0.335-2.869-0.343l-0.091-0.277c-1.764-5.362-1.056-10.219,1.893-12.993c0.479-0.45,1.012-0.835,1.589-1.162
		c0.867,1.195,1.956,2.225,3.157,2.976c2.687,1.69,5.788,2.151,8.553,1.604c-0.079,1.01,0.007,2.023,0.269,2.988
		c0.504,1.856,1.677,3.564,3.369,4.347c-0.357-1.799-0.396-3.286-0.254-4.693c0.141-1.4,0.48-2.706,0.972-3.896
		c0.502-1.194,1.163-2.301,2.067-3.291c0.911-0.991,2.048-1.858,3.774-2.515c-1.552-1.044-3.786-0.97-5.564-0.071
		c-1.804,0.889-3.218,2.503-3.97,4.345c-0.163,0.396-0.291,0.802-0.396,1.212c-2.455-0.902-4.487-2.139-5.891-3.712
		c-0.559-0.627-1.004-1.283-1.361-1.973l-0.633-1.973c-0.26-0.812-0.366-1.657-0.333-2.511c0-0.009,0.001-0.019,0.001-0.028
		c0.011-0.262,0.037-0.524,0.074-0.787c0.004-0.036,0.01-0.071,0.016-0.107c0.524-3.424,3.191-6.841,7.103-8.657
		c1.565-0.728,3.218-1.15,4.914-1.257l0.483-0.03c1.308,0.896,2.779,1.466,4.229,1.707c2.335,0.388,4.658,0.038,6.597-0.924
		c-2.139-0.316-4.066-0.903-5.652-1.853c-0.774-0.455-1.453-0.986-2.024-1.57l-1.327-1.989c-0.091-0.137-0.168-0.261-0.237-0.378
		c-1.116-2.66-0.413-5.616,1.437-8.045c0.225-0.296,0.469-0.583,0.725-0.86c0.878-0.829,1.918-1.535,3.085-2.076
		C94.865,6.375,96.511,6,98.101,6c3.151,0,5.778,1.442,6.855,3.764c0.143,0.305,0.246,0.623,0.332,0.946
		c-3.254,0.819-6.15,2.841-7.641,5.63c2.889-0.789,5.42-1.104,7.823-0.984l1.4,0.099c0.285,0.034,0.574,0.073,0.886,0.114
		c0.539,0.109,1.179,0.213,1.741,0.373c1.154,0.303,2.268,0.699,3.32,1.219c1.395,0.678,2.701,1.545,3.922,2.577
		c1.99,2.229,3.204,5.154,3.204,8.335c0,0.328-0.014,0.654-0.038,0.979c-2.447-0.349-5.034-0.135-7.373,0.731
		c-2.408,0.866-4.548,2.381-6.134,4.238c-3.2,3.739-4.347,8.544-3.747,12.87c1.85-3.951,4.112-7.341,7.01-9.484
		c2.855-2.162,6.21-2.937,9.5-2.406c0.58,0.092,1.158,0.235,1.733,0.401l0.374,0.129c5.533,1.904,10.254,7.443,12.322,14.457
		c1.191,4.043,1.391,8.177,0.576,11.956l-0.035,0.161c-2.085,0.739-3.92,1.971-5.293,3.61c3.213-0.072,5.971-0.016,8.405,0.539
		c1.211,0.276,2.321,0.663,3.344,1.149c0.511,0.245,0.993,0.532,1.468,0.825c0.207,0.132,0.535,0.36,0.582,0.417
		c0.158,0.121,0.33,0.275,0.497,0.446c1.385,1.446,2.476,3.698,3.021,6.133c0.289,1.222,0.437,2.519,0.484,3.896
		c-0.154,0.954-0.372,1.927-0.674,2.914l-0.172,0.56c-1.807-0.532-3.667-0.77-5.482-0.657c5.256,2.153,9.225,5.842,11.451,10.234
		c2.249,4.364,2.682,9.401,1.387,13.926c-1.289,4.521-4.339,8.548-8.548,11.079c-4.198,2.548-9.524,3.565-15.126,2.634
		c4.59,3.257,11.172,3.934,16.884,1.722c1.751,1.443,3.085,3.201,3.827,5.145c1.252,3.127,0.76,6.592-1.166,9.092
		c-1.911,2.521-5.133,4.086-8.563,4.275c-3.469,0.195-7.091-0.869-10.177-3.371c0.865,1.798,2.342,3.326,4.096,4.466
		c1.78,1.112,3.84,1.841,5.994,2.05c4.296,0.443,9.031-1.286,11.838-5.004c0.683-0.926,1.258-1.943,1.66-3.027
		c0.092-0.277,0.189-0.534,0.271-0.846l0.12-0.445l0.077-0.355c0.13-0.596,0.201-1.143,0.232-1.725
		c0.132-2.297-0.45-4.596-1.571-6.498c-1.156-1.991-2.842-3.547-4.746-4.59c5.071-2.552,9.105-7.344,10.666-12.953
		c0.082-0.288,0.15-0.579,0.219-0.869c0.066,0.025,0.135,0.047,0.199,0.074c0.298,0.433,0.555,0.864,0.762,1.297
		c0.186,0.387,0.344,0.768,0.47,1.149c0.06,0.163,0.128,0.441,0.146,0.52l0.126,0.407c0.021,0.1,0.02,0.156,0.033,0.234
		c0.13,0.713,0.197,1.488,0.142,2.252c-0.087,1.539-0.51,3.197-1.296,4.934c-0.782,1.752-1.903,3.514-3.413,5.604
		c1.943,0.135,3.875-0.435,5.561-1.502l0.978,0.289c5.696,1.685,10.749,7.427,12.872,14.629c0.654,2.221,1,4.479,1.05,6.718
		c-0.872,0.071-1.682,0.248-2.45,0.498c-0.309,0.099-0.605,0.214-0.903,0.327c0.39-1.225,0.475-2.562,0.194-3.832
		c-0.452-2.165-1.895-4.062-3.771-5.039c-1.863-0.99-4.148-1.029-5.752,0.021c1.783,0.627,3.021,1.507,3.918,2.52
		c0.893,1.012,1.443,2.155,1.693,3.328c0.242,1.182,0.207,2.429-0.211,3.689c-0.217,0.641-0.5,1.252-0.975,1.924
		c-0.389,0.606-0.979,1.239-1.681,1.871c0.944,0.195,1.918,0.079,2.897-0.328c0.889-0.351,1.778-1.017,2.445-1.834
		c0.324-0.392,0.598-0.825,0.827-1.284c1.378,0.303,2.705,0.559,3.781,1.028c0.347,0.148,0.665,0.308,0.926,0.496
		c0.1,0.086,0.358,0.224,0.53,0.332l0.44,0.321c0.625,0.458,1.198,0.951,1.72,1.473c2.092,2.069,3.307,4.714,3.307,7.112
		C183.708,158.075,182.9,159.937,181.269,161.404z"/>
	<path fill="#686869" d="M113.669,129.054c-0.747-0.109-1.443-0.177-2.182-0.207c-2.299-0.088-4.716,0.261-6.975,1.194
		c-0.018-0.016-0.035-0.032-0.052-0.049l-0.021-0.017l-0.01-0.009l-0.005-0.004c0.042,0.03,0.065,0.047,0.079,0.057l-0.061-0.047
		l-0.243-0.183c-0.038-0.037-0.039-0.048-0.065-0.069c-0.269-0.246-0.6-0.758-0.837-1.297c-0.47-1.127-0.722-2.527-0.717-3.943
		c0.009-2.854,0.799-5.814,2.929-8.428c-1.614,0.531-3.054,1.69-4.116,3.129c-1.065,1.445-1.787,3.164-2.108,4.975
		c-0.18,1.041-0.242,2.121-0.141,3.216c-0.108,0.108-0.216,0.216-0.33,0.308c-1.181,0.98-2.64,1.155-4.323,0.905
		c-1.663-0.273-3.392-0.979-4.96-1.997c-1.574-1.035-3.013-2.346-4.17-4.332c-0.447,1.955,0.206,4.092,1.402,5.812
		c-4.214,0.516-8.059,2.96-9.943,6.48c2.29-0.981,4.396-1.758,6.513-2.191c2.102-0.447,4.186-0.571,6.176-0.332
		c1.987,0.246,3.88,0.851,5.46,1.985c0.975,0.687,1.811,1.616,2.478,2.784c-0.177,0.395-0.338,0.795-0.47,1.201
		c-0.961,2.893-0.944,5.918-0.102,8.646c0.846-2.728,1.71-5.232,2.994-7.346c1.273-2.115,2.918-3.771,4.93-4.967
		c2.011-1.2,4.377-1.953,6.914-2.466c0.626-0.132,1.297-0.246,1.918-0.353l1.994-0.241c1.337-0.143,2.694-0.181,4.117-0.24
		c-1.232-0.708-2.58-1.211-3.971-1.562C115.087,129.271,114.329,129.16,113.669,129.054z"/>
</g>
<g>
	<g>
		<path fill="#686869" d="M77.301,113.484c1.146-1.598,2.838-2.828,4.847-3.446c1.984-0.629,4.41-0.49,6.352,0.569
			c2.039,1.065,3.429,2.964,4.061,4.945c0.636,1.992,0.618,4.076-0.009,5.941c-0.622-1.863-1.253-3.551-2.145-4.979
			c-0.871-1.425-1.999-2.562-3.286-3.244c-1.358-0.732-2.862-1.015-4.537-0.924C80.913,112.43,79.172,112.893,77.301,113.484z"/>
	</g>
	<g>
		<path fill="#686869" d="M120.076,112.662c-0.987-2.089-0.754-4.675,0.13-6.87c0.893-2.217,2.474-4.165,4.356-5.582
			c1.931-1.458,4.217-2.409,6.618-2.635c2.362-0.221,4.938,0.352,6.587,1.976c-2.218-0.467-4.252-0.236-6.157,0.344
			c-1.896,0.576-3.667,1.53-5.221,2.693c-1.602,1.207-2.98,2.616-4.095,4.282C121.183,108.535,120.356,110.416,120.076,112.662z"/>
	</g>
	<g>
		<path fill="#FFFFFF" stroke="#686869" stroke-width="3" stroke-miterlimit="10" d="M99.187,109.354
			c1.44-0.668,2.92-1.076,4.377-1.267c1.268-3.444,3.214-5.976,5.705-7.735c2.906-2.052,7.118-2.948,10.768-1.396
			c1.955-3.697,3.065-7.909,3.065-12.381c0-0.459-0.012-0.916-0.034-1.369c-2.492-0.883-4.537-2.571-5.64-4.945
			c-0.893-1.923-1.037-4.028-0.567-6.073c-3.773-0.367-7.047-2.334-8.556-5.583c-0.711-1.532-0.939-3.179-0.771-4.82
			c-2.444,1.744-5.713,2.693-9.225,2.432c-2.17-0.161-4.176-0.767-5.904-1.697c-1.233,1.308-2.761,2.441-4.552,3.272
			c-3.622,1.682-7.497,1.795-10.625,0.611c-4.466,4.749-7.207,11.139-7.207,18.173c0,13.887,10.668,25.275,24.255,26.435
			C95.563,111.537,97.222,110.267,99.187,109.354z"/>
	</g>
	<circle fill="#686869" cx="93.521" cy="87.08" r="10.941"/>
	<circle fill="#FFFFFF" cx="87.946" cy="80.999" r="5.479"/>
	<g>
		<path fill="#686869" d="M128.48,85.391c-2.125,0.733-4.568,0.656-6.808-0.229c-2.233-0.872-4.231-2.718-5.211-5.036
			c-1.028-2.333-0.984-5.022-0.114-7.253c0.869-2.239,2.459-4.09,4.432-5.17c-1.075,1.964-1.865,3.879-2.16,5.804
			c-0.31,1.912-0.115,3.784,0.591,5.418c0.713,1.665,1.926,3.072,3.538,4.146C124.355,84.163,126.304,84.873,128.48,85.391z"/>
	</g>
	<g>
		<path fill="#686869" d="M90.988,64.847c-1.058,1.65-2.646,2.886-4.467,3.729c-1.814,0.833-3.87,1.213-5.915,1.075
			c-2.04-0.141-4.087-0.829-5.735-2.084c-1.646-1.236-2.852-3.085-3.056-5.031c1.35,1.399,2.755,2.365,4.273,3.011
			c1.509,0.652,3.104,0.991,4.729,1.113c1.628,0.11,3.292,0.006,4.972-0.317C87.465,66.032,89.178,65.509,90.988,64.847z"/>
	</g>
	<g>
		<path fill="#686869" d="M107.664,63.689c-1.945,2.207-4.943,3.475-7.992,3.742c-0.748,0.062-1.574,0.065-2.288,0.014
			c-0.817-0.051-1.554-0.18-2.324-0.355c-1.52-0.355-2.992-0.967-4.329-1.817c-2.664-1.673-4.82-4.463-5.309-7.691
			c-0.253-1.609-0.049-3.208,0.507-4.675c0.584-1.439,1.509-2.691,2.686-3.562c-1.378,2.571-1.683,5.348-0.892,7.719
			c0.762,2.378,2.499,4.325,4.621,5.681c1.061,0.688,2.233,1.219,3.461,1.606c0.604,0.196,1.266,0.356,1.863,0.473
			c0.699,0.122,1.297,0.206,1.973,0.257C102.277,65.272,104.997,64.853,107.664,63.689z"/>
	</g>
	<g>
		<path fill="#686869" d="M117.112,74.218c-2.482,0.44-5.256-0.173-7.46-1.854c-1.104-0.845-2.01-1.931-2.667-3.238
			c-0.622-1.225-0.978-2.678-1.011-4.085c-0.072-2.853,1.086-5.562,2.834-7.566c1.751-1.997,4.118-3.413,6.598-3.869
			c-1.949,1.61-3.547,3.308-4.693,5.262c-1.138,1.924-1.787,4.042-1.74,6.102c0.022,1.039,0.216,2.019,0.613,3.019
			c0.362,0.916,0.93,1.844,1.645,2.635C112.666,72.245,114.734,73.409,117.112,74.218z"/>
	</g>
	<g>
		<path fill="#686869" d="M92,118.859c-0.108-2.429,0.949-4.883,2.548-6.82c1.621-1.944,3.82-3.408,6.233-4.224
			c2.415-0.819,5.086-0.979,7.558-0.322c2.448,0.647,4.749,2.165,5.865,4.335c-2.037-1.275-4.153-1.871-6.27-2.011
			c-2.115-0.143-4.21,0.177-6.194,0.839c-1.988,0.673-3.866,1.687-5.524,3.039C94.551,115.051,93.121,116.738,92,118.859z"/>
	</g>
	<g>
		<path fill="#686869" d="M102.689,109.176c0.005-2.326,0.956-4.665,2.415-6.588c0.736-0.958,1.595-1.821,2.52-2.582l0.71-0.552
			c0.26-0.185,0.546-0.383,0.81-0.534c0.543-0.319,1.105-0.609,1.693-0.837c2.331-0.928,5.021-1.131,7.44-0.315
			c2.424,0.777,4.41,2.628,5.244,4.816c-1.909-1.365-3.838-2.208-5.814-2.436c-1.964-0.236-3.945,0.037-5.804,0.717
			c-0.46,0.177-0.919,0.361-1.36,0.584l-0.637,0.332l-0.362,0.216l-0.307,0.2c-0.891,0.562-1.724,1.196-2.523,1.879
			C105.112,105.444,103.788,107.137,102.689,109.176z"/>
	</g>
	<polygon fill="#686869" points="92.551,117.11 90.988,113.66 93.991,113.113 	"/>
</g>
</svg>
