<?xml version="1.0" encoding="utf-8"?>
<!-- Generator: Adobe Illustrator 15.0.0, SVG Export Plug-In . SVG Version: 6.00 Build 0)  -->
<!DOCTYPE svg PUBLIC "-//W3C//DTD SVG 1.1//EN" "http://www.w3.org/Graphics/SVG/1.1/DTD/svg11.dtd">
<svg version="1.1" id="Layer_1" xmlns="http://www.w3.org/2000/svg" xmlns:xlink="http://www.w3.org/1999/xlink" x="0px" y="0px"
	 width="252.746px" height="220.953px" viewBox="0 0 252.746 220.953" enable-background="new 0 0 252.746 220.953"
	 xml:space="preserve">
<g>
	<g>
		<g>
			<g>
				<path fill="none" stroke="#FFFFFF" stroke-width="6" stroke-miterlimit="10" d="M238.684,189.686
					c-0.754-0.296-1.513-0.522-2.271-0.72c-0.021-3.396-0.524-6.932-1.568-10.473c-3.309-11.224-11.116-19.467-19.674-21.996
					c3.267-4.154,4.314-9.389,2.238-13.859c-1.729-3.727-5.266-6.137-9.451-6.948c0.273-1.519,0.424-3.079,0.424-4.676
					c0-9.578-5.148-17.948-12.827-22.506c2.954-9.665,1.267-19.068-5.204-23.856c-2.938-2.172-6.496-3.123-10.291-2.993
					c1.168-5.416,0.986-11.569-0.834-17.742c-3.193-10.83-10.576-18.891-18.779-21.713c0.6-1.928,0.922-3.977,0.922-6.101
					c0-10.857-8.426-19.725-19.09-20.479c0.066-1.831-0.273-3.652-1.066-5.361c-3.17-6.828-12.393-9.275-20.599-5.465
					c-8.205,3.809-12.287,12.434-9.117,19.262c0.251,0.541,0.553,1.043,0.876,1.528c-2.614,0.165-5.304,0.811-7.909,2.021
					c-8.896,4.13-13.604,13.144-11.16,20.766c-2.418,0.675-4.607,1.857-6.438,3.577c-5.227,4.914-6.266,13.025-3.551,21.28
					c-8.776,1-17.361,8.744-21.004,19.959c-2.644,8.139-2.104,16.326,0.878,22.488c-0.081-0.002-0.159-0.014-0.241-0.014
					c-11.35,0-20.553,9.203-20.553,20.553c0,3.925,1.119,7.578,3.027,10.697c-8.566,3.332-16.665,10.604-21.888,20.703
					c-2.681,5.18-4.318,10.549-4.979,15.754c-6.721-0.402-13.23,5.123-15.065,13.203c-2.003,8.821,2.323,17.325,9.665,18.993
					c4.871,1.104,9.836-1.089,13.217-5.258c1.568,1.533,3.347,2.849,5.342,3.879c9.465,4.896,21.226,2.386,30.815-5.397
					c3.686,5.521,9.968,9.16,17.104,9.16c6.252,0,11.841-2.801,15.61-7.205c5.238,4.349,12.506,7.045,20.543,7.045
					c6.217,0,11.97-1.619,16.686-4.362c4.714,2.743,10.469,4.362,16.687,4.362c7.418,0,14.18-2.297,19.297-6.07
					c4.547,3.842,10.902,6.23,17.942,6.23c7.62,0,14.44-2.801,19.032-7.213c5.044,3.127,10.717,4.243,16.092,2.658
					c0.877-0.258,1.717-0.589,2.527-0.973c1.377,1.054,2.938,1.957,4.67,2.638c8.42,3.308,17.479,0.308,20.229-6.702
					C251.699,201.354,247.103,192.992,238.684,189.686z"/>
			</g>
			<g>
				<g>
					<path fill="#FFFFFF" d="M69.108,140.16c3.306-1.102,7.021-1.279,10.572-0.117c1.757,0.588,3.569,1.594,4.786,3.424
						c1.009,1.736,1.601,3.506,1.847,5.439c0.229,1.918,0.001,3.905-0.625,5.7c-0.614,1.806-1.569,3.427-2.67,4.87
						c-1.099,1.453-2.381,2.71-3.706,3.879c-1.422,1.08-3.015,1.975-4.754,2.453l3.235-4.012c1.124-1.232,2.157-2.526,3.044-3.873
						c1.787-2.687,2.865-5.689,2.506-8.68c-0.164-1.472-0.661-3.025-1.305-4.291c-0.61-1.115-1.853-2.037-3.242-2.74
						C75.946,140.849,72.568,140.289,69.108,140.16z"/>
				</g>
				<g>
					<path fill="#FFFFFF" d="M228.396,190.541c1.129-0.451,2.264-0.832,3.453-1.135c1.188-0.308,2.43-0.511,3.768-0.5
						c0.666,0.012,1.354,0.078,2.061,0.237l0.46,0.106l0.483,0.133c0.312,0.091,0.621,0.187,0.93,0.291
						c1.232,0.42,2.433,0.984,3.563,1.683c2.269,1.39,4.257,3.336,5.712,5.694c1.454,2.354,2.348,5.156,2.367,8.074
						c-0.005,1.455-0.222,2.926-0.664,4.326c-0.217,0.682-0.541,1.422-0.814,1.963c-0.381,0.748-0.731,1.344-1.178,1.934
						c-1.732,2.359-4.175,4.043-6.742,4.938c-5.166,1.809-10.748,0.77-14.633-2.111c4.781,0.535,9.274-0.16,12.7-2.189
						c3.438-1.998,5.368-5.303,5.332-8.838c-0.002-3.548-1.883-7.258-4.881-9.997c-0.75-0.688-1.567-1.327-2.45-1.905
						c-0.22-0.146-0.443-0.285-0.672-0.422l-0.33-0.193c-0.117-0.063-0.285-0.151-0.361-0.201c-0.395-0.236-0.852-0.428-1.338-0.598
						C233.189,191.13,230.78,190.955,228.396,190.541z"/>
				</g>
				<g>
					<path fill="#FFFFFF" d="M206.384,135.673c3.162-0.67,6.766,0.277,9.476,2.701c2.726,2.396,4.281,6.254,4.048,9.965
						c-0.182,3.724-1.912,7.113-4.334,9.512c-2.435,2.402-5.592,3.926-8.837,4.048c2.168-2.392,3.88-4.608,5.104-6.937
						c1.229-2.307,1.955-4.662,2.074-6.928c0.123-2.257-0.371-4.477-1.602-6.57C211.091,139.354,209.072,137.457,206.384,135.673z"
						/>
				</g>
				<g>
					<path fill="#FFFFFF" d="M127.968,20.614c2.229-3.39,6.045-5.799,10.252-6.709c1.037-0.234,2.16-0.378,3.181-0.429
						c1.149-0.06,2.198-0.009,3.302,0.114c2.18,0.254,4.322,0.889,6.314,1.835c3.984,1.901,7.285,5.161,9.191,9.031
						c1.916,3.855,2.429,8.342,1.16,12.202c-1.258-3.837-2.941-7.039-5.15-9.686c-2.19-2.645-4.85-4.711-7.803-6.143
						c-1.475-0.723-3.037-1.26-4.65-1.64c-0.793-0.199-1.665-0.324-2.438-0.44c-0.904-0.093-1.707-0.166-2.58-0.173
						C135.298,18.499,131.748,19.198,127.968,20.614z"/>
				</g>
				<g>
					<path fill="#FFFFFF" d="M169.153,85.801c2.913-2.875,6.953-4.689,11.347-4.948c2.192-0.133,4.467,0.168,6.619,0.918
						c1.073,0.38,2.123,0.855,3.1,1.451c0.516,0.317,0.91,0.546,1.521,1.03c0.508,0.412,0.951,0.85,1.365,1.301
						c3.215,3.63,4.421,8.23,4.191,12.566c-0.262,4.353-2.041,8.39-4.825,11.324c0.676-3.987,0.903-7.701,0.274-11.118
						c-0.293-1.704-0.802-3.32-1.471-4.812c-0.68-1.481-1.557-2.851-2.547-3.904c-0.248-0.258-0.504-0.493-0.754-0.688
						c-0.139-0.131-0.566-0.421-0.873-0.617c-0.676-0.416-1.368-0.808-2.1-1.139c-1.459-0.657-3.037-1.139-4.719-1.435
						C176.908,85.135,173.21,85.322,169.153,85.801z"/>
				</g>
				<g>
					<path fill="#FFFFFF" d="M134.576,60.948c-0.4-5.652,1.293-11.771,5.471-16.451c2.068-2.327,4.799-4.204,7.851-5.271
						c3.042-1.097,6.396-1.346,9.563-0.852c1.584,0.261,3.123,0.691,4.595,1.257c1.459,0.594,2.858,1.297,4.159,2.134
						c2.601,1.672,4.855,3.763,6.709,6.109c3.707,4.694,5.928,10.353,6.303,16.041c-2.773-4.958-5.932-9.354-9.77-12.842
						c-3.801-3.473-8.279-6.038-12.932-6.775c-4.625-0.757-9.402,0.469-13.218,3.583C139.434,50.969,136.625,55.671,134.576,60.948z
						"/>
				</g>
				<g>
					<path fill="#FFFFFF" d="M233.067,202.486c-0.709,4.002-3.101,7.83-6.712,10.393c-3.592,2.58-8.35,3.679-12.795,3.029
						c-4.463-0.615-8.489-2.775-11.566-5.65c-3.078-2.895-5.336-6.506-6.346-10.455c3.12,2.604,6.064,4.91,9.184,6.686
						c3.098,1.782,6.316,3.021,9.553,3.479c3.23,0.455,6.507,0.099,9.654-1.178C227.205,207.531,230.156,205.317,233.067,202.486z"
						/>
				</g>
				<g>
					<path fill="#FFFFFF" d="M110.536,58.229c-4.353,1.678-9.797,1.343-14.226-1.586c-2.192-1.434-4.08-3.609-5.203-6.029
						c-1.2-2.549-1.618-5.334-1.369-8.048c0.523-5.453,3.659-10.156,7.676-13.133c2.029-1.498,4.265-2.597,6.636-3.254
						c2.312-0.627,4.766-0.869,7.083-0.494c-2.164,0.926-4.097,1.95-5.893,3.192c-1.743,1.197-3.344,2.575-4.687,4.077
						c-2.699,2.992-4.497,6.589-4.844,10.181c-0.191,1.776,0.04,3.598,0.601,5.208c0.616,1.75,1.584,3.252,2.927,4.621
						C101.925,55.694,105.952,57.427,110.536,58.229z"/>
				</g>
				<g>
					<path fill="#FFFFFF" d="M127.552,30.535c-2.593,1.065-5.596,1.377-8.559,0.774c-2.95-0.597-5.899-2.225-7.945-4.839
						c-2.07-2.581-3.079-6.049-2.834-9.384c0.22-3.347,1.563-6.468,3.486-9.023c3.9-5.126,10.121-8.026,16.319-7.948
						c3.09,0.061,6.188,0.891,8.736,2.576c2.541,1.663,4.473,4.243,5.012,7.014c-1.744-2.209-3.967-3.64-6.322-4.373
						c-2.354-0.744-4.814-0.855-7.167-0.506c-4.699,0.715-9.071,3.274-11.797,6.859c-2.75,3.574-3.7,8.265-1.55,12.133
						c1.024,1.928,2.797,3.571,5.008,4.713C122.151,29.696,124.76,30.321,127.552,30.535z"/>
				</g>
				<g>
					<path fill="#FFFFFF" d="M29.52,200.5c0.35,4.121-1.24,8.526-4.414,11.783c-1.585,1.625-3.594,2.948-5.886,3.719
						c-2.286,0.774-4.862,0.924-7.285,0.379c-1.206-0.283-2.379-0.729-3.468-1.312c-1.076-0.605-2.079-1.328-2.944-2.172
						C3.79,211.21,2.542,209.153,1.817,207c-1.459-4.309-0.987-8.973,1.116-12.537c0.354,4.098,1.372,7.703,3.178,10.584
						c1.79,2.887,4.32,4.854,7.151,5.484c2.824,0.662,5.962-0.021,8.823-1.852C24.963,206.859,27.438,204.044,29.52,200.5z"/>
				</g>
				<g>
					<path fill="#FFFFFF" d="M73.454,193.96c-0.902,4.447-2.978,8.609-5.756,12.276c-2.801,3.651-6.361,6.812-10.49,9.093
						c-4.112,2.28-8.844,3.674-13.627,3.633c-2.384-0.03-4.765-0.416-6.978-1.211c-2.205-0.809-4.252-1.981-5.89-3.562
						c4.445,0.886,8.552,0.856,12.474,0.071c3.916-0.776,7.617-2.258,11.123-4.184c3.506-1.934,6.806-4.322,9.946-7.043
						C67.412,200.315,70.348,197.251,73.454,193.96z"/>
				</g>
				<g>
					<path fill="#FFFFFF" d="M20.371,198.957c-2.729-5.842-3.218-12.721-2.145-19.226c1.094-6.54,3.75-12.817,7.614-18.26
						c3.864-5.437,9.028-10.05,15.084-12.953c3.023-1.44,6.266-2.448,9.573-2.819c3.3-0.34,6.665-0.14,9.696,0.965
						c-6.401,0.392-12.045,2.701-16.956,5.967c-4.913,3.277-9.086,7.533-12.512,12.322c-3.415,4.805-6.121,10.16-7.923,15.858
						C20.994,186.522,20.089,192.564,20.371,198.957z"/>
				</g>
				<g>
					<path fill="#FFFFFF" d="M71.587,124.354c-2.951-1.356-5.383-3.856-7.167-6.713c-1.775-2.886-2.867-6.183-3.382-9.55
						c-0.508-3.374-0.422-6.834,0.17-10.197c0.286-1.676,0.74-3.357,1.255-4.942c0.557-1.661,1.224-3.21,1.995-4.755
						c1.572-3.052,3.607-5.891,6.099-8.308c2.49-2.405,5.435-4.414,8.729-5.648c3.273-1.24,6.927-1.683,10.333-0.959
						c3.387,0.725,6.456,2.518,8.479,5.047c-2.856-1.479-5.856-2.251-8.765-2.115c-2.894,0.097-5.641,0.962-8.107,2.328
						c-4.956,2.742-8.801,7.29-11.43,12.39c-0.664,1.268-1.253,2.624-1.738,3.944c-0.534,1.394-0.933,2.76-1.292,4.175
						c-0.699,2.818-1.058,5.724-1.043,8.646C65.79,113.509,67.289,119.531,71.587,124.354z"/>
				</g>
				<g>
					<path fill="#FFFFFF" d="M167.826,211.179c-2.492,3.232-6.154,5.5-10.093,6.832c-1.978,0.668-4.043,1.087-6.131,1.281
						c-0.539,0.059-1.006,0.08-1.608,0.101c-0.488,0.01-0.943,0.028-1.517,0.019c-1.089-0.023-2.112-0.104-3.167-0.23
						c-4.18-0.53-8.268-2.03-11.727-4.432c-3.438-2.39-6.306-5.737-7.517-9.646c3.251,2.421,6.442,4.193,9.782,5.509
						c3.326,1.317,6.744,2.163,10.232,2.62c0.86,0.131,1.768,0.208,2.608,0.266c0.394,0.043,0.903,0.062,1.384,0.086l1.289,0.039
						c1.775,0.033,3.559-0.039,5.357-0.203C160.332,213.089,163.942,212.333,167.826,211.179z"/>
				</g>
				<g>
					<path fill="#FFFFFF" d="M87.63,200.47c3.126-5.62,4.445-12.102,3.167-18.086c-1.229-5.973-5.166-11.148-10.574-13.791
						c-5.328-2.756-11.797-3.049-17.708-1.4c-5.943,1.657-11.398,5.223-15.541,10.161c3.109-5.671,8.523-10.179,14.833-12.394
						c3.146-1.146,6.537-1.65,9.928-1.553c3.393,0.137,6.776,0.977,9.856,2.518c3.032,1.564,5.765,3.832,7.765,6.631
						c1.979,2.809,3.295,6.07,3.737,9.429C94.068,188.721,91.792,195.56,87.63,200.47z"/>
				</g>
				<g>
					<path fill="#FFFFFF" d="M204.191,211.744c-2.826,3.793-7.27,6.365-12.001,7.586c-4.756,1.209-9.884,1.133-14.688-0.303
						c-4.785-1.425-9.264-4.262-12.338-8.285c-1.524-2.009-2.684-4.304-3.274-6.715c-0.581-2.406-0.619-4.916,0.034-7.184
						c1.26,4.535,3.674,8.041,6.727,10.719c3.053,2.68,6.701,4.545,10.576,5.721c3.881,1.161,8.023,1.627,12.213,1.404
						C195.64,214.462,199.858,213.527,204.191,211.744z"/>
				</g>
				<g>
					<path fill="#FFFFFF" d="M187.332,156.449c5.141,0.414,10.271,3.523,12.912,8.41c1.353,2.411,1.979,5.266,1.805,8.088
						c-0.188,2.807-1.256,5.594-2.948,7.852c-1.731,2.246-4.05,3.986-6.608,5.07c-2.572,1.051-5.361,1.537-8.088,1.321
						c-5.417-0.342-10.654-3.25-13.348-7.696c3.693,3.623,8.604,5.426,13.412,5.356c4.769-0.081,9.484-2.169,12.242-5.862
						c2.842-3.619,3.383-8.775,1.442-13.096C196.246,161.531,192.203,158.097,187.332,156.449z"/>
				</g>
				<g>
					<path fill="#FFFFFF" d="M111.938,69.036c-1.857-1.323-3.072-3.517-3.561-5.839c-0.485-2.333-0.243-4.833,0.685-7.087
						c0.922-2.246,2.574-4.233,4.699-5.436c2.104-1.207,4.737-1.54,6.837-0.643c-4.447,0.754-7.285,3.721-8.766,7.229
						c-0.726,1.76-1.118,3.696-1.119,5.678C110.704,64.926,111.089,66.95,111.938,69.036z"/>
				</g>
				<g>
					<path fill="#FFFFFF" d="M78.671,120.639c2.415,0.46,4.541,2.282,5.798,4.53c0.629,1.129,1.073,2.392,1.288,3.662
						c0.225,1.314,0.226,2.642-0.005,3.959c-0.452,2.607-1.929,5.156-4.254,6.601c-1.146,0.726-2.49,1.108-3.784,1.146
						c-1.308,0.01-2.576-0.312-3.595-0.984c2.426,0.111,4.523-0.678,5.974-2.055c1.465-1.365,2.347-3.25,2.707-5.234
						c0.188-0.99,0.221-2.035,0.146-3.043c-0.079-1.055-0.294-2.068-0.618-3.08C81.666,124.125,80.494,122.229,78.671,120.639z"/>
				</g>
				<g>
					<path fill="#FFFFFF" d="M219.646,177.886c2.17-0.91,4.884-0.61,7.07,0.697c2.197,1.299,3.849,3.59,4.389,6.164
						c0.561,2.563-0.016,5.354-1.546,7.422c-0.747,1.035-1.767,1.877-2.81,2.445c-1.131,0.584-2.297,0.904-3.479,0.875
						c0.993-0.605,1.89-1.275,2.565-2.031c0.758-0.779,1.285-1.625,1.705-2.514c0.822-1.775,1.016-3.738,0.629-5.574
						c-0.389-1.832-1.369-3.556-2.83-4.881C223.886,179.151,221.947,178.24,219.646,177.886z"/>
				</g>
				<g>
					<path fill="#FFFFFF" d="M91.793,180.828c2.772,1.233,5.232,3.319,7.106,5.902c1.865,2.592,3.116,5.712,3.574,8.984
						c0.058,0.41,0.102,0.82,0.136,1.232l0.044,0.633c0.01,0.19,0.024,0.354,0.027,0.588c0.021,0.873-0.016,1.676-0.09,2.518
						c-0.143,1.668-0.511,3.32-1.047,4.919c-1.08,3.2-2.938,6.14-5.339,8.53c-2.412,2.381-5.37,4.209-8.58,5.262
						c-3.208,1.049-6.638,1.344-9.901,0.834c-3.27-0.492-6.38-1.771-8.952-3.666c-2.566-1.898-4.625-4.385-5.828-7.17
						c4.474,4.064,9.897,6.17,15.169,6.134c5.282,0.013,10.275-2.083,13.872-5.655c3.615-3.557,5.761-8.531,5.801-13.815
						C97.874,190.783,95.82,185.335,91.793,180.828z"/>
				</g>
				<g>
					<path fill="#FFFFFF" d="M185.621,107.223c3.73-0.043,7.517,1.007,10.95,2.82c3.429,1.835,6.462,4.528,8.783,7.785
						c2.324,3.254,3.911,7.092,4.58,11.1c0.673,4.008,0.44,8.17-0.671,12.107c-1.131,3.93-3.135,7.602-5.836,10.639
						c-2.693,3.037-6.053,5.461-9.75,7c-7.379,3.14-16.047,2.552-22.364-1.443c7.246,1.613,14.505,0.535,20.304-2.798
						c5.812-3.304,10.107-8.81,11.879-15.044c1.789-6.235,1.09-13.186-2.117-19.053C198.208,114.43,192.634,109.665,185.621,107.223
						z"/>
				</g>
				<g>
					<path fill="#FFFFFF" d="M100.744,176.261c3.417-5.393,10.32-8.701,17.156-7.885c3.385,0.394,6.818,1.898,9.137,4.596
						c1.145,1.339,1.975,2.945,2.317,4.617c0.331,1.674,0.272,3.363-0.246,4.882c-0.672-3.132-2.161-5.634-4.278-7.259
						c-2.101-1.646-4.706-2.533-7.41-2.864c-2.712-0.325-5.535-0.103-8.318,0.592C106.301,173.619,103.567,174.789,100.744,176.261z
						"/>
				</g>
				<g>
					<path fill="#FFFFFF" d="M126.982,192.083c-0.842-3.569-0.728-7.447,0.579-11.111c0.651-1.828,1.638-3.574,2.899-5.117
						c1.275-1.533,2.83-2.85,4.547-3.85c3.447-2.016,7.386-2.789,11.125-2.738c0.947,0.016,1.855,0.074,2.813,0.184
						c0.87,0.11,1.839,0.227,2.735,0.441c1.812,0.384,3.574,0.958,5.218,1.768c-1.833-0.041-3.606-0.074-5.364,0.035
						c-0.887,0.053-1.707,0.127-2.627,0.215c-0.83,0.106-1.713,0.227-2.55,0.375c-3.375,0.574-6.583,1.531-9.321,3.161
						c-2.744,1.619-4.971,3.94-6.584,6.827C128.826,185.158,127.83,188.516,126.982,192.083z"/>
				</g>
				<g>
					<path fill="#FFFFFF" d="M137.414,173.445c-0.469,0.438-0.81,0.727-1.232,0.844c-0.419,0.131-0.793,0.146-1.131,0.094
						c-0.663-0.098-1.23-0.613-1.762-1.116c-1.025-1.022-1.676-2.218-2.1-3.411c-0.85-2.395-0.902-4.831-0.547-7.141
						c0.369-2.309,1.232-4.518,2.535-6.405c1.312-1.87,3.064-3.438,5.102-4.246c-1.471,1.606-2.561,3.36-3.244,5.239
						c-0.701,1.865-1.045,3.818-1.097,5.738c-0.049,1.91,0.233,3.828,0.886,5.424c0.334,0.787,0.762,1.484,1.256,1.955
						c0.217,0.258,0.553,0.322,0.803,0.763c0.127,0.207,0.221,0.478,0.289,0.817C137.224,172.356,137.39,172.811,137.414,173.445z"
						/>
				</g>
				<g>
					<path fill="#FFFFFF" d="M133.148,160.583c0.498,1.379,0.702,2.867,0.652,4.401c-0.082,1.529-0.512,3.147-1.482,4.581
						c-0.953,1.438-2.499,2.551-4.156,3.098c-1.667,0.553-3.401,0.601-5.017,0.354c-3.239-0.527-6.095-2.189-8.207-4.48
						c-2.093-2.27-3.445-5.408-3.02-8.357c1.255,2.646,3.066,4.551,5.13,6.025c2.06,1.461,4.401,2.481,6.719,2.863
						c2.328,0.362,4.523,0.025,6.126-1.488c0.813-0.75,1.476-1.805,1.998-3.012C132.432,163.353,132.767,162.011,133.148,160.583z"
						/>
				</g>
			</g>
		</g>
	</g>
	<g>
		<g>
			<g>
				<path fill="#FFFFFF" d="M102.677,148.251c1.509-1.867,3.62-3.291,6.071-4.002c1.225-0.347,2.541-0.494,3.862-0.377
					c1.313,0.111,2.656,0.519,3.805,1.127c2.441,1.277,4.135,3.543,4.949,5.938c0.815,2.406,0.88,4.943,0.25,7.262
					c-0.625-2.312-1.321-4.459-2.403-6.3c-1.052-1.836-2.485-3.34-4.173-4.233c-1.757-0.949-3.736-1.283-5.853-1.104
					C107.066,146.72,104.914,147.398,102.677,148.251z"/>
			</g>
			<g>
				<path fill="#FFFFFF" d="M160.757,143.505c-1.071-2.612-0.711-5.738,0.414-8.399c1.136-2.687,3.074-5.04,5.377-6.774
					c2.354-1.774,5.129-2.955,8.05-3.279c2.879-0.316,6.011,0.297,8.128,2.174c-2.686-0.721-5.275-0.53-7.697,0.146
					c-2.416,0.674-4.677,1.857-6.65,3.338c-2.023,1.523-3.76,3.338-5.116,5.475C161.908,138.315,160.953,140.735,160.757,143.505z"
					/>
			</g>
			<g>
				<path fill="#FFFFFF" d="M166.228,111.367c-2.645,0.76-5.619,0.586-8.322-0.536c-2.699-1.106-5.085-3.347-6.269-6.146
					c-1.238-2.812-1.214-6.052-0.2-8.784c1.01-2.742,2.887-5.049,5.227-6.497c-1.441,2.332-2.52,4.702-2.955,7.131
					c-0.451,2.413-0.238,4.836,0.678,6.949c0.918,2.146,2.518,3.947,4.596,5.256C161.052,110.07,163.531,110.874,166.228,111.367z"
					/>
			</g>
			<g>
				<path fill="#FFFFFF" d="M119.917,85.146c-0.352,1.204-1.113,2.303-2.024,3.212c-0.466,0.459-0.94,0.876-1.517,1.267
					c-0.487,0.358-1.022,0.725-1.599,1.066c-2.25,1.29-4.856,2.066-7.521,2.125c-2.653,0.074-5.392-0.527-7.691-1.932
					c-2.303-1.363-4.123-3.588-4.718-6.069c1.771,1.821,3.701,3.095,5.807,3.883c2.094,0.791,4.311,1.15,6.553,1.138
					c2.243-0.005,4.502-0.381,6.751-1.032c0.549-0.146,1.111-0.327,1.705-0.548c0.495-0.205,1.046-0.468,1.54-0.772
					C118.204,86.873,119.158,86.136,119.917,85.146z"/>
			</g>
			<g>
				<path fill="#FFFFFF" d="M140.378,84.419c-2.502,2.611-6.192,4.096-9.928,4.354c-3.743,0.287-7.647-0.613-10.905-2.69
					c-3.238-2.041-5.875-5.403-6.499-9.31c-0.335-1.942-0.132-3.896,0.515-5.696c0.671-1.773,1.763-3.335,3.163-4.468
					c-1.834,3.092-2.327,6.6-1.395,9.649c0.931,3.05,3.123,5.574,5.828,7.297c2.713,1.738,5.94,2.686,9.261,2.886
					C133.742,86.605,137.154,85.995,140.378,84.419z"/>
			</g>
			<g>
				<path fill="#FFFFFF" d="M152.111,97.493c-3.066,0.392-6.436-0.425-9.066-2.519c-1.334-1.031-2.412-2.368-3.193-3.941
					c-0.745-1.494-1.167-3.241-1.207-4.944c-0.083-3.444,1.283-6.744,3.395-9.213c2.082-2.486,4.942-4.275,7.955-4.977
					c-2.49,1.852-4.558,3.935-6.064,6.359c-1.473,2.41-2.35,5.104-2.286,7.76c0.028,1.334,0.288,2.608,0.81,3.876
					c0.483,1.188,1.235,2.351,2.159,3.353C146.498,95.254,149.143,96.642,152.111,97.493z"/>
			</g>
			<g>
				<path fill="#FFFFFF" d="M120.929,154.925c0.014-2.979,1.371-5.934,3.366-8.268c2.018-2.345,4.708-4.107,7.656-5.104
					c2.946-0.997,6.192-1.215,9.219-0.463c3,0.744,5.836,2.518,7.332,5.104c-2.418-1.691-5.067-2.543-7.736-2.777
					c-2.668-0.24-5.34,0.139-7.855,0.979c-2.52,0.852-4.891,2.166-6.946,3.916C123.902,150.066,122.171,152.253,120.929,154.925z"/>
			</g>
			<g>
				<path fill="#FFFFFF" d="M134.203,141.77c1.174-2.908,2.18-5.823,4.051-8.55c0.465-0.68,0.984-1.344,1.601-1.945
					c0.306-0.303,0.624-0.602,0.976-0.867l0.506-0.377l0.535-0.365c1.426-0.92,3.004-1.588,4.656-1.99
					c3.281-0.807,6.982-0.438,9.909,1.363c2.958,1.748,4.876,4.723,5.583,7.772c-1.854-2.541-4.062-4.622-6.654-5.692
					c-2.582-1.068-5.436-1.177-8.14-0.525c-1.354,0.316-2.667,0.832-3.89,1.504l-0.444,0.255l-0.446,0.282
					c-0.277,0.183-0.553,0.381-0.82,0.596c-0.531,0.434-1.051,0.919-1.549,1.447C138.093,136.805,136.421,139.518,134.203,141.77z"
					/>
			</g>
		</g>
		<polygon fill="#FFFFFF" points="129.132,178.039 135.058,173.953 131.718,168.055 125.132,173.68 		"/>
		<polygon fill="#FFFFFF" points="121.547,152.059 117.692,145.16 125.095,144.066 		"/>
	</g>
	<g>
		<g>
			<path fill="none" stroke="#FFFFFF" stroke-width="3" stroke-miterlimit="10" d="M123.831,146.05
				c1.509-1.565,3.362-2.924,5.524-3.928c1.518-0.705,3.072-1.186,4.615-1.459c2.523-3.656,4.425-8.395,7.902-10.852
				c3.733-2.637,9.203-3.732,13.84-1.52c2.135-4.365,3.338-9.271,3.338-14.457c0-0.57-0.016-1.137-0.043-1.699
				c-3.096-1.098-5.635-3.193-7.002-6.141c-1.109-2.388-1.289-5.001-0.707-7.541c-4.686-0.456-8.748-2.898-10.623-6.934
				c-0.883-1.902-1.166-3.948-0.957-5.986c-3.034,2.166-7.092,3.344-11.453,3.02c-2.693-0.2-5.186-0.952-7.332-2.106
				c-1.53,1.624-3.428,3.031-5.652,4.062c-4.497,2.088-9.309,2.229-13.193,0.758c-5.545,5.897-8.949,13.831-8.949,22.564
				c0,16.516,12.149,30.191,27.998,32.582C122.053,146.285,122.955,146.166,123.831,146.05z"/>
		</g>
	</g>
	<path fill="#FFFFFF" d="M159.007,112.137c-3.094-1.099-5.633-3.193-7.002-6.141c-1.108-2.388-1.289-5.001-0.705-7.541
		c-4.686-0.456-8.75-2.898-10.623-6.934c-0.883-1.902-1.168-3.948-0.959-5.986c-3.033,2.166-7.092,3.344-11.452,3.02
		c-2.693-0.2-5.186-0.952-7.332-2.106c-1.53,1.624-3.428,3.031-5.652,4.063c-4.497,2.088-9.309,2.229-13.193,0.758
		c-5.545,5.897-8.949,13.831-8.949,22.565c0,16.515,12.149,30.19,27.998,32.582c0.916-0.133,1.818-0.252,2.694-0.367
		c1.509-1.566,3.362-2.926,5.524-3.93c1.519-0.705,3.072-1.185,4.615-1.459c2.522-3.654,4.425-8.394,7.903-10.851
		c3.732-2.638,9.201-3.731,13.838-1.519c2.136-4.367,3.338-9.271,3.338-14.459C159.05,113.266,159.035,112.699,159.007,112.137z
		 M122.318,128.05c-7.503,0-13.586-6.082-13.586-13.586c0-1.498,0.252-2.934,0.699-4.28c1.156,2.104,3.394,3.532,5.965,3.532
		c3.757,0,6.803-3.046,6.803-6.802c0-2.358-1.199-4.435-3.021-5.655c1.011-0.239,2.059-0.379,3.141-0.379
		c7.505,0,13.587,6.083,13.587,13.584C135.905,121.968,129.822,128.05,122.318,128.05z"/>
</g>
</svg>
