<?xml version="1.0" encoding="utf-8"?>
<!-- Generator: Adobe Illustrator 15.0.0, SVG Export Plug-In . SVG Version: 6.00 Build 0)  -->
<!DOCTYPE svg PUBLIC "-//W3C//DTD SVG 1.1//EN" "http://www.w3.org/Graphics/SVG/1.1/DTD/svg11.dtd">
<svg version="1.1" id="Capa_1" xmlns="http://www.w3.org/2000/svg" xmlns:xlink="http://www.w3.org/1999/xlink" x="0px" y="0px"
	 width="512px" height="512px" viewBox="0 0 512 512" enable-background="new 0 0 512 512" xml:space="preserve">
<g>
	<g>
		<path fill="#666666" d="M21.943,113.371h468.114c12.069,0,21.943-9.875,21.943-21.943c0-12.069-9.874-21.943-21.943-21.943H21.943
			C9.875,69.485,0,79.359,0,91.428C0,103.497,9.875,113.371,21.943,113.371z"/>
		<path fill="#666666" d="M21.943,277.942h468.114c12.069,0,21.943-9.874,21.943-21.943s-9.874-21.943-21.943-21.943H21.943
			C9.875,234.057,0,243.931,0,256S9.875,277.942,21.943,277.942z"/>
		<path fill="#666666" d="M21.943,442.514h468.114c12.069,0,21.943-9.874,21.943-21.943c0-12.068-9.874-21.942-21.943-21.942H21.943
			C9.875,398.628,0,408.502,0,420.57C0,432.64,9.875,442.514,21.943,442.514z"/>
	</g>
</g>
</svg>
