<?xml version="1.0" encoding="utf-8"?>
<!-- Generator: Adobe Illustrator 15.0.0, SVG Export Plug-In . SVG Version: 6.00 Build 0)  -->
<!DOCTYPE svg PUBLIC "-//W3C//DTD SVG 1.1//EN" "http://www.w3.org/Graphics/SVG/1.1/DTD/svg11.dtd">
<svg version="1.1" id="Capa_1" xmlns="http://www.w3.org/2000/svg" xmlns:xlink="http://www.w3.org/1999/xlink" x="0px" y="0px"
	 width="512px" height="512px" viewBox="0 0 512 512" enable-background="new 0 0 512 512" xml:space="preserve">
<g>
	<g>
		<path fill="#666666" d="M256,0C114.624,0,0,114.624,0,256s114.624,256,256,256s256-114.624,256-256C512,114.592,397.376,0,256,0z
			 M351.969,236.799h-76.768v70.272c0,17.824-0.256,28.063,1.631,33.12c1.92,5.023,6.561,10.239,11.682,13.248
			c6.815,4.096,14.559,6.111,23.327,6.111c15.552,0,24.735-2.048,40.128-12.191v46.24c-13.121,6.176-24.576,9.791-35.201,12.287
			c-10.656,2.464-22.143,3.712-34.527,3.712c-14.049,0-22.336-1.76-33.12-5.312c-10.784-3.521-20-8.641-27.616-15.168
			c-7.648-6.561-12.896-13.568-15.872-20.961c-2.944-7.393-4.416-18.08-4.416-32.159V228.287h-41.184v-43.52
			c12.064-3.903,25.568-9.536,34.144-16.863c8.607-7.328,15.521-16.097,20.736-26.368c5.185-10.208,8.768-23.296,10.752-39.136
			h49.536v76.8h76.768C351.969,179.2,351.969,236.799,351.969,236.799z"/>
	</g>
</g>
</svg>
